<?xml version="1.0" encoding="utf-8"?>
<!-- Generator: Adobe Illustrator 27.5.0, SVG Export Plug-In . SVG Version: 6.00 Build 0)  -->
<svg version="1.1" id="PRINT" xmlns="http://www.w3.org/2000/svg" xmlns:xlink="http://www.w3.org/1999/xlink" x="0px" y="0px"
	 viewBox="0 0 841.89 595.276" style="enable-background:new 0 0 841.89 595.276;" xml:space="preserve">
<g>
	
		<rect x="115.437" y="-130.127" transform="matrix(-1.836970e-16 1 -1 -1.836970e-16 719.2166 -122.6228)" style="fill:#FFFFFF;" width="610.966" height="856.847"/>
	<g>
		<g>
			
				<text transform="matrix(1.0173 0 0 1 313.1085 170.2457)" style="fill:#A57533; font-family:'Montserrat-SemiBold'; font-size:19.6067px; letter-spacing:0.983;">OF ACHIEVEMENT</text>
		</g>
		<g>
			<rect x="199.047" y="394.213" style="fill:none;" width="444.847" height="55.803"/>
			<text transform="matrix(0.9725 0 0 1 209.5777 401.8702)"><tspan x="0" y="0" style="fill:#949494; font-family:'Montserrat-SemiBold'; font-size:10.3197px;">Lorem ipsum dolor sit amet, consectetuer adipiscing elit, sed diam nonummy </tspan><tspan x="-2.296" y="15.813" style="fill:#949494; font-family:'Montserrat-SemiBold'; font-size:10.3197px;">nibh euismod tincidunt ut laoreet dolore magna aliquam erat volutpat. Ut wisi </tspan><tspan x="151.753" y="31.625" style="fill:#949494; font-family:'Montserrat-SemiBold'; font-size:10.3197px;">enim ad minim veniam.</tspan></text>
		</g>
		<g>
			<g>
				
					<text transform="matrix(1.0515 0 0 1 249.064 242.8341)" style="fill:#7A7A7A; font-family:'Montserrat-SemiBold'; font-size:9.9863px; letter-spacing:1.902;">THIS CERTIFICATE IS PROUDLY PRESENTED TO:</text>
				
					<text transform="matrix(1.0515 0 0 1 249.064 242.8341)" style="fill:#606060; font-family:'Montserrat-SemiBold'; font-size:9.9863px; letter-spacing:1.902;">THIS CERTIFICATE IS PROUDLY PRESENTED TO:</text>
			</g>
		</g>
		<g>
			
				<text transform="matrix(0.9725 0 0 1 265.1089 322.002)" style="fill:#232222; font-family:'GreatVibes-Regular'; font-size:73.8933px;">John Smith</text>
			
				<text transform="matrix(0.9725 0 0 1 265.1089 322.002)" style="fill:#4D4B4B; font-family:'GreatVibes-Regular'; font-size:73.8933px;">John Smith</text>
		</g>
		
			<line style="fill:none;stroke:#232222;stroke-width:0.7828;stroke-linecap:round;stroke-linejoin:round;stroke-miterlimit:10;" x1="223.654" y1="328.535" x2="619.286" y2="328.535"/>
		<g>
			
				<text transform="matrix(1.0515 0 0 1 248.0845 366.881)" style="fill:#A57533; font-family:'Montserrat-SemiBold'; font-size:11.1135px; letter-spacing:0.951;">LOREM IPSUM DOLOR SIT AMET, CONSECTETUER</text>
		</g>
		
			<text transform="matrix(0.9725 0 0 1 311.1104 123.8863)" style="fill:#4D4B4B; font-family:'GreatVibes-Regular'; font-size:73.3827px;">Certificate</text>
	</g>
	<g>
		<g>
			<g>
				
					<text transform="matrix(1.0515 0 0 1 552.9507 525.5333)" style="fill:#7A7A7A; font-family:'Montserrat-SemiBold'; font-size:9.9863px; letter-spacing:1.902;">DATE</text>
			</g>
			<g>
				
					<text transform="matrix(1.0515 0 0 1 189.7935 525.5333)" style="fill:#7A7A7A; font-family:'Montserrat-SemiBold'; font-size:9.9863px; letter-spacing:1.902;">PRESIDENT&apos;S SIGNATURE</text>
			</g>
		</g>
	</g>
	<g>
		
			<line style="fill:none;stroke:#7A7A7A;stroke-width:0.7828;stroke-miterlimit:10;" x1="176.119" y1="507.617" x2="383.861" y2="507.617"/>
		
			<line style="fill:none;stroke:#7A7A7A;stroke-width:0.7828;stroke-miterlimit:10;" x1="459.079" y1="507.617" x2="666.822" y2="507.617"/>
	</g>
	<g>
		<defs>
			
				<rect id="SVGID_1_" x="115.475" y="-131.432" transform="matrix(-1.836970e-16 1 -1 -1.836970e-16 718.9614 -123.9788)" width="611.991" height="857.847"/>
		</defs>
		<clipPath id="SVGID_00000123425505259650373180000013413203988275519623_">
			<use xlink:href="#SVGID_1_"  style="overflow:visible;"/>
		</clipPath>
		<g style="clip-path:url(#SVGID_00000123425505259650373180000013413203988275519623_);">
			
				<linearGradient id="SVGID_00000158018018609746789110000000478208050978094220_" gradientUnits="userSpaceOnUse" x1="571.0487" y1="-22.8476" x2="815.6036" y2="-22.8476">
				<stop  offset="0" style="stop-color:#A6A28D"/>
				<stop  offset="1" style="stop-color:#F3F0DE"/>
			</linearGradient>
			<path style="fill:url(#SVGID_00000158018018609746789110000000478208050978094220_);" d="M571.049-18.787
				c3.788-1.969,7.576-3.939,11.364-5.908c-0.552-0.737-1.102-1.477-1.655-2.213L571.049-18.787z"/>
		</g>
		<g style="clip-path:url(#SVGID_00000123425505259650373180000013413203988275519623_);">
			
				<linearGradient id="SVGID_00000091737525967390246660000002538855600243494309_" gradientUnits="userSpaceOnUse" x1="571.0486" y1="219.4302" x2="815.6036" y2="219.4302">
				<stop  offset="0" style="stop-color:#A6A28D"/>
				<stop  offset="1" style="stop-color:#F3F0DE"/>
			</linearGradient>
			<path style="fill:url(#SVGID_00000091737525967390246660000002538855600243494309_);" d="M790.493-41.735H615.187
				c-10.925,5.68-21.85,11.36-32.774,17.04c53.982,72.024,103.096,149.185,132.461,234.936
				c29.665,86.629,38.006,183.193,9.855,270.355C793.54,356.384,824.833,210.546,813.24,68.091
				C810.199,30.721,803.997-7.139,790.493-41.735z"/>
		</g>
		<g style="clip-path:url(#SVGID_00000123425505259650373180000013413203988275519623_);">
			
				<linearGradient id="SVGID_00000170992326813202673800000014772766857335464619_" gradientUnits="userSpaceOnUse" x1="239.8953" y1="287.2168" x2="449.6859" y2="287.2168" gradientTransform="matrix(-1 0.0059 -0.0059 -1 502.0796 691.7339)">
				<stop  offset="0" style="stop-color:#A6A28D"/>
				<stop  offset="1" style="stop-color:#F3F0DE"/>
			</linearGradient>
			<path style="fill:url(#SVGID_00000170992326813202673800000014772766857335464619_);" d="M62.652,612.952h174.817
				c-40.829-55.889-77.263-115.579-100.172-181.249c-25.873-74.167-33.5-156.968-9.775-231.89
				C69.093,306.732,42.959,432.01,53.6,554.164C55.316,573.859,58.065,593.704,62.652,612.952z"/>
		</g>
		<g style="clip-path:url(#SVGID_00000123425505259650373180000013413203988275519623_);">
			
				<linearGradient id="SVGID_00000084489126615051468570000001104496660046216883_" gradientUnits="userSpaceOnUse" x1="204.1484" y1="23.2398" x2="-42.9459" y2="540.9163">
				<stop  offset="0" style="stop-color:#A9703A"/>
				<stop  offset="0.138" style="stop-color:#CC985F"/>
				<stop  offset="0.2263" style="stop-color:#E5B479"/>
				<stop  offset="0.323" style="stop-color:#C39B66"/>
				<stop  offset="0.3939" style="stop-color:#A78756"/>
				<stop  offset="0.5399" style="stop-color:#B2864F"/>
				<stop  offset="0.5913" style="stop-color:#B7864B"/>
				<stop  offset="0.6221" style="stop-color:#C08E53"/>
				<stop  offset="0.7241" style="stop-color:#DAA36A"/>
				<stop  offset="0.7849" style="stop-color:#E4AB73"/>
				<stop  offset="0.8341" style="stop-color:#C99059"/>
				<stop  offset="0.8972" style="stop-color:#AE753E"/>
				<stop  offset="0.9527" style="stop-color:#9D642E"/>
				<stop  offset="0.9944" style="stop-color:#975E28"/>
			</linearGradient>
			<path style="fill:url(#SVGID_00000084489126615051468570000001104496660046216883_);" d="M229.921,67.927
				c-95.388,30.511-177.339,99.552-231.299,186c-18.306,29.327-33.47,60.557-45.626,93.028v265.997h68.598
				c-9.438-58.084-13.172-116.581-5.292-174.815C35.919,293.161,125.613,167.526,229.921,67.927z"/>
		</g>
		
			<linearGradient id="SVGID_00000073718546290802334360000010276682824216018611_" gradientUnits="userSpaceOnUse" x1="-36.7675" y1="104.9638" x2="235.8124" y2="104.9638">
			<stop  offset="0" style="stop-color:#A9703A"/>
			<stop  offset="0.138" style="stop-color:#CC985F"/>
			<stop  offset="0.2263" style="stop-color:#E5B479"/>
			<stop  offset="0.323" style="stop-color:#C39B66"/>
			<stop  offset="0.3939" style="stop-color:#A78756"/>
			<stop  offset="0.5399" style="stop-color:#B2864F"/>
			<stop  offset="0.5913" style="stop-color:#B7864B"/>
			<stop  offset="0.6221" style="stop-color:#C08E53"/>
			<stop  offset="0.7241" style="stop-color:#DAA36A"/>
			<stop  offset="0.7849" style="stop-color:#E4AB73"/>
			<stop  offset="0.8341" style="stop-color:#C99059"/>
			<stop  offset="0.8972" style="stop-color:#AE753E"/>
			<stop  offset="0.9527" style="stop-color:#9D642E"/>
			<stop  offset="0.9944" style="stop-color:#975E28"/>
		</linearGradient>
		
			<path style="clip-path:url(#SVGID_00000123425505259650373180000013413203988275519623_);fill:none;stroke:url(#SVGID_00000073718546290802334360000010276682824216018611_);stroke-width:0.7828;stroke-miterlimit:10;" d="
			M235.666,14.847C195.512,31.013,156.24,49.622,118.697,71.47c-36.646,21.326-71.581,45.791-103.804,73.69
			c-18.051,15.629-35.228,32.319-51.371,50.019"/>
		
			<linearGradient id="SVGID_00000124863711968939802980000011780644464971277489_" gradientUnits="userSpaceOnUse" x1="-36.3174" y1="68.7305" x2="235.7205" y2="68.7305">
			<stop  offset="0" style="stop-color:#A9703A"/>
			<stop  offset="0.138" style="stop-color:#CC985F"/>
			<stop  offset="0.2263" style="stop-color:#E5B479"/>
			<stop  offset="0.323" style="stop-color:#C39B66"/>
			<stop  offset="0.3939" style="stop-color:#A78756"/>
			<stop  offset="0.5399" style="stop-color:#B2864F"/>
			<stop  offset="0.5913" style="stop-color:#B7864B"/>
			<stop  offset="0.6221" style="stop-color:#C08E53"/>
			<stop  offset="0.7241" style="stop-color:#DAA36A"/>
			<stop  offset="0.7849" style="stop-color:#E4AB73"/>
			<stop  offset="0.8341" style="stop-color:#C99059"/>
			<stop  offset="0.8972" style="stop-color:#AE753E"/>
			<stop  offset="0.9527" style="stop-color:#9D642E"/>
			<stop  offset="0.9944" style="stop-color:#975E28"/>
		</linearGradient>
		
			<path style="clip-path:url(#SVGID_00000123425505259650373180000013413203988275519623_);fill:none;stroke:url(#SVGID_00000124863711968939802980000011780644464971277489_);stroke-width:0.7828;stroke-miterlimit:10;" d="
			M-36.086,122.686c80.837-59.36,175.017-94.289,271.752-107.839"/>
		<g style="clip-path:url(#SVGID_00000123425505259650373180000013413203988275519623_);">
			
				<linearGradient id="SVGID_00000173125426855440082260000007800652264376998058_" gradientUnits="userSpaceOnUse" x1="282.3883" y1="167.1863" x2="-556.9605" y2="1114.2642">
				<stop  offset="0" style="stop-color:#D39A60"/>
				<stop  offset="0.0893" style="stop-color:#E3BE88"/>
				<stop  offset="0.2263" style="stop-color:#FFFBCD"/>
				<stop  offset="0.3068" style="stop-color:#EDDCAB"/>
				<stop  offset="0.3939" style="stop-color:#D7B681"/>
				<stop  offset="0.5332" style="stop-color:#DEB276"/>
				<stop  offset="0.5913" style="stop-color:#E2B070"/>
				<stop  offset="0.631" style="stop-color:#E7BB7D"/>
				<stop  offset="0.7239" style="stop-color:#F0CF97"/>
				<stop  offset="0.7793" style="stop-color:#F4D7A1"/>
				<stop  offset="0.7811" style="stop-color:#F3D6A0"/>
				<stop  offset="0.845" style="stop-color:#E2B57A"/>
				<stop  offset="0.9039" style="stop-color:#D59D5E"/>
				<stop  offset="0.9556" style="stop-color:#CD8E4D"/>
				<stop  offset="0.9944" style="stop-color:#CA8947"/>
			</linearGradient>
			<path style="fill:url(#SVGID_00000173125426855440082260000007800652264376998058_);" d="M-32.972,612.952H67.245
				c-13.497-44.356-20.658-90.121-21.001-137.456c-1.061-146.368,54.204-290.972,183.829-408.069
				C140.003,111.857,68.67,192.403,27.489,285.992c-41.181,93.59-53.112,199.443-41.036,301.414l-28.318,5.845
				C-39.111,599.919-36.127,606.481-32.972,612.952z"/>
		</g>
		<g style="clip-path:url(#SVGID_00000123425505259650373180000013413203988275519623_);">
			
				<linearGradient id="SVGID_00000005983817283961057450000005614356972619282618_" gradientUnits="userSpaceOnUse" x1="421.1724" y1="31.8361" x2="-131.0305" y2="773.7698">
				<stop  offset="0" style="stop-color:#A9703A"/>
				<stop  offset="0.138" style="stop-color:#CC985F"/>
				<stop  offset="0.2263" style="stop-color:#E5B479"/>
				<stop  offset="0.323" style="stop-color:#C39B66"/>
				<stop  offset="0.3939" style="stop-color:#A78756"/>
				<stop  offset="0.5399" style="stop-color:#B2864F"/>
				<stop  offset="0.5913" style="stop-color:#B7864B"/>
				<stop  offset="0.6221" style="stop-color:#C08E53"/>
				<stop  offset="0.7241" style="stop-color:#DAA36A"/>
				<stop  offset="0.7849" style="stop-color:#E4AB73"/>
				<stop  offset="0.8341" style="stop-color:#C99059"/>
				<stop  offset="0.8972" style="stop-color:#AE753E"/>
				<stop  offset="0.9527" style="stop-color:#9D642E"/>
				<stop  offset="0.9944" style="stop-color:#975E28"/>
			</linearGradient>
			<path style="fill:url(#SVGID_00000005983817283961057450000005614356972619282618_);" d="M78.744,612.952h57.069
				c-46.55-95.977-64.909-209.386-43.497-336.98C49.369,368.719,43.061,477.467,68.182,576.89
				C71.256,589.057,74.79,601.082,78.744,612.952z"/>
		</g>
		<g style="clip-path:url(#SVGID_00000123425505259650373180000013413203988275519623_);">
			
				<radialGradient id="SVGID_00000157267041221522415030000009093975886350551982_" cx="-0.9475" cy="322.0778" r="59.1524" gradientTransform="matrix(1.5422 0.0754 -0.0733 1.5859 32.2221 -26.7608)" gradientUnits="userSpaceOnUse">
				<stop  offset="0" style="stop-color:#455058"/>
				<stop  offset="1" style="stop-color:#1E3240"/>
			</radialGradient>
			<path style="fill:url(#SVGID_00000157267041221522415030000009093975886350551982_);" d="M27.118,612.952
				C7.854,534.514,5.984,447.888,26.116,354.601C-14.7,432.933-28.658,524.563-18.412,612.952H27.118z"/>
		</g>
		<g style="clip-path:url(#SVGID_00000123425505259650373180000013413203988275519623_);">
			
				<radialGradient id="SVGID_00000053512212075916186390000006768658449418319498_" cx="913.4153" cy="608.3208" r="175.4638" gradientTransform="matrix(-1.5439 0 0 -1.5876 2201.3943 1236.024)" gradientUnits="userSpaceOnUse">
				<stop  offset="0" style="stop-color:#455058"/>
				<stop  offset="1" style="stop-color:#1E3240"/>
			</radialGradient>
			<path style="fill:url(#SVGID_00000053512212075916186390000006768658449418319498_);" d="M879.048-12.127
				c-9.522-10.467-19.629-20.367-30.276-29.607H802.13c24.525,96.562,44.287,195.635,30.982,293.957
				c-19,140.414-103.736,262.685-203.817,360.73H645.7c84.155-34.003,156.141-98.097,205.092-176.52
				c10.433-16.714,19.836-34.051,28.256-51.877V-12.127z"/>
		</g>
		<g style="clip-path:url(#SVGID_00000123425505259650373180000013413203988275519623_);">
			
				<radialGradient id="SVGID_00000181799092250085012970000017444484996575972236_" cx="446.0412" cy="289.3578" r="151.4181" gradientTransform="matrix(1.5439 0 0 1.5876 -8.5077 -8.4654)" gradientUnits="userSpaceOnUse">
				<stop  offset="0" style="stop-color:#788691"/>
				<stop  offset="1" style="stop-color:#1E3240"/>
			</radialGradient>
			<path style="fill:url(#SVGID_00000181799092250085012970000017444484996575972236_);" d="M879.048,99.632V70.764
				c-22.224-43.242-53.202-81.672-90.162-112.499h-59.895c47.763,80.473,73.519,165.643,74.179,256.597
				c1.031,142.239-51.138,282.808-173.043,398.09h8.026c81.184-45.927,145.503-121.615,183.772-208.586
				c41.182-93.589,53.112-199.443,41.036-301.414L879.048,99.632z"/>
		</g>
		
			<linearGradient id="SVGID_00000035497997064992749670000009420611521317961146_" gradientUnits="userSpaceOnUse" x1="649.8047" y1="422.7797" x2="869.0125" y2="422.7797">
			<stop  offset="0" style="stop-color:#A9703A"/>
			<stop  offset="0.138" style="stop-color:#CC985F"/>
			<stop  offset="0.2263" style="stop-color:#E5B479"/>
			<stop  offset="0.323" style="stop-color:#C39B66"/>
			<stop  offset="0.3939" style="stop-color:#A78756"/>
			<stop  offset="0.5399" style="stop-color:#B2864F"/>
			<stop  offset="0.5913" style="stop-color:#B7864B"/>
			<stop  offset="0.6221" style="stop-color:#C08E53"/>
			<stop  offset="0.7241" style="stop-color:#DAA36A"/>
			<stop  offset="0.7849" style="stop-color:#E4AB73"/>
			<stop  offset="0.8341" style="stop-color:#C99059"/>
			<stop  offset="0.8972" style="stop-color:#AE753E"/>
			<stop  offset="0.9527" style="stop-color:#9D642E"/>
			<stop  offset="0.9944" style="stop-color:#975E28"/>
		</linearGradient>
		
			<path style="clip-path:url(#SVGID_00000123425505259650373180000013413203988275519623_);fill:none;stroke:url(#SVGID_00000035497997064992749670000009420611521317961146_);stroke-width:0.7828;stroke-miterlimit:10;" d="
			M650.056,601.931c41.516-34.673,78.077-75.423,109.118-120.174c31.701-45.702,57.692-95.453,78.521-147.305
			c11.931-29.701,22.309-60.132,30.941-91.019"/>
		
			<linearGradient id="SVGID_00000173148697261056761230000011450961795212932993_" gradientUnits="userSpaceOnUse" x1="728.4643" y1="527.3746" x2="868.903" y2="527.3746">
			<stop  offset="0" style="stop-color:#A9703A"/>
			<stop  offset="0.138" style="stop-color:#CC985F"/>
			<stop  offset="0.2263" style="stop-color:#E5B479"/>
			<stop  offset="0.323" style="stop-color:#C39B66"/>
			<stop  offset="0.3939" style="stop-color:#A78756"/>
			<stop  offset="0.5399" style="stop-color:#B2864F"/>
			<stop  offset="0.5913" style="stop-color:#B7864B"/>
			<stop  offset="0.6221" style="stop-color:#C08E53"/>
			<stop  offset="0.7241" style="stop-color:#DAA36A"/>
			<stop  offset="0.7849" style="stop-color:#E4AB73"/>
			<stop  offset="0.8341" style="stop-color:#C99059"/>
			<stop  offset="0.8972" style="stop-color:#AE753E"/>
			<stop  offset="0.9527" style="stop-color:#9D642E"/>
			<stop  offset="0.9944" style="stop-color:#975E28"/>
		</linearGradient>
		
			<path style="clip-path:url(#SVGID_00000123425505259650373180000013413203988275519623_);fill:none;stroke:url(#SVGID_00000173148697261056761230000011450961795212932993_);stroke-width:0.7828;stroke-miterlimit:10;" d="
			M868.581,452.449c-30.455,44.265-65.693,85.094-105.37,120.84c-11.164,10.058-22.673,19.711-34.506,28.925"/>
		<g style="clip-path:url(#SVGID_00000123425505259650373180000013413203988275519623_);">
			
				<radialGradient id="SVGID_00000056399011086638637660000006504161198248943488_" cx="1047.9647" cy="714.892" r="170.1638" gradientTransform="matrix(-1.5439 0 0 -1.5876 2201.3943 1236.024)" gradientUnits="userSpaceOnUse">
				<stop  offset="0" style="stop-color:#455058"/>
				<stop  offset="1" style="stop-color:#1E3240"/>
			</radialGradient>
			<path style="fill:url(#SVGID_00000056399011086638637660000006504161198248943488_);" d="M713.897-41.735H634.11
				c5.735,6.434,11.34,13.038,16.777,19.859c90.229,113.208,135.552,261.423,106.21,436.263
				c42.947-92.747,49.256-201.495,24.135-300.918C767.301,58.334,744.055,6.084,713.897-41.735z"/>
		</g>
		<g style="clip-path:url(#SVGID_00000123425505259650373180000013413203988275519623_);">
			
				<linearGradient id="SVGID_00000052792672696463602520000010565561650109388163_" gradientUnits="userSpaceOnUse" x1="624.335" y1="673.8833" x2="930.4171" y2="673.8833" gradientTransform="matrix(-0.9555 0.2951 -0.2951 -0.9555 1608.7181 503.2315)">
				<stop  offset="0" style="stop-color:#A9703A"/>
				<stop  offset="0.138" style="stop-color:#CC985F"/>
				<stop  offset="0.2263" style="stop-color:#E5B479"/>
				<stop  offset="0.323" style="stop-color:#C39B66"/>
				<stop  offset="0.3939" style="stop-color:#A78756"/>
				<stop  offset="0.5399" style="stop-color:#B2864F"/>
				<stop  offset="0.5913" style="stop-color:#B7864B"/>
				<stop  offset="0.6221" style="stop-color:#C08E53"/>
				<stop  offset="0.7241" style="stop-color:#DAA36A"/>
				<stop  offset="0.7849" style="stop-color:#E4AB73"/>
				<stop  offset="0.8341" style="stop-color:#C99059"/>
				<stop  offset="0.8972" style="stop-color:#AE753E"/>
				<stop  offset="0.9527" style="stop-color:#9D642E"/>
				<stop  offset="0.9944" style="stop-color:#975E28"/>
			</linearGradient>
			<path style="fill:url(#SVGID_00000052792672696463602520000010565561650109388163_);" d="M741.887-41.735
				c37.884,51.642,64.032,115.591,73.648,192.025c9.283-65.435-4.005-133.239-33.664-192.025H741.887z"/>
		</g>
	</g>
	<g>
		<g>
			
				<linearGradient id="SVGID_00000163774841639309315620000007260359996559893659_" gradientUnits="userSpaceOnUse" x1="672.9443" y1="70.6214" x2="797.7767" y2="293.7257">
				<stop  offset="0" style="stop-color:#D39A60"/>
				<stop  offset="0.0893" style="stop-color:#E3BE88"/>
				<stop  offset="0.2263" style="stop-color:#FFFBCD"/>
				<stop  offset="0.3068" style="stop-color:#EDDCAB"/>
				<stop  offset="0.3939" style="stop-color:#D7B681"/>
				<stop  offset="0.5332" style="stop-color:#DEB276"/>
				<stop  offset="0.5913" style="stop-color:#E2B070"/>
				<stop  offset="0.631" style="stop-color:#E7BB7D"/>
				<stop  offset="0.7239" style="stop-color:#F0CF97"/>
				<stop  offset="0.7793" style="stop-color:#F4D7A1"/>
				<stop  offset="0.7811" style="stop-color:#F3D6A0"/>
				<stop  offset="0.845" style="stop-color:#E2B57A"/>
				<stop  offset="0.9039" style="stop-color:#D59D5E"/>
				<stop  offset="0.9556" style="stop-color:#CD8E4D"/>
				<stop  offset="0.9944" style="stop-color:#CA8947"/>
			</linearGradient>
			<path style="fill:url(#SVGID_00000163774841639309315620000007260359996559893659_);" d="M775.694,118.213
				c0,6.549-10.653,11.571-12.223,17.61c-1.624,6.249,5.112,16.066,2.033,21.537c-3.123,5.55-14.786,4.437-19.167,8.941
				c-4.38,4.504-3.298,16.498-8.695,19.709c-5.32,3.165-14.866-3.762-20.943-2.091c-5.873,1.614-10.757,12.569-17.125,12.569
				s-11.252-10.955-17.125-12.569c-6.077-1.67-15.623,5.257-20.944,2.091c-5.397-3.211-4.315-15.205-8.695-19.709
				c-4.38-4.504-16.044-3.391-19.167-8.941c-3.078-5.471,3.658-15.287,2.034-21.536c-1.57-6.04-12.223-11.062-12.223-17.61
				c0-6.549,10.653-11.571,12.223-17.611c1.624-6.249-5.112-16.065-2.033-21.537c3.123-5.55,14.786-4.437,19.167-8.941
				c4.38-4.504,3.298-16.498,8.695-19.709c5.32-3.165,14.866,3.762,20.943,2.091c5.873-1.614,10.757-12.569,17.125-12.569
				s11.252,10.955,17.125,12.569c6.077,1.67,15.623-5.257,20.944-2.091c5.397,3.211,4.315,15.205,8.695,19.709
				c4.38,4.504,16.044,3.392,19.167,8.942c3.078,5.471-3.658,15.287-2.034,21.536C765.04,106.643,775.694,111.665,775.694,118.213z"
				/>
			
				<linearGradient id="SVGID_00000018194875312691501840000005699831719700124067_" gradientUnits="userSpaceOnUse" x1="712.8272" y1="76.0722" x2="683.1133" y2="170.5474">
				<stop  offset="0" style="stop-color:#D39A60"/>
				<stop  offset="0.1527" style="stop-color:#F0C088"/>
				<stop  offset="0.2263" style="stop-color:#FFD49D"/>
				<stop  offset="0.3714" style="stop-color:#DDBA85"/>
				<stop  offset="0.3939" style="stop-color:#D7B681"/>
				<stop  offset="0.5332" style="stop-color:#DEB276"/>
				<stop  offset="0.5913" style="stop-color:#E2B070"/>
				<stop  offset="0.5999" style="stop-color:#E4B272"/>
				<stop  offset="0.7158" style="stop-color:#F7C58C"/>
				<stop  offset="0.7849" style="stop-color:#FECC96"/>
				<stop  offset="0.8367" style="stop-color:#EBB479"/>
				<stop  offset="0.8987" style="stop-color:#D99C5E"/>
				<stop  offset="0.9534" style="stop-color:#CE8E4D"/>
				<stop  offset="0.9944" style="stop-color:#CA8947"/>
			</linearGradient>
			
				<ellipse style="fill:url(#SVGID_00000018194875312691501840000005699831719700124067_);" cx="699.573" cy="118.213" rx="53.848" ry="55.373"/>
			
				<radialGradient id="SVGID_00000161629165710871075120000014826931533663031720_" cx="458.7823" cy="80.0411" r="30.2897" gradientTransform="matrix(1.5439 0 0 1.5876 -8.7408 -8.8601)" gradientUnits="userSpaceOnUse">
				<stop  offset="0" style="stop-color:#455058"/>
				<stop  offset="1" style="stop-color:#1E3240"/>
			</radialGradient>
			
				<ellipse style="fill:url(#SVGID_00000161629165710871075120000014826931533663031720_);" cx="699.573" cy="118.213" rx="46.764" ry="48.088"/>
		</g>
		<g>
			
				<text transform="matrix(0.9725 0 0 1 684.065 107.9025)" style="fill:#EFC68E; font-family:'BebasNeue-Regular'; font-size:21.0819px;">Best</text>
			
				<text transform="matrix(0.9725 0 0 1 673.2105 140.9845)" style="fill:#EFC68E; font-family:'BebasNeue-Regular'; font-size:21.0819px;">QUALITY</text>
			
				<text transform="matrix(0.9725 0 0 1 678.7213 123.8873)" style="fill:#EFC68E; font-family:'BebasNeue-Regular'; font-size:21.0819px;">BRAND</text>
		</g>
		
			<linearGradient id="SVGID_00000007385934817955472370000011522170853492065971_" gradientUnits="userSpaceOnUse" x1="655.4476" y1="118.2132" x2="743.6987" y2="118.2132">
			<stop  offset="0" style="stop-color:#D39A60"/>
			<stop  offset="0.1527" style="stop-color:#F0C088"/>
			<stop  offset="0.2263" style="stop-color:#FFD49D"/>
			<stop  offset="0.3714" style="stop-color:#DDBA85"/>
			<stop  offset="0.3939" style="stop-color:#D7B681"/>
			<stop  offset="0.5332" style="stop-color:#DEB276"/>
			<stop  offset="0.5913" style="stop-color:#E2B070"/>
			<stop  offset="0.5999" style="stop-color:#E4B272"/>
			<stop  offset="0.7158" style="stop-color:#F7C58C"/>
			<stop  offset="0.7849" style="stop-color:#FECC96"/>
			<stop  offset="0.8367" style="stop-color:#EBB479"/>
			<stop  offset="0.8987" style="stop-color:#D99C5E"/>
			<stop  offset="0.9534" style="stop-color:#CE8E4D"/>
			<stop  offset="0.9944" style="stop-color:#CA8947"/>
		</linearGradient>
		
			<ellipse style="fill:none;stroke:url(#SVGID_00000007385934817955472370000011522170853492065971_);stroke-width:1.4771;stroke-miterlimit:10;" cx="699.573" cy="118.213" rx="43.387" ry="44.615"/>
		
			<linearGradient id="SVGID_00000015313050055064858970000000807736572548848774_" gradientUnits="userSpaceOnUse" x1="695.4515" y1="83.683" x2="703.6949" y2="83.683">
			<stop  offset="0" style="stop-color:#D39A60"/>
			<stop  offset="0.1527" style="stop-color:#F0C088"/>
			<stop  offset="0.2263" style="stop-color:#FFD49D"/>
			<stop  offset="0.3714" style="stop-color:#DDBA85"/>
			<stop  offset="0.3939" style="stop-color:#D7B681"/>
			<stop  offset="0.5332" style="stop-color:#DEB276"/>
			<stop  offset="0.5913" style="stop-color:#E2B070"/>
			<stop  offset="0.5999" style="stop-color:#E4B272"/>
			<stop  offset="0.7158" style="stop-color:#F7C58C"/>
			<stop  offset="0.7849" style="stop-color:#FECC96"/>
			<stop  offset="0.8367" style="stop-color:#EBB479"/>
			<stop  offset="0.8987" style="stop-color:#D99C5E"/>
			<stop  offset="0.9534" style="stop-color:#CE8E4D"/>
			<stop  offset="0.9944" style="stop-color:#CA8947"/>
		</linearGradient>
		<polygon style="fill:url(#SVGID_00000015313050055064858970000000807736572548848774_);" points="699.573,79.652 700.847,82.306 
			703.695,82.731 701.634,84.797 702.121,87.714 699.573,86.337 697.026,87.714 697.512,84.797 695.451,82.731 698.299,82.306 		"/>
		
			<linearGradient id="SVGID_00000000194326326883344090000011319978813962925454_" gradientUnits="userSpaceOnUse" x1="695.4515" y1="151.0616" x2="703.6949" y2="151.0616">
			<stop  offset="0" style="stop-color:#D39A60"/>
			<stop  offset="0.1527" style="stop-color:#F0C088"/>
			<stop  offset="0.2263" style="stop-color:#FFD49D"/>
			<stop  offset="0.3714" style="stop-color:#DDBA85"/>
			<stop  offset="0.3939" style="stop-color:#D7B681"/>
			<stop  offset="0.5332" style="stop-color:#DEB276"/>
			<stop  offset="0.5913" style="stop-color:#E2B070"/>
			<stop  offset="0.5999" style="stop-color:#E4B272"/>
			<stop  offset="0.7158" style="stop-color:#F7C58C"/>
			<stop  offset="0.7849" style="stop-color:#FECC96"/>
			<stop  offset="0.8367" style="stop-color:#EBB479"/>
			<stop  offset="0.8987" style="stop-color:#D99C5E"/>
			<stop  offset="0.9534" style="stop-color:#CE8E4D"/>
			<stop  offset="0.9944" style="stop-color:#CA8947"/>
		</linearGradient>
		<polygon style="fill:url(#SVGID_00000000194326326883344090000011319978813962925454_);" points="699.573,147.031 
			700.847,149.684 703.695,150.11 701.634,152.176 702.121,155.093 699.573,153.715 697.026,155.093 697.512,152.176 
			695.451,150.11 698.299,149.684 		"/>
		
			<linearGradient id="SVGID_00000005238271226043402050000017675738353314310312_" gradientUnits="userSpaceOnUse" x1="729.5074" y1="114.1823" x2="737.7509" y2="114.1823">
			<stop  offset="0" style="stop-color:#D39A60"/>
			<stop  offset="0.1527" style="stop-color:#F0C088"/>
			<stop  offset="0.2263" style="stop-color:#FFD49D"/>
			<stop  offset="0.3714" style="stop-color:#DDBA85"/>
			<stop  offset="0.3939" style="stop-color:#D7B681"/>
			<stop  offset="0.5332" style="stop-color:#DEB276"/>
			<stop  offset="0.5913" style="stop-color:#E2B070"/>
			<stop  offset="0.5999" style="stop-color:#E4B272"/>
			<stop  offset="0.7158" style="stop-color:#F7C58C"/>
			<stop  offset="0.7849" style="stop-color:#FECC96"/>
			<stop  offset="0.8367" style="stop-color:#EBB479"/>
			<stop  offset="0.8987" style="stop-color:#D99C5E"/>
			<stop  offset="0.9534" style="stop-color:#CE8E4D"/>
			<stop  offset="0.9944" style="stop-color:#CA8947"/>
		</linearGradient>
		<polygon style="fill:url(#SVGID_00000005238271226043402050000017675738353314310312_);" points="733.629,110.151 
			734.903,112.805 737.751,113.231 735.69,115.296 736.177,118.213 733.629,116.836 731.082,118.213 731.568,115.296 
			729.507,113.231 732.355,112.805 		"/>
		
			<linearGradient id="SVGID_00000034797659469451692790000001452742233503319697_" gradientUnits="userSpaceOnUse" x1="661.1386" y1="114.1823" x2="669.3821" y2="114.1823">
			<stop  offset="0" style="stop-color:#D39A60"/>
			<stop  offset="0.1527" style="stop-color:#F0C088"/>
			<stop  offset="0.2263" style="stop-color:#FFD49D"/>
			<stop  offset="0.3714" style="stop-color:#DDBA85"/>
			<stop  offset="0.3939" style="stop-color:#D7B681"/>
			<stop  offset="0.5332" style="stop-color:#DEB276"/>
			<stop  offset="0.5913" style="stop-color:#E2B070"/>
			<stop  offset="0.5999" style="stop-color:#E4B272"/>
			<stop  offset="0.7158" style="stop-color:#F7C58C"/>
			<stop  offset="0.7849" style="stop-color:#FECC96"/>
			<stop  offset="0.8367" style="stop-color:#EBB479"/>
			<stop  offset="0.8987" style="stop-color:#D99C5E"/>
			<stop  offset="0.9534" style="stop-color:#CE8E4D"/>
			<stop  offset="0.9944" style="stop-color:#CA8947"/>
		</linearGradient>
		<polygon style="fill:url(#SVGID_00000034797659469451692790000001452742233503319697_);" points="665.26,110.151 666.534,112.805 
			669.382,113.231 667.321,115.296 667.808,118.213 665.26,116.836 662.713,118.213 663.199,115.296 661.139,113.231 
			663.987,112.805 		"/>
	</g>
</g>
</svg>
