<?xml version="1.0" encoding="utf-8"?>
<!-- Generator: Adobe Illustrator 27.5.0, SVG Export Plug-In . SVG Version: 6.00 Build 0)  -->
<svg version="1.1" id="PRINT" xmlns="http://www.w3.org/2000/svg" xmlns:xlink="http://www.w3.org/1999/xlink" x="0px" y="0px"
	 viewBox="0 0 841.89 595.28" style="enable-background:new 0 0 841.89 595.28;" xml:space="preserve">
<g>
	<g>
		<rect x="-14.173" y="-14.151" style="fill:#FFFFFF;" width="870.235" height="623.583"/>
		<path style="fill:#EBF2FF;" d="M856.007,136.764v47.727c-15.046-2.541-50.109-2.876-79.979-18.201
			c-58.239-29.881-83.088-77.545-166.331-85.833c-75.076-7.471-129.401,27.509-181.47,34.585
			c-55.185,7.499-111.898,14.275-163.909-16.166c0,0-100.638-85.881-278.49-9.175V-14.171l870.235,0.004v150.945L856.007,136.764z"
			/>
		<g>
			<g>
				<path style="fill:#CE2017;" d="M295.76-14.131h86.907c-2.488,10.782-8.691,27.052-23.695,48.458
					c-29.253,41.734-110.223,68.399-118.337,128.052c-7.314,53.8,26.929,92.73,33.857,130.042
					c7.341,39.546,1.681,74.026-28.122,111.296c0,0-63.144,78.282,11.95,205.732H-14.173l0.003-623.62h309.943L295.76-14.131z"/>
				<path style="fill:#AA1B1B;" d="M321.276,609.451c0,0,25.212-61.853-51.147-114.207c-89.71-61.508-66.402-133.192-52.019-210.242
					C249.35,117.706,110.706,55.768-14.165-14.171l-0.008,623.622H321.276z"/>
			</g>
			<g>
				<path style="fill:#29304A;" d="M258.179-14.171c-344.716,337.356,29.012,464.617-29.06,623.622H-14.173V-14.171H258.179z"/>
				<path style="fill:#21283D;" d="M169.273,609.451c-344.716-337.356,29.012-464.616-29.059-623.622H-14.173v623.622H169.273z"/>
			</g>
		</g>
	</g>
	<g>
		<g>
			<g>
				
					<text transform="matrix(0.9997 0 0 1 402.3105 530.1777)" style="fill:#29304A; font-family:'Poppins-Regular'; font-size:13.999px;">Date</text>
			</g>
			
				<line style="fill:none;stroke:#CE2017;stroke-width:0.9998;stroke-miterlimit:10;" x1="336.676" y1="504.948" x2="499.628" y2="504.948"/>
		</g>
		<g>
			<g>
				
					<text transform="matrix(0.9997 0 0 1 673.2959 530.1777)" style="fill:#29304A; font-family:'Poppins-Regular'; font-size:13.999px;">Signature</text>
			</g>
			
				<line style="fill:none;stroke:#CE2017;stroke-width:0.9998;stroke-miterlimit:10;" x1="621.307" y1="504.948" x2="784.26" y2="504.948"/>
		</g>
		<g>
			
				<text transform="matrix(0.9997 0 0 1 342.395 322.4922)" style="fill:#CE2017; font-family:'Anton-Regular'; font-size:59.9959px;">Jessica Evergreen</text>
			<g>
				
					<text transform="matrix(0.9997 0 0 1 336.6753 245.0747)" style="fill:#29304A; font-family:'Poppins-Regular'; font-size:13.999px;">This certificate is proudly presented to</text>
			</g>
			<g>
				
					<text transform="matrix(0.9997 0 0 1 336.6753 372.4043)" style="fill:#29304A; font-family:'Poppins-SemiBold'; font-size:17.9988px;">Lorem Ipsum Dolor Sit Amet</text>
			</g>
			<g>
				<rect x="336.675" y="397.007" style="fill:none;" width="427.683" height="35.463"/>
				<text transform="matrix(0.9997 0 0 1 336.6753 405.8867)"><tspan x="0" y="0" style="fill:#29304A; font-family:'Poppins-Regular'; font-size:12px;">Ut enim ad minim veniam, quis nostrud exercitation ullamco laboris </tspan><tspan x="0" y="18" style="fill:#29304A; font-family:'Poppins-Regular'; font-size:12px;">nisi ut aliquip ex ea commodo consequat. </tspan></text>
			</g>
		</g>
		<g>
			
				<text transform="matrix(0.9997 0 0 1 332.812 145.8057)" style="fill:#CE2017; font-family:'Anton-Regular'; font-size:41.9971px;">CERTIFICATE </text>
			<g>
				
					<text transform="matrix(0.9997 0 0 1 332.812 177.5225)" style="fill:#29304A; font-family:'Poppins-Regular'; font-size:18px; letter-spacing:3.001;">OF APPRECIATION</text>
			</g>
		</g>
	</g>
	<g>
		<g>
			<g>
				<g>
					<path style="fill:#FF5F06;" d="M268.853,475.179c0,36.047-29.216,65.272-65.251,65.272c-36.042,0-65.254-29.226-65.254-65.272
						c0-36.05,29.212-65.268,65.254-65.268C239.638,409.911,268.853,439.129,268.853,475.179z"/>
					<path style="fill:#FC7835;" d="M230.594,415.739c-8.226-3.741-17.369-5.828-26.991-5.828c-27.52,0-51.055,17.038-60.646,41.143
						C162.722,420.233,195.664,410.393,230.594,415.739z"/>
					<path style="fill:#EA4903;" d="M256.722,437.272c1.477,5.448,2.27,11.179,2.27,17.098c0,36.05-29.216,65.272-65.254,65.272
						c-21.9,0-41.287-10.799-53.121-27.361c7.514,27.755,32.865,48.172,62.986,48.172c36.035,0,65.251-29.226,65.251-65.272
						C268.853,461.039,264.356,447.957,256.722,437.272z"/>
					<path style="fill:#29304A;" d="M220.827,468.332c-8.657-8.728-18.285-15.54-28.683-20.313
						c3.005-4.761,6.178-8.655,9.281-11.837c1.634,0.506,3.365,0.964,5.199,1.364c7.04,1.551,15.575,2.328,25.519,2.328
						c7.454,0,15.702-0.439,24.704-1.308c0.231-0.029,0.436-0.111,0.617-0.233c-0.532-0.776-1.071-1.536-1.636-2.284
						c-25.435,2.411-41.8,1.03-52.288-1.935c14.67-13.736,30.033-15.556,30.263-15.585c0.448-0.043,0.815-0.309,1.013-0.68
						c-1.034-0.561-2.081-1.095-3.141-1.606c-4.828,0.92-18.149,4.464-30.956,16.984c-6.524-2.254-10.376-5.17-12.614-8.018
						c-4.618-5.867-2.675-11.711-2.584-11.965c0.093-0.266,0.089-0.543,0.016-0.797c-0.915,0.262-1.821,0.544-2.72,0.848
						c-0.498,2.164-1.196,7.829,3.202,13.462c2.756,3.529,7.019,6.373,12.703,8.495c-3.32,3.52-6.329,7.422-9.013,11.692
						c-1.118-0.474-2.25-0.935-3.388-1.364c-18.685-7.031-33.836-5.654-38.013-5.067c-0.531,0.843-1.042,1.7-1.536,2.571
						c0.262,0.151,0.572,0.216,0.895,0.158c0.164-0.032,16.969-3.09,37.881,4.821c0.919,0.348,1.854,0.719,2.806,1.119
						c-3.246,5.551-5.975,11.686-8.162,18.368c-4.33-0.916-8.581-0.38-12.669,1.61c-13.647,6.653-21.5,27.412-23.384,32.938
						c0.438,0.968,0.898,1.921,1.385,2.863c0.307-0.151,0.552-0.423,0.662-0.777c0.073-0.258,8.021-25.642,22.473-32.686
						c3.467-1.693,7.072-2.174,10.748-1.454c-5.329,17.63-7.049,38.968-5.108,63.465c0.832,0.416,1.669,0.822,2.52,1.206
						c0.094-0.197,0.143-0.419,0.122-0.651c-2.217-27.055,0.282-47.664,5.035-63.326c0.221,0.077,0.446,0.151,0.666,0.242
						c21.696,8.308,26.292,68.615,26.337,69.226c0,0.006,0.003,0.013,0.003,0.018c0.865-0.067,1.729-0.154,2.581-0.261
						c-0.229-3.132-4.884-62.563-27.994-71.413c-0.269-0.1-0.539-0.193-0.813-0.287c2.308-6.996,5.064-12.949,8.033-18.011
						c18.711,8.558,42.559,27.6,59.373,69.868c0.073,0.178,0.188,0.326,0.323,0.451c0.629-0.654,1.245-1.319,1.846-1.993
						C244.073,497.995,233.476,481.088,220.827,468.332z"/>
					<g>
						<g>
							<path style="fill:#36405B;" d="M185.521,413.244c0.093-0.266,0.089-0.54,0.016-0.792c-0.176,0.052-0.352,0.107-0.527,0.155
								c-0.6,0.184-1.201,0.367-1.792,0.56c-0.135,0.044-0.27,0.094-0.4,0.134c-0.27,1.169-0.593,3.335-0.155,5.96
								c0.829-0.29,1.657-0.567,2.499-0.829C184.761,415.512,185.468,413.395,185.521,413.244z"/>
							<path style="fill:#36405B;" d="M148.31,440.513c-0.326,0.52-0.646,1.052-0.964,1.588c-0.11,0.187-0.221,0.38-0.331,0.57
								c-0.081,0.139-0.155,0.277-0.233,0.413c0.258,0.151,0.568,0.216,0.887,0.158c0.02-0.007,0.396-0.071,1.063-0.158
								c0.808-0.987,1.633-1.948,2.47-2.881C149.972,440.304,148.996,440.42,148.31,440.513z"/>
						</g>
					</g>
					<g>
						<path style="fill:#21283D;" d="M176.94,534.065c-0.482-5.915-0.743-11.518-0.805-16.83c-0.874-0.244-1.739-0.509-2.597-0.786
							c0.045,5.502,0.294,11.189,0.76,17.062c0.004,0,0.004,0,0.009,0c0.362,0.186,0.729,0.364,1.097,0.542
							c0.082,0.038,0.16,0.08,0.241,0.119c0.286,0.135,0.577,0.271,0.866,0.399c0.103,0.052,0.204,0.094,0.307,0.139
							C176.912,534.519,176.961,534.297,176.94,534.065z"/>
						<path style="fill:#21283D;" d="M211.563,539.964c-0.085-1.188-0.81-10.476-2.94-22.033c-0.858,0.203-1.719,0.378-2.589,0.545
							c2.202,11.964,2.929,21.488,2.945,21.731c0,0.006,0.003,0.013,0.003,0.018c0.009,0,0.014,0,0.021,0
							C209.859,540.151,210.713,540.067,211.563,539.964z"/>
						<path style="fill:#2D2E36;" d="M256.737,437.311c0.106,0.401,0.203,0.805,0.299,1.205c0.154-0.04,0.293-0.097,0.416-0.184
							c-0.091-0.13-0.176-0.262-0.27-0.391C257.036,437.729,256.88,437.524,256.737,437.311z"/>
						<path style="fill:#21283D;" d="M145.532,504.962c0.299-0.151,0.544-0.426,0.654-0.777c0.017-0.059,0.465-1.496,1.33-3.754
							c-0.678-0.681-1.347-1.377-1.996-2.087c-0.612,1.561-1.074,2.852-1.376,3.745
							C144.581,503.057,145.042,504.017,145.532,504.962z"/>
						<path style="fill:#21283D;" d="M250.485,520.572c0.629-0.654,1.245-1.319,1.846-1.993c-2.979-7.434-6.273-14.375-9.846-20.822
							c-0.609,0.678-1.23,1.352-1.867,2.003c3.361,6.102,6.563,12.866,9.544,20.361C250.235,520.299,250.35,520.447,250.485,520.572
							z"/>
					</g>
				</g>
				<g>
					<g>
						<g>
							<g>
								<rect x="74.983" y="482.579" style="fill:#A64213;" width="105.962" height="47.84"/>
								<rect x="74.983" y="515.741" style="fill:#91310C;" width="105.962" height="14.678"/>
							</g>
							<rect x="65.638" y="530.419" style="fill:#A64213;" width="124.653" height="10.032"/>
						</g>
						<g>
							<rect x="90.951" y="493.264" style="fill:#FFFFFF;" width="74.025" height="26.471"/>
							<rect x="90.951" y="506.499" style="fill:#DADCE8;" width="74.025" height="13.235"/>
						</g>
					</g>
					<g>
						
							<text transform="matrix(0.9997 0 0 1 100.2534 516.2959)" style="fill:#29304A; font-family:'Anton-Regular'; font-size:22.7667px; letter-spacing:4.001;">BEST</text>
					</g>
					<g>
						<g>
							<path style="fill:#F4AA08;" d="M178.668,372.64c-4.742,0-8.603-2.745-10.475-7.538c-3.508-8.979,5.219-18.021,13.659-26.767
								c2.649-2.745,5.389-5.583,7.608-8.276l0.982-1.186c8.036-9.722,22.995-27.817,19.823-38.62
								c-1.58-5.383-6.197-7.624-9.991-7.922c-4.314-0.349-8.083,1.524-9.614,4.753c-3.26,6.865,2.579,10.521,3.255,10.917
								c1.971,1.148,2.637,3.678,1.488,5.649c-1.148,1.971-3.677,2.638-5.647,1.486c-4.554-2.653-11.786-10.586-6.557-21.596
								c3.016-6.351,9.989-10.061,17.726-9.448c8.341,0.66,14.956,5.96,17.268,13.832c4.406,15.012-11.737,34.543-21.384,46.211
								l-0.974,1.182c-2.426,2.94-5.28,5.897-8.04,8.758c-6.01,6.226-13.488,13.974-11.908,18.019c0.733,1.875,1.676,2.2,2.5,2.27
								c1.797,0.15,3.762-1.054,4.252-1.69c0.518-2.07,2.551-3.429,4.693-3.063c2.249,0.377,3.765,2.509,3.385,4.759
								c-0.754,4.461-6.159,7.729-10.734,8.202C179.538,372.616,179.1,372.64,178.668,372.64z"/>
							<path style="fill:#F4AA08;" d="M77.261,372.64c-0.431,0-0.868-0.023-1.313-0.068c-4.576-0.473-9.982-3.741-10.734-8.202
								c-0.38-2.25,1.136-4.382,3.385-4.759c2.145-0.364,4.175,0.992,4.693,3.063c0.49,0.637,2.445,1.839,4.252,1.69
								c0.825-0.069,1.768-0.395,2.5-2.27c1.58-4.045-5.898-11.793-11.908-18.019c-2.76-2.86-5.614-5.817-8.04-8.758l-0.974-1.182
								c-9.646-11.669-25.789-31.199-21.382-46.212c2.309-7.871,8.924-13.171,17.266-13.831c7.74-0.613,14.711,3.095,17.726,9.449
								c5.23,11.009-2.002,18.941-6.556,21.595c-1.971,1.15-4.499,0.484-5.648-1.486c-1.145-1.962-0.488-4.479,1.463-5.635
								c1.109-0.674,6.413-4.335,3.28-10.929c-1.531-3.231-5.302-5.103-9.614-4.756c-3.794,0.299-8.412,2.539-9.99,7.92
								c-3.173,10.804,11.786,28.9,19.822,38.622l0.98,1.186c2.221,2.693,4.96,5.531,7.609,8.276
								c8.44,8.745,17.167,17.787,13.659,26.767C85.864,369.893,82.005,372.64,77.261,372.64z"/>
						</g>
						<g>
							<rect x="117.579" y="380.553" style="fill:#F4AA08;" width="20.769" height="80.894"/>
							<rect x="117.579" y="450.522" style="fill:#F28E0A;" width="20.769" height="10.924"/>
							<rect x="112.642" y="393.316" style="fill:#F28E0A;" width="30.645" height="10.432"/>
							<rect x="112.642" y="423.569" style="fill:#F28E0A;" width="30.645" height="10.433"/>
						</g>
						<g>
							<path style="fill:#F4AA08;" d="M127.965,455.984c-16.813,0-30.442,7.236-30.442,16.163h60.884
								C158.406,463.221,144.775,455.984,127.965,455.984z"/>
							<rect x="94.187" y="472.147" style="fill:#F28E0A;" width="67.556" height="10.432"/>
						</g>
						<g>
							<path style="fill:#F4AA08;" d="M127.965,398.533c30.618,0,55.44-56.144,55.44-125.402H72.523
								C72.523,342.39,97.345,398.533,127.965,398.533z"/>
							<rect x="68.534" y="262.7" style="fill:#F28E0A;" width="118.86" height="10.432"/>
							<path style="fill:#F28E0A;" d="M176.105,273.131c-2.024,24.425-13.476,92.754-78.134,105.479
								c8.645,12.606,18.941,19.923,29.993,19.923c30.618,0,55.44-56.144,55.44-125.402H176.105z"/>
							<path style="fill:#FCCA65;" d="M72.523,273.131c0,22.857,2.704,44.284,7.428,62.735c1.9-32.909,12.974-52.638,20.916-62.735
								H72.523z"/>
						</g>
						<g>
							<path style="fill:#91310C;" d="M158.838,323.332c0,17.058-13.822,30.885-30.873,30.885
								c-17.052,0-30.874-13.827-30.874-30.885c0-17.055,13.822-30.88,30.874-30.88
								C145.016,292.452,158.838,306.277,158.838,323.332z"/>
							<path style="fill:#A64213;" d="M156.099,323.332c0,15.544-12.596,28.143-28.134,28.143
								c-15.539,0-28.134-12.599-28.134-28.143c0-15.541,12.595-28.14,28.134-28.14
								C143.503,295.192,156.099,307.791,156.099,323.332z"/>
						</g>
					</g>
					<g>
						
							<text transform="matrix(0.9997 0 0 1 123.9048 341.4336)" style="fill:#FFFFFF; font-family:'Anton-Regular'; font-size:41.2841px; letter-spacing:8.002;">1</text>
						
							<text transform="matrix(0.9997 0 0 1 111.9497 337.1963)" style="fill:#FFFFFF; font-family:'Anton-Regular'; font-size:24.1546px; letter-spacing:4.001;">#</text>
					</g>
				</g>
			</g>
			<g>
				<polygon style="fill:#FFFFFF;" points="98.463,237.083 100.868,230.984 103.272,237.083 109.37,239.487 103.272,241.894 
					100.868,247.992 98.463,241.894 92.366,239.487 				"/>
				<polygon style="fill:#FFFFFF;" points="55.764,404.631 58.169,398.533 60.573,404.631 66.67,407.036 60.573,409.441 
					58.169,415.541 55.764,409.441 49.667,407.036 				"/>
				<path style="fill:#FFFFFF;" d="M156.098,219.247c0,1.565-1.269,2.834-2.834,2.834c-1.564,0-2.833-1.269-2.833-2.834
					s1.269-2.835,2.833-2.835C154.829,216.412,156.098,217.681,156.098,219.247z"/>
				<path style="fill:#FFFFFF;" d="M172.081,390.481c0,1.565-1.27,2.834-2.834,2.834c-1.566,0-2.833-1.268-2.833-2.834
					c0-1.564,1.268-2.834,2.833-2.834C170.811,387.647,172.081,388.917,172.081,390.481z"/>
				<path style="fill:#FFFFFF;" d="M80.177,452.333c0,1.565-1.27,2.834-2.834,2.834c-1.565,0-2.833-1.269-2.833-2.834
					s1.267-2.835,2.833-2.835C78.907,449.498,80.177,450.768,80.177,452.333z"/>
			</g>
		</g>
		<g>
			<g>
				<g>
					<polygon style="fill:#F28E0A;" points="68.914,180.638 86.378,182.327 101.52,195.239 124.37,144.177 91.763,129.579 					"/>
					<polygon style="fill:#F28E0A;" points="190.031,180.638 172.567,182.327 157.426,195.239 134.576,144.177 167.183,129.579 
											"/>
				</g>
				<g>
					<path style="fill:#F4AA08;" d="M134.179,43.238h0.002c6.466-3.315,14.391-1.19,18.334,4.914l0,0
						c2.471,3.825,6.628,6.226,11.175,6.452l0,0c7.257,0.365,13.056,6.167,13.42,13.428l0,0c0.23,4.546,2.631,8.704,6.451,11.177
						l0,0c6.101,3.943,8.227,11.872,4.911,18.338l0,0c-2.075,4.052-2.075,8.855,0,12.905l0,0c3.315,6.47,1.189,14.396-4.911,18.34
						l0,0c-3.82,2.471-6.221,6.631-6.451,11.176l0,0c-0.364,7.26-6.163,13.063-13.42,13.428l0,0
						c-4.547,0.227-8.704,2.629-11.175,6.452l0,0c-3.943,6.105-11.868,8.228-18.334,4.916h-0.002c-4.053-2.076-8.852-2.076-12.902,0
						l0,0c-6.465,3.312-14.39,1.189-18.335-4.916l0,0c-2.468-3.823-6.629-6.225-11.174-6.452l0,0
						c-7.258-0.364-13.059-6.167-13.423-13.428l0,0c-0.227-4.545-2.626-8.705-6.449-11.176l0,0
						c-6.103-3.944-8.225-11.87-4.915-18.34l0,0c2.077-4.05,2.077-8.854,0-12.905l0,0c-3.31-6.466-1.188-14.396,4.915-18.338l0,0
						c3.823-2.473,6.223-6.631,6.449-11.177l0,0c0.364-7.26,6.165-13.063,13.423-13.428l0,0c4.545-0.226,8.706-2.626,11.174-6.452
						l0,0c3.945-6.104,11.87-8.229,18.335-4.914l0,0C125.327,45.313,130.126,45.313,134.179,43.238z"/>
					<ellipse style="fill:#F28E0A;" cx="127.729" cy="103.999" rx="50.519" ry="50.534"/>
					<path style="fill:#29304A;" d="M173.849,103.999c0,25.479-20.648,46.133-46.12,46.133c-25.473,0-46.121-20.654-46.121-46.133
						c0-25.478,20.648-46.133,46.121-46.133C153.2,57.866,173.849,78.521,173.849,103.999z"/>
					<path style="fill:none;stroke:#36405B;stroke-width:1.3393;stroke-miterlimit:10;" d="M166.621,103.999
						c0,21.485-17.416,38.904-38.893,38.904c-21.481,0-38.892-17.419-38.892-38.904c0-21.484,17.41-38.902,38.892-38.902
						C149.205,65.097,166.621,82.516,166.621,103.999z"/>
				</g>
			</g>
			<g>
				
					<text transform="matrix(0.9997 0 0 1 105.3472 100.6143)" style="fill:#FFFFFF; font-family:'Anton-Regular'; font-size:20.4284px;">TEXTS</text>
				<g>
					
						<text transform="matrix(0.9997 0 0 1 104.9683 126.5181)" style="fill:#FFFFFF; font-family:'Anton-Regular'; font-size:25.0349px;">HERE</text>
				</g>
			</g>
		</g>
	</g>
</g>
</svg>
