<?xml version="1.0" encoding="utf-8"?>
<!-- Generator: Adobe Illustrator 27.5.0, SVG Export Plug-In . SVG Version: 6.00 Build 0)  -->
<svg version="1.1" id="PRINT" xmlns="http://www.w3.org/2000/svg" xmlns:xlink="http://www.w3.org/1999/xlink" x="0px" y="0px"
	 viewBox="0 0 595.276 841.89" style="enable-background:new 0 0 595.276 841.89;" xml:space="preserve">
<g>
	<defs>
		
			<rect id="SVGID_1_" x="-14.173" y="-14.173" transform="matrix(-1 -1.224647e-16 1.224647e-16 -1 592.0237 841.8898)" width="620.37" height="870.236"/>
	</defs>
	<clipPath id="SVGID_00000103251566505512140850000012467662076910779583_">
		<use xlink:href="#SVGID_1_"  style="overflow:visible;"/>
	</clipPath>
	
		<rect x="-159.644" y="74.885" transform="matrix(6.123234e-17 -1 1 6.123234e-17 -117.7569 706.9205)" style="clip-path:url(#SVGID_00000103251566505512140850000012467662076910779583_);fill:#FFFFFF;" width="908.453" height="674.907"/>
	<polygon style="clip-path:url(#SVGID_00000103251566505512140850000012467662076910779583_);fill:#FDB515;" points="
		159.222,781.143 285.824,909.433 285.824,846.893 159.222,718.603 	"/>
	<polygon style="clip-path:url(#SVGID_00000103251566505512140850000012467662076910779583_);fill:#00ADBE;" points="8.322,710.348 
		159.222,710.348 159.222,710.247 8.322,557.335 	"/>
	<polygon style="clip-path:url(#SVGID_00000103251566505512140850000012467662076910779583_);fill:#024367;" points="
		35.817,579.075 78.696,579.075 78.696,579.046 35.817,535.596 	"/>
	<polygon style="clip-path:url(#SVGID_00000103251566505512140850000012467662076910779583_);fill:#EF436B;" points="
		169.752,655.582 191.192,655.582 191.192,655.567 169.752,633.842 	"/>
	<polygon style="clip-path:url(#SVGID_00000103251566505512140850000012467662076910779583_);fill:#EF436B;" points="
		40.514,247.569 61.953,247.569 61.953,247.555 40.514,225.83 	"/>
	<polygon style="clip-path:url(#SVGID_00000103251566505512140850000012467662076910779583_);fill:#024367;" points="
		169.752,612.102 148.313,612.102 148.313,612.117 169.752,633.842 	"/>
	<polygon style="clip-path:url(#SVGID_00000103251566505512140850000012467662076910779583_);fill:#024367;" points="
		-65.849,583.329 -87.288,583.329 -87.288,583.343 -65.849,605.069 	"/>
	<polygon style="clip-path:url(#SVGID_00000103251566505512140850000012467662076910779583_);fill:#EF436B;" points="
		-56.257,737.79 159.222,956.142 159.222,833.555 64.636,737.708 64.636,737.645 -56.257,737.645 	"/>
	<polygon style="clip-path:url(#SVGID_00000103251566505512140850000012467662076910779583_);fill:#024367;" points="
		159.222,806.259 159.222,710.349 64.636,710.349 64.636,710.412 	"/>
	<polygon style="clip-path:url(#SVGID_00000103251566505512140850000012467662076910779583_);fill:#FDB515;" points="
		-77.474,800.556 49.128,928.846 49.128,860.745 -77.474,732.455 	"/>
	<polygon style="clip-path:url(#SVGID_00000103251566505512140850000012467662076910779583_);fill:#024367;" points="
		159.222,718.603 285.824,846.893 285.824,785.039 159.222,656.75 	"/>
	<polygon style="clip-path:url(#SVGID_00000103251566505512140850000012467662076910779583_);fill:#FDB515;" points="
		-65.849,666.923 60.753,795.213 60.753,733.359 -65.849,605.069 	"/>
	<polygon style="clip-path:url(#SVGID_00000103251566505512140850000012467662076910779583_);fill:#024367;" points="
		258.967,700.317 237.528,700.317 237.528,700.332 258.967,722.057 	"/>
	<polygon style="clip-path:url(#SVGID_00000103251566505512140850000012467662076910779583_);fill:#00ADBE;" points="
		258.967,783.911 385.569,912.201 385.569,850.347 258.967,722.057 	"/>
	<polygon style="clip-path:url(#SVGID_00000103251566505512140850000012467662076910779583_);fill:#FDB515;" points="
		520.143,38.885 393.541,-89.405 393.541,-26.865 520.143,101.425 	"/>
	<polygon style="clip-path:url(#SVGID_00000103251566505512140850000012467662076910779583_);fill:#00ADBE;" points="
		671.043,109.68 520.143,109.68 520.143,109.782 671.043,262.693 	"/>
	<polygon style="clip-path:url(#SVGID_00000103251566505512140850000012467662076910779583_);fill:#024367;" points="
		643.548,240.953 600.669,240.953 600.669,240.982 643.548,284.433 	"/>
	<polygon style="clip-path:url(#SVGID_00000103251566505512140850000012467662076910779583_);fill:#FDB515;" points="
		509.613,164.447 488.173,164.447 488.173,164.461 509.613,186.187 	"/>
	<polygon style="clip-path:url(#SVGID_00000103251566505512140850000012467662076910779583_);fill:#FDB515;" points="
		495.253,728.29 473.813,728.29 473.813,728.305 495.253,750.03 	"/>
	<polygon style="clip-path:url(#SVGID_00000103251566505512140850000012467662076910779583_);fill:#024367;" points="
		509.613,207.926 531.052,207.926 531.052,207.912 509.613,186.187 	"/>
	<polygon style="clip-path:url(#SVGID_00000103251566505512140850000012467662076910779583_);fill:#EF436B;" points="
		735.622,82.239 520.143,-136.113 520.143,-13.527 614.729,82.32 614.729,82.384 735.622,82.384 	"/>
	<polygon style="clip-path:url(#SVGID_00000103251566505512140850000012467662076910779583_);fill:#EF436B;" points="30.266,48.39 
		-185.213,-169.962 -185.213,-47.375 -90.628,48.472 -90.628,48.536 30.266,48.536 	"/>
	<polygon style="clip-path:url(#SVGID_00000103251566505512140850000012467662076910779583_);fill:#EF436B;" points="
		792.722,999.756 577.243,781.404 577.243,903.99 671.829,999.837 671.829,999.901 792.722,999.901 	"/>
	<polygon style="clip-path:url(#SVGID_00000103251566505512140850000012467662076910779583_);fill:#024367;" points="520.143,13.77 
		520.143,109.68 614.729,109.68 614.729,109.616 	"/>
	<polygon style="clip-path:url(#SVGID_00000103251566505512140850000012467662076910779583_);fill:#FDB515;" points="
		756.839,19.473 630.237,-108.817 630.237,-40.716 756.839,87.574 	"/>
	<polygon style="clip-path:url(#SVGID_00000103251566505512140850000012467662076910779583_);fill:#024367;" points="
		520.143,101.425 393.541,-26.865 393.541,34.989 520.143,163.279 	"/>
	<polygon style="clip-path:url(#SVGID_00000103251566505512140850000012467662076910779583_);fill:#FDB515;" points="
		745.214,153.106 618.612,24.816 618.612,86.67 745.214,214.96 	"/>
	<polygon style="clip-path:url(#SVGID_00000103251566505512140850000012467662076910779583_);fill:#EF436B;" points="
		420.398,119.711 441.837,119.711 441.837,119.697 420.398,97.972 	"/>
	<polygon style="clip-path:url(#SVGID_00000103251566505512140850000012467662076910779583_);fill:#00ADBE;" points="
		420.398,36.118 293.796,-92.172 293.796,-30.318 420.398,97.972 	"/>
	<polygon style="clip-path:url(#SVGID_00000103251566505512140850000012467662076910779583_);fill:#00ADBE;" points="175.23,14.183 
		48.628,-114.107 48.628,-52.253 175.23,76.037 	"/>
	<polygon style="clip-path:url(#SVGID_00000103251566505512140850000012467662076910779583_);fill:#FDB515;" points="
		204.338,33.042 133.983,-38.251 133.983,-3.497 204.338,67.797 	"/>
	<polygon style="clip-path:url(#SVGID_00000103251566505512140850000012467662076910779583_);fill:#FDB515;" points="
		612.421,874.332 542.066,803.039 542.066,837.794 612.421,909.087 	"/>
	<g style="clip-path:url(#SVGID_00000103251566505512140850000012467662076910779583_);">
		<text transform="matrix(0 -1 1 0 272.2351 616.2472)" style="fill:#1E1E1E; font-family:'Poppins-Light'; font-size:21.476px;">This certificate is proudly presented to:</text>
	</g>
	<g style="clip-path:url(#SVGID_00000103251566505512140850000012467662076910779583_);">
		<text transform="matrix(0 -1 1 0 357.0969 633.8615)" style="fill:#EF446C; font-family:'Poppins-Regular'; font-size:64.733px;">Sarah Harper</text>
	</g>
	<g style="clip-path:url(#SVGID_00000103251566505512140850000012467662076910779583_);">
		
			<text transform="matrix(0 -1 1 0 564.3279 735.4816)" style="fill:#1E1E1E; font-family:'Poppins-Regular'; font-size:16.8232px;">President Director</text>
	</g>
	<g style="clip-path:url(#SVGID_00000103251566505512140850000012467662076910779583_);">
		
			<text transform="matrix(0 -1 1 0 564.3279 455.5685)" style="fill:#1E1E1E; font-family:'Poppins-Regular'; font-size:16.8232px;">General Manager</text>
	</g>
	<g style="clip-path:url(#SVGID_00000103251566505512140850000012467662076910779583_);">
		
			<text transform="matrix(0 -1 1 0 182.7625 463.2188)" style="fill:#024367; font-family:'Poppins-Regular'; font-size:38.6379px;">of appreciation</text>
	</g>
	<g style="clip-path:url(#SVGID_00000103251566505512140850000012467662076910779583_);">
		<rect x="394.503" y="112.49" style="fill:none;" width="73.23" height="589.802"/>
		<text transform="matrix(0 -1 1 0 406.9514 701.0255)"><tspan x="0" y="0" style="fill:#1E1E1E; font-family:'Poppins-Light'; font-size:16.8232px;">Lorem ipsum dolor sit amet, consectetuer adipiscing elit, sed diam no</tspan><tspan x="578.538" y="0" style="fill:#1E1E1E; font-family:'Poppins-Light'; font-size:16.8232px;">-</tspan><tspan x="89.994" y="20.188" style="fill:#1E1E1E; font-family:'Poppins-Light'; font-size:16.8232px;">nummy nibh euismod tincidunt ut laoreet dolore.</tspan></text>
	</g>
	<g style="clip-path:url(#SVGID_00000103251566505512140850000012467662076910779583_);">
		<text transform="matrix(0 -1 1 0 135.6814 628.1359)" style="fill:#00ADBD; font-family:'Poppins-Bold'; font-size:73.4939px;">Certificate</text>
	</g>
	
		<line style="clip-path:url(#SVGID_00000103251566505512140850000012467662076910779583_);fill:none;stroke:#024367;stroke-width:1.5386;stroke-miterlimit:10;" x1="536.513" y1="751.821" x2="536.513" y2="569.105"/>
	
		<line style="clip-path:url(#SVGID_00000103251566505512140850000012467662076910779583_);fill:none;stroke:#024367;stroke-width:1.5386;stroke-miterlimit:10;" x1="536.513" y1="473.396" x2="536.513" y2="290.68"/>
</g>
</svg>
