<?xml version="1.0" encoding="utf-8"?>
<!-- Generator: Adobe Illustrator 27.5.0, SVG Export Plug-In . SVG Version: 6.00 Build 0)  -->
<svg version="1.1" id="PRINT" xmlns="http://www.w3.org/2000/svg" xmlns:xlink="http://www.w3.org/1999/xlink" x="0px" y="0px"
	 viewBox="0 0 1190.551 841.89" style="enable-background:new 0 0 1190.551 841.89;" xml:space="preserve">
<g>
	<rect x="-9" y="-8" style="fill:#FDF7F1;" width="1209" height="858"/>
	<g>
		<g>
			<path style="fill:#8CBF00;" d="M1155.446,386.766c-5.407-20.576-13.967-41.606-31.342-54.951
				c-8.247-6.334-18.377-9.645-26.517-16.111c-8.138-6.464-12.289-16.016-16.727-25.119c-2.095-4.297-4.187-9.164-7.835-12.398
				c-3.895-3.452-9.088-3.643-13.843-2.009c-4.311,1.481-8.83,4.264-9.901,9.02c-1.042,4.631,1.218,9.383,3.823,13.083
				c3.096,4.396,6.96,8.34,11.099,11.755c2.086,1.721,4.357,3.221,6.373,5.026c2.068,1.852,3.71,4.089,5.048,6.514
				c2.729,4.947,4.497,10.514,6.01,15.936c1.587,5.687,2.506,11.546,4.256,17.188c6.294,20.302,22.525,35.672,40.532,46.013
				c2.294,1.317,4.627,2.559,6.995,3.738c0.001,0.001,0.002,0.001,0.003,0.002c0.045,0.023,0.09,0.047,0.135,0.069
				c0.121,0.06,0.236,0.069,0.346,0.06c2.411,0.426,5.113-0.282,7.316-1.198c2.362-0.982,4.508-2.395,6.436-4.068
				c3.629-3.148,6.515-7.345,7.933-11.95C1155.668,387.104,1155.589,386.903,1155.446,386.766z M1068.267,311.335
				c-2.185-1.645-4.3-3.361-6.291-5.238c-5.928-5.59-17.37-18.035-7.943-25.58c3.939-3.153,10.385-5.179,15.208-3.065
				c4.448,1.949,6.804,6.86,8.888,10.949c2.796,5.487,5.261,11.263,8.44,16.567c-1.98,2.222-4.059,4.305-6.438,6.111
				c-1.19,0.904-2.43,1.741-3.706,2.518c-0.656,0.399-1.323,0.776-1.996,1.144c-0.443,0.242-0.935,0.453-1.37,0.732
				C1071.613,313.93,1069.965,312.613,1068.267,311.335z M1075.513,318.618c-0.48-0.725-0.98-1.436-1.531-2.115
				c-0.078-0.096-0.166-0.179-0.245-0.273c0.34-0.144,0.669-0.324,0.996-0.488c0.722-0.362,1.428-0.756,2.123-1.167
				c1.356-0.801,2.661-1.686,3.914-2.641c2.313-1.763,4.512-3.764,6.386-6.001c0.5,0.802,1.023,1.59,1.564,2.365
				c-1.746,2.277-3.833,4.189-6.117,5.924c-1.136,0.863-2.292,1.704-3.46,2.523C1077.979,317.56,1076.834,318.16,1075.513,318.618z
				 M1076.168,319.63c1.183-0.313,2.293-0.986,3.281-1.662c1.307-0.894,2.588-1.835,3.848-2.794c2.244-1.708,4.456-3.578,6.15-5.855
				c0.522,0.709,1.069,1.4,1.635,2.079c-0.415,0.366-0.758,0.89-1.098,1.278c-0.518,0.592-1.041,1.179-1.575,1.758
				c-1.063,1.154-2.166,2.275-3.333,3.324c-2.191,1.969-4.64,3.613-7.397,4.654C1077.213,321.463,1076.716,320.532,1076.168,319.63z
				 M1078.147,323.385c2.771-1.005,5.243-2.668,7.454-4.61c1.238-1.087,2.394-2.263,3.507-3.477
				c0.558-0.609,1.106-1.228,1.647-1.852c0.321-0.37,0.739-0.769,1.049-1.204c0.319,0.361,0.639,0.721,0.973,1.072
				c0.343,0.36,0.697,0.705,1.052,1.047c-0.205,0.355-0.356,0.77-0.544,1.082c-0.434,0.724-0.929,1.412-1.484,2.049
				c-1.145,1.315-2.527,2.413-3.855,3.535c-1.354,1.145-2.732,2.263-4.189,3.275c-1.326,0.921-2.72,1.834-4.348,2.019
				C1079.017,325.331,1078.595,324.351,1078.147,323.385z M1147.036,397.998c-1.717,1.546-3.654,2.882-5.744,3.874
				c-1.171,0.556-2.406,0.985-3.675,1.253c-1.171,0.248-2.308,0.238-3.483,0.271c-18.258-9.546-35.369-22.692-44.119-41.882
				c-2.255-4.946-3.65-10.13-4.83-15.421c-1.234-5.535-2.599-11.005-4.5-16.355c-0.285-0.803-0.582-1.605-0.887-2.405
				c1.478-0.119,2.834-0.93,4.057-1.727c1.609-1.048,3.11-2.251,4.58-3.482c1.44-1.206,2.951-2.39,4.189-3.81
				c0.59-0.677,1.128-1.403,1.597-2.169c0.163-0.266,0.383-0.577,0.562-0.903c6.609,5.927,15.064,9.284,22.628,13.813
				c18.28,10.943,28.451,30.52,34.467,50.3c0.806,2.648,1.547,5.315,2.25,7.992c0.009,0.033,0.028,0.052,0.04,0.081
				C1152.592,391.457,1150.27,395.085,1147.036,397.998z"/>
			<path style="fill:#277AFF;" d="M1143.011,674.054c-3.257-3.133-7.615-5.556-12.23-4.174c-4.248,1.272-7.356,5.014-9.551,8.683
				c-2.798,4.676-4.857,9.903-6.306,15.145c-0.751,2.715-1.208,5.521-2.162,8.177c-0.931,2.59-2.416,4.962-4.127,7.105
				c-3.439,4.309-7.694,8.066-11.951,11.543c-4.346,3.549-9.068,6.616-13.343,10.252c-16.29,13.855-23.919,35.047-26.182,55.792
				c-0.303,2.779-0.513,5.563-0.643,8.355c-0.007,0.152,0.04,0.266,0.106,0.361c1.064,4.383,5.528,7.883,9.296,9.851
				c4.573,2.389,9.941,3.563,15.089,2.971c0.232-0.027,0.393-0.152,0.496-0.311c16.547-13.137,32.271-29.296,37.623-50.377
				c2.724-10.733,1.39-22.102,4.591-32.724c3.038-10.081,10.625-17.684,17.175-25.588c3.089-3.728,6.688-7.833,7.363-12.808
				C1148.894,681.582,1146.309,677.226,1143.011,674.054z M1114.174,705.336c0.56,0.455,1.136,0.891,1.72,1.313
				c1.317,0.953,2.693,1.82,4.116,2.607c2.53,1.399,5.243,2.584,8.028,3.403c-0.53,0.779-1.041,1.571-1.53,2.377
				c-2.836-0.706-5.451-1.854-8.009-3.276c-2.401-1.335-4.863-2.621-6.748-4.635c0.449-0.701,0.878-1.414,1.26-2.156
				c0.074-0.144,0.131-0.294,0.201-0.439C1113.517,704.82,1113.858,705.08,1114.174,705.336z M1124.612,718.484
				c-0.444-0.2-0.937-0.31-1.399-0.455c-0.76-0.237-1.518-0.48-2.273-0.736c-1.543-0.523-3.073-1.093-4.557-1.767
				c-2.686-1.219-5.161-2.794-7.232-4.891c0.681-0.811,1.336-1.641,1.94-2.506c0.7,0.871,1.646,1.572,2.565,2.163
				c1.338,0.86,2.731,1.648,4.119,2.424c2.532,1.417,5.231,2.76,8.084,3.404C1125.419,716.893,1125.007,717.683,1124.612,718.484z
				 M1123.036,722.192c-0.527-0.084-1.1-0.059-1.602-0.137c-0.883-0.137-1.754-0.356-2.599-0.648
				c-1.633-0.564-3.186-1.393-4.732-2.157c-1.545-0.764-3.074-1.566-4.537-2.479c-1.291-0.805-2.504-1.679-3.286-2.991
				c0.744-0.753,1.468-1.528,2.168-2.322c2.04,2.14,4.578,3.74,7.256,4.973c1.447,0.666,2.935,1.236,4.441,1.752
				c0.754,0.258,1.512,0.502,2.273,0.739c0.531,0.166,1.135,0.424,1.722,0.539C1123.726,720.362,1123.367,721.274,1123.036,722.192z
				 M1119.026,750.114c-2.774,21.163-16.829,38.334-32.559,51.776c-1.966,1.68-3.969,3.316-5.993,4.925
				c-0.006,0.005-0.007,0.01-0.013,0.015c-4.739,0.18-9.402-0.615-13.659-2.799c-1.987-1.02-3.875-2.282-5.481-3.84
				c-1.614-1.564-2.577-3.305-3.54-5.266c1.396-20.917,6.732-42.393,21.368-58.141c3.544-3.813,7.593-6.987,11.778-10.061
				c4.38-3.217,8.64-6.553,12.605-10.277c0.662-0.622,1.32-1.256,1.973-1.899c0.61,1.109,1.604,1.929,2.652,2.653
				c1.649,1.14,3.42,2.084,5.212,2.975c1.635,0.813,3.278,1.678,5,2.296c0.948,0.34,1.926,0.582,2.922,0.731
				c0.407,0.061,0.876,0.16,1.333,0.183C1119.856,731.97,1120.196,741.19,1119.026,750.114z M1141.281,696.312
				c-4.123,5.151-8.78,10.011-12.604,15.419c-2.856-0.918-5.613-2.003-8.244-3.467c-1.301-0.724-2.563-1.518-3.785-2.37
				c-0.629-0.439-1.243-0.897-1.85-1.365c-0.388-0.299-0.76-0.635-1.168-0.909c1.849-4.287,2.429-9.074,3.954-13.48
				c2.533-7.317,8.746-22.499,19.133-18.594c4.408,1.657,8.653,6.212,9.841,10.779
				C1147.945,687.654,1144.423,692.385,1141.281,696.312z"/>
			<path style="fill:#C313D6;" d="M1078.712,509.047c0.542,0.437-0.182,1.362-0.742,0.962c-1.635-1.169-3.153-2.449-4.566-3.88
				c-5.873-5.944-9.876-13.728-11.297-21.963c-1.432-8.303-0.128-16.853,3.495-24.444c3.628-7.604,9.581-14.042,16.99-18.082
				c7.493-4.086,16.283-5.836,24.766-4.822c16.951,2.027,31.488,15.292,34.822,32.089c1.674,8.437,0.937,17.092-2.622,24.958
				c-3.213,7.1-8.509,13.255-15.002,17.556c-14.155,9.375-33.504,8.372-47.016-1.745c-0.655-0.49-0.012-1.604,0.648-1.108
				c1.578,1.187,3.232,2.263,4.968,3.205c14.285,7.751,32.468,6.005,44.799-4.626c5.733-4.942,10.113-11.471,12.301-18.732
				c2.462-8.168,2.077-17.056-0.917-25.029c-5.837-15.542-21.553-25.932-38.127-25.35c-8.178,0.288-16.277,3.095-22.791,8.066
				c-6.497,4.958-11.284,12.071-13.683,19.863c-2.378,7.724-2.294,15.981,0.249,23.652
				C1067.544,497.338,1072.404,503.963,1078.712,509.047L1078.712,509.047z M1112.405,458.66c-0.013,0.485,0.348,0.838,0.703,1.138
				c0.425,0.359,0.939,0.625,1.461,0.813c0.901,0.325,1.953,0.363,2.858,0.029c1.961-0.724,2.668-2.792,2.114-4.714
				c-0.548-1.899-2.173-3.462-4.04-4.063c-0.984-0.316-2.086-0.329-3.029,0.124c-0.857,0.411-1.449,1.205-1.756,2.088
				c-0.341,0.979-0.262,2.056,0.13,3.005c0.229,0.555,0.536,1.057,0.927,1.513c0.386,0.45,0.826,0.744,1.315,1.063
				c0.559,0.365,1.188-0.462,0.71-0.92c-0.529-0.507-1.05-1.158-1.403-1.804c-0.324-0.592-0.496-1.287-0.393-1.962
				c0.085-0.557,0.347-1.113,0.786-1.477c0.51-0.423,1.228-0.499,1.86-0.373c1.447,0.289,2.792,1.379,3.379,2.736
				c0.481,1.113,0.472,2.627-0.692,3.303c-0.657,0.382-1.45,0.419-2.171,0.217c-0.441-0.124-0.832-0.324-1.231-0.546
				c-0.383-0.213-0.789-0.508-1.236-0.461C1112.536,458.387,1112.409,458.489,1112.405,458.66L1112.405,458.66z M1121.438,468.343
				c0.085,0.207,0.146,0.452,0.301,0.619c0.167,0.18,0.41,0.345,0.621,0.471c0.457,0.273,1.002,0.424,1.526,0.489
				c0.954,0.118,1.98-0.095,2.763-0.669c1.605-1.177,1.851-3.362,1.001-5.071c-0.833-1.676-2.623-2.857-4.469-3.049
				c-1.851-0.193-3.575,0.896-4.007,2.744c-0.518,2.213,0.8,4.228,2.62,5.375c0.312,0.197,0.752,0.066,0.934-0.245
				c0.203-0.347,0.053-0.715-0.245-0.934c-1.037-0.764-1.984-1.92-1.957-3.272c0.025-1.228,0.873-2.191,2.122-2.224
				c1.281-0.033,2.532,0.67,3.312,1.665c0.758,0.967,1.047,2.436,0.235,3.47c-0.434,0.552-1.145,0.825-1.834,0.83
				c-0.433,0.003-0.851-0.095-1.256-0.242c-0.193-0.07-0.389-0.135-0.579-0.212c-0.25-0.101-0.439-0.097-0.7-0.135
				C1121.621,467.924,1121.334,468.092,1121.438,468.343L1121.438,468.343z M1124.199,458.628c0.597,0.841,1.768,1.114,2.752,1.07
				c0.976-0.043,1.885-0.392,2.628-1.026c1.624-1.385,1.541-3.667,0.513-5.382c-0.946-1.578-2.629-2.844-4.525-2.858
				c-1.828-0.014-3.64,1.171-4.001,3.03c-0.223,1.148,0.038,2.338,0.624,3.342c0.586,1.005,1.4,1.731,2.327,2.407
				c0.611,0.446,1.375-0.549,0.809-1.049c-1.061-0.939-2.271-2.133-2.364-3.635c-0.084-1.36,0.819-2.402,2.161-2.593
				c1.31-0.187,2.552,0.583,3.338,1.58c0.792,1.005,1.35,2.545,0.491,3.68c-0.432,0.571-1.106,0.944-1.811,1.041
				c-0.881,0.122-1.694-0.248-2.558-0.272C1124.265,457.954,1124.003,458.353,1124.199,458.628L1124.199,458.628z"/>
			<path style="fill:#277AFF;" d="M1131.781,100.908c0.555-0.573,1.375,0.276,0.866,0.866c-1.377,1.595-2.877,3.041-4.521,4.36
				c-6.602,5.3-14.799,8.49-23.25,9.05c-8.194,0.543-16.449-1.593-23.472-5.82c-7.155-4.307-12.969-10.726-16.301-18.404
				c-3.453-7.955-4.389-16.954-2.55-25.438c3.644-16.811,18.481-29.944,35.598-31.569c8.666-0.822,17.349,0.878,24.847,5.369
				c6.736,4.035,12.316,10.018,15.851,17.03c7.501,14.881,4.516,33.533-6.577,45.824c-0.555,0.614-1.461-0.297-0.907-0.907
				c1.351-1.49,2.591-3.071,3.696-4.752c8.78-13.353,8.788-31.16-0.28-44.347c-4.301-6.255-10.395-11.323-17.4-14.272
				c-7.966-3.353-17.009-3.87-25.335-1.609c-16.127,4.379-28.051,19.163-28.894,35.865c-0.421,8.331,1.739,16.778,6.299,23.781
				c4.332,6.653,10.807,11.879,18.135,14.902c7.374,3.042,15.528,3.763,23.313,2.004
				C1118.928,111.024,1126.07,106.797,1131.781,100.908L1131.781,100.908z M1084.748,62.718c0.479,0.053,0.89-0.308,1.214-0.636
				c0.344-0.35,0.642-0.794,0.851-1.239c0.429-0.91,0.581-1.92,0.351-2.906c-0.47-2.012-2.451-2.881-4.361-2.597
				c-1.874,0.279-3.601,1.665-4.42,3.355c-0.461,0.952-0.697,2.074-0.384,3.11c0.275,0.909,0.952,1.666,1.802,2.082
				c0.998,0.488,2.118,0.574,3.182,0.252c0.517-0.156,1.031-0.393,1.475-0.701c0.249-0.173,0.493-0.361,0.714-0.57
				c0.214-0.203,0.359-0.437,0.54-0.665c0.463-0.584-0.248-1.333-0.829-0.829c-0.543,0.472-1.259,0.945-1.928,1.219
				c-0.608,0.249-1.284,0.346-1.927,0.187c-0.594-0.146-1.162-0.474-1.478-1.013c-0.372-0.632-0.29-1.387-0.057-2.052
				c0.465-1.324,1.701-2.481,3.044-2.876c1.181-0.348,2.665-0.155,3.18,1.122c0.284,0.704,0.216,1.509-0.076,2.198
				c-0.176,0.415-0.428,0.781-0.677,1.154c-0.239,0.356-0.516,0.674-0.507,1.116C1084.462,62.598,1084.589,62.701,1084.748,62.718
				L1084.748,62.718z M1095.218,54.6c0.227-0.069,0.449-0.107,0.639-0.257c0.181-0.143,0.331-0.344,0.473-0.523
				c0.309-0.392,0.523-0.913,0.637-1.395c0.23-0.979,0.119-2.041-0.388-2.918c-0.991-1.715-3.232-2.174-4.982-1.455
				c-1.717,0.706-3.121,2.342-3.434,4.19c-0.152,0.898-0.066,1.835,0.396,2.636c0.464,0.803,1.261,1.364,2.141,1.628
				c2.145,0.642,4.186-0.558,5.462-2.224c0.47-0.614-0.56-1.403-1.072-0.827c-0.872,0.981-2.088,1.88-3.472,1.743
				c-1.198-0.118-2.085-0.998-2.063-2.221c0.024-1.32,0.899-2.577,1.993-3.262c1.049-0.657,2.528-0.804,3.475,0.129
				c0.537,0.528,0.728,1.334,0.614,2.066c-0.06,0.387-0.207,0.739-0.37,1.091c-0.084,0.182-0.167,0.361-0.258,0.541
				c-0.117,0.231-0.122,0.425-0.18,0.67C1094.774,54.438,1094.979,54.672,1095.218,54.6L1095.218,54.6z M1085.803,50.951
				c0.885-0.512,1.221-1.666,1.281-2.627c0.058-0.924-0.198-1.896-0.742-2.649c-0.557-0.772-1.358-1.354-2.305-1.534
				c-1.066-0.202-2.139,0.039-3.104,0.503c-1.644,0.79-2.983,2.341-3.197,4.188c-0.212,1.831,0.808,3.685,2.59,4.273
				c1.067,0.352,2.257,0.202,3.274-0.233c1.083-0.464,1.933-1.206,2.704-2.08c0.566-0.642-0.313-1.538-0.945-0.945
				c-1.071,1.007-2.369,2.047-3.92,1.975c-1.304-0.06-2.201-1.114-2.251-2.386c-0.052-1.322,0.795-2.479,1.872-3.169
				c1.123-0.719,2.73-1.132,3.787-0.08c0.501,0.499,0.781,1.181,0.793,1.886c0.015,0.872-0.398,1.648-0.504,2.497
				C1085.094,50.915,1085.54,51.103,1085.803,50.951L1085.803,50.951z"/>
			<path style="fill:#C313D6;" d="M1135.952,148.926c-0.075-0.138-0.176-0.22-0.284-0.279c-0.022-0.215-0.089-0.431-0.236-0.645
				c-0.513-0.745-1.596-0.913-2.432-0.829c-2.124,0.213-4.295,1.264-6.013,2.488c-0.983,0.7-1.897,1.507-2.684,2.423
				c-0.386,0.45-0.756,0.928-1.077,1.428c-0.178,0.278-0.358,0.574-0.493,0.875c-0.129,0.289-0.131,0.551-0.182,0.851
				c-0.166,0.175-0.235,0.433-0.073,0.707c0.095,0.161,0.192,0.328,0.287,0.494c0.013,0.13,0.084,0.244,0.192,0.331
				c2.273,4.001,4.402,9.215-0.022,12.561c-3.295,2.492-7.736,2.498-11.655,2.224c-4.538-0.317-9.536-0.841-13.542,1.803
				c-3.348,2.209-5.299,6.047-5.953,9.927c-0.841,4.988,0.392,10.01,1.771,14.785c0.972,3.367,3.684,10.446-1.26,12.089
				c-2.231,0.742-4.77-0.288-6.919-0.891c-1.956-0.548-3.911-0.912-5.95-0.727c-3.979,0.362-7.681,2.298-10.503,5.089
				c-7.439,7.358-6.905,19.304-2.355,28.076c0.062,0.78,0.66,1.369,1.527,1.52c1.071,0.187,2.255-0.137,3.278-0.436
				c1.137-0.332,2.242-0.801,3.272-1.387c1.138-0.648,2.2-1.448,3.137-2.363c0.906-0.885,1.882-1.97,2.366-3.16
				c0.304-0.228,0.404-0.775,0-1.08c-2.98-2.26-0.813-7.253,1.404-9.22c1.83-1.624,4.563-1.868,6.901-1.958
				c2.594-0.099,5.201,0.084,7.782-0.267c7.923-1.076,14.784-8.003,15.608-15.986c0.509-4.932-2.09-8.862-3.753-13.29
				c-1.664-4.429-1.205-10.427,4.597-10.976c2.292-0.217,4.584,0.258,6.861,0.442c1.998,0.161,4.008,0.029,5.975-0.355
				c3.894-0.761,7.634-2.564,10.561-5.255c3.434-3.157,5.418-7.491,5.442-12.168C1141.559,159.745,1138.746,154.1,1135.952,148.926z
				 M1123.562,155.312c-0.055-0.086-0.12-0.151-0.191-0.198c0.155-0.155,0.304-0.317,0.443-0.519
				c0.264-0.387,0.542-0.77,0.837-1.134c0.593-0.734,1.252-1.416,1.971-2.027c1.43-1.215,3.115-2.13,4.909-2.677
				c0.756-0.23,1.63-0.527,2.422-0.313c0.265,0.071,0.554,0.177,0.499,0.493c-0.078,0.449-0.647,1.011-0.925,1.354
				c-1.22,1.506-2.729,2.759-4.423,3.7c-0.948,0.527-1.947,0.95-2.986,1.26c-0.513,0.154-1.034,0.28-1.561,0.38
				c-0.242,0.046-0.488,0.073-0.729,0.113C1123.74,155.6,1123.651,155.453,1123.562,155.312z M1078.842,235.322
				c0.076,0.073,0.153,0.145,0.235,0.214c-0.552,0.693-1.026,1.44-1.635,2.096c-0.714,0.77-1.51,1.463-2.379,2.054
				c-1.702,1.158-3.643,1.958-5.681,2.268c-0.38,0.058-0.793,0.109-1.169,0c-0.074-0.021-0.135-0.048-0.184-0.078
				c0.026-0.138,0.024-0.286-0.048-0.442c-0.024-0.052-0.045-0.106-0.069-0.158c0.049-0.133,0.118-0.272,0.184-0.407
				c0.406-0.822,0.928-1.585,1.554-2.255c1.278-1.368,2.925-2.37,4.722-2.89c0.994-0.288,2.016-0.443,3.051-0.448
				C1077.595,235.275,1078.302,235.366,1078.842,235.322z M1134.54,177.332c-3.205,2.74-7.396,4.387-11.586,4.733
				c-4.24,0.35-8.914-1.522-12.977,0.192c-4.065,1.715-4.842,6.437-3.898,10.32c1.185,4.869,4.651,8.893,4.363,14.122
				c-0.235,4.27-2.519,8.257-5.659,11.076c-3.646,3.274-7.948,4.342-12.748,4.373c-4.777,0.031-10.17-0.158-13.062,4.324
				c-1.394,2.16-2.205,5.356-1.006,7.672c-0.377-0.033-0.739-0.033-0.97-0.039c-1.105-0.028-2.238,0.159-3.289,0.494
				c-2.063,0.658-3.975,1.883-5.367,3.549c-0.402,0.481-0.783,1.011-1.104,1.57c-3.434-8.437-4.078-18.697,3.119-25.421
				c3.073-2.872,7.265-4.693,11.517-4.279c3.97,0.386,8.695,3.508,12.434,0.731c3.222-2.393,2.408-7.056,1.46-10.378
				c-1.447-5.075-3.23-10.287-2.698-15.644c0.417-4.192,2.439-8.622,6.326-10.633c4.59-2.374,9.986-0.936,14.886-0.918
				c3.866,0.014,8.391-0.932,10.964-4.069c3.09-3.766,1.428-8.439-0.747-12.245c0.065-0.011,0.13-0.023,0.194-0.034
				c0.59-0.101,1.174-0.24,1.747-0.411c1.075-0.321,2.123-0.757,3.11-1.289c2.008-1.081,3.782-2.586,5.169-4.396
				c0.1-0.13,0.204-0.269,0.307-0.411c2.52,4.706,4.981,9.796,5.02,15.227C1140.081,170.183,1138.04,174.34,1134.54,177.332z"/>
			<path style="fill:#FF5500;" d="M1143.179,625.732c-0.548-1.141-1.246-2.211-2.063-3.179c-0.391-0.463-0.816-0.906-1.277-1.3
				c-0.237-0.202-0.481-0.412-0.743-0.581c-0.233-0.15-0.478-0.187-0.732-0.267c-0.144-0.189-0.37-0.303-0.63-0.201
				c-0.189,0.074-0.385,0.149-0.58,0.224c-0.147-0.03-0.291,0.024-0.399,0.151c-4.135,1.541-9.391,2.852-12.118-1.623
				c-2.211-3.629-1.524-8.228-0.609-12.131c1.081-4.615,2.434-9.58,0.293-14.109c-1.754-3.709-5.458-6.181-9.283-7.369
				c-5.036-1.564-10.437-0.912-15.569-0.271c-3.4,0.425-10.343,1.309-10.511-3.871c-0.08-2.471,1.45-4.789,2.406-6.973
				c0.797-1.82,1.294-3.695,1.349-5.689c0.108-3.916-1.366-7.809-3.722-10.899c-6.197-8.127-17.808-9.427-27.021-6.365
				c-0.608-0.077-1.171,0.151-1.574,0.922c-0.502,0.962-0.38,2.215-0.275,3.253c0.124,1.224,0.381,2.429,0.795,3.588
				c0.458,1.285,1.076,2.515,1.857,3.634c0.75,1.075,1.687,2.3,2.836,2.968c0.001,0.001,0.003,0.001,0.004,0.002
				c0.174,0.331,0.627,0.521,0.985,0.181c2.838-2.694,7.626,0.432,9.126,3.184c1.214,2.227,0.853,5.168,0.509,7.572
				c-0.358,2.499-0.926,5.003-0.894,7.54c0.1,7.894,6.005,15.74,13.812,17.481c4.999,1.115,9.389-1.18,14.238-1.89
				c2.078-0.304,4.376-0.163,6.246,0.872c2.324,1.285,3.052,3.736,2.745,6.259c-0.302,2.483-1.296,4.82-1.742,7.274
				c-0.34,1.873-0.442,3.786-0.293,5.685c0.299,3.802,1.511,7.59,3.714,10.724c2.667,3.793,6.611,6.295,11.215,6.971
				c5.819,0.855,11.656-0.94,17.095-2.826c0.153-0.053,0.256-0.145,0.338-0.25c0.241,0.025,0.493-0.015,0.753-0.15
				c0.776-0.402,1.098-1.352,1.176-2.168C1144.838,629.984,1144.085,627.617,1143.179,625.732z M1062.554,559.812
				c-0.854-1.862-1.315-3.959-1.239-6.011c0.012-0.312,0.034-0.816,0.251-1.089c0.12,0.043,0.254,0.063,0.414,0.018
				c0.084-0.023,0.17-0.042,0.254-0.065c0.199,0.112,0.39,0.274,0.526,0.375c0.737,0.545,1.402,1.217,1.944,1.956
				c1.067,1.454,1.76,3.201,1.961,4.995c0.116,1.031,0.107,2.09-0.069,3.114c-0.024,0.141-0.212,0.771-0.26,1.289
				c-0.086,0.065-0.168,0.138-0.251,0.21c-0.64-0.718-1.364-1.348-1.95-2.126C1063.515,561.651,1062.985,560.751,1062.554,559.812z
				 M1125.907,636.103c-4.539-0.557-8.444-3.04-10.932-6.861c-2.228-3.422-3.292-7.544-3.21-11.612
				c0.045-2.227,0.541-4.318,1.136-6.451c0.623-2.232,1.296-4.595,0.929-6.931c-0.661-4.21-4.676-6.132-8.593-6.136
				c-5.077-0.005-9.72,3.049-14.861,2.247c-4.218-0.658-7.952-3.334-10.386-6.78c-2.797-3.96-3.596-8.435-2.908-13.178
				c0.687-4.736,2.159-10.327-1.683-14.112c-1.895-1.867-5.141-3.432-7.762-2.573c0.081-0.325,0.134-0.637,0.173-0.841
				c0.204-1.072,0.22-2.167,0.078-3.247c-0.287-2.171-1.17-4.226-2.56-5.919c-0.335-0.408-0.861-0.972-1.457-1.456
				c8.618-1.968,18.573-1.154,24.165,6.561c2.452,3.382,3.815,7.758,2.954,11.92c-0.83,4.016-4.852,8.189-3.083,12.465
				c1.473,3.559,5.822,3.923,9.152,3.634c5.385-0.468,10.782-1.649,16.166-0.442c4.261,0.955,8.635,3.593,10.156,7.894
				c1.793,5.07-0.677,10.314-1.436,15.328c-0.584,3.862-0.336,8.591,2.573,11.539c3.269,3.313,7.908,2.417,11.873,0.931
				c-0.003,0.668,0.106,1.364,0.177,1.927c0.143,1.128,0.396,2.237,0.77,3.31c0.758,2.173,1.958,4.192,3.545,5.863
				c0.101,0.106,0.21,0.218,0.322,0.331C1136.32,635.189,1131.11,636.742,1125.907,636.103z M1143.272,632.674
				c-0.133,0.335-0.28,0.598-0.636,0.456c-0.432-0.173-0.865-0.773-1.172-1.115c-1.279-1.423-2.276-3.116-2.919-4.917
				c-0.352-0.984-0.611-2.006-0.757-3.04c-0.08-0.567-0.122-1.141-0.134-1.714c-0.005-0.25,0.01-0.507,0.01-0.761
				c0.186-0.077,0.373-0.154,0.554-0.231c0.057-0.024,0.095-0.062,0.135-0.098c0.1,0.144,0.208,0.284,0.351,0.422
				c0.34,0.328,0.676,0.661,0.995,1.009c0.653,0.711,1.235,1.482,1.734,2.309c0.953,1.579,1.59,3.335,1.865,5.16
				C1143.417,630.945,1143.578,631.903,1143.272,632.674z"/>
		</g>
		<g>
			<path style="fill:#C313D6;" d="M137.409,279.35c-3.715-2.936-9.093-4.78-13.829-4.063c-4.903,0.743-8.098,4.565-10.438,8.637
				c-5.076,8.831-8.273,18.827-14.931,26.697c-6.819,8.06-16.791,11.789-25.638,17.056c-18.663,11.11-29.058,30.907-35.21,51.077
				c-0.81,2.656-1.554,5.331-2.259,8.016c-0.14,0.137-0.217,0.335-0.138,0.593c1.419,4.607,4.305,8.796,7.932,11.949
				c1.904,1.655,4.026,3.053,6.355,4.033c2.221,0.934,4.949,1.66,7.385,1.233c0.113,0.012,0.232,0.004,0.357-0.058
				c18.815-9.35,36.457-23.407,45.115-43.042c2.196-4.98,3.563-10.168,4.744-15.467c1.302-5.841,2.804-11.596,4.883-17.215
				c1.863-5.036,4.164-10.089,8.236-13.736c2.124-1.902,4.522-3.477,6.709-5.305c2.067-1.728,4.027-3.584,5.866-5.553
				c3.404-3.645,6.802-7.739,8.311-12.577C142.29,287.042,141.253,282.389,137.409,279.35z M112.877,322.405
				c-0.408-0.174-0.848-0.305-1.229-0.477c-0.697-0.316-1.375-0.674-2.032-1.067c-1.384-0.827-2.67-1.807-3.88-2.87
				c-2.309-2.028-4.32-4.35-6.34-6.658c0.572-0.69,1.122-1.395,1.653-2.116c0.733,1.084,1.7,2.072,2.625,2.955
				c1.099,1.048,2.279,2.007,3.484,2.93c1.227,0.939,2.479,1.853,3.747,2.736c1.068,0.744,2.218,1.429,3.474,1.797
				C113.835,320.532,113.341,321.461,112.877,322.405z M98.697,312.152c2.02,2.419,4.129,4.792,6.517,6.854
				c1.172,1.013,2.419,1.948,3.749,2.744c0.69,0.413,1.402,0.789,2.136,1.117c0.385,0.172,0.837,0.401,1.292,0.553
				c-0.436,0.939-0.85,1.888-1.242,2.849c-0.423-0.123-0.907-0.128-1.325-0.273c-0.823-0.286-1.578-0.754-2.306-1.225
				c-1.531-0.988-2.963-2.116-4.361-3.281c-1.313-1.095-2.671-2.177-3.869-3.399c-1.09-1.111-1.913-2.379-2.66-3.723
				C97.349,313.655,98.035,312.912,98.697,312.152z M103.216,354.516c-6.265,19.987-22.304,34.866-39.964,45.129
				c-2.248,1.306-4.535,2.549-6.839,3.754c-1.173-0.033-2.312-0.025-3.479-0.271c-1.269-0.267-2.504-0.699-3.675-1.253
				c-2.09-0.989-4.028-2.329-5.744-3.874c-3.234-2.913-5.556-6.54-7.132-10.568c0.012-0.03,0.033-0.05,0.042-0.084
				c5.299-20.195,13.641-40.902,30.593-54.125c7.889-6.153,17.51-9.457,25.546-15.37c1.164-0.856,2.247-1.774,3.274-2.734
				c1.496,3.097,4.213,5.3,6.833,7.467c1.477,1.222,2.996,2.406,4.624,3.422c0.702,0.438,1.435,0.842,2.22,1.112
				c0.343,0.118,0.77,0.262,1.18,0.299c-1.348,3.468-2.452,7.045-3.414,10.615C105.806,343.498,104.91,349.111,103.216,354.516z
				 M115.054,318.589c-1.338-0.373-2.505-1.051-3.644-1.849c-1.201-0.841-2.391-1.704-3.557-2.592
				c-1.158-0.883-2.286-1.809-3.341-2.814c-1.014-0.966-1.861-2.036-2.767-3.088c0.559-0.796,1.102-1.605,1.623-2.43
				c0.257,0.37,0.574,0.706,0.871,1.04c0.536,0.604,1.1,1.183,1.677,1.749c1.113,1.09,2.292,2.109,3.523,3.064
				c2.273,1.764,4.749,3.354,7.362,4.585c-0.118,0.14-0.248,0.267-0.363,0.411C115.945,317.285,115.491,317.932,115.054,318.589z
				 M133.819,300.539c-3.462,4.126-7.422,7.698-11.717,10.934c-1.618,1.219-3.177,2.48-4.559,3.943
				c-2.565-1.298-5.026-2.723-7.315-4.482c-1.212-0.931-2.369-1.937-3.475-2.991c-0.555-0.53-1.093-1.077-1.622-1.632
				c-0.408-0.427-0.792-0.932-1.262-1.304c1.986-3.249,3.726-6.686,5.406-10.171c2.086-4.328,4.025-8.917,6.841-12.834
				c1.478-2.056,3.379-3.931,5.811-4.789c2.589-0.914,5.416-0.681,8.015,0.064c4.742,1.359,9.955,4.486,10.103,9.981
				C140.178,292.284,136.9,296.867,133.819,300.539z"/>
			<path style="fill:#FF5500;" d="M134.115,794.933c-1.195-21.219-6.797-43.044-21.547-59.025
				c-3.609-3.91-7.748-7.163-12.024-10.306c-4.659-3.425-9.169-6.989-13.345-10.997c-3.856-3.701-7.688-7.796-9.486-12.935
				c-0.932-2.664-1.389-5.471-2.149-8.184c-0.743-2.653-1.656-5.255-2.723-7.795c-3.118-7.416-9.594-19.404-19.588-15.499
				c-4.24,1.657-8.118,5.554-9.958,9.696c-2.08,4.68-0.786,9.359,1.937,13.465c5.635,8.498,13.617,15.202,18.583,24.196
				c5.532,10.019,4.829,21.339,6.229,32.339c2.745,21.574,16.791,39.157,32.886,52.844c1.975,1.679,3.989,3.309,6.033,4.903
				c0.077,0.238,0.273,0.445,0.584,0.481c5.148,0.591,10.515-0.582,15.089-2.971c3.717-1.942,8.111-5.374,9.25-9.675
				C134.031,795.357,134.129,795.182,134.115,794.933z M66.34,719.459c3.017-0.873,6.022-1.851,8.864-3.194
				c1.45-0.685,2.851-1.479,4.152-2.42c0.631-0.456,1.241-0.943,1.819-1.464c0.309-0.279,0.649-0.575,0.942-0.901
				c0.684,0.782,1.387,1.549,2.11,2.3c-0.291,0.35-0.505,0.809-0.811,1.13c-0.554,0.581-1.212,1.047-1.878,1.489
				c-1.436,0.954-2.955,1.778-4.493,2.553c-1.548,0.78-3.107,1.591-4.717,2.238c-1.561,0.627-3.162,0.908-4.816,1.065
				C67.155,721.304,66.768,720.371,66.34,719.459z M64.595,716.122c2.835-0.515,5.587-1.962,8.058-3.336
				c1.356-0.754,2.709-1.528,4.025-2.351c1.04-0.651,2.024-1.394,2.814-2.328c0.578,0.859,1.216,1.697,1.902,2.523
				c-0.343,0.318-0.66,0.688-0.988,0.982c-0.575,0.515-1.182,0.993-1.814,1.435c-1.28,0.895-2.654,1.652-4.066,2.316
				c-2.787,1.309-5.733,2.208-8.664,3.128C65.46,717.688,65.041,716.898,64.595,716.122z M62.408,712.64
				c0.497-0.095,0.99-0.28,1.454-0.434c0.728-0.241,1.446-0.512,2.157-0.799c1.466-0.591,2.897-1.266,4.286-2.021
				c2.52-1.37,4.953-3.009,7.127-4.898c0.421,0.878,0.889,1.734,1.401,2.569c-0.875,1.099-2.002,1.894-3.197,2.618
				c-1.221,0.74-2.457,1.46-3.705,2.152c-1.303,0.722-2.63,1.408-4.005,1.983c-1.29,0.539-2.607,0.893-3.938,1.286
				C63.482,714.265,62.954,713.447,62.408,712.64z M44.93,689.867c-1.132-2.363-1.608-4.974-0.937-7.542
				c0.649-2.48,2.129-4.668,3.878-6.508c3.36-3.535,8.141-6.316,12.964-3.933c4.232,2.092,6.872,6.5,8.904,10.571
				c2.493,4.996,4.172,10.233,5.453,15.653c0.448,1.896,1.034,3.676,1.769,5.37c-2.262,1.871-4.613,3.573-7.2,4.981
				c-1.346,0.733-2.733,1.395-4.151,1.979c-0.668,0.275-1.344,0.529-2.024,0.775c-0.558,0.202-1.183,0.353-1.72,0.635
				c-2.424-3.471-5.183-6.745-7.949-9.98C50.723,698.129,47.073,694.341,44.93,689.867z M129.361,800.061
				c-1.634,1.619-3.571,2.922-5.613,3.97c-4.293,2.203-9,2.995-13.781,2.796c-16.079-13.041-31.515-28.545-36.979-49.159
				c-2.726-10.287-1.664-21.093-4.212-31.397c-0.252-1.02-0.557-2.012-0.893-2.988c3.542-0.12,6.783-1.832,9.895-3.406
				c1.707-0.864,3.403-1.785,4.964-2.897c0.641-0.457,1.899-1.348,2.382-2.291c2.66,2.659,5.531,5.132,8.443,7.468
				c4.191,3.362,8.709,6.308,12.79,9.807c15.958,13.679,23.401,34.456,25.664,54.846c0.3,2.701,0.515,5.41,0.669,8.124
				c0.002,0.038,0.019,0.065,0.026,0.099C131.802,796.892,130.881,798.555,129.361,800.061z"/>
			<path style="fill:#8CBF00;" d="M112.38,508.593c0.568-0.401,1.281,0.532,0.742,0.962c-1.594,1.27-3.261,2.394-5.05,3.371
				c-14.79,8.078-33.525,6.334-46.335-4.658c-5.967-5.12-10.504-11.945-12.762-19.488c-2.545-8.503-2.087-17.872,1.091-26.145
				c6.107-15.898,22.252-26.557,39.277-25.937c8.51,0.31,16.956,3.193,23.721,8.39c6.65,5.109,11.552,12.326,14.069,20.31
				c5.128,16.268-1.04,34.361-14.535,44.635c-0.657,0.5-1.298-0.615-0.648-1.108c1.611-1.22,3.124-2.564,4.527-4.019
				c5.598-5.811,9.323-13.353,10.641-21.308c1.33-8.027-0.055-16.413-3.645-23.694c-3.603-7.308-9.352-13.423-16.55-17.273
				c-7.287-3.898-15.722-5.495-23.923-4.438c-16.476,2.123-30.081,15.055-33.387,31.272c-3.242,15.902,3.951,32.295,17.565,41.024
				C81.101,519.42,99.09,517.978,112.38,508.593L112.38,508.593z M77.092,459.43c0.245,0.045,0.375,0.051,0.606-0.067
				c0.22-0.112,0.421-0.25,0.612-0.405c0.402-0.325,0.744-0.77,1.009-1.212c0.483-0.805,0.766-1.784,0.669-2.725
				c-0.093-0.906-0.44-1.792-1.103-2.436c-0.742-0.721-1.79-1.023-2.809-0.917c-1.976,0.205-3.872,1.583-4.732,3.372
				c-0.831,1.731-0.78,3.957,0.881,5.177c0.874,0.642,2.016,0.814,3.067,0.633c0.576-0.099,1.15-0.318,1.652-0.616
				c0.263-0.156,0.511-0.336,0.745-0.532c0.225-0.188,0.386-0.412,0.581-0.628c0.42-0.464-0.153-1.344-0.71-0.92
				c-0.316,0.24-0.687,0.44-1.03,0.645c-0.329,0.197-0.674,0.372-1.039,0.488c-0.66,0.209-1.391,0.23-2.037-0.048
				c-1.297-0.557-1.411-2.071-0.971-3.247c0.49-1.308,1.731-2.405,3.063-2.794c0.69-0.202,1.474-0.233,2.098,0.175
				c0.509,0.333,0.794,0.897,0.922,1.476c0.16,0.721-0.013,1.469-0.359,2.11c-0.199,0.369-0.44,0.699-0.697,1.029
				c-0.15,0.193-0.298,0.389-0.441,0.588c-0.145,0.2-0.178,0.328-0.189,0.573C76.873,459.267,76.972,459.408,77.092,459.43
				L77.092,459.43z M68.412,468.978c0.226-0.018,0.456,0.018,0.664-0.086c0.199-0.099,0.392-0.238,0.57-0.371
				c0.397-0.294,0.73-0.69,1.009-1.095c0.526-0.762,0.838-1.696,0.825-2.625c-0.025-1.92-1.342-3.459-3.264-3.669
				c-1.864-0.203-3.733,0.842-4.837,2.294c-1.111,1.462-1.374,3.585-0.222,5.109c0.691,0.914,1.782,1.408,2.917,1.448
				c1.201,0.042,2.315-0.484,3.217-1.242c0.587-0.493-0.197-1.528-0.827-1.072c-1.083,0.783-2.72,1.291-3.853,0.295
				c-1.002-0.88-0.882-2.392-0.223-3.431c0.674-1.063,1.926-1.879,3.195-1.952c1.237-0.071,2.248,0.642,2.432,1.904
				c0.104,0.715-0.089,1.425-0.454,2.037c-0.208,0.349-0.464,0.64-0.726,0.947c-0.125,0.146-0.249,0.292-0.377,0.435
				c-0.178,0.201-0.207,0.366-0.319,0.597C68.043,468.7,68.154,468.999,68.412,468.978L68.412,468.978z M65.816,459.06
				c0.953-0.208,1.72-1.085,2.266-1.844c0.589-0.818,0.961-1.803,0.991-2.816c0.059-1.949-1.353-3.562-3.251-3.893
				c-1.877-0.327-3.694,0.59-4.848,2.052c-1.199,1.52-1.85,3.749-0.601,5.444c0.624,0.847,1.552,1.449,2.593,1.633
				c1.19,0.21,2.312-0.04,3.34-0.655c0.748-0.447,0.093-1.519-0.674-1.154c-1.221,0.582-2.815,0.626-3.817-0.387
				c-1.053-1.065-0.65-2.596,0.112-3.706c0.716-1.044,1.913-1.871,3.217-1.823c1.206,0.044,2.323,0.864,2.438,2.114
				c0.078,0.846-0.219,1.66-0.682,2.356c-0.471,0.708-1.227,1.253-1.585,2.028C65.155,458.762,65.42,459.147,65.816,459.06
				L65.816,459.06z"/>
			<path style="fill:#277AFF;" d="M59.165,101.289c0.505,0.592-0.313,1.442-0.866,0.866c-1.385-1.444-2.628-2.985-3.748-4.643
				c-9.321-13.794-9.447-32.517,0.098-46.209c4.488-6.438,10.741-11.623,17.99-14.663c8.234-3.453,17.613-3.961,26.222-1.65
				c16.596,4.454,28.821,19.642,29.852,36.757c0.523,8.676-1.686,17.58-6.422,24.883c-4.46,6.879-11.068,12.259-18.608,15.437
				c-15.686,6.611-34.334,2.229-45.8-10.273c-0.558-0.608,0.35-1.518,0.907-0.907c1.326,1.453,2.747,2.813,4.273,4.056
				c6.363,5.183,14.425,8.301,22.61,8.829c7.889,0.508,15.805-1.507,22.594-5.531c6.929-4.108,12.531-10.238,15.833-17.599
				c3.457-7.706,4.404-16.508,2.591-24.76c-3.612-16.443-17.969-29.058-34.717-30.646c-8.254-0.783-16.611,1.003-23.725,5.283
				c-6.48,3.898-11.814,9.649-15.235,16.391C45.635,71.453,48.75,89.085,59.165,101.289L59.165,101.289z M104.962,61.788
				c-0.042,0.477,0.316,0.872,0.651,1.187c0.359,0.337,0.799,0.621,1.245,0.828c0.909,0.423,1.897,0.588,2.885,0.394
				c0.914-0.179,1.757-0.698,2.312-1.446c0.623-0.841,0.733-1.925,0.512-2.926c-0.432-1.96-2.099-3.644-3.969-4.291
				c-1.74-0.602-3.94-0.241-4.895,1.482c-0.54,0.974-0.612,2.176-0.266,3.228c0.172,0.522,0.422,1.023,0.753,1.462
				c0.185,0.245,0.377,0.482,0.601,0.693c0.221,0.208,0.475,0.353,0.716,0.535c0.553,0.416,1.138-0.452,0.71-0.92
				c-0.488-0.534-0.989-1.236-1.269-1.908c-0.257-0.617-0.324-1.307-0.135-1.952c0.382-1.304,1.789-1.648,2.986-1.361
				c1.39,0.334,2.632,1.425,3.195,2.735c0.279,0.649,0.413,1.448,0.102,2.111c-0.259,0.552-0.785,0.936-1.355,1.121
				c-0.732,0.237-1.491,0.166-2.199-0.127c-0.414-0.172-0.784-0.415-1.161-0.654c-0.361-0.228-0.692-0.501-1.129-0.481
				C105.085,61.506,104.976,61.626,104.962,61.788L104.962,61.788z M94.675,54.021c0.041,0.241,0.036,0.432,0.175,0.644
				c0.131,0.199,0.289,0.4,0.454,0.572c0.323,0.337,0.743,0.628,1.155,0.845c0.789,0.416,1.686,0.649,2.58,0.561
				c1.903-0.187,3.4-1.597,3.425-3.559c0.024-1.881-1.161-3.66-2.72-4.636c-1.596-1-3.799-1.031-5.211,0.323
				c-0.791,0.759-1.169,1.912-1.079,2.995c0.096,1.162,0.658,2.199,1.48,3.012c0.631,0.624,1.539-0.309,0.965-0.965
				c-0.871-0.997-1.427-2.588-0.548-3.764c0.77-1.03,2.296-1.061,3.35-0.507c1.156,0.608,2.107,1.792,2.275,3.112
				c0.164,1.285-0.605,2.297-1.87,2.532c-0.677,0.126-1.383-0.03-1.987-0.346c-0.359-0.188-0.675-0.42-1.004-0.653
				c-0.143-0.101-0.284-0.209-0.426-0.31c-0.202-0.143-0.4-0.159-0.625-0.244C94.816,53.538,94.638,53.808,94.675,54.021
				L94.675,54.021z M104.293,50.437c0.301,0.951,1.243,1.67,2.08,2.144c0.861,0.487,1.868,0.791,2.865,0.711
				c2.022-0.161,3.429-1.698,3.594-3.691c0.31-3.746-4.925-7.287-8.007-4.613c-1.741,1.51-1.721,4.147-0.429,5.918
				c0.495,0.68,1.603,0.082,1.153-0.674c-0.686-1.155-0.942-2.728-0.039-3.84c0.957-1.178,2.542-0.959,3.734-0.277
				c1.092,0.625,2.074,1.73,2.119,3.045c0.044,1.267-0.699,2.449-2.013,2.638c-0.774,0.111-1.569-0.1-2.245-0.47
				c-0.781-0.427-1.424-1.138-2.268-1.436C104.521,49.781,104.195,50.128,104.293,50.437L104.293,50.437z"/>
			<path style="fill:#8CBF00;" d="M123.515,215.813c-2.349-3.145-5.668-5.619-9.457-6.724c-1.885-0.549-3.878-0.735-5.828-0.493
				c-2.241,0.279-4.34,1.164-6.549,1.593c-2.298,0.447-4.878,0.107-5.863-2.332c-0.81-2.007-0.332-4.413,0.201-6.426
				c1.33-5.02,3.122-9.952,3.021-15.223c-0.075-3.917-1.31-7.972-3.975-10.915c-3.138-3.465-7.67-4.161-12.131-3.974
				c-4.733,0.199-9.744,1.129-14.128-1.243c-2.089-1.13-3.643-3.031-3.797-5.472c-0.198-3.147,1.62-6.007,3.12-8.626
				c0.099-0.173,0.11-0.336,0.076-0.483c0.012-0.044,0.039-0.078,0.036-0.131c-0.05-1.023-0.955-2.034-1.569-2.806
				c-0.702-0.883-1.509-1.677-2.395-2.376c-1.731-1.365-3.751-2.373-5.906-2.861c-0.904-0.205-1.927-0.291-2.755,0.217
				c-0.504,0.309-0.714,0.755-0.72,1.231c-0.075,0.05-0.144,0.117-0.2,0.214c-4.653,8.024-8.641,18.521-2.236,26.746
				c2.433,3.124,5.868,5.356,9.588,6.644c1.896,0.657,3.887,1.051,5.889,1.184c2.225,0.148,4.398-0.196,6.606-0.397
				c2.296-0.209,4.908-0.311,6.793,1.246c1.812,1.496,2.217,3.986,1.994,6.209c-0.496,4.934-4.113,8.926-4.636,13.891
				c-0.843,8.007,5.199,15.687,12.586,18.168c2.486,0.835,5.082,0.928,7.683,0.936c2.881,0.009,6.187-0.191,8.828,1.172
				c2.879,1.486,5.973,7.484,2.55,9.92c-0.625,0.445-0.249,1.362,0.331,1.394c0.076,0.741,0.974,1.69,1.324,2.113
				c0.777,0.941,1.704,1.751,2.7,2.452c1.935,1.363,4.234,2.303,6.589,2.594c0.898,0.111,2.051-0.008,2.533-0.895
				c0.145-0.267,0.191-0.553,0.175-0.845C127.928,233.583,129.081,223.264,123.515,215.813z M56.196,148.623
				c0.486-0.518,1.649-0.183,2.209-0.041c1.817,0.462,3.536,1.309,5.017,2.458c0.793,0.615,1.52,1.322,2.166,2.091
				c0.339,0.404,0.65,0.829,0.938,1.271c0.168,0.258,0.313,0.538,0.485,0.795c-0.026,0.029-0.056,0.046-0.079,0.081
				c-0.117,0.179-0.234,0.363-0.351,0.547c-0.17-0.042-0.343-0.075-0.512-0.114c-0.46-0.104-0.92-0.215-1.372-0.349
				c-0.92-0.272-1.816-0.614-2.672-1.048c-1.733-0.878-3.278-2.07-4.57-3.521C57.135,150.435,55.773,149.073,56.196,148.623z
				 M109.113,223.85c-1.881-1.264-4.367-1.549-6.575-1.666c-2.72-0.143-5.475,0.114-8.18-0.285
				c-2.107-0.311-4.128-1.083-5.947-2.185c-3.645-2.21-6.554-5.787-7.746-9.901c-0.607-2.092-0.756-4.322-0.307-6.461
				c0.554-2.643,1.888-5.019,2.945-7.478c1.571-3.655,2.616-8.489-0.251-11.833c-3.107-3.626-8.293-2.212-12.39-1.936
				c-4.194,0.282-8.465-0.766-12.074-2.916c-4.244-2.529-7.446-6.672-8.009-11.668c-0.697-6.18,2.193-11.927,4.889-17.296
				c1.227,1.785,2.878,3.294,4.718,4.422c1.09,0.668,2.265,1.21,3.48,1.606c0.597,0.195,1.214,0.354,1.834,0.456
				c0.161,0.026,0.327,0.054,0.494,0.077c-2.018,3.438-3.572,7.626-1.421,11.31c1.819,3.116,5.54,4.464,8.94,4.904
				c4.617,0.598,9.256-0.733,13.87-0.067c4.804,0.694,8.116,4.081,9.473,8.639c1.498,5.028,0.36,10.288-1.025,15.205
				c-1.035,3.674-3.056,8.348-1.167,12.086c2.099,4.154,6.932,2.959,10.514,1.938c2.167-0.618,4.282-1.034,6.539-0.713
				c2.118,0.3,4.135,1.109,5.939,2.248c4.322,2.727,7.048,7.183,7.923,12.173c0.912,5.205-0.157,10.507-2.208,15.317
				c-0.138-0.232-0.281-0.451-0.409-0.644c-1.2-1.808-2.943-3.238-4.928-4.108c-1.551-0.679-3.536-1.174-5.349-1.005
				c0.919-1.962,0.518-4.455-0.436-6.463C111.544,226.125,110.482,224.77,109.113,223.85z M120.615,241.836
				c-2.021-0.408-3.924-1.269-5.581-2.494c-0.918-0.678-1.751-1.474-2.505-2.329c-0.126-0.143-0.652-0.909-1.116-1.298
				c0.099-0.083,0.194-0.169,0.285-0.257c0.732-0.07,1.449-0.175,2.199-0.14c0.947,0.045,1.88,0.237,2.778,0.542
				c1.77,0.602,3.378,1.69,4.581,3.123c0.529,0.63,1.243,1.551,1.419,2.384c-0.016,0.033-0.031,0.067-0.047,0.101
				c-0.058,0.121-0.066,0.236-0.056,0.346C122.192,242.183,120.995,241.913,120.615,241.836z"/>
			<path style="fill:#277AFF;" d="M130.507,553.54c-0.069-0.899-0.423-1.998-1.404-2.255c-0.252-0.066-0.504-0.058-0.751-0.002
				c-8.294-2.572-18.403-2.099-24.916,4.225c-2.807,2.726-4.816,6.387-5.41,10.267c-0.289,1.891-0.254,3.82,0.186,5.686
				c0.523,2.22,1.72,4.184,2.574,6.279c0.895,2.196,1.397,4.931-0.804,6.548c-1.532,1.126-3.667,1.213-5.492,1.135
				c-5.245-0.225-10.317-1.501-15.599-0.795c-4.183,0.56-8.389,2.354-11.115,5.682c-3.012,3.678-3.028,8.261-2.121,12.718
				c0.972,4.772,2.787,9.756,0.921,14.567c-0.871,2.245-2.662,3.927-5.076,4.345c-2.961,0.513-5.954-0.784-8.665-1.801
				c-0.173-0.065-0.332-0.041-0.468,0.03c-0.047-0.004-0.091-0.021-0.141-0.01c-0.985,0.211-1.904,1.344-2.544,2.069
				c-0.727,0.823-1.369,1.726-1.901,2.687c-1.085,1.958-1.735,4.148-1.865,6.383c-0.052,0.888,0.06,1.888,0.679,2.58
				c0.391,0.437,0.876,0.577,1.357,0.499c0.066,0.075,0.147,0.142,0.259,0.185c8.543,3.256,19.426,5.51,26.514-1.901
				c2.621-2.741,4.32-6.313,5.068-10.013c0.82-4.056,0.375-7.913-0.727-11.859c-0.691-2.472-1.615-5.395-0.428-7.864
				c0.966-2.008,3.105-2.976,5.216-3.254c5.017-0.661,9.635,2.402,14.636,2.299c8.096-0.166,14.971-7.147,16.433-14.87
				c0.478-2.528,0.27-5.021-0.116-7.547c-0.463-3.036-1.285-6.375-0.416-9.416c0.929-3.25,6.459-7.277,9.48-4.23
				c0.532,0.537,1.286-0.012,1.244-0.599c0.72-0.17,1.513-1.196,1.871-1.61c0.802-0.926,1.475-1.964,2.005-3.067
				C130.024,558.483,130.691,555.941,130.507,553.54z M47.589,633.155c-0.645-0.311-0.473-1.725-0.427-2.261
				c0.16-1.842,0.733-3.657,1.616-5.279c0.492-0.905,1.078-1.759,1.758-2.532c0.357-0.406,0.738-0.79,1.139-1.153
				c0.201-0.181,0.417-0.347,0.616-0.528c0.004,0.002,0.005,0.005,0.009,0.006c0.238,0.106,0.481,0.212,0.727,0.316
				c-0.017,0.101-0.043,0.193-0.049,0.305c-0.026,0.488-0.058,0.976-0.113,1.462c-0.112,0.987-0.319,1.966-0.613,2.915
				c-0.568,1.83-1.484,3.56-2.692,5.05C49.257,631.829,48.118,633.41,47.589,633.155z M116.193,565.35
				c-1.321,1-2.459,2.308-3.053,3.872c-0.837,2.205-0.628,4.778-0.325,7.063c0.36,2.718,1.019,5.43,0.925,8.188
				c-0.075,2.201-0.653,4.386-1.597,6.372c-1.845,3.879-5.129,7.219-9.18,8.757c-1.946,0.739-4.022,1.033-6.095,0.824
				c-2.851-0.288-5.544-1.386-8.34-1.953c-3.686-0.747-8.338-0.445-10.689,2.931c-2.777,3.987-0.102,8.931,0.656,13.105
				c0.736,4.052,0.194,8.403-1.495,12.157c-1.923,4.275-5.388,7.712-9.967,8.981c-5.957,1.65-12.055-0.268-17.759-2.059
				c1.53-1.412,2.71-3.308,3.507-5.199c0.516-1.223,0.89-2.499,1.093-3.812c0.093-0.6,0.158-1.211,0.169-1.818
				c0.004-0.21-0.013-0.422-0.022-0.633c3.593,1.399,7.78,2.284,11.069-0.143c2.935-2.166,3.815-6.049,3.759-9.514
				c-0.078-4.871-2.295-9.428-2.306-14.303c-0.011-5.018,3.169-8.814,7.634-10.764c5.003-2.185,10.676-1.617,15.943-0.973
				c3.53,0.431,8.136,1.336,11.105-1.259c3.611-3.157,0.96-7.853-0.599-11.309c-1.807-4.007-1.661-8.37,0.257-12.323
				c4.755-9.801,16.208-11.653,25.901-9.353c-0.171,0.144-0.334,0.288-0.48,0.419c-1.621,1.448-2.769,3.421-3.33,5.514
				c-0.313,1.167-0.452,2.396-0.384,3.603c0.034,0.608,0.108,1.272,0.256,1.912C120.632,562.998,118.033,563.958,116.193,565.35z
				 M129.218,554.422c-0.043,2.057-0.574,4.107-1.508,5.94c-0.54,1.059-1.2,2.061-1.96,2.975c-0.102,0.122-0.777,0.771-1.094,1.296
				c-0.1-0.088-0.201-0.175-0.305-0.252c-0.192-0.73-0.422-1.437-0.498-2.205c-0.09-0.911-0.063-1.844,0.096-2.746
				c0.313-1.777,1.06-3.509,2.232-4.892c0.59-0.696,1.282-1.354,2.07-1.822c0.073-0.043,0.131-0.064,0.192-0.091
				c0.049,0.014,0.099,0.025,0.147,0.039c0.123,0.037,0.229,0.028,0.327,0.003c0.067,0.072,0.128,0.169,0.181,0.322
				C129.255,553.442,129.228,553.951,129.218,554.422z"/>
		</g>
		<g>
			<g>
				
					<text transform="matrix(1 0 0 1 193.4238 234.1172)" style="fill:#FF5500; font-family:'Poppins-Black'; font-size:124.6288px;">CERTIFICATE</text>
				<text transform="matrix(1 0 0 1 306.3472 108.627)" style="font-family:'Poppins-Regular'; font-size:41.5628px;">TOURNAMENT PARTICIPATION</text>
			</g>
			<g>
				<g>
					
						<line style="fill:none;stroke:#000000;stroke-width:1.4392;stroke-miterlimit:10;" x1="283.025" y1="731.895" x2="544.001" y2="731.895"/>
					<path d="M285.002,665.064c34.843,0.003,69.687,0.006,104.53,0.009c34.804,0.003,69.625,0.31,104.426-0.268
						c9.642-0.16,19.308-0.285,28.927-1.018c4.613-0.351,9.216-0.862,13.78-1.628c2.747-0.461,6.891-0.917,7.621-4.227
						c0.055-0.251-0.044-0.446-0.241-0.592c-6.667-4.962-14.952-6.677-22.967-8.12c-9.335-1.68-18.752-2.917-28.204-3.707
						c-18.667-1.559-37.889-1.833-56.45,0.999c-15.485,2.362-35.508,7.308-42.295,23.299c-1.124,2.647-2.692,7.074-1.214,9.861
						c1.488,2.806,5.262,2.305,7.836,1.77c7.092-1.475,13.67-5.344,18.497-10.734c11.189-12.493,9.318-29.955,12.379-45.307
						c0.401-2.013,0.9-4.003,1.509-5.964c-0.343-0.046-0.687-0.093-1.03-0.139c0.764,6.605,0.631,13.296-0.461,19.858
						c-0.543,3.258-1.31,6.478-2.298,9.63c-0.456,1.454-0.959,2.894-1.509,4.316c-0.588,1.52-1.121,3.541-2.132,4.841
						c-1.244,1.599-3.816-0.153-5.209-0.723c-1.649-0.676-3.305-1.336-4.967-1.979c-3.158-1.223-6.339-2.386-9.54-3.49
						c-6.487-2.237-13.058-4.231-19.695-5.975c-7.5-1.971-15.082-3.615-22.72-4.948c-0.66-0.115-0.944,0.896-0.279,1.012
						c14.489,2.528,28.768,6.2,42.668,11.01c3.453,1.195,6.882,2.459,10.284,3.791c1.66,0.65,3.313,1.316,4.96,1.999
						c1.199,0.497,2.659,1.406,4.004,0.989c1.101-0.342,1.563-1.402,2.01-2.375c0.725-1.579,1.385-3.192,1.988-4.822
						c1.205-3.256,2.167-6.602,2.883-9.999c1.601-7.599,1.956-15.419,1.063-23.132c-0.065-0.565-0.844-0.74-1.03-0.139
						c-4.543,14.635-1.856,31.27-9.471,44.985c-3.439,6.194-8.947,11.146-15.387,14.07c-3.039,1.38-6.802,2.763-10.196,2.6
						c-2.34-0.112-3.683-1.456-3.616-3.85c0.052-1.858,0.531-3.75,1.148-5.496c5.688-16.097,25.523-21.221,40.509-23.691
						c17.327-2.856,35.301-2.752,52.779-1.588c10.11,0.674,20.185,1.862,30.173,3.564c8.795,1.499,18.119,3.036,25.451,8.493
						c-0.08-0.198-0.161-0.395-0.241-0.592c-0.382,1.732-2.058,2.446-3.619,2.863c-1.943,0.52-3.996,0.767-5.983,1.057
						c-4.124,0.601-8.275,1-12.432,1.284c-8.417,0.575-16.864,0.713-25.297,0.865c-17.005,0.306-34.014,0.309-51.022,0.308
						c-34.18-0.003-68.36-0.006-102.54-0.009c-19.126-0.002-38.252-0.004-57.378-0.005
						C284.327,664.015,284.326,665.064,285.002,665.064L285.002,665.064z"/>
					<text transform="matrix(1 0 0 1 319.2386 718.1982)" style="fill:#FF5500; font-family:'Poppins-Bold'; font-size:23.6237px;">Anna Anderson</text>
					<text transform="matrix(1 0 0 1 352.744 756.751)" style="font-family:'Montserrat-Regular'; font-size:20.0802px;">Judge Director</text>
				</g>
				<g>
					
						<line style="fill:none;stroke:#000000;stroke-width:1.4392;stroke-miterlimit:10;" x1="646.55" y1="731.859" x2="907.526" y2="731.859"/>
					<path d="M647.514,646.657c28.283,1.291,56.701-1.473,84.22-8.125c7.95-1.922,15.817-4.17,23.59-6.715
						c0.309-0.101,0.421-0.414,0.285-0.699c-3.271-6.83-12.737-4.61-18.631-3.77c-8.836,1.26-17.568,3.234-26.097,5.864
						c-17.439,5.378-34.005,13.489-49.087,23.751c-2.882,1.961-6.094,4.033-7.421,7.422c-0.209,0.533-0.65,1.514-0.489,2.092
						c0.185,0.663,1.192,1.372,1.694,1.831c1.357,1.243,2.892,2.292,4.536,3.118c7.325,3.683,16.155,3.181,24.037,2.117
						c9.921-1.339,19.647-4.099,29.277-6.767c9.87-2.734,19.677-5.689,29.461-8.714c19.7-6.091,39.362-12.307,59.04-18.469
						c2.434-0.762,4.868-1.524,7.302-2.286c-0.122-0.29-0.245-0.58-0.367-0.87c-13.122,7.332-26.26,14.959-36.386,26.29
						c-0.227,0.254-0.158,0.711,0.21,0.796c10.165,2.356,20.301-0.949,29.849-4.264c10.307-3.579,20.699-6.858,31.253-9.634
						c6.012-1.581,12.061-3.012,18.142-4.303c-0.179-0.233-0.358-0.466-0.538-0.7c-3.304,5.049-6.609,10.099-9.913,15.148
						c-0.181,0.277,0.013,0.599,0.285,0.7c3.141,1.159,6.348,0.264,9.446-0.597c3.784-1.052,7.568-2.106,11.351-3.159
						c7.568-2.106,15.135-4.212,22.703-6.318c-0.179-0.233-0.359-0.466-0.538-0.7c-2.284,3.705-3.366,7.968-3.353,12.307
						c0.001,0.248,0.218,0.49,0.476,0.476c8.172-0.419,16.344-0.839,24.515-1.258c0.61-0.031,0.614-0.984,0-0.952
						c-8.172,0.419-16.344,0.839-24.515,1.258c0.159,0.159,0.317,0.318,0.476,0.476c-0.012-4.18,1.023-8.257,3.223-11.826
						c0.219-0.356-0.143-0.809-0.538-0.7c-7.207,2.006-14.414,4.012-21.622,6.017c-3.513,0.978-7.027,1.956-10.541,2.933
						c-3.479,0.968-7.259,2.442-10.831,1.123c0.095,0.233,0.19,0.466,0.285,0.699c3.304-5.049,6.609-10.099,9.913-15.148
						c0.242-0.37-0.156-0.781-0.538-0.699c-10.387,2.206-20.682,4.831-30.854,7.879c-5.113,1.532-10.193,3.171-15.239,4.911
						c-4.903,1.691-9.784,3.483-14.825,4.729c-5.85,1.446-11.897,2.056-17.82,0.683c0.07,0.265,0.14,0.531,0.21,0.796
						c10.074-11.273,23.139-18.847,36.193-26.141c0.466-0.26,0.154-1.034-0.367-0.87c-18.642,5.837-37.283,11.68-55.927,17.512
						c-18.353,5.741-36.745,11.523-55.446,16.042c-8.776,2.121-17.99,3.977-27.063,3.238c-3.847-0.314-7.712-1.227-11.07-3.185
						c-0.836-0.487-1.633-1.034-2.386-1.642c-0.632-0.51-1.93-1.363-2.157-2.151c-0.209-0.727,0.497-1.942,0.848-2.552
						c0.518-0.903,1.194-1.698,1.943-2.417c2.931-2.818,6.707-4.942,10.13-7.1c3.727-2.35,7.536-4.571,11.42-6.654
						c7.691-4.124,15.673-7.705,23.879-10.674c8.04-2.909,16.292-5.234,24.675-6.922c4.196-0.845,8.424-1.532,12.673-2.048
						c3.388-0.412,7.116-1.046,10.414,0.177c1.77,0.656,3.066,1.894,3.876,3.586c0.095-0.233,0.19-0.466,0.285-0.7
						c-27.09,8.869-55.368,13.996-83.865,14.957c-7.896,0.266-15.8,0.209-23.692-0.151
						C646.901,645.676,646.903,646.629,647.514,646.657L647.514,646.657z"/>
					<text transform="matrix(1 0 0 1 668.8157 719.1787)" style="fill:#FF5500; font-family:'Poppins-Bold'; font-size:23.6237px;">Anette Sanderson</text>
					<text transform="matrix(1 0 0 1 706.5843 756.751)" style="font-family:'Montserrat-Regular'; font-size:20.0802px;">General Manager</text>
				</g>
			</g>
			<g>
				
					<line style="fill:none;stroke:#000000;stroke-width:1.4216;stroke-miterlimit:10;" x1="187.205" y1="464.92" x2="1007.553" y2="464.92"/>
				<rect x="184.964" y="489.819" style="fill:none;" width="831.036" height="97.314"/>
				<text transform="matrix(1 0 0 1 194.5862 504.6777)"><tspan x="0" y="0" style="font-family:'Poppins-Regular'; font-size:20.0802px;">The origins of the first constellations date back to prehistoric times. Their purpose </tspan><tspan x="40.823" y="24.096" style="font-family:'Poppins-Regular'; font-size:20.0802px;">was to tell stories of their beliefs, experiences, creation, or mythology. The </tspan><tspan x="142.115" y="48.192" style="font-family:'Poppins-Regular'; font-size:20.0802px;">recognition of constellations has changed over time.</tspan></text>
				<text transform="matrix(1 0 0 1 371.6406 328.084)" style="font-family:'Poppins-Regular'; font-size:30.2286px;">THIS IS PROUDLY PRESENTED TO:</text>
				<text transform="matrix(1 0 0 1 218.9399 437.0645)" style="font-family:'Poppins-Light'; font-size:106.2688px;">Olivia Williams</text>
			</g>
		</g>
	</g>
</g>
</svg>
