<?xml version="1.0" encoding="utf-8"?>
<!-- Generator: Adobe Illustrator 27.5.0, SVG Export Plug-In . SVG Version: 6.00 Build 0)  -->
<svg version="1.1" id="PRINT" xmlns="http://www.w3.org/2000/svg" xmlns:xlink="http://www.w3.org/1999/xlink" x="0px" y="0px"
	 viewBox="0 0 841.89 595.28" style="enable-background:new 0 0 841.89 595.28;" xml:space="preserve">
<g>
	<g>
		<g>
			<rect x="-11.339" y="-11.339" style="fill:#FDFDFE;" width="864.567" height="617.957"/>
			
				<rect x="145.148" y="-101.466" transform="matrix(-1.836970e-16 1 -1 -1.836970e-16 718.5825 -123.3067)" style="fill:none;stroke:#00729A;stroke-width:1.5601;stroke-miterlimit:10;" width="551.594" height="798.207"/>
		</g>
		<g>
			<defs>
				<rect id="SVGID_1_" x="-11.339" y="-11.339" width="864.567" height="617.957"/>
			</defs>
			<clipPath id="SVGID_00000163063076672085638690000003136757849082082447_">
				<use xlink:href="#SVGID_1_"  style="overflow:visible;"/>
			</clipPath>
			<g style="clip-path:url(#SVGID_00000163063076672085638690000003136757849082082447_);">
				<polygon style="fill:#A2D2E7;" points="71.257,622.886 77.011,605.554 250.894,538.066 266.053,547.161 				"/>
				<polygon style="fill:#A2D2E7;" points="853.229,606.619 856.316,383.053 277.584,606.619 				"/>
				<polygon style="fill:#0D4F69;" points="84.124,642.573 405.744,518.33 432.953,534.436 154.228,642.108 				"/>
				<polygon style="fill:#0D4F69;" points="180.165,694.032 180.165,683.885 521.652,551.968 531.94,558.14 				"/>
				<polygon style="fill:#70899A;" points="569.177,663.675 572.972,652.062 797.248,565.325 807.536,571.498 				"/>
				<polygon style="fill:#70899A;" points="265.982,634.29 265.982,629.79 663.331,476.669 667.973,479.454 				"/>
				<polygon style="fill:#0D4F69;" points="856.316,449.461 856.316,453.962 650.74,532.581 652.227,527.454 				"/>
				<polygon style="fill:#00729A;" points="793.466,464.337 793.466,468.837 587.889,547.457 589.256,542.375 				"/>
				<polygon style="fill:#0D4F69;" points="856.316,517.992 609.521,613.339 617.701,583.562 856.316,491.376 				"/>
				<polygon style="fill:#3094BE;" points="856.316,371.678 856.316,376.178 540.781,498.067 542.22,492.936 				"/>
				<polygon style="fill:#3094BE;" points="399.297,652.724 405.051,635.392 578.935,567.904 594.094,576.999 				"/>
				<polygon style="fill:#3094BE;" points="187.403,570.259 160.193,554.154 152.008,583.932 				"/>
				<polygon style="fill:#70899A;" points="674.642,567.921 651.499,554.222 644.537,579.55 				"/>
				<polygon style="fill:#0D4F69;" points="766.479,376.329 752.282,367.925 748.011,383.463 				"/>
				<polygon style="fill:#3094BE;" points="748.863,404.322 730.905,393.692 725.503,413.345 				"/>
				<polygon style="fill:#3094BE;" points="875.607,492.854 774.933,433.265 744.649,543.443 				"/>
				<polygon style="fill:#3094BE;" points="339.184,531.393 324.987,522.99 320.716,538.528 				"/>
			</g>
			<g style="clip-path:url(#SVGID_00000163063076672085638690000003136757849082082447_);">
				<polygon style="fill:#A2D2E7;" points="389.338,-11.339 -11.339,143.444 -11.339,-11.339 				"/>
				<polygon style="fill:#0D4F69;" points="86.167,72.609 89.804,61.478 278.119,-11.339 303.277,-11.339 				"/>
				<polygon style="fill:#3094BE;" points="-11.339,132.028 -11.339,127.715 180.854,53.676 185.303,56.346 				"/>
				<polygon style="fill:#3094BE;" points="247.666,56.15 221.585,40.713 213.74,69.256 				"/>
				<polygon style="fill:#00729A;" points="55.917,78.341 29.836,62.904 21.991,91.447 				"/>
				<polygon style="fill:#0D4F69;" points="71.189,47.86 53.976,37.672 48.798,56.51 				"/>
				<polygon style="fill:#A2D2E7;" points="108.558,126.735 91.344,116.547 86.167,135.385 				"/>
			</g>
		</g>
	</g>
	<g>
		<g>
			
				<text transform="matrix(1 0 0 1 314.6891 92.6008)" style="fill:#0D4F69; font-family:'JosefinSans'; font-size:34.1068px; letter-spacing:3;">CERTIFICATE</text>
			
				<text transform="matrix(1 0 0 1 337.9357 112.7765)" style="fill:#0D4F69; font-family:'JosefinSans-Light'; font-size:10.9686px; letter-spacing:5;">OF ACHIEVEMENT</text>
		</g>
		<rect x="173.917" y="316.536" style="fill:none;" width="494.057" height="43.498"/>
		<text transform="matrix(1 0 0 1 174.5455 322.0749)"><tspan x="0" y="0" style="fill:#3094BE; font-family:'OpenSansLight-Italic'; font-size:7.8004px;">Lorem ipsum dolor sit amet, consectetuer adipiscing elit, sed diam nonummy nibh euismod tincidunt ut laoreet dolore magna aliquam erat volutpat. </tspan><tspan x="3.467" y="15.601" style="fill:#3094BE; font-family:'OpenSansLight-Italic'; font-size:7.8004px;">Ut wisi enim ad minim veniam, quis nostrud exerci tation ullamcorper suscipit lobortis nisl ut aliquip ex ea commodo consequat lorem ipsum dolor </tspan><tspan x="121.201" y="31.202" style="fill:#3094BE; font-family:'OpenSansLight-Italic'; font-size:7.8004px;">sit amet ut wisi ad minim veniam dolore magna lorem ipsum dolor sit amet. </tspan></text>
		
			<text transform="matrix(1 0 0 1 298.1241 166.1144)" style="fill:#00729A; font-family:'JosefinSans'; font-size:8.5805px; letter-spacing:2;">THIS CERTIFICATE IS PROUDLY PRESENTED TO</text>
		<g>
			
				<line style="fill:none;stroke:#3094BE;stroke-width:1.1701;stroke-miterlimit:10;" x1="155.807" y1="283.404" x2="686.083" y2="283.404"/>
			
				<text transform="matrix(1 0 0 1 196.193 267.7951)" style="fill:#0D4F69; font-family:'AguafinaScript-Regular'; font-size:62.4035px;">Timothy John O’ Donell</text>
		</g>
		<g>
			<g>
				<g>
					<g>
						<g>
							<g>
								<g>
									<g>
										<g>
											<path style="fill:#3094BE;" d="M428.834,456.234l-0.043-0.197c11.077-2.372,19.982-10.588,23.242-21.443l0.193,0.058
												C448.945,445.578,439.982,453.847,428.834,456.234z"/>
											<g>
												<g>
													<path style="fill:#3094BE;" d="M452.449,438.261c0,0-1.357-0.301-2.031,0.881
														C450.418,439.142,451.718,439.467,452.449,438.261z"/>
													<path style="fill:#3094BE;" d="M449.78,436.978c0,0-0.468,1.309,0.62,2.125
														C450.4,439.103,450.885,437.854,449.78,436.978z"/>
												</g>
												<g>
													<path style="fill:#3094BE;" d="M453.472,435.381c0,0-1.383-0.141-1.915,1.111
														C451.557,436.492,452.886,436.664,453.472,435.381z"/>
													<path style="fill:#3094BE;" d="M450.671,434.417c0,0-0.313,1.354,0.863,2.039
														C451.534,436.456,451.871,435.158,450.671,434.417z"/>
												</g>
												<g>
													<path style="fill:#3094BE;" d="M451.185,440.922c0,0-1.317-0.443-2.113,0.66
														C449.071,441.582,450.33,442.044,451.185,440.922z"/>
													<path style="fill:#3094BE;" d="M448.666,439.363c0,0-0.604,1.252,0.391,2.179
														C449.058,441.543,449.673,440.352,448.666,439.363z"/>
												</g>
												<g>
													<path style="fill:#3094BE;" d="M449.635,443.44c0,0-1.298-0.496-2.138,0.575
														C447.497,444.014,448.736,444.526,449.635,443.44z"/>
													<path style="fill:#3094BE;" d="M447.181,441.781c0,0-0.654,1.226,0.303,2.193
														C447.485,443.974,448.147,442.809,447.181,441.781z"/>
												</g>
												<g>
													<path style="fill:#3094BE;" d="M447.767,446.002c0,0-1.236-0.636-2.188,0.335
														C445.579,446.337,446.753,446.983,447.767,446.002z"/>
													<path style="fill:#3094BE;" d="M445.512,444.082c0,0-0.786,1.146,0.059,2.213
														C445.571,446.295,446.358,445.211,445.512,444.082z"/>
												</g>
												<g>
													<path style="fill:#3094BE;" d="M445.764,448.356c0,0-1.161-0.764-2.212,0.101
														C443.552,448.457,444.652,449.224,445.764,448.356z"/>
													<path style="fill:#3094BE;" d="M443.725,446.208c0,0-0.903,1.057-0.176,2.207
														C443.549,448.415,444.447,447.42,443.725,446.208z"/>
												</g>
												<g>
													<path style="fill:#3094BE;" d="M443.462,450.446c0,0-1.129-0.81-2.214,0.012
														C441.248,450.457,442.316,451.267,443.462,450.446z"/>
													<path style="fill:#3094BE;" d="M441.511,448.217c0,0-0.945,1.02-0.265,2.198
														C441.246,450.415,442.184,449.457,441.511,448.217z"/>
												</g>
												<g>
													<path style="fill:#3094BE;" d="M440.875,452.496c0,0-1.006-0.959-2.194-0.296
														C438.681,452.2,439.626,453.15,440.875,452.496z"/>
													<path style="fill:#3094BE;" d="M439.253,450.018c0,0-1.077,0.879-0.568,2.14
														C438.685,452.158,439.747,451.339,439.253,450.018z"/>
												</g>
												<g>
													<path style="fill:#3094BE;" d="M438.053,454.259c0,0-0.899-1.06-2.15-0.527
														C435.903,453.732,436.742,454.778,438.053,454.259z"/>
													<path style="fill:#3094BE;" d="M436.703,451.623c0,0-1.164,0.759-0.791,2.068
														C435.912,453.691,437.054,452.989,436.703,451.623z"/>
												</g>
												<g>
													<path style="fill:#3094BE;" d="M435.157,455.598c0,0-0.855-1.095-2.127-0.613
														C433.029,454.984,433.825,456.063,435.157,455.598z"/>
													<path style="fill:#3094BE;" d="M433.914,452.91c0,0-1.194,0.712-0.874,2.034
														C433.04,454.944,434.209,454.289,433.914,452.91z"/>
												</g>
												<g>
													<path style="fill:#3094BE;" d="M432.179,456.581c0,0-0.825-1.118-2.11-0.671
														C430.069,455.91,430.836,457.01,432.179,456.581z"/>
													<path style="fill:#3094BE;" d="M431.01,453.86c0,0-1.213,0.679-0.929,2.01
														C430.081,455.87,431.268,455.246,431.01,453.86z"/>
												</g>
												<path style="fill:#3094BE;" d="M452.633,432.72c0,0-1.072,0.885-0.555,2.143
													C452.077,434.863,453.134,434.038,452.633,432.72z"/>
											</g>
										</g>
										<g>
											<path style="fill:#3094BE;" d="M413.136,456.186c-11.157-2.343-20.152-10.578-23.476-21.491l0.193-0.059
												c3.302,10.843,12.239,19.025,23.324,21.353L413.136,456.186z"/>
											<g>
												<g>
													<path style="fill:#3094BE;" d="M389.451,438.305c0,0,1.356-0.306,2.035,0.873
														C391.486,439.177,390.187,439.508,389.451,438.305z"/>
													<path style="fill:#3094BE;" d="M392.115,437.012c0,0,0.473,1.307-0.612,2.128
														C391.503,439.139,391.013,437.892,392.115,437.012z"/>
												</g>
												<g>
													<path style="fill:#3094BE;" d="M388.418,435.428c0,0,1.382-0.146,1.919,1.104
														C390.337,436.532,389.008,436.709,388.418,435.428z"/>
													<path style="fill:#3094BE;" d="M391.214,434.454c0,0,0.318,1.353-0.855,2.042
														C390.359,436.496,390.017,435.2,391.214,434.454z"/>
												</g>
												<g>
													<path style="fill:#3094BE;" d="M390.726,440.961c0,0,1.316-0.448,2.116,0.652
														C392.842,441.613,391.585,442.079,390.726,440.961z"/>
													<path style="fill:#3094BE;" d="M393.238,439.393c0,0,0.609,1.249-0.383,2.18
														C392.855,441.573,392.236,440.385,393.238,439.393z"/>
												</g>
												<g>
													<path style="fill:#3094BE;" d="M392.286,443.472c0,0,1.297-0.501,2.14,0.566
														C394.426,444.039,393.189,444.555,392.286,443.472z"/>
													<path style="fill:#3094BE;" d="M394.732,441.804c0,0,0.659,1.224-0.295,2.194
														C394.438,443.998,393.771,442.836,394.732,441.804z"/>
												</g>
												<g>
													<path style="fill:#3094BE;" d="M394.163,446.028c0,0,1.233-0.641,2.19,0.326
														C396.353,446.354,395.181,447.004,394.163,446.028z"/>
													<path style="fill:#3094BE;" d="M396.411,444.099c0,0,0.79,1.144-0.05,2.213
														C396.36,446.312,395.569,445.231,396.411,444.099z"/>
												</g>
												<g>
													<path style="fill:#3094BE;" d="M396.176,448.374c0,0,1.158-0.768,2.212,0.092
														C398.387,448.466,397.291,449.237,396.176,448.374z"/>
													<path style="fill:#3094BE;" d="M398.206,446.218c0,0,0.907,1.053,0.185,2.206
														C398.39,448.424,397.489,447.432,398.206,446.218z"/>
												</g>
												<g>
													<path style="fill:#3094BE;" d="M398.486,450.454c0,0,1.126-0.814,2.214,0.003
														C400.699,450.457,399.635,451.272,398.486,450.454z"/>
													<path style="fill:#3094BE;" d="M400.427,448.218c0,0,0.949,1.016,0.273,2.197
														C400.701,450.415,399.76,449.461,400.427,448.218z"/>
												</g>
												<g>
													<path style="fill:#3094BE;" d="M401.08,452.494c0,0,1.002-0.963,2.193-0.304
														C403.273,452.19,402.332,453.144,401.08,452.494z"/>
													<path style="fill:#3094BE;" d="M402.693,450.01c0,0,1.08,0.874,0.576,2.138
														C403.269,452.148,402.204,451.333,402.693,450.01z"/>
												</g>
												<g>
													<path style="fill:#3094BE;" d="M403.909,454.247c0,0,0.895-1.064,2.148-0.535
														C406.057,453.712,405.222,454.761,403.909,454.247z"/>
													<path style="fill:#3094BE;" d="M405.249,451.606c0,0,1.167,0.755,0.799,2.065
														C406.048,453.671,404.903,452.974,405.249,451.606z"/>
												</g>
												<g>
													<path style="fill:#3094BE;" d="M406.811,455.574c0,0,0.851-1.099,2.125-0.621
														C408.935,454.953,408.144,456.035,406.811,455.574z"/>
													<path style="fill:#3094BE;" d="M408.043,452.882c0,0,1.197,0.707,0.882,2.031
														C408.925,454.912,407.753,454.262,408.043,452.882z"/>
												</g>
												<g>
													<path style="fill:#3094BE;" d="M409.792,456.546c0,0,0.821-1.121,2.107-0.679
														C411.899,455.867,411.137,456.97,409.792,456.546z"/>
													<path style="fill:#3094BE;" d="M410.951,453.821c0,0,1.215,0.674,0.937,2.006
														C411.887,455.827,410.698,455.208,410.951,453.821z"/>
												</g>
												<path style="fill:#3094BE;" d="M389.246,432.764c0,0,1.075,0.88,0.564,2.141
													C389.81,434.905,388.75,434.085,389.246,432.764z"/>
											</g>
										</g>
									</g>
									<g>
										<g>
											<path style="fill:#3094BE;" d="M389.898,414.06l-0.193-0.057c3.196-10.951,12.094-19.29,23.224-21.763l0.044,0.197
												C401.914,394.895,393.073,403.18,389.898,414.06z"/>
											<g>
												<g>
													<path style="fill:#3094BE;" d="M389.453,410.396c0,0,1.359,0.29,2.024-0.896
														C391.477,409.5,390.174,409.185,389.453,410.396z"/>
													<path style="fill:#3094BE;" d="M392.132,411.658c0,0,0.458-1.312-0.637-2.12
														C391.495,409.538,391.02,410.791,392.132,411.658z"/>
												</g>
												<g>
													<path style="fill:#3094BE;" d="M388.453,413.284c0,0,1.384,0.13,1.906-1.126
														C390.359,412.159,389.029,411.997,388.453,413.284z"/>
													<path style="fill:#3094BE;" d="M391.261,414.226c0,0,0.302-1.357-0.879-2.032
														C390.382,412.194,390.055,413.494,391.261,414.226z"/>
												</g>
												<g>
													<path style="fill:#3094BE;" d="M390.697,407.725c0,0,1.321,0.433,2.108-0.677
														C392.805,407.049,391.543,406.597,390.697,407.725z"/>
													<path style="fill:#3094BE;" d="M393.227,409.264c0,0,0.594-1.256-0.408-2.176
														C392.819,407.089,392.213,408.284,393.227,409.264z"/>
												</g>
												<g>
													<path style="fill:#3094BE;" d="M392.227,405.196c0,0,1.302,0.486,2.134-0.591
														C394.361,404.605,393.118,404.103,392.227,405.196z"/>
													<path style="fill:#3094BE;" d="M394.693,406.836c0,0,0.645-1.231-0.32-2.191
														C394.373,404.645,393.72,405.815,394.693,406.836z"/>
												</g>
												<g>
													<path style="fill:#3094BE;" d="M394.075,402.619c0,0,1.241,0.627,2.186-0.352
														C396.261,402.267,395.081,401.631,394.075,402.619z"/>
													<path style="fill:#3094BE;" d="M396.345,404.521c0,0,0.777-1.153-0.076-2.213
														C396.269,402.309,395.49,403.4,396.345,404.521z"/>
												</g>
												<g>
													<path style="fill:#3094BE;" d="M396.06,400.249c0,0,1.167,0.755,2.211-0.118
														C398.27,400.131,397.165,399.374,396.06,400.249z"/>
													<path style="fill:#3094BE;" d="M398.115,402.382c0,0,0.895-1.064,0.159-2.208
														C398.274,400.173,397.384,401.176,398.115,402.382z"/>
												</g>
												<g>
													<path style="fill:#3094BE;" d="M398.345,398.142c0,0,1.136,0.801,2.214-0.029
														C400.559,398.113,399.485,397.311,398.345,398.142z"/>
													<path style="fill:#3094BE;" d="M400.313,400.356c0,0,0.937-1.027,0.248-2.2
														C400.561,398.156,399.631,399.121,400.313,400.356z"/>
												</g>
												<g>
													<path style="fill:#3094BE;" d="M400.916,396.072c0,0,1.014,0.951,2.196,0.279
														C403.112,396.351,402.16,395.408,400.916,396.072z"/>
													<path style="fill:#3094BE;" d="M402.557,398.537c0,0,1.07-0.887,0.551-2.144
														C403.108,396.393,402.054,397.22,402.557,398.537z"/>
												</g>
												<g>
													<path style="fill:#3094BE;" d="M403.724,394.287c0,0,0.907,1.053,2.154,0.51
														C405.878,394.797,405.031,393.758,403.724,394.287z"/>
													<path style="fill:#3094BE;" d="M405.095,396.912c0,0,1.158-0.768,0.775-2.074
														C405.87,394.838,404.733,395.549,405.095,396.912z"/>
												</g>
												<g>
													<path style="fill:#3094BE;" d="M406.61,392.926c0,0,0.864,1.089,2.132,0.597
														C408.742,393.522,407.938,392.45,406.61,392.926z"/>
													<path style="fill:#3094BE;" d="M407.874,395.604c0,0,1.188-0.721,0.858-2.041
														C408.732,393.563,407.568,394.227,407.874,395.604z"/>
												</g>
												<g>
													<path style="fill:#3094BE;" d="M409.58,391.919c0,0,0.834,1.112,2.115,0.654
														C411.695,392.574,410.92,391.48,409.58,391.919z"/>
													<path style="fill:#3094BE;" d="M410.771,394.631c0,0,1.207-0.689,0.913-2.017
														C411.684,392.614,410.502,393.247,410.771,394.631z"/>
												</g>
												<path style="fill:#3094BE;" d="M389.313,415.939c0,0,1.065-0.893,0.539-2.147
													C389.851,413.791,388.801,414.624,389.313,415.939z"/>
											</g>
										</g>
										<g>
											<path style="fill:#3094BE;" d="M451.881,414.06c-3.175-10.881-12.017-19.166-23.074-21.623l0.044-0.197
												c11.129,2.473,20.028,10.812,23.224,21.763L451.881,414.06z"/>
											<g>
												<g>
													<path style="fill:#3094BE;" d="M452.326,410.396c0,0-1.359,0.29-2.024-0.896
														C450.301,409.5,451.604,409.185,452.326,410.396z"/>
													<path style="fill:#3094BE;" d="M449.647,411.658c0,0-0.458-1.312,0.637-2.12
														C450.283,409.538,450.759,410.791,449.647,411.658z"/>
												</g>
												<g>
													<path style="fill:#3094BE;" d="M453.326,413.284c0,0-1.384,0.13-1.906-1.126
														C451.419,412.159,452.75,411.997,453.326,413.284z"/>
													<path style="fill:#3094BE;" d="M450.518,414.226c0,0-0.302-1.357,0.879-2.032
														C451.397,412.194,451.723,413.494,450.518,414.226z"/>
												</g>
												<g>
													<path style="fill:#3094BE;" d="M451.082,407.725c0,0-1.321,0.433-2.108-0.677
														C448.974,407.049,450.236,406.597,451.082,407.725z"/>
													<path style="fill:#3094BE;" d="M448.551,409.264c0,0-0.594-1.256,0.408-2.176
														C448.96,407.089,449.565,408.284,448.551,409.264z"/>
												</g>
												<g>
													<path style="fill:#3094BE;" d="M449.552,405.196c0,0-1.302,0.486-2.134-0.591
														C447.418,404.605,448.661,404.103,449.552,405.196z"/>
													<path style="fill:#3094BE;" d="M447.085,406.836c0,0-0.645-1.231,0.32-2.191
														C447.406,404.645,448.059,405.815,447.085,406.836z"/>
												</g>
												<g>
													<path style="fill:#3094BE;" d="M447.704,402.619c0,0-1.241,0.627-2.186-0.352
														C445.518,402.267,446.698,401.631,447.704,402.619z"/>
													<path style="fill:#3094BE;" d="M445.434,404.521c0,0-0.777-1.153,0.076-2.213
														C445.51,402.309,446.289,403.4,445.434,404.521z"/>
												</g>
												<g>
													<path style="fill:#3094BE;" d="M445.719,400.249c0,0-1.167,0.755-2.211-0.118
														C443.508,400.131,444.614,399.374,445.719,400.249z"/>
													<path style="fill:#3094BE;" d="M443.664,402.382c0,0-0.895-1.064-0.159-2.208
														C443.505,400.173,444.395,401.176,443.664,402.382z"/>
												</g>
												<g>
													<path style="fill:#3094BE;" d="M443.433,398.142c0,0-1.136,0.801-2.214-0.029
														C441.219,398.113,442.293,397.311,443.433,398.142z"/>
													<path style="fill:#3094BE;" d="M441.465,400.356c0,0-0.937-1.027-0.248-2.2
														C441.218,398.156,442.147,399.121,441.465,400.356z"/>
												</g>
												<g>
													<path style="fill:#3094BE;" d="M440.862,396.072c0,0-1.013,0.951-2.196,0.279
														C438.666,396.351,439.618,395.408,440.862,396.072z"/>
													<path style="fill:#3094BE;" d="M439.221,398.537c0,0-1.07-0.887-0.551-2.144
														C438.67,396.393,439.725,397.22,439.221,398.537z"/>
												</g>
												<g>
													<path style="fill:#3094BE;" d="M438.055,394.287c0,0-0.907,1.053-2.154,0.51
														C435.9,394.797,436.747,393.758,438.055,394.287z"/>
													<path style="fill:#3094BE;" d="M436.684,396.912c0,0-1.158-0.768-0.775-2.074
														C435.909,394.838,437.046,395.549,436.684,396.912z"/>
												</g>
												<g>
													<path style="fill:#3094BE;" d="M435.168,392.926c0,0-0.864,1.089-2.132,0.597
														C433.036,393.522,433.841,392.45,435.168,392.926z"/>
													<path style="fill:#3094BE;" d="M433.905,395.604c0,0-1.188-0.721-0.858-2.041
														C433.047,393.563,434.211,394.227,433.905,395.604z"/>
												</g>
												<g>
													<path style="fill:#3094BE;" d="M432.199,391.919c0,0-0.834,1.112-2.115,0.654
														C430.084,392.574,430.859,391.48,432.199,391.919z"/>
													<path style="fill:#3094BE;" d="M431.008,394.631c0,0-1.207-0.689-0.913-2.017
														C430.095,392.614,431.277,393.247,431.008,394.631z"/>
												</g>
												<path style="fill:#3094BE;" d="M452.466,415.939c0,0-1.065-0.893-0.539-2.147
													C451.927,413.791,452.977,414.624,452.466,415.939z"/>
											</g>
										</g>
									</g>
								</g>
								<g>
									<g>
										<polygon style="fill:#3094BE;" points="420.945,389.874 421.39,390.776 422.386,390.921 421.666,391.623 421.836,392.614 
											420.945,392.146 420.055,392.614 420.225,391.623 419.504,390.921 420.5,390.776 										"/>
										<polygon style="fill:#3094BE;" points="426.038,390.204 426.335,391.165 427.295,391.466 426.472,392.045 
											426.483,393.051 425.678,392.448 424.725,392.769 425.05,391.817 424.449,391.01 425.455,391.024 										"/>
										<polygon style="fill:#3094BE;" points="415.853,390.204 415.556,391.165 414.596,391.466 415.418,392.045 
											415.407,393.051 416.212,392.448 417.165,392.769 416.841,391.817 417.441,391.01 416.435,391.024 										"/>
									</g>
									<g>
										<polygon style="fill:#3094BE;" points="420.945,458.487 420.5,457.585 419.504,457.44 420.225,456.738 420.055,455.746 
											420.945,456.214 421.836,455.746 421.666,456.738 422.386,457.44 421.39,457.585 										"/>
										<polygon style="fill:#3094BE;" points="415.853,458.157 415.556,457.195 414.596,456.895 415.418,456.316 415.407,455.31 
											416.212,455.913 417.165,455.591 416.841,456.544 417.441,457.351 416.435,457.336 										"/>
										<polygon style="fill:#3094BE;" points="426.038,458.157 426.335,457.195 427.295,456.895 426.472,456.316 426.483,455.31 
											425.678,455.913 424.725,455.591 425.05,456.544 424.449,457.351 425.455,457.336 										"/>
									</g>
								</g>
							</g>
						</g>
						<g>
							
								<line style="fill:none;stroke:#3094BE;stroke-width:0.78;stroke-miterlimit:10;" x1="404.519" y1="413.729" x2="437.371" y2="413.729"/>
							
								<line style="fill:none;stroke:#3094BE;stroke-width:0.78;stroke-miterlimit:10;" x1="404.519" y1="434.632" x2="437.371" y2="434.632"/>
						</g>
					</g>
				</g>
				<g>
					<g>
						
							<text transform="matrix(1 0 0 1 413.1671 445.1638)" style="fill:#3094BE; font-family:'Cinzel-Regular'; font-size:5.37px; letter-spacing:1;">2020</text>
					</g>
					<g>
						
							<text transform="matrix(1 0 0 1 415.1725 406.445)" style="fill:#3094BE; font-family:'Cinzel-Regular'; font-size:5.37px; letter-spacing:1;">jan</text>
					</g>
					<g>
						
							<text transform="matrix(1 0 0 1 393.6007 427.1286)" style="fill:#3094BE; font-family:'EnglandHandDB'; font-size:12.0825px;">Certificate</text>
					</g>
				</g>
			</g>
			<g>
				<g>
					<g>
						<g>
							
								<line style="fill:none;stroke:#00729A;stroke-width:1.1701;stroke-miterlimit:10;" x1="207.395" y1="433.42" x2="345.224" y2="433.42"/>
						</g>
						<g>
							<text transform="matrix(1 0 0 1 255.8361 445.694)" style="fill:#00729A; font-family:'JosefinSans'; font-size:6.2403px;">ALBERT DOE</text>
						</g>
					</g>
					
						<text transform="matrix(1 0 0 1 249.7955 421.2556)" style="fill:#0D4F69; font-family:'HerrVonMuellerhoff-Regular'; font-size:29.6416px;">A.Doe</text>
				</g>
				<g>
					<g>
						
							<line style="fill:none;stroke:#00729A;stroke-width:1.1701;stroke-miterlimit:10;" x1="496.666" y1="433.42" x2="634.495" y2="433.42"/>
						<g>
							<text transform="matrix(1 0 0 1 539.1354 445.694)" style="fill:#00729A; font-family:'JosefinSans'; font-size:6.2403px;">JOSEPHINE DOE</text>
						</g>
					</g>
					
						<text transform="matrix(1 0 0 1 513.4723 421.2556)" style="fill:#0D4F69; font-family:'HerrVonMuellerhoff-Regular'; font-size:29.6416px;">Josephine D.</text>
				</g>
			</g>
		</g>
		<g>
			<g>
				
					<linearGradient id="SVGID_00000113341600451833114810000017111524773901054885_" gradientUnits="userSpaceOnUse" x1="735.3979" y1="206.7095" x2="735.3979" y2="141.622" gradientTransform="matrix(1 0.0057 -0.0057 1 1.2403 -2.488)">
					<stop  offset="0.3635" style="stop-color:#00729A"/>
					<stop  offset="0.8489" style="stop-color:#0D4F69"/>
				</linearGradient>
				<polygon style="fill:url(#SVGID_00000113341600451833114810000017111524773901054885_);" points="755.837,208.472 
					734.911,197.503 714.734,208.295 715.454,143.268 756.556,143.444 				"/>
				
					<line style="fill:none;stroke:#EFDDAB;stroke-width:0.78;stroke-miterlimit:10;" x1="718.442" y1="206.764" x2="719.15" y2="146.049"/>
				
					<line style="fill:none;stroke:#EFDDAB;stroke-width:0.78;stroke-miterlimit:10;" x1="752.043" y1="206.908" x2="752.751" y2="146.194"/>
			</g>
			<g>
				<g>
					<g>
						
							<linearGradient id="SVGID_00000155107698416797293950000003546434554296907708_" gradientUnits="userSpaceOnUse" x1="696.884" y1="144.2751" x2="774.4068" y2="66.7523">
							<stop  offset="0" style="stop-color:#CBA568"/>
							<stop  offset="0.2834" style="stop-color:#D2B076"/>
							<stop  offset="0.8409" style="stop-color:#E7D19D"/>
							<stop  offset="1" style="stop-color:#EFDDAB"/>
						</linearGradient>
						<path style="fill:url(#SVGID_00000155107698416797293950000003546434554296907708_);" d="M790.019,105.514
							c0-7.584,1.492-15.413-1.243-22.008c-2.835-6.836-9.531-11.288-14.683-16.44c-5.152-5.152-9.604-11.848-16.44-14.683
							c-6.595-2.735-14.424-1.243-22.008-1.243s-15.413-1.492-22.008,1.243c-6.836,2.835-11.288,9.531-16.44,14.683
							c-5.152,5.152-11.848,9.604-14.683,16.44c-2.735,6.595-1.243,14.424-1.243,22.008s-1.492,15.413,1.243,22.008
							c2.835,6.836,9.531,11.288,14.683,16.44c5.152,5.152,9.604,11.848,16.44,14.683c6.595,2.735,14.424,1.243,22.008,1.243
							s15.413,1.492,22.008-1.243c6.836-2.835,11.288-9.531,16.44-14.683c5.152-5.152,11.848-9.604,14.683-16.44
							C791.511,120.926,790.019,113.098,790.019,105.514z"/>
					</g>
					<g>
						<path style="fill:none;stroke:#EFDDAB;stroke-width:0.78;stroke-miterlimit:10;" d="M735.645,151.53
							c-25.373,0-46.017-20.643-46.017-46.017c0-25.373,20.643-46.016,46.017-46.016c25.374,0,46.017,20.643,46.017,46.016
							C781.662,130.887,761.02,151.53,735.645,151.53z"/>
						<circle style="fill:none;stroke:#EFDDAB;stroke-width:0.78;stroke-miterlimit:10;" cx="735.645" cy="105.514" r="43.677"/>
					</g>
				</g>
				<g>
					<g>
						<g>
							<g>
								<path style="fill:#EFDDAB;" d="M742.941,140.07l-0.047-0.218c12.275-2.628,22.145-11.734,25.757-23.764l0.214,0.064
									C765.229,128.26,755.295,137.425,742.941,140.07z"/>
								<g>
									<g>
										<path style="fill:#EFDDAB;" d="M769.112,120.151c0,0-1.504-0.333-2.251,0.976
											C766.861,121.127,768.302,121.488,769.112,120.151z"/>
										<path style="fill:#EFDDAB;" d="M766.154,118.729c0,0-0.519,1.45,0.687,2.355
											C766.841,121.085,767.379,119.7,766.154,118.729z"/>
									</g>
									<g>
										<path style="fill:#EFDDAB;" d="M770.245,116.959c0,0-1.532-0.156-2.122,1.231
											C768.123,118.19,769.596,118.381,770.245,116.959z"/>
										<path style="fill:#EFDDAB;" d="M767.142,115.891c0,0-0.346,1.501,0.957,2.259
											C768.098,118.15,768.471,116.713,767.142,115.891z"/>
									</g>
									<g>
										<path style="fill:#EFDDAB;" d="M767.711,123.1c0,0-1.46-0.491-2.342,0.732C765.369,123.832,766.763,124.344,767.711,123.1
											z"/>
										<path style="fill:#EFDDAB;" d="M764.92,121.373c0,0-0.669,1.387,0.434,2.415
											C765.353,123.788,766.035,122.468,764.92,121.373z"/>
									</g>
									<g>
										<path style="fill:#EFDDAB;" d="M765.993,125.89c0,0-1.439-0.549-2.37,0.637
											C763.624,126.527,764.996,127.094,765.993,125.89z"/>
										<path style="fill:#EFDDAB;" d="M763.274,124.052c0,0-0.725,1.359,0.336,2.43
											C763.61,126.482,764.344,125.191,763.274,124.052z"/>
									</g>
									<g>
										<path style="fill:#EFDDAB;" d="M763.923,128.73c0,0-1.369-0.705-2.425,0.371
											C761.498,129.101,762.799,129.817,763.923,128.73z"/>
										<path style="fill:#EFDDAB;" d="M761.424,126.603c0,0-0.871,1.271,0.065,2.453
											C761.489,129.055,762.362,127.853,761.424,126.603z"/>
									</g>
									<g>
										<path style="fill:#EFDDAB;" d="M761.703,131.339c0,0-1.287-0.846-2.451,0.112
											C759.252,131.451,760.471,132.3,761.703,131.339z"/>
										<path style="fill:#EFDDAB;" d="M759.444,128.958c0,0-1,1.171-0.195,2.446
											C759.249,131.404,760.244,130.301,759.444,128.958z"/>
									</g>
									<g>
										<path style="fill:#EFDDAB;" d="M759.152,133.655c0,0-1.252-0.898-2.454,0.013
											C756.698,133.667,757.882,134.566,759.152,133.655z"/>
										<path style="fill:#EFDDAB;" d="M756.99,131.185c0,0-1.047,1.13-0.294,2.436
											C756.697,133.621,757.735,132.559,756.99,131.185z"/>
									</g>
									<g>
										<path style="fill:#EFDDAB;" d="M756.285,135.927c0,0-1.115-1.063-2.432-0.328
											C753.854,135.598,754.901,136.652,756.285,135.927z"/>
										<path style="fill:#EFDDAB;" d="M754.487,133.18c0,0-1.194,0.974-0.629,2.372
											C753.858,135.552,755.034,134.645,754.487,133.18z"/>
									</g>
									<g>
										<path style="fill:#EFDDAB;" d="M753.158,137.881c0,0-0.996-1.175-2.383-0.584
											C750.775,137.297,751.705,138.456,753.158,137.881z"/>
										<path style="fill:#EFDDAB;" d="M751.662,134.96c0,0-1.29,0.841-0.877,2.291
											C750.785,137.251,752.051,136.474,751.662,134.96z"/>
									</g>
									<g>
										<path style="fill:#EFDDAB;" d="M749.948,139.365c0,0-0.948-1.214-2.358-0.68
											C747.59,138.685,748.472,139.88,749.948,139.365z"/>
										<path style="fill:#EFDDAB;" d="M748.57,136.385c0,0-1.323,0.789-0.969,2.254
											C747.602,138.64,748.898,137.914,748.57,136.385z"/>
									</g>
									<g>
										<path style="fill:#EFDDAB;" d="M746.648,140.454c0,0-0.915-1.239-2.338-0.743
											C744.31,139.711,745.159,140.929,746.648,140.454z"/>
										<path style="fill:#EFDDAB;" d="M745.352,137.439c0,0-1.344,0.753-1.029,2.227
											C744.323,139.666,745.638,138.975,745.352,137.439z"/>
									</g>
									<path style="fill:#EFDDAB;" d="M769.315,114.01c0,0-1.188,0.98-0.615,2.375C768.7,116.385,769.871,115.471,769.315,114.01z
										"/>
								</g>
							</g>
							<g>
								<path style="fill:#EFDDAB;" d="M728.439,140.017c-12.364-2.597-22.333-11.724-26.017-23.818l0.214-0.066
									c3.659,12.017,13.564,21.084,25.849,23.664L728.439,140.017z"/>
								<g>
									<g>
										<path style="fill:#EFDDAB;" d="M702.191,120.2c0,0,1.502-0.339,2.255,0.967
											C704.446,121.167,703.006,121.533,702.191,120.2z"/>
										<path style="fill:#EFDDAB;" d="M705.144,118.767c0,0,0.524,1.448-0.678,2.358
											C704.465,121.124,703.922,119.742,705.144,118.767z"/>
									</g>
									<g>
										<path style="fill:#EFDDAB;" d="M701.046,117.012c0,0,1.532-0.162,2.127,1.223
											C703.173,118.235,701.7,118.431,701.046,117.012z"/>
										<path style="fill:#EFDDAB;" d="M704.145,115.932c0,0,0.352,1.5-0.948,2.263
											C703.197,118.195,702.818,116.759,704.145,115.932z"/>
									</g>
									<g>
										<path style="fill:#EFDDAB;" d="M703.604,123.143c0,0,1.458-0.497,2.345,0.723
											C705.949,123.866,704.556,124.383,703.604,123.143z"/>
										<path style="fill:#EFDDAB;" d="M706.388,121.405c0,0,0.675,1.385-0.424,2.417
											C705.964,123.822,705.277,122.505,706.388,121.405z"/>
									</g>
									<g>
										<path style="fill:#EFDDAB;" d="M705.332,125.927c0,0,1.437-0.555,2.372,0.628
											C707.704,126.554,706.333,127.127,705.332,125.927z"/>
										<path style="fill:#EFDDAB;" d="M708.044,124.078c0,0,0.73,1.356-0.327,2.432
											C707.717,126.509,706.978,125.221,708.044,124.078z"/>
									</g>
									<g>
										<path style="fill:#EFDDAB;" d="M707.413,128.759c0,0,1.367-0.711,2.427,0.362
											C709.84,129.12,708.541,129.841,707.413,128.759z"/>
										<path style="fill:#EFDDAB;" d="M709.904,126.621c0,0,0.875,1.267-0.056,2.453
											C709.848,129.074,708.971,127.875,709.904,126.621z"/>
									</g>
									<g>
										<path style="fill:#EFDDAB;" d="M709.643,131.359c0,0,1.284-0.851,2.451,0.102
											C712.095,131.461,710.879,132.315,709.643,131.359z"/>
										<path style="fill:#EFDDAB;" d="M711.893,128.969c0,0,1.005,1.167,0.205,2.445
											C712.098,131.415,711.099,130.315,711.893,128.969z"/>
									</g>
									<g>
										<path style="fill:#EFDDAB;" d="M712.203,133.665c0,0,1.248-0.902,2.453,0.003
											C714.657,133.668,713.477,134.57,712.203,133.665z"/>
										<path style="fill:#EFDDAB;" d="M714.355,131.186c0,0,1.051,1.126,0.303,2.435
											C714.658,133.621,713.616,132.563,714.355,131.186z"/>
									</g>
									<g>
										<path style="fill:#EFDDAB;" d="M715.079,135.925c0,0,1.111-1.067,2.43-0.337
											C717.509,135.588,716.466,136.645,715.079,135.925z"/>
										<path style="fill:#EFDDAB;" d="M716.866,133.172c0,0,1.197,0.969,0.638,2.369
											C717.504,135.541,716.325,134.639,716.866,133.172z"/>
									</g>
									<g>
										<path style="fill:#EFDDAB;" d="M718.213,137.868c0,0,0.991-1.179,2.381-0.593
											C720.594,137.275,719.669,138.437,718.213,137.868z"/>
										<path style="fill:#EFDDAB;" d="M719.698,134.941c0,0,1.293,0.837,0.886,2.288
											C720.584,137.229,719.315,136.456,719.698,134.941z"/>
									</g>
									<g>
										<path style="fill:#EFDDAB;" d="M721.43,139.339c0,0,0.943-1.218,2.355-0.689
											C723.784,138.65,722.907,139.849,721.43,139.339z"/>
										<path style="fill:#EFDDAB;" d="M722.795,136.354c0,0,1.326,0.784,0.977,2.251
											C723.773,138.605,722.474,137.884,722.795,136.354z"/>
									</g>
									<g>
										<path style="fill:#EFDDAB;" d="M724.733,140.415c0,0,0.91-1.243,2.335-0.752
											C727.069,139.663,726.224,140.885,724.733,140.415z"/>
										<path style="fill:#EFDDAB;" d="M726.018,137.395c0,0,1.347,0.747,1.038,2.223
											C727.056,139.618,725.738,138.933,726.018,137.395z"/>
									</g>
									<path style="fill:#EFDDAB;" d="M701.964,114.06c0,0,1.192,0.976,0.625,2.373
										C702.589,116.432,701.414,115.523,701.964,114.06z"/>
								</g>
							</g>
						</g>
						<polygon style="fill:#EFDDAB;" points="735.645,142.261 733.51,143.275 733.901,140.994 732.202,139.287 734.568,138.943 
							735.645,136.759 736.724,138.943 739.089,139.287 737.39,140.994 737.781,143.275 						"/>
					</g>
					<g>
						<g>
							<g>
								<path style="fill:#EFDDAB;" d="M728.35,70.959l0.047,0.218c-12.275,2.628-22.145,11.734-25.757,23.764l-0.214-0.064
									C706.062,82.769,715.996,73.604,728.35,70.959z"/>
								<g>
									<g>
										<path style="fill:#EFDDAB;" d="M702.178,90.878c0,0,1.504,0.333,2.251-0.976C704.43,89.901,702.989,89.541,702.178,90.878
											z"/>
										<path style="fill:#EFDDAB;" d="M705.137,92.299c0,0,0.519-1.45-0.687-2.355C704.449,89.944,703.912,91.328,705.137,92.299
											z"/>
									</g>
									<g>
										<path style="fill:#EFDDAB;" d="M701.046,94.07c0,0,1.532,0.156,2.122-1.231C703.168,92.838,701.695,92.648,701.046,94.07z
											"/>
										<path style="fill:#EFDDAB;" d="M704.149,95.137c0,0,0.346-1.501-0.957-2.259
											C703.193,92.878,702.819,94.316,704.149,95.137z"/>
									</g>
									<g>
										<path style="fill:#EFDDAB;" d="M703.58,87.928c0,0,1.46,0.491,2.342-0.732C705.922,87.196,704.527,86.685,703.58,87.928z"
											/>
										<path style="fill:#EFDDAB;" d="M706.371,89.656c0,0,0.669-1.387-0.434-2.415
											C705.937,87.241,705.256,88.561,706.371,89.656z"/>
									</g>
									<g>
										<path style="fill:#EFDDAB;" d="M705.298,85.138c0,0,1.439,0.549,2.37-0.637C707.667,84.502,706.294,83.934,705.298,85.138
											z"/>
										<path style="fill:#EFDDAB;" d="M708.017,86.977c0,0,0.725-1.359-0.336-2.43C707.681,84.546,706.946,85.838,708.017,86.977
											z"/>
									</g>
									<g>
										<path style="fill:#EFDDAB;" d="M707.368,82.298c0,0,1.369,0.705,2.425-0.371
											C709.793,81.927,708.491,81.212,707.368,82.298z"/>
										<path style="fill:#EFDDAB;" d="M709.867,84.426c0,0,0.871-1.271-0.065-2.453
											C709.802,81.973,708.929,83.176,709.867,84.426z"/>
									</g>
									<g>
										<path style="fill:#EFDDAB;" d="M709.588,79.689c0,0,1.287,0.846,2.451-0.112C712.039,79.578,710.82,78.728,709.588,79.689
											z"/>
										<path style="fill:#EFDDAB;" d="M711.847,82.07c0,0,1-1.171,0.195-2.446C712.042,79.624,711.047,80.727,711.847,82.07z"/>
									</g>
									<g>
										<path style="fill:#EFDDAB;" d="M712.139,77.374c0,0,1.252,0.898,2.454-0.013
											C714.592,77.361,713.409,76.463,712.139,77.374z"/>
										<path style="fill:#EFDDAB;" d="M714.3,79.844c0,0,1.047-1.13,0.294-2.436C714.594,77.408,713.555,78.47,714.3,79.844z"/>
									</g>
									<g>
										<path style="fill:#EFDDAB;" d="M715.006,75.102c0,0,1.115,1.063,2.432,0.328C717.437,75.43,716.39,74.376,715.006,75.102z
											"/>
										<path style="fill:#EFDDAB;" d="M716.803,77.848c0,0,1.194-0.974,0.629-2.372
											C717.432,75.477,716.256,76.384,716.803,77.848z"/>
									</g>
									<g>
										<path style="fill:#EFDDAB;" d="M718.133,73.147c0,0,0.996,1.175,2.383,0.584
											C720.516,73.731,719.586,72.573,718.133,73.147z"/>
										<path style="fill:#EFDDAB;" d="M719.629,76.069c0,0,1.29-0.842,0.877-2.292C720.506,73.777,719.24,74.555,719.629,76.069z
											"/>
									</g>
									<g>
										<path style="fill:#EFDDAB;" d="M721.343,71.664c0,0,0.948,1.214,2.358,0.68C723.701,72.344,722.818,71.148,721.343,71.664
											z"/>
										<path style="fill:#EFDDAB;" d="M722.72,74.643c0,0,1.323-0.789,0.969-2.254C723.689,72.389,722.393,73.115,722.72,74.643z
											"/>
									</g>
									<g>
										<path style="fill:#EFDDAB;" d="M724.643,70.575c0,0,0.915,1.239,2.338,0.743
											C726.981,71.318,726.132,70.099,724.643,70.575z"/>
										<path style="fill:#EFDDAB;" d="M725.939,73.59c0,0,1.344-0.753,1.029-2.227C726.968,71.363,725.653,72.053,725.939,73.59z
											"/>
									</g>
									<path style="fill:#EFDDAB;" d="M701.975,97.018c0,0,1.188-0.98,0.615-2.375C702.591,94.643,701.42,95.557,701.975,97.018z"
										/>
								</g>
							</g>
							<g>
								<path style="fill:#EFDDAB;" d="M742.852,71.011c12.364,2.597,22.333,11.724,26.017,23.818l-0.214,0.066
									c-3.659-12.017-13.564-21.084-25.849-23.664L742.852,71.011z"/>
								<g>
									<g>
										<path style="fill:#EFDDAB;" d="M769.1,90.829c0,0-1.503,0.339-2.255-0.967C766.845,89.862,768.285,89.495,769.1,90.829z"
											/>
										<path style="fill:#EFDDAB;" d="M766.147,92.262c0,0-0.524-1.448,0.678-2.358
											C766.825,89.904,767.368,91.287,766.147,92.262z"/>
									</g>
									<g>
										<path style="fill:#EFDDAB;" d="M770.245,94.017c0,0-1.532,0.162-2.127-1.223
											C768.118,92.794,769.591,92.597,770.245,94.017z"/>
										<path style="fill:#EFDDAB;" d="M767.146,95.096c0,0-0.352-1.499,0.948-2.263C768.094,92.834,768.472,94.27,767.146,95.096
											z"/>
									</g>
									<g>
										<path style="fill:#EFDDAB;" d="M767.687,87.885c0,0-1.458,0.497-2.345-0.723
											C765.342,87.162,766.735,86.646,767.687,87.885z"/>
										<path style="fill:#EFDDAB;" d="M764.903,89.623c0,0-0.675-1.385,0.424-2.417
											C765.327,87.207,766.014,88.524,764.903,89.623z"/>
									</g>
									<g>
										<path style="fill:#EFDDAB;" d="M765.959,85.102c0,0-1.437,0.555-2.372-0.628
											C763.587,84.474,764.957,83.902,765.959,85.102z"/>
										<path style="fill:#EFDDAB;" d="M763.247,86.951c0,0-0.73-1.356,0.327-2.432C763.573,84.519,764.313,85.808,763.247,86.951
											z"/>
									</g>
									<g>
										<path style="fill:#EFDDAB;" d="M763.878,82.27c0,0-1.367,0.711-2.427-0.362C761.451,81.908,762.75,81.188,763.878,82.27z"
											/>
										<path style="fill:#EFDDAB;" d="M761.387,84.407c0,0-0.875-1.267,0.056-2.453C761.443,81.954,762.32,83.153,761.387,84.407
											z"/>
									</g>
									<g>
										<path style="fill:#EFDDAB;" d="M761.648,79.67c0,0-1.284,0.851-2.451-0.102C759.196,79.567,760.411,78.713,761.648,79.67z
											"/>
										<path style="fill:#EFDDAB;" d="M759.397,82.059c0,0-1.005-1.167-0.205-2.445
											C759.193,79.614,760.192,80.713,759.397,82.059z"/>
									</g>
									<g>
										<path style="fill:#EFDDAB;" d="M759.087,77.364c0,0-1.248,0.902-2.453-0.003
											C756.634,77.361,757.814,76.458,759.087,77.364z"/>
										<path style="fill:#EFDDAB;" d="M756.935,79.842c0,0-1.051-1.126-0.303-2.435
											C756.632,77.407,757.675,78.465,756.935,79.842z"/>
									</g>
									<g>
										<path style="fill:#EFDDAB;" d="M756.212,75.103c0,0-1.111,1.067-2.43,0.337C753.782,75.441,754.825,74.383,756.212,75.103
											z"/>
										<path style="fill:#EFDDAB;" d="M754.425,77.856c0,0-1.197-0.969-0.638-2.369C753.787,75.487,754.966,76.39,754.425,77.856
											z"/>
									</g>
									<g>
										<path style="fill:#EFDDAB;" d="M753.077,73.161c0,0-0.991,1.179-2.381,0.593
											C750.697,73.754,751.622,72.592,753.077,73.161z"/>
										<path style="fill:#EFDDAB;" d="M751.592,76.088c0,0-1.293-0.837-0.886-2.288C750.707,73.8,751.975,74.572,751.592,76.088z
											"/>
									</g>
									<g>
										<path style="fill:#EFDDAB;" d="M749.861,71.69c0,0-0.943,1.218-2.355,0.689C747.506,72.379,748.384,71.18,749.861,71.69z"
											/>
										<path style="fill:#EFDDAB;" d="M748.495,74.674c0,0-1.326-0.784-0.977-2.251
											C747.518,72.424,748.817,73.145,748.495,74.674z"/>
									</g>
									<g>
										<path style="fill:#EFDDAB;" d="M746.557,70.613c0,0-0.91,1.243-2.335,0.752C744.222,71.366,745.067,70.144,746.557,70.613
											z"/>
										<path style="fill:#EFDDAB;" d="M745.273,73.634c0,0-1.347-0.747-1.038-2.223C744.235,71.41,745.553,72.096,745.273,73.634
											z"/>
									</g>
									<path style="fill:#EFDDAB;" d="M769.327,96.969c0,0-1.192-0.976-0.625-2.373C768.702,94.596,769.877,95.506,769.327,96.969
										z"/>
								</g>
							</g>
						</g>
						<polygon style="fill:#EFDDAB;" points="735.645,68.768 737.781,67.754 737.39,70.035 739.089,71.742 736.723,72.085 
							735.645,74.27 734.567,72.085 732.202,71.742 733.901,70.035 733.51,67.754 						"/>
					</g>
				</g>
				<circle style="fill:none;stroke:#EFDDAB;stroke-width:0.78;stroke-miterlimit:10;" cx="735.446" cy="105.916" r="26.103"/>
				
					<text transform="matrix(1 0 0 1 714.9977 120.2853)" style="fill:#EFDDAB; font-family:'EnglandHandDB'; font-size:40.5459px; letter-spacing:8;">C</text>
			</g>
		</g>
		
			<line style="fill:none;stroke:#3094BE;stroke-width:1.1701;stroke-miterlimit:10;" x1="393.279" y1="134.834" x2="448.611" y2="134.834"/>
		<g>
			
				<text transform="matrix(1 0 0 1 360.6847 482.0817)" style="fill:#3094BE; font-family:'JosefinSans'; font-size:6.2403px; letter-spacing:1;">AWARED ON 3 JANUARY 2020</text>
		</g>
		<text transform="matrix(0 -1 1 0 34.7584 558.1159)" style="fill:#3094BE; font-family:'OpenSans'; font-size:3.9002px;">Lorem ipsum dolor sit amet, consectetuer adipiscing elit, sed diam 2020. </text>
	</g>
</g>
</svg>
