<?xml version="1.0" encoding="utf-8"?>
<!-- Generator: Adobe Illustrator 27.5.0, SVG Export Plug-In . SVG Version: 6.00 Build 0)  -->
<svg version="1.1" id="PRINT" xmlns="http://www.w3.org/2000/svg" xmlns:xlink="http://www.w3.org/1999/xlink" x="0px" y="0px"
	 viewBox="0 0 841.89 595.276" style="enable-background:new 0 0 841.89 595.276;" xml:space="preserve">
<g>
	<rect x="-8.443" y="-8.556" style="fill:#FFFFFF;" width="858.776" height="612.387"/>
	<g>
		<g>
			<polygon style="fill:#FBB061;" points="38.82,42.52 -8.504,42.52 15.158,-8.504 			"/>
			<polygon style="fill:#174989;" points="-8.504,42.52 38.82,42.52 15.158,93.543 			"/>
			<polygon style="fill:#2394D2;" points="38.82,144.566 -8.504,144.566 15.158,93.543 			"/>
			<polygon style="fill:#BBD7EA;" points="-8.504,144.566 38.82,144.566 15.158,195.59 			"/>
			<polygon style="fill:#2394D2;" points="38.82,246.613 -8.504,246.613 15.158,195.59 			"/>
			<polygon style="fill:#FBB061;" points="-8.504,246.613 38.82,246.613 15.158,297.637 			"/>
			<polygon style="fill:#174989;" points="38.82,348.66 -8.504,348.66 15.158,297.637 			"/>
			<polygon style="fill:#FBB061;" points="-8.504,348.66 38.82,348.66 15.158,399.684 			"/>
			<polygon style="fill:#BBD7EA;" points="38.82,450.707 -8.504,450.707 15.158,399.684 			"/>
			<polygon style="fill:#FBB061;" points="-8.504,450.707 38.82,450.707 15.158,501.731 			"/>
			<polygon style="fill:#BBD7EA;" points="38.82,552.754 -8.504,552.754 15.158,501.731 			"/>
			<polygon style="fill:#FFEAD0;" points="-8.504,552.754 38.82,552.754 15.158,603.777 			"/>
			<polygon style="fill:#FBB061;" points="-8.504,603.777 15.157,603.777 -8.504,552.755 			"/>
			<polygon style="fill:#1B2351;" points="62.482,603.777 15.158,603.777 38.82,552.754 			"/>
			<polygon style="fill:#174989;" points="15.158,-8.503 62.482,-8.503 38.82,42.521 			"/>
			<polygon style="fill:#FBB061;" points="62.482,93.544 15.158,93.544 38.82,42.521 			"/>
			<polygon style="fill:#BBD7EA;" points="15.158,93.544 62.482,93.544 38.82,144.568 			"/>
			<polygon style="fill:#FBB061;" points="15.158,195.591 62.482,195.591 38.82,246.614 			"/>
			<polygon style="fill:#1B2351;" points="62.482,297.638 15.158,297.638 38.82,246.614 			"/>
			<polygon style="fill:#BBD7EA;" points="62.482,399.685 15.158,399.685 38.82,348.661 			"/>
			<polygon style="fill:#174989;" points="15.158,399.685 62.482,399.685 38.82,450.708 			"/>
			<polygon style="fill:#2394D2;" points="62.482,501.732 15.158,501.732 38.82,450.708 			"/>
			<polygon style="fill:#FFEAD0;" points="15.158,501.732 62.482,501.732 38.82,552.755 			"/>
			<polygon style="fill:#1B2351;" points="-8.504,-8.503 -8.504,42.519 15.157,-8.503 			"/>
			<polygon style="fill:#FBB061;" points="-8.504,42.522 -8.504,93.544 15.157,93.544 			"/>
			<polygon style="fill:#BBD7EA;" points="-8.504,93.544 -8.504,144.566 15.157,93.544 			"/>
			<polygon style="fill:#FFEAD0;" points="-8.504,144.569 -8.504,195.591 15.157,195.591 			"/>
			<polygon style="fill:#1B2351;" points="-8.504,195.591 -8.504,246.613 15.157,195.591 			"/>
			<polygon style="fill:#BBD7EA;" points="-8.504,246.615 -8.504,297.638 15.157,297.638 			"/>
			<polygon style="fill:#FFEAD0;" points="-8.504,297.638 -8.504,348.66 15.157,297.638 			"/>
			<polygon style="fill:#1B2351;" points="-8.504,348.663 -8.504,399.685 15.157,399.685 			"/>
			<polygon style="fill:#2394D2;" points="-8.504,399.685 -8.504,450.707 15.157,399.685 			"/>
			<polygon style="fill:#174989;" points="-8.504,450.709 -8.504,501.731 15.157,501.731 			"/>
			<polygon style="fill:#FFEAD0;" points="-8.504,501.731 -8.504,552.754 15.157,501.731 			"/>
			<polygon style="fill:#BBD7EA;" points="62.478,-8.5 109.802,-8.5 86.14,42.523 			"/>
			<polygon style="fill:#FFEAD0;" points="62.478,195.594 109.802,195.594 86.14,246.617 			"/>
			<polygon style="fill:#1B2351;" points="109.802,297.641 62.478,297.641 86.14,246.617 			"/>
			<polygon style="fill:#2394D2;" points="62.478,297.641 109.802,297.641 86.14,348.664 			"/>
			<polygon style="fill:#FFEAD0;" points="109.802,399.688 62.478,399.688 86.14,348.664 			"/>
			<polygon style="fill:#2394D2;" points="62.478,399.688 109.802,399.688 86.14,450.711 			"/>
			<polygon style="fill:#2394D2;" points="109.802,501.735 62.478,501.735 86.14,450.711 			"/>
			<polygon style="fill:#174989;" points="62.478,501.735 109.802,501.735 86.14,552.758 			"/>
			<polygon style="fill:#FBB061;" points="86.139,552.758 38.816,552.758 62.478,501.735 			"/>
			<polygon style="fill:#174989;" points="133.464,246.618 86.14,246.618 109.802,195.595 			"/>
			<polygon style="fill:#2394D2;" points="86.14,246.618 133.464,246.618 109.802,297.642 			"/>
			<polygon style="fill:#FFEAD0;" points="133.464,348.665 86.14,348.665 109.802,297.642 			"/>
			<polygon style="fill:#FBB061;" points="86.14,348.665 133.464,348.665 109.802,399.689 			"/>
			<polygon style="fill:#BBD7EA;" points="38.816,552.754 86.139,552.754 62.478,603.777 			"/>
			<polygon style="fill:#174989;" points="38.816,144.571 86.139,144.571 62.478,195.595 			"/>
			<polygon style="fill:#1B2351;" points="86.139,246.618 38.816,246.618 62.478,195.595 			"/>
			<polygon style="fill:#FFEAD0;" points="38.816,246.618 86.139,246.618 62.478,297.642 			"/>
			<polygon style="fill:#FBB061;" points="86.139,450.712 38.816,450.712 62.478,399.689 			"/>
			<polygon style="fill:#FFEAD0;" points="38.816,450.712 86.139,450.712 62.478,501.735 			"/>
		</g>
		<g>
			<polygon style="fill:#174989;" points="803.465,246.613 850.333,246.613 826.899,297.637 			"/>
			<polygon style="fill:#174989;" points="733.166,-8.503 780.035,-8.503 756.6,42.521 			"/>
			<polygon style="fill:#FBB061;" points="850.333,246.613 803.465,246.613 826.899,195.59 			"/>
			<polygon style="fill:#BBD7EA;" points="803.465,144.566 850.333,144.566 826.899,195.59 			"/>
			<polygon style="fill:#FBB061;" points="850.333,144.566 803.465,144.566 826.899,93.543 			"/>
			<polygon style="fill:#BBD7EA;" points="803.465,42.52 850.333,42.52 826.899,93.543 			"/>
			<polygon style="fill:#2394D2;" points="850.333,42.52 803.465,42.52 826.899,-8.504 			"/>
			<polygon style="fill:#FBB061;" points="850.333,-8.504 826.9,-8.504 850.333,42.518 			"/>
			<polygon style="fill:#1B2351;" points="780.031,-8.504 826.899,-8.504 803.465,42.52 			"/>
			<polygon style="fill:#BBD7EA;" points="780.031,195.589 826.899,195.589 803.465,246.612 			"/>
			<polygon style="fill:#174989;" points="826.899,195.589 780.031,195.589 803.465,144.565 			"/>
			<polygon style="fill:#2394D2;" points="780.031,93.542 826.899,93.542 803.465,144.565 			"/>
			<polygon style="fill:#FFEAD0;" points="826.899,93.542 780.031,93.542 803.465,42.518 			"/>
			<polygon style="fill:#FFEAD0;" points="850.333,246.611 850.333,195.589 826.9,195.589 			"/>
			<polygon style="fill:#2394D2;" points="850.333,195.589 850.333,144.567 826.9,195.589 			"/>
			<polygon style="fill:#174989;" points="850.333,144.564 850.333,93.542 826.9,93.542 			"/>
			<polygon style="fill:#FFEAD0;" points="850.333,93.542 850.333,42.52 826.9,93.542 			"/>
			<polygon style="fill:#FFEAD0;" points="733.166,195.586 780.034,195.586 756.6,246.609 			"/>
			<polygon style="fill:#2394D2;" points="780.034,195.586 733.166,195.586 756.6,144.562 			"/>
			<polygon style="fill:#2394D2;" points="733.166,93.539 780.034,93.539 756.6,144.562 			"/>
			<polygon style="fill:#174989;" points="780.034,93.539 733.166,93.539 756.6,42.515 			"/>
			<polygon style="fill:#FBB061;" points="756.6,42.515 803.469,42.515 780.035,93.539 			"/>
			<polygon style="fill:#FBB061;" points="686.301,-8.504 733.169,-8.504 709.735,42.52 			"/>
			<polygon style="fill:#BBD7EA;" points="803.469,42.52 756.6,42.52 780.035,-8.504 			"/>
			<polygon style="fill:#FBB061;" points="756.6,144.561 803.469,144.561 780.035,195.585 			"/>
			<polygon style="fill:#FFEAD0;" points="803.469,144.561 756.6,144.561 780.035,93.538 			"/>
		</g>
		<g>
			<polygon style="fill:#174989;" points="733.166,603.771 780.035,603.771 756.6,552.747 			"/>
			<polygon style="fill:#BBD7EA;" points="803.465,450.701 850.333,450.701 826.899,399.678 			"/>
			<polygon style="fill:#FBB061;" points="850.333,450.701 803.465,450.701 826.899,501.725 			"/>
			<polygon style="fill:#BBD7EA;" points="803.465,552.748 850.333,552.748 826.899,501.725 			"/>
			<polygon style="fill:#2394D2;" points="850.333,552.748 803.465,552.748 826.899,603.772 			"/>
			<polygon style="fill:#FBB061;" points="850.333,603.772 826.9,603.772 850.333,552.749 			"/>
			<polygon style="fill:#1B2351;" points="780.031,603.772 826.899,603.772 803.465,552.748 			"/>
			<polygon style="fill:#BBD7EA;" points="780.031,399.679 826.899,399.679 803.465,348.655 			"/>
			<polygon style="fill:#174989;" points="826.899,399.679 780.031,399.679 803.465,450.702 			"/>
			<polygon style="fill:#2394D2;" points="780.031,501.726 826.899,501.726 803.465,450.702 			"/>
			<polygon style="fill:#FFEAD0;" points="826.899,501.726 780.031,501.726 803.465,552.749 			"/>
			<polygon style="fill:#FFEAD0;" points="850.333,348.656 850.333,399.679 826.9,399.679 			"/>
			<polygon style="fill:#2394D2;" points="850.333,399.679 850.333,450.701 826.9,399.679 			"/>
			<polygon style="fill:#174989;" points="850.333,450.703 850.333,501.725 826.9,501.725 			"/>
			<polygon style="fill:#FFEAD0;" points="850.333,501.725 850.333,552.748 826.9,501.725 			"/>
			<polygon style="fill:#2394D2;" points="733.166,501.729 780.034,501.729 756.6,450.705 			"/>
			<polygon style="fill:#174989;" points="780.034,501.729 733.166,501.729 756.6,552.752 			"/>
			<polygon style="fill:#FBB061;" points="756.6,552.752 803.469,552.752 780.035,501.729 			"/>
			<polygon style="fill:#FBB061;" points="686.301,603.772 733.169,603.772 709.735,552.748 			"/>
			<polygon style="fill:#BBD7EA;" points="803.469,552.748 756.6,552.748 780.035,603.772 			"/>
			<polygon style="fill:#BBD7EA;" points="756.6,552.755 709.732,552.755 733.166,603.778 			"/>
			<polygon style="fill:#FFEAD0;" points="803.469,450.706 756.6,450.706 780.035,501.73 			"/>
		</g>
	</g>
	<g>
		<g>
			<rect x="302.1" y="526.386" style="fill:none;" width="58.983" height="9.406"/>
			
				<text transform="matrix(0.9983 0 0 1 314.9345 535.7182)" style="fill:#1B2351; font-family:'Raleway-Regular'; font-size:12.7854px;">DATE</text>
			<rect x="464.454" y="525.654" style="fill:none;" width="91.69" height="10.87"/>
			
				<text transform="matrix(0.9983 0 0 1 474.2665 534.9858)" style="fill:#1B2351; font-family:'Raleway-Regular'; font-size:12.7854px;">SIGNATURE</text>
		</g>
		<g>
			<rect x="302.948" y="332.09" style="fill:none;" width="235.993" height="13.398"/>
			
				<text transform="matrix(0.9983 0 0 1 343.6581 343.8647)" style="fill:#174989; font-family:'Raleway-Regular'; font-size:16.1286px;">The Company Name</text>
			<rect x="239.658" y="365.545" style="fill:none;" width="366.317" height="49.437"/>
			<text transform="matrix(0.9983 0 0 1 251.9437 371.437)"><tspan x="0" y="0" style="fill:#174989; font-family:'Raleway-Light'; font-size:8.0712px;">Lorem ipsum dolor sit amet, consectetur adipiscing elit, sed do eiusmod tempor incididunt ut </tspan><tspan x="-9.777" y="9.686" style="fill:#174989; font-family:'Raleway-Light'; font-size:8.0712px;">labore et dolore magna aliqua. Ut enim ad minim veniam, quis nostrud exercitation ullamco laboris </tspan><tspan x="-5.427" y="19.371" style="fill:#174989; font-family:'Raleway-Light'; font-size:8.0712px;">nisi ut aliquip ex ea commodo consequat. Duis aute irure dolor in reprehenderit in voluptate velit </tspan><tspan x="-8.108" y="29.057" style="fill:#174989; font-family:'Raleway-Light'; font-size:8.0712px;">esse cillum dolore eu fugiat nulla pariatur. Excepteur sint occaecat cupidatat non proident, sunt in </tspan><tspan x="75.581" y="38.742" style="fill:#174989; font-family:'Raleway-Light'; font-size:8.0712px;">culpa qui officia deserunt mollit anim id est laborum.</tspan></text>
		</g>
		<rect x="292.689" y="232.026" style="fill:none;" width="256.513" height="24.073"/>
		
			<text transform="matrix(0.9983 0 0 1 297.7694 253.0483)" style="fill:#2394D2; font-family:'AlexBrush-Regular'; font-size:43.3455px;">Name Surname</text>
		<rect x="231.077" y="262.946" style="fill:#1B2351;" width="379.735" height="0.672"/>
		<g>
			<rect x="282.13" y="513.883" style="fill:#174989;" width="98.923" height="0.672"/>
			<rect x="460.837" y="512.804" style="fill:#174989;" width="98.923" height="0.672"/>
		</g>
		<g>
			<rect x="302.948" y="141.668" style="fill:none;" width="235.993" height="23.557"/>
			
				<text transform="matrix(0.9983 0 0 1 310.2768 161.5356)" style="fill:#174989; font-family:'Raleway-Regular'; font-size:27.2169px;">OF APRECIATION</text>
			<rect x="324.082" y="171.464" style="fill:none;" width="193.725" height="8.318"/>
			
				<text transform="matrix(0.9983 0 0 1 341.9047 178.0859)" style="fill:#174989; font-family:'Raleway-Light'; font-size:9.0723px;">This certificate is proudly presented to</text>
		</g>
		<rect x="239.634" y="70.639" style="fill:none;" width="362.623" height="43.257"/>
		
			<text transform="matrix(0.9983 0 0 1 242.8026 112.0258)" style="fill:#1B2351; font-family:'Raleway-Bold'; font-size:56.693px;">CERTIFICATE</text>
	</g>
</g>
</svg>
