<?xml version="1.0" encoding="utf-8"?>
<!-- Generator: Adobe Illustrator 27.5.0, SVG Export Plug-In . SVG Version: 6.00 Build 0)  -->
<svg version="1.1" id="PRINT" xmlns="http://www.w3.org/2000/svg" xmlns:xlink="http://www.w3.org/1999/xlink" x="0px" y="0px"
	 viewBox="0 0 745.512 564.095" style="enable-background:new 0 0 745.512 564.095;" xml:space="preserve">
<g>
	<rect x="-8.505" y="-11.338" style="fill-rule:evenodd;clip-rule:evenodd;fill:#FFFFFF;" width="762.52" height="583.938"/>
	<g>
		<g>
			<g>
				<g>
					
						<line style="fill:none;stroke:#E9E8E4;stroke-width:5.46;stroke-miterlimit:10;" x1="264.489" y1="17.39" x2="717.624" y2="17.39"/>
					
						<line style="fill:none;stroke:#E9E8E4;stroke-width:3.64;stroke-miterlimit:10;" x1="249.928" y1="26.741" x2="703.063" y2="26.741"/>
				</g>
				<g>
					<defs>
						<polygon id="SVGID_1_" points="313.46,267.892 -8.889,267.892 -8.505,-11.338 313.46,-11.338 						"/>
					</defs>
					<clipPath id="SVGID_00000025414645550241295670000008372339911417325477_">
						<use xlink:href="#SVGID_1_"  style="overflow:visible;"/>
					</clipPath>
					<g style="clip-path:url(#SVGID_00000025414645550241295670000008372339911417325477_);">
						<polygon style="fill-rule:evenodd;clip-rule:evenodd;fill:#E9E8E4;" points="96.116,224.21 -8.504,145.044 -8.505,-11.338 
							316.088,-11.338 						"/>
						<polygon style="fill-rule:evenodd;clip-rule:evenodd;fill:#4A5E9A;" points="172.555,89.531 26.956,255.151 0.111,-1.242 
							0.111,-1.242 						"/>
						<g>
							<polygon style="fill:#4A5E9A;" points="32.416,262.43 177.777,91.377 181.894,94.963 							"/>
						</g>
						<g>
							<polygon style="fill:#A5BCC2;" points="257.92,-12.883 201.675,156.871 252.712,-14.52 							"/>
						</g>
						<polyline style="fill-rule:evenodd;clip-rule:evenodd;fill:#A5BCC2;" points="245.756,-11.338 194.396,151.411 -8.504,-8.504 
													"/>
						<polyline style="fill-rule:evenodd;clip-rule:evenodd;fill:#85A9AA;" points="191.436,-1.242 194.396,91.35 0.111,-1.242 
													"/>
						<polyline style="fill-rule:evenodd;clip-rule:evenodd;fill:#AD9038;" points="-8.505,-11.338 217.756,-11.338 -8.809,209.377 
													"/>
						<polyline style="fill-rule:evenodd;clip-rule:evenodd;fill:#2F3850;" points="-8.505,-11.338 86.334,66.503 -8.889,115.709 
													"/>
						<g>
							<polygon style="fill:#2F3850;" points="-10.82,123.885 91.794,71.963 -8.24,128.696 							"/>
						</g>
					</g>
				</g>
			</g>
			<g>
				<g>
					
						<line style="fill:none;stroke:#E9E8E4;stroke-width:5.46;stroke-miterlimit:10;" x1="27.888" y1="543.872" x2="535.623" y2="543.872"/>
					
						<line style="fill:none;stroke:#E9E8E4;stroke-width:3.64;stroke-miterlimit:10;" x1="42.449" y1="534.521" x2="550.182" y2="534.521"/>
				</g>
				<g>
					<defs>
						<polygon id="SVGID_00000160912483990147440610000010440448195289865386_" points="754.015,572.6 490.493,572.599 
							491.274,353.665 754.015,353.665 						"/>
					</defs>
					<clipPath id="SVGID_00000049914414477578312200000013558511362258662553_">
						<use xlink:href="#SVGID_00000160912483990147440610000010440448195289865386_"  style="overflow:visible;"/>
					</clipPath>
					<g style="clip-path:url(#SVGID_00000049914414477578312200000013558511362258662553_);">
						<polygon style="fill-rule:evenodd;clip-rule:evenodd;fill:#E9E8E4;" points="726.517,364.35 745.4,409.85 746.94,574.964 
							486.579,572.599 						"/>
						<polygon style="fill-rule:evenodd;clip-rule:evenodd;fill:#4A5E9A;" points="607.536,526.331 685.794,409.85 745.4,562.503 
							745.4,562.503 						"/>
						<g>
							<polygon style="fill:#4A5E9A;" points="678.515,406.21 600.708,527.846 596.165,524.816 							"/>
						</g>
						<g>
							<polygon style="fill:#A5BCC2;" points="585.696,458.991 529.352,576.601 524.479,574.14 							"/>
						</g>
						<polyline style="fill-rule:evenodd;clip-rule:evenodd;fill:#A5BCC2;" points="539.309,572.599 594.397,462.63 754.015,572.6 
													"/>
						<polyline style="fill-rule:evenodd;clip-rule:evenodd;fill:#85A9AA;" points="598.833,572.599 587.515,495.667 754.015,572.6 
													"/>
						<polyline style="fill-rule:evenodd;clip-rule:evenodd;fill:#AD9038;" points="754.015,572.6 654.388,572.6 754.015,342.694 
													"/>
						<polyline style="fill-rule:evenodd;clip-rule:evenodd;fill:#2F3850;" points="745.4,562.503 693.075,516.206 745.4,449.89 
													"/>
						<g>
							<polygon style="fill:#2F3850;" points="687.615,521.667 748.764,572.933 745.116,576.995 							"/>
						</g>
					</g>
				</g>
			</g>
		</g>
		<g>
			<g>
				<path style="fill-rule:evenodd;clip-rule:evenodd;fill:#E9E8E4;" d="M704.905,107.731c0,5.296-11.431,9.02-12.736,13.904
					c-1.351,5.054,6.646,13.985,4.086,18.41c-2.597,4.488-14.352,2.008-17.995,5.651c-3.643,3.643-1.163,15.399-5.651,17.996
					c-4.425,2.56-13.355-5.438-18.409-4.087c-4.885,1.306-8.607,12.736-13.903,12.736s-9.02-11.431-13.903-12.736
					c-5.054-1.351-13.985,6.646-18.41,4.086c-4.488-2.597-2.009-14.354-5.651-17.996c-3.643-3.643-15.397-1.163-17.994-5.651
					c-2.561-4.424,5.437-13.356,4.086-18.409c-1.306-4.884-12.736-8.607-12.736-13.903s11.431-9.02,12.736-13.904
					c1.351-5.054-6.647-13.984-4.086-18.409c2.597-4.488,14.352-2.009,17.995-5.651c3.643-3.643,1.163-15.399,5.651-17.996
					c4.424-2.56,13.355,5.438,18.409,4.087c4.884-1.306,8.607-12.736,13.903-12.736s9.02,11.431,13.903,12.736
					c5.054,1.351,13.985-6.646,18.41-4.086c4.488,2.597,2.009,14.354,5.651,17.996c3.643,3.643,15.399,1.163,17.995,5.651
					c2.561,4.424-5.438,13.355-4.087,18.409C693.474,98.711,704.905,102.435,704.905,107.731z"/>
			</g>
			<path style="opacity:0.6;fill-rule:evenodd;clip-rule:evenodd;fill:#ADADAB;" d="M670.325,107.731
				c0,16.586-13.444,30.029-30.029,30.029c-16.584,0-30.03-13.443-30.03-30.029c0-16.587,13.446-30.03,30.03-30.03
				C656.88,77.701,670.325,91.144,670.325,107.731z"/>
			<g>
				<g style="opacity:0.4;">
					<path style="fill-rule:evenodd;clip-rule:evenodd;fill:none;stroke:#ADADAB;stroke-width:3.0333;stroke-miterlimit:10;" d="
						M685.794,107.731c0,25.13-20.372,45.5-45.499,45.5c-25.128,0-45.5-20.37-45.5-45.5c0-25.13,20.372-45.5,45.5-45.5
						C665.422,62.231,685.794,82.601,685.794,107.731z"/>
					<path style="fill-rule:evenodd;clip-rule:evenodd;fill:none;stroke:#ADADAB;stroke-width:2.3196;stroke-miterlimit:10;" d="
						M681.419,107.731c0,22.71-18.413,41.124-41.123,41.124c-22.709,0-41.124-18.414-41.124-41.124
						c0-22.711,18.415-41.125,41.124-41.125C663.005,66.606,681.419,85.02,681.419,107.731z"/>
				</g>
				<g style="opacity:0.5;">
					
						<path style="fill:none;stroke:#ADADAB;stroke-width:4.55;stroke-linecap:round;stroke-linejoin:round;stroke-dasharray:0,6.7556;" d="
						M675.785,107.731c0,19.604-15.886,35.489-35.489,35.489c-19.603,0-35.49-15.886-35.49-35.489
						c0-19.604,15.888-35.49,35.49-35.49C659.899,72.241,675.785,88.126,675.785,107.731z"/>
				</g>
			</g>
			<g style="opacity:0.5;">
				<path style="fill-rule:evenodd;clip-rule:evenodd;fill:#E9E8E4;" d="M664.202,107.731c0,1.96-4.229,3.337-4.713,5.145
					c-0.5,1.87,2.458,5.175,1.511,6.812c-0.961,1.661-5.311,0.743-6.658,2.091c-1.348,1.348-0.43,5.697-2.09,6.658
					c-1.638,0.947-4.941-2.012-6.811-1.512c-1.808,0.483-3.186,4.712-5.145,4.712c-1.96,0-3.338-4.229-5.145-4.712
					c-1.87-0.5-5.175,2.459-6.811,1.511c-1.661-0.96-0.743-5.31-2.091-6.658c-1.348-1.348-5.697-0.43-6.658-2.091
					c-0.947-1.637,2.012-4.941,1.512-6.811c-0.482-1.807-4.713-3.185-4.713-5.145c0-1.959,4.23-3.338,4.713-5.145
					c0.5-1.87-2.46-5.174-1.513-6.811c0.961-1.661,5.311-0.743,6.659-2.091c1.348-1.348,0.431-5.698,2.091-6.659
					c1.637-0.947,4.941,2.012,6.811,1.512c1.807-0.483,3.185-4.712,5.145-4.712c1.96,0,3.338,4.229,5.146,4.712
					c1.869,0.5,5.174-2.459,6.812-1.511c1.66,0.961,0.742,5.311,2.09,6.659c1.348,1.348,5.698,0.43,6.659,2.091
					c0.947,1.637-2.013,4.941-1.513,6.811C659.971,104.393,664.202,105.771,664.202,107.731z"/>
			</g>
		</g>
		<g>
			<g>
				<rect x="180.746" y="336.148" style="fill:none;" width="384.02" height="20.02"/>
				<text transform="matrix(1 0 0 1 289.148 349.0593)" style="fill:#2F3850; font-family:'Aleo-Regular'; font-size:18.2px;">lorem ipsum dolor</text>
				<rect x="266.104" y="427.682" style="fill-rule:evenodd;clip-rule:evenodd;fill:none;" width="213.303" height="26.208"/>
				<text transform="matrix(1 0 0 1 318.7271 436.759)" style="fill:#A9B6C4; font-family:'Aleo-Regular'; font-size:12.74px;">november 30, 2019</text>
				<g>
					<rect x="140.251" y="364.35" style="fill:none;" width="465.01" height="54.601"/>
					<text transform="matrix(1 0 0 1 140.2515 372.1018)"><tspan x="0" y="0" style="fill:#A9B6C4; font-family:'BloggerSans'; font-size:10.92px;">Lorem</tspan><tspan x="29.298" y="0" style="fill:#A9B6C4; font-family:'BloggerSans'; font-size:10.92px;"> </tspan><tspan x="31.549" y="0" style="fill:#A9B6C4; font-family:'BloggerSans'; font-size:10.92px;">ipsum</tspan><tspan x="59.767" y="0" style="fill:#A9B6C4; font-family:'BloggerSans'; font-size:10.92px;"> </tspan><tspan x="62.018" y="0" style="fill:#A9B6C4; font-family:'BloggerSans'; font-size:10.92px;">dolor</tspan><tspan x="86.314" y="0" style="fill:#A9B6C4; font-family:'BloggerSans'; font-size:10.92px;"> </tspan><tspan x="88.565" y="0" style="fill:#A9B6C4; font-family:'BloggerSans'; font-size:10.92px;">sit</tspan><tspan x="99.059" y="0" style="fill:#A9B6C4; font-family:'BloggerSans'; font-size:10.92px;"> </tspan><tspan x="101.31" y="0" style="fill:#A9B6C4; font-family:'BloggerSans'; font-size:10.92px;">amet,</tspan><tspan x="127.025" y="0" style="fill:#A9B6C4; font-family:'BloggerSans'; font-size:10.92px;"> </tspan><tspan x="129.276" y="0" style="fill:#A9B6C4; font-family:'BloggerSans'; font-size:10.92px;">consectetur</tspan><tspan x="183.198" y="0" style="fill:#A9B6C4; font-family:'BloggerSans'; font-size:10.92px;"> </tspan><tspan x="185.449" y="0" style="fill:#A9B6C4; font-family:'BloggerSans'; font-size:10.92px;">adipiscing</tspan><tspan x="232.131" y="0" style="fill:#A9B6C4; font-family:'BloggerSans'; font-size:10.92px;"> </tspan><tspan x="234.382" y="0" style="fill:#A9B6C4; font-family:'BloggerSans'; font-size:10.92px;">elit,</tspan><tspan x="250.859" y="0" style="fill:#A9B6C4; font-family:'BloggerSans'; font-size:10.92px;"> </tspan><tspan x="253.11" y="0" style="fill:#A9B6C4; font-family:'BloggerSans'; font-size:10.92px;">sed</tspan><tspan x="269.064" y="0" style="fill:#A9B6C4; font-family:'BloggerSans'; font-size:10.92px;"> </tspan><tspan x="271.314" y="0" style="fill:#A9B6C4; font-family:'BloggerSans'; font-size:10.92px;">do</tspan><tspan x="283.468" y="0" style="fill:#A9B6C4; font-family:'BloggerSans'; font-size:10.92px;"> </tspan><tspan x="285.719" y="0" style="fill:#A9B6C4; font-family:'BloggerSans'; font-size:10.92px;">eiusmod</tspan><tspan x="325.348" y="0" style="fill:#A9B6C4; font-family:'BloggerSans'; font-size:10.92px;"> </tspan><tspan x="327.599" y="0" style="fill:#A9B6C4; font-family:'BloggerSans'; font-size:10.92px;">tempor</tspan><tspan x="361.57" y="0" style="fill:#A9B6C4; font-family:'BloggerSans'; font-size:10.92px;"> </tspan><tspan x="363.821" y="0" style="fill:#A9B6C4; font-family:'BloggerSans'; font-size:10.92px;">incididunt</tspan><tspan x="410.449" y="0" style="fill:#A9B6C4; font-family:'BloggerSans'; font-size:10.92px;"> </tspan><tspan x="412.699" y="0" style="fill:#A9B6C4; font-family:'BloggerSans'; font-size:10.92px;">ut</tspan><tspan x="422.33" y="0" style="fill:#A9B6C4; font-family:'BloggerSans'; font-size:10.92px;"> </tspan><tspan x="424.581" y="0" style="fill:#A9B6C4; font-family:'BloggerSans'; font-size:10.92px;">labore</tspan><tspan x="453.67" y="0" style="fill:#A9B6C4; font-family:'BloggerSans'; font-size:10.92px;"> </tspan><tspan x="455.92" y="0" style="fill:#A9B6C4; font-family:'BloggerSans'; font-size:10.92px;">et </tspan><tspan x="0" y="13.104" style="fill:#A9B6C4; font-family:'BloggerSans'; font-size:10.92px;">dolore</tspan><tspan x="29.768" y="13.104" style="fill:#A9B6C4; font-family:'BloggerSans'; font-size:10.92px;"> </tspan><tspan x="31.796" y="13.104" style="fill:#A9B6C4; font-family:'BloggerSans'; font-size:10.92px;">magna</tspan><tspan x="63.594" y="13.104" style="fill:#A9B6C4; font-family:'BloggerSans'; font-size:10.92px;"> </tspan><tspan x="65.622" y="13.104" style="fill:#A9B6C4; font-family:'BloggerSans'; font-size:10.92px;">aliqua.</tspan><tspan x="95.706" y="13.104" style="fill:#A9B6C4; font-family:'BloggerSans'; font-size:10.92px;"> </tspan><tspan x="97.734" y="13.104" style="fill:#A9B6C4; font-family:'BloggerSans'; font-size:10.92px;">Ut</tspan><tspan x="108.414" y="13.104" style="fill:#A9B6C4; font-family:'BloggerSans'; font-size:10.92px;"> </tspan><tspan x="110.442" y="13.104" style="fill:#A9B6C4; font-family:'BloggerSans'; font-size:10.92px;">enim</tspan><tspan x="133.636" y="13.104" style="fill:#A9B6C4; font-family:'BloggerSans'; font-size:10.92px;"> </tspan><tspan x="135.664" y="13.104" style="fill:#A9B6C4; font-family:'BloggerSans'; font-size:10.92px;">ad</tspan><tspan x="147.085" y="13.104" style="fill:#A9B6C4; font-family:'BloggerSans'; font-size:10.92px;"> </tspan><tspan x="149.114" y="13.104" style="fill:#A9B6C4; font-family:'BloggerSans'; font-size:10.92px;">minim</tspan><tspan x="178.5" y="13.104" style="fill:#A9B6C4; font-family:'BloggerSans'; font-size:10.92px;"> </tspan><tspan x="180.527" y="13.104" style="fill:#A9B6C4; font-family:'BloggerSans'; font-size:10.92px;">veniam,</tspan><tspan x="216.497" y="13.104" style="fill:#A9B6C4; font-family:'BloggerSans'; font-size:10.92px;"> </tspan><tspan x="218.525" y="13.104" style="fill:#A9B6C4; font-family:'BloggerSans'; font-size:10.92px;">quis</tspan><tspan x="237.57" y="13.104" style="fill:#A9B6C4; font-family:'BloggerSans'; font-size:10.92px;"> </tspan><tspan x="239.598" y="13.104" style="fill:#A9B6C4; font-family:'BloggerSans'; font-size:10.92px;">nostrud</tspan><tspan x="275.339" y="13.104" style="fill:#A9B6C4; font-family:'BloggerSans'; font-size:10.92px;"> </tspan><tspan x="277.367" y="13.104" style="fill:#A9B6C4; font-family:'BloggerSans'; font-size:10.92px;">exercitation</tspan><tspan x="331.485" y="13.104" style="fill:#A9B6C4; font-family:'BloggerSans'; font-size:10.92px;"> </tspan><tspan x="333.513" y="13.104" style="fill:#A9B6C4; font-family:'BloggerSans'; font-size:10.92px;">ullamco</tspan><tspan x="369.942" y="13.104" style="fill:#A9B6C4; font-family:'BloggerSans'; font-size:10.92px;"> </tspan><tspan x="371.971" y="13.104" style="fill:#A9B6C4; font-family:'BloggerSans'; font-size:10.92px;">laboris</tspan><tspan x="402.469" y="13.104" style="fill:#A9B6C4; font-family:'BloggerSans'; font-size:10.92px;"> </tspan><tspan x="404.497" y="13.104" style="fill:#A9B6C4; font-family:'BloggerSans'; font-size:10.92px;">nisi</tspan><tspan x="419.993" y="13.104" style="fill:#A9B6C4; font-family:'BloggerSans'; font-size:10.92px;"> </tspan><tspan x="422.021" y="13.104" style="fill:#A9B6C4; font-family:'BloggerSans'; font-size:10.92px;">ut</tspan><tspan x="431.652" y="13.104" style="fill:#A9B6C4; font-family:'BloggerSans'; font-size:10.92px;"> </tspan><tspan x="433.679" y="13.104" style="fill:#A9B6C4; font-family:'BloggerSans'; font-size:10.92px;">aliquip </tspan><tspan x="0" y="26.208" style="fill:#A9B6C4; font-family:'BloggerSans'; font-size:10.92px;">ex</tspan><tspan x="10.527" y="26.208" style="fill:#A9B6C4; font-family:'BloggerSans'; font-size:10.92px;"> </tspan><tspan x="13.152" y="26.208" style="fill:#A9B6C4; font-family:'BloggerSans'; font-size:10.92px;">ea</tspan><tspan x="23.886" y="26.208" style="fill:#A9B6C4; font-family:'BloggerSans'; font-size:10.92px;"> </tspan><tspan x="26.511" y="26.208" style="fill:#A9B6C4; font-family:'BloggerSans'; font-size:10.92px;">commodo</tspan><tspan x="73.762" y="26.208" style="fill:#A9B6C4; font-family:'BloggerSans'; font-size:10.92px;"> </tspan><tspan x="76.387" y="26.208" style="fill:#A9B6C4; font-family:'BloggerSans'; font-size:10.92px;">consequat.</tspan><tspan x="126.433" y="26.208" style="fill:#A9B6C4; font-family:'BloggerSans'; font-size:10.92px;"> </tspan><tspan x="129.058" y="26.208" style="fill:#A9B6C4; font-family:'BloggerSans'; font-size:10.92px;">Duis</tspan><tspan x="149.227" y="26.208" style="fill:#A9B6C4; font-family:'BloggerSans'; font-size:10.92px;"> </tspan><tspan x="151.852" y="26.208" style="fill:#A9B6C4; font-family:'BloggerSans'; font-size:10.92px;">aute</tspan><tspan x="172.217" y="26.208" style="fill:#A9B6C4; font-family:'BloggerSans'; font-size:10.92px;"> </tspan><tspan x="174.842" y="26.208" style="fill:#A9B6C4; font-family:'BloggerSans'; font-size:10.92px;">irure</tspan><tspan x="196.026" y="26.208" style="fill:#A9B6C4; font-family:'BloggerSans'; font-size:10.92px;"> </tspan><tspan x="198.651" y="26.208" style="fill:#A9B6C4; font-family:'BloggerSans'; font-size:10.92px;">dolor</tspan><tspan x="222.948" y="26.208" style="fill:#A9B6C4; font-family:'BloggerSans'; font-size:10.92px;"> </tspan><tspan x="225.573" y="26.208" style="fill:#A9B6C4; font-family:'BloggerSans'; font-size:10.92px;">in</tspan><tspan x="234.189" y="26.208" style="fill:#A9B6C4; font-family:'BloggerSans'; font-size:10.92px;"> </tspan><tspan x="236.814" y="26.208" style="fill:#A9B6C4; font-family:'BloggerSans'; font-size:10.92px;">reprehenderit</tspan><tspan x="300.072" y="26.208" style="fill:#A9B6C4; font-family:'BloggerSans'; font-size:10.92px;"> </tspan><tspan x="302.697" y="26.208" style="fill:#A9B6C4; font-family:'BloggerSans'; font-size:10.92px;">in</tspan><tspan x="311.313" y="26.208" style="fill:#A9B6C4; font-family:'BloggerSans'; font-size:10.92px;"> </tspan><tspan x="313.938" y="26.208" style="fill:#A9B6C4; font-family:'BloggerSans'; font-size:10.92px;">voluptate</tspan><tspan x="357.956" y="26.208" style="fill:#A9B6C4; font-family:'BloggerSans'; font-size:10.92px;"> </tspan><tspan x="360.581" y="26.208" style="fill:#A9B6C4; font-family:'BloggerSans'; font-size:10.92px;">velit</tspan><tspan x="380.05" y="26.208" style="fill:#A9B6C4; font-family:'BloggerSans'; font-size:10.92px;"> </tspan><tspan x="382.675" y="26.208" style="fill:#A9B6C4; font-family:'BloggerSans'; font-size:10.92px;">esse</tspan><tspan x="402.266" y="26.208" style="fill:#A9B6C4; font-family:'BloggerSans'; font-size:10.92px;"> </tspan><tspan x="404.89" y="26.208" style="fill:#A9B6C4; font-family:'BloggerSans'; font-size:10.92px;">cillum</tspan><tspan x="432.617" y="26.208" style="fill:#A9B6C4; font-family:'BloggerSans'; font-size:10.92px;"> </tspan><tspan x="435.242" y="26.208" style="fill:#A9B6C4; font-family:'BloggerSans'; font-size:10.92px;">dolore </tspan><tspan x="0" y="39.312" style="fill:#A9B6C4; font-family:'BloggerSans'; font-size:10.92px;">eu</tspan><tspan x="11.488" y="39.312" style="fill:#A9B6C4; font-family:'BloggerSans'; font-size:10.92px; letter-spacing:2;"> </tspan><tspan x="16.053" y="39.312" style="fill:#A9B6C4; font-family:'BloggerSans'; font-size:10.92px;">fugiat</tspan><tspan x="42.795" y="39.312" style="fill:#A9B6C4; font-family:'BloggerSans'; font-size:10.92px; letter-spacing:2;"> </tspan><tspan x="47.36" y="39.312" style="fill:#A9B6C4; font-family:'BloggerSans'; font-size:10.92px;">nulla</tspan><tspan x="69.855" y="39.312" style="fill:#A9B6C4; font-family:'BloggerSans'; font-size:10.92px; letter-spacing:2;"> </tspan><tspan x="74.421" y="39.312" style="fill:#A9B6C4; font-family:'BloggerSans'; font-size:10.92px;">pariatur.</tspan><tspan x="112.749" y="39.312" style="fill:#A9B6C4; font-family:'BloggerSans'; font-size:10.92px; letter-spacing:2;"> </tspan><tspan x="117.314" y="39.312" style="fill:#A9B6C4; font-family:'BloggerSans'; font-size:10.92px;">Excepteur</tspan><tspan x="162.992" y="39.312" style="fill:#A9B6C4; font-family:'BloggerSans'; font-size:10.92px; letter-spacing:2;"> </tspan><tspan x="167.557" y="39.312" style="fill:#A9B6C4; font-family:'BloggerSans'; font-size:10.92px;">sint</tspan><tspan x="184.111" y="39.312" style="fill:#A9B6C4; font-family:'BloggerSans'; font-size:10.92px; letter-spacing:2;"> </tspan><tspan x="188.677" y="39.312" style="fill:#A9B6C4; font-family:'BloggerSans'; font-size:10.92px;">occaecat</tspan><tspan x="228.959" y="39.312" style="fill:#A9B6C4; font-family:'BloggerSans'; font-size:10.92px; letter-spacing:2;"> </tspan><tspan x="233.525" y="39.312" style="fill:#A9B6C4; font-family:'BloggerSans'; font-size:10.92px;">cupidatat</tspan><tspan x="277.116" y="39.312" style="fill:#A9B6C4; font-family:'BloggerSans'; font-size:10.92px; letter-spacing:2;"> </tspan><tspan x="281.681" y="39.312" style="fill:#A9B6C4; font-family:'BloggerSans'; font-size:10.92px;">non</tspan><tspan x="299.797" y="39.312" style="fill:#A9B6C4; font-family:'BloggerSans'; font-size:10.92px; letter-spacing:2;"> </tspan><tspan x="304.363" y="39.312" style="fill:#A9B6C4; font-family:'BloggerSans'; font-size:10.92px;">proident,</tspan><tspan x="346.262" y="39.312" style="fill:#A9B6C4; font-family:'BloggerSans'; font-size:10.92px; letter-spacing:2;"> </tspan><tspan x="350.827" y="39.312" style="fill:#A9B6C4; font-family:'BloggerSans'; font-size:10.92px;">sunt</tspan><tspan x="370.843" y="39.312" style="fill:#A9B6C4; font-family:'BloggerSans'; font-size:10.92px; letter-spacing:2;"> </tspan><tspan x="375.408" y="39.312" style="fill:#A9B6C4; font-family:'BloggerSans'; font-size:10.92px;">in</tspan><tspan x="384.024" y="39.312" style="fill:#A9B6C4; font-family:'BloggerSans'; font-size:10.92px; letter-spacing:2;"> </tspan><tspan x="388.589" y="39.312" style="fill:#A9B6C4; font-family:'BloggerSans'; font-size:10.92px;">culpa</tspan><tspan x="413.552" y="39.312" style="fill:#A9B6C4; font-family:'BloggerSans'; font-size:10.92px; letter-spacing:2;"> </tspan><tspan x="418.117" y="39.312" style="fill:#A9B6C4; font-family:'BloggerSans'; font-size:10.92px;">qui</tspan><tspan x="432.836" y="39.312" style="fill:#A9B6C4; font-family:'BloggerSans'; font-size:10.92px; letter-spacing:2;"> </tspan><tspan x="437.401" y="39.312" style="fill:#A9B6C4; font-family:'BloggerSans'; font-size:10.92px;">officia </tspan></text>
				</g>
			</g>
			<g>
				<rect x="223.534" y="255.151" style="fill-rule:evenodd;clip-rule:evenodd;fill:#E9E8E4;" width="298.444" height="37.318"/>
				<rect x="221.301" y="264.254" style="fill:none;" width="302.909" height="28.21"/>
				<text transform="matrix(1 0 0 1 272.8897 282.344)" style="fill:#2F3850; font-family:'Aleo-Regular'; font-size:25.48px;">name &amp; surname</text>
				<g>
					
						<line style="fill:none;stroke:#E9E8E4;stroke-width:5.46;stroke-miterlimit:10;" x1="214.416" y1="255.151" x2="214.416" y2="292.464"/>
					
						<line style="fill:none;stroke:#E9E8E4;stroke-width:5.46;stroke-miterlimit:10;" x1="531.095" y1="255.151" x2="531.095" y2="292.464"/>
				</g>
			</g>
			<g>
				<g>
					<path style="fill:#AD9038;" d="M313.46,315.21"/>
					<path style="fill:#AD9038;" d="M324.241,316.592c-0.763,0-1.382-0.619-1.382-1.382c0-0.763,0.619-1.382,1.382-1.382
						c0.763,0,1.382,0.619,1.382,1.382C325.623,315.974,325.004,316.592,324.241,316.592z"/>
					<path style="fill:#AD9038;" d="M335.022,317.542c-1.288,0-2.332-1.044-2.332-2.332c0-1.288,1.044-2.332,2.332-2.332
						c1.288,0,2.332,1.044,2.332,2.332C337.353,316.499,336.31,317.542,335.022,317.542z"/>
					<circle style="fill:#AD9038;" cx="345.803" cy="315.21" r="2.992"/>
					<path style="fill:#AD9038;" d="M356.584,318.616c-1.88,0-3.405-1.524-3.405-3.405c0-1.881,1.525-3.405,3.405-3.405
						c1.881,0,3.405,1.524,3.405,3.405C359.989,317.091,358.465,318.616,356.584,318.616z"/>
					<path style="fill:#AD9038;" d="M367.365,318.818c-1.993,0-3.607-1.615-3.607-3.607c0-1.992,1.615-3.607,3.607-3.607
						c1.992,0,3.607,1.615,3.607,3.607C370.973,317.203,369.358,318.818,367.365,318.818z"/>
					<path style="fill:#AD9038;" d="M378.146,318.82c-1.994,0-3.61-1.616-3.61-3.609c0-1.994,1.616-3.609,3.61-3.609
						c1.994,0,3.609,1.616,3.609,3.609C381.756,317.204,380.14,318.82,378.146,318.82z"/>
					<path style="fill:#AD9038;" d="M388.928,318.624c-1.885,0-3.414-1.528-3.414-3.413c0-1.885,1.528-3.413,3.414-3.413
						c1.885,0,3.413,1.528,3.413,3.413C392.341,317.096,390.813,318.624,388.928,318.624z"/>
					<path style="fill:#AD9038;" d="M399.709,318.213c-1.658,0-3.003-1.344-3.003-3.003s1.345-3.002,3.003-3.002
						c1.658,0,3.003,1.344,3.003,3.002S401.367,318.213,399.709,318.213z"/>
					<path style="fill:#AD9038;" d="M410.49,317.553c-1.294,0-2.342-1.049-2.342-2.342c0-1.293,1.048-2.342,2.342-2.342
						c1.294,0,2.342,1.049,2.342,2.342C412.832,316.504,411.784,317.553,410.49,317.553z"/>
					<path style="fill:#AD9038;" d="M421.271,316.6c-0.767,0-1.389-0.622-1.389-1.389c0-0.767,0.622-1.389,1.389-1.389
						c0.768,0,1.389,0.622,1.389,1.389C422.66,315.978,422.039,316.6,421.271,316.6z"/>
					<path style="fill:#AD9038;" d="M432.051,315.21"/>
				</g>
			</g>
			<g>
				<rect x="254.239" y="216.563" style="fill-rule:evenodd;clip-rule:evenodd;fill:none;" width="237.035" height="26.206"/>
				<text transform="matrix(1 0 0 1 288.3814 225.6057)" style="fill:#AD9038; font-family:'Aleo-Regular'; font-size:12.74px;">lorem ipsum dolor sit amet</text>
				<rect x="219.911" y="140.493" style="fill:none;" width="305.689" height="16.38"/>
				<text transform="matrix(1 0 0 1 258.9497 152.1194)" style="fill:#85A9AA; font-family:'Aleo-Regular'; font-size:16.38px;">of achievement appreciation</text>
				<g>
					<rect x="203.496" y="164.151" style="fill:none;" width="338.52" height="43.68"/>
					<text transform="matrix(1 0 0 1 243.6924 199.0481)" style="fill:#2F3850; font-family:'Aleo-Regular'; font-size:49.14px;">certificate</text>
					<path style="fill-rule:evenodd;clip-rule:evenodd;fill:none;stroke:#2F3850;stroke-width:1.82;stroke-miterlimit:10;" d="
						M216.236,205.776c104.725,0,209.452,0,313.04,0"/>
				</g>
			</g>
			<g>
				<g>
					
						<line style="fill:none;stroke:#2E394D;stroke-width:1.6016;stroke-miterlimit:10;" x1="179.712" y1="470.439" x2="338.153" y2="470.439"/>
					<rect x="179.712" y="476.626" style="fill:none;" width="101.703" height="13.213"/>
					<text transform="matrix(1 0 0 1 179.7178 483.0866)" style="fill:#2F3850; font-family:'Aleo-Regular'; font-size:9.1px;">lorem ipsum</text>
					
						<path style="fill:none;stroke:#7F8493;stroke-width:1.274;stroke-linecap:round;stroke-linejoin:round;stroke-miterlimit:10;" d="
						M199.248,465.665c6.068-1.213,49.748-27.301,33.976-35.188c-10.92-4.853-21.235,31.092-18.2,33.367
						c6.825,4.398,16.381-6.066,19.412-12.74c-11.527,9.707,3.641,15.168,10.313,3.641c-9.1,9.1,4.248,9.1,9.101,0
						c0,0,0.306,4.094,0.909,5.309c1.216-1.215,5.766-4.701,5.766-4.701c0,2.426,1.82,4.852,1.82,6.066
						c0.604-0.607,3.032-2.426,3.64-3.641c3.641,10.315,41.253,10.92,39.433,4.246c-1.82-7.279-23.052-4.852-29.12-3.641"/>
				</g>
				<g>
					
						<line style="fill:none;stroke:#2E394D;stroke-width:1.6016;stroke-miterlimit:10;" x1="565.8" y1="470.439" x2="407.357" y2="470.439"/>
					<rect x="464.097" y="476.626" style="fill:none;" width="101.703" height="13.213"/>
					<text transform="matrix(1 0 0 1 511.9087 483.0866)" style="fill:#2F3850; font-family:'Aleo-Regular'; font-size:9.1px;">lorem ipsum</text>
					
						<path style="fill:none;stroke:#7F8493;stroke-width:1.274;stroke-linecap:round;stroke-linejoin:round;stroke-miterlimit:10;" d="
						M468.539,466.798c9.706-13.348,33.664-36.928,20.02-42.467c-11.302-5.076-19.414,16.379-16.38,30.335
						c5.46,20.625,27.373-4.32,24.874-6.674c-3.958-4.684-14.56,13.953-8.494,18.199c4.246,3.641,9.706-8.492,10.92-10.92
						c1.214,1.82,3.411,4.631,4.854,5.461c3.64-2.428,5.46-6.674,7.28-10.922c3.64,16.988,27.905,3.641,6.065-7.885
						c-13.954-7.281-54.812-5.875-62.486,10.314c-2.051,4.324-0.382,7.814,3.032,8.492"/>
				</g>
			</g>
		</g>
	</g>
</g>
</svg>
