<?xml version="1.0" encoding="utf-8"?>
<!-- Generator: Adobe Illustrator 27.5.0, SVG Export Plug-In . SVG Version: 6.00 Build 0)  -->
<svg version="1.1" id="PRINT" xmlns="http://www.w3.org/2000/svg" xmlns:xlink="http://www.w3.org/1999/xlink" x="0px" y="0px"
	 viewBox="0 0 595.276 841.89" style="enable-background:new 0 0 595.276 841.89;" xml:space="preserve">
<rect x="-8.504" y="-8.504" style="fill:#FFFFFF;" width="612.283" height="858.898"/>
<g>
	<defs>
		<rect id="SVGID_1_" x="-8.504" y="-8.504" width="612.283" height="858.898"/>
	</defs>
	<clipPath id="SVGID_00000088853815716841995640000002192640702319101080_">
		<use xlink:href="#SVGID_1_"  style="overflow:visible;"/>
	</clipPath>
	<path style="clip-path:url(#SVGID_00000088853815716841995640000002192640702319101080_);fill:#6DCEAE;" d="M625.149,727.83
		c0,0-153.749,77.833-324.08,11.119c-170.33-66.714-340.66-9.266-340.66-9.266v192.729h666.247L625.149,727.83z"/>
	<g style="clip-path:url(#SVGID_00000088853815716841995640000002192640702319101080_);">
		
			<ellipse transform="matrix(0.9969 -0.0785 0.0785 0.9969 -59.115 4.0216)" style="fill:#FFAC14;" cx="21.58" cy="753.708" rx="61.028" ry="61.028"/>
		<path style="fill:none;stroke:#000000;stroke-width:0.5;stroke-miterlimit:10;" d="M-16.693,801.174
			c-12.301-9.994-20.723-24.741-22.292-41.77c-1.52-16.498,3.675-32.066,13.338-44"/>
		<path style="fill:none;stroke:#000000;stroke-width:0.5;stroke-miterlimit:10;" d="M82.615,753.824
			c-0.012,11.755-3.412,23.632-10.499,34.098c-9.308,13.749-23.24,22.499-38.317,25.579"/>
		<path style="fill:none;stroke:#000000;stroke-width:0.5;stroke-miterlimit:10;" d="M78.565,733.039
			c0,0-68.909,10.175-60.665,80.857"/>
		<path style="fill:none;stroke:#000000;stroke-width:0.5;stroke-miterlimit:10;" d="M58.046,705.6
			c-12.032,16.89-42.51,59.758-69.894,98.995"/>
		<path style="fill:none;stroke:#000000;stroke-width:0.5;stroke-miterlimit:10;" d="M19.588,693.417
			c0,0,16.604,68.322-52.738,86.766"/>
		<path style="fill:none;stroke:#000000;stroke-width:0.5;stroke-miterlimit:10;" d="M-31.819,724.639
			c15.217-0.47,38.799,2.205,62.52,18.265c20.935,14.174,33.57,31.786,40.85,45.321"/>
	</g>
	<path style="clip-path:url(#SVGID_00000088853815716841995640000002192640702319101080_);fill:#FFAC14;" d="M714.547,96.442
		c0,0-116.146-95.708-287.601-65.842c-52.142,9.083-98.017,28.804-140.362,49.028c-67.09,32.041-142.773,51.753-226.061,60.936
		C9.136,146.23-42.401,154.857-94.899,155.2c-48.112,0.314-56.186-18.189-55.233-43.813c1.004-27.018,3.813-54.091,0.791-81.098
		c-1.594-14.248-9.079-43.81,26.798-43.81c14.407,0,28.815,0,43.222,0c44.334,0,88.667,0,133.001,0c117.455,0,234.91,0,352.365,0
		c92.433,0,184.866,0,277.3,0c1.998,0,39.484,0.18,39.498,0.001C722.817-13.194,714.547,93.053,714.547,96.442z"/>
	<g style="clip-path:url(#SVGID_00000088853815716841995640000002192640702319101080_);">
		<path d="M124.232,846.976c-0.016-0.485-0.076-0.978-0.208-1.477c-4.811-18.076-4.061-36.488,1.439-55.188
			c0.046-0.026,0.094-0.046,0.14-0.073c2.498-1.468,4.283-3.679,5.26-6.185c0.158-0.086,0.319-0.165,0.476-0.257
			c8.452-4.969,11.279-15.811,6.388-24.287c4.24-2.923,7.649-7.677,9.171-13.54c2.356-9.076-0.518-18.033-6.559-22.594
			c0.14-0.312,0.271-0.63,0.36-0.972c0.859-3.311-1.128-6.692-4.439-7.551c-3.311-0.859-6.692,1.128-7.551,4.439
			c-0.108,0.418-0.17,0.838-0.191,1.253c-7.275,1.284-13.859,7.614-16.155,16.461c-1.475,5.684-0.901,11.325,1.215,15.87
			c-8.732,4.908-11.711,15.987-6.659,24.583c0.042,0.07,0.093,0.13,0.135,0.2c-0.4,2.592,0.027,5.322,1.364,7.789
			c-4.982,19.708-13.921,36.007-26.038,49.569c-0.266,0.298-0.485,0.615-0.683,0.938c-3.052-0.324-6.153,1.572-6.779,4.665
			c-2.719,13.422,50.461,26.949,53.131,13.791C128.689,851.259,127.155,848.125,124.232,846.976z"/>
		<path style="fill:none;stroke:#FFFFFF;stroke-width:0.5;stroke-miterlimit:10;" d="M113.912,753.033
			c5.352,6.691,16.23,8.412,24.055,6.142"/>
		<path style="fill:none;stroke:#FFFFFF;stroke-width:0.5;stroke-miterlimit:10;" d="M128.603,720.194
			c2.349,4.439,7.783,5.054,11.887,3.011"/>
		<path style="fill:none;stroke:#FFFFFF;stroke-width:0.5;stroke-miterlimit:10;" d="M107.049,777.835
			c5.352,6.691,16.23,8.413,24.055,6.142"/>
		<path style="fill:none;stroke:#FFFFFF;stroke-width:0.5;stroke-miterlimit:10;" d="M108.244,786.117
			c4.155,3.614,11.906,5.099,17.277,4.435"/>
		<path style="fill:none;stroke:#FFFFFF;stroke-width:0.5;stroke-miterlimit:10;" d="M81.766,836.512
			c8.861,13.972,28.14,16.551,42.386,10.777"/>
		<path style="fill:none;stroke:#FFFFFF;stroke-width:0.5;stroke-miterlimit:10;" d="M136.844,724.417c0,0,9.303,9.22-0.62,24.509"
			/>
		<path style="fill:#221F20;stroke:#FFFFFF;stroke-width:0.5;stroke-miterlimit:10;" d="M138.693,749.247
			c-0.357,1.375-1.761,2.201-3.137,1.844c-1.375-0.357-2.201-1.762-1.844-3.137c0.357-1.375,1.761-2.201,3.137-1.844
			C138.225,746.467,139.05,747.872,138.693,749.247z"/>
	</g>
	<g style="clip-path:url(#SVGID_00000088853815716841995640000002192640702319101080_);">
		<path style="fill:#FFFFFF;" d="M189.252,854.204c-0.452-0.112-0.813-0.44-0.995-0.869c-0.087-0.205-0.186-0.409-0.3-0.61
			c-9.019-15.907-12.863-33.506-12.284-52.552c0.037-0.036,0.077-0.067,0.114-0.104c2-2.007,3.141-4.539,3.446-7.151
			c0.129-0.121,0.261-0.235,0.386-0.361c6.478-6.501,6.747-16.82,0.857-23.661c-0.446-0.518-0.473-1.285-0.059-1.829
			c2.349-3.088,3.93-7.024,4.403-11.379c0.006-0.051,0.014-0.103,0.026-0.153l5.07-21.394c0.338-1.425-1.364-2.433-2.452-1.453
			c-2.33,2.1-4.659,4.205-6.91,6.371c-0.878,0.806-9.765-19.216-11.928-19.263c-2.05-0.045-10.691,14.552-13.372,18.023
			c-0.551,0.714-1.597,0.783-2.236,0.147l-4.456-4.44c-1.052-1.049-2.824-0.083-2.513,1.37l4.078,19.059
			c0.015,0.07,0.024,0.142,0.027,0.214c0.231,4.8,1.795,9.17,4.27,12.566c0.406,0.557,0.37,1.327-0.091,1.838
			c-6.197,6.855-5.994,17.432,0.623,24.026c0.057,0.056,0.12,0.1,0.178,0.156c0.244,2.376,1.197,4.687,2.841,6.61
			c0.235,0.274,0.376,0.619,0.378,0.98c0.074,19.642-4.343,37.085-12.374,52.758c-0.065,0.127-0.123,0.254-0.176,0.382
			c-0.169,0.406-0.518,0.708-0.943,0.823c-2.641,0.715-4.712,3.107-4.554,5.94c0.747,13.367,54.389,13.012,53.661-0.093
			C193.808,857.277,191.919,854.862,189.252,854.204z"/>
		<path style="fill:none;stroke:#000000;stroke-width:0.5;stroke-miterlimit:10;" d="M155.273,793.032
			c6.628,3.654,17.206,2.874,23.961-0.112"/>
		<path style="fill:none;stroke:#000000;stroke-width:0.5;stroke-miterlimit:10;" d="M158.076,799.768
			c4.898,1.763,12.717,1.381,17.712-0.065"/>
		<path style="fill:none;stroke:#000000;stroke-width:0.5;stroke-miterlimit:10;" d="M155.004,767.984
			c7.029,2.786,18.249,2.185,25.415-0.098"/>
		<path style="fill:none;stroke:#000000;stroke-width:0.5;stroke-miterlimit:10;" d="M145.924,853.875
			c11.94,9.282,30.648,9.038,42.343,0.247"/>
	</g>
	<g style="clip-path:url(#SVGID_00000088853815716841995640000002192640702319101080_);">
		<path style="fill:#FFFFFF;" d="M63.86,829.774c-0.282-0.393-0.603-0.769-0.989-1.109c-13.979-12.331-23.532-28.014-29.304-46.56
			c0.024-0.047,0.052-0.09,0.076-0.138c1.26-2.598,1.518-5.418,0.944-8.036c0.084-0.159,0.174-0.313,0.253-0.476
			c4.406-9.085,0.38-20.074-9.003-24.103c-8.327-3.576-18.281-0.123-22.606,7.841c-4.873,8.973-1.23,20.095,7.855,24.501
			c0.073,0.035,0.149,0.056,0.223,0.091c1.101,2.371,2.963,4.399,5.435,5.705c6.759,19.096,8.354,37.552,5.801,55.494
			c-0.056,0.394-0.063,0.778-0.048,1.156c-2.71,1.418-4.234,4.704-3.044,7.615c5.162,12.633,56.737-5.538,51.681-17.925
			C69.922,830.863,66.918,829.112,63.86,829.774z"/>
		<path style="fill:none;stroke:#000000;stroke-width:0.5;stroke-miterlimit:10;" d="M11.208,782.002
			c8.136,2.591,18.107-1.992,23.342-8.2"/>
		<path style="fill:none;stroke:#000000;stroke-width:0.5;stroke-miterlimit:10;" d="M16.515,787.032
			c5.934,0.979,12.641-2.055,17.048-5.858"/>
		<path style="fill:none;stroke:#000000;stroke-width:0.5;stroke-miterlimit:10;" d="M22.543,844.224
			c16.295,3.414,30.905-0.785,40.875-13.983"/>
	</g>
	<g style="clip-path:url(#SVGID_00000088853815716841995640000002192640702319101080_);">
		<g>
			<g>
				<path d="M-18.109,172.999c-3.72,0-7.087-1.545-9.228-4.413c-3.029-4.055-2.822-9.712,0.526-14.412l24.2-33.971
					c1.07-1.502,2.316-2.878,3.704-4.09l5.092,5.829c-0.934,0.816-1.772,1.742-2.492,2.752l-24.2,33.971
					c-1.379,1.935-1.619,3.962-0.629,5.288c0.997,1.335,3.022,1.682,5.282,0.903l41.923-14.422c0.903-0.311,1.775-0.721,2.591-1.218
					l4.029,6.609c-1.291,0.787-2.672,1.436-4.101,1.928l-41.924,14.423C-14.945,172.73-16.558,172.999-18.109,172.999z"/>
			</g>
			<path style="fill:#221F20;" d="M-103.15,224.768L-103.15,224.768c-2.839-3.827-2.031-9.282,1.796-12.121l76.715-56.912
				c3.827-2.839,9.282-2.031,12.121,1.796l0,0c2.839,3.827,2.031,9.282-1.796,12.121l-76.715,56.911
				C-94.856,229.403-100.311,228.595-103.15,224.768z"/>
			<path style="fill:#221F20;" d="M147.418,38.617c-21.155-28.516-69.482-28.504-107.942,0.028
				C1.016,67.176-13.012,113.423,8.144,141.94c21.155,28.516,69.483,28.504,107.942-0.028
				C154.545,113.38,168.573,67.133,147.418,38.617z M110.956,135.585c-34.82,25.832-78.096,26.487-96.66,1.464
				C-4.268,112.026,8.91,70.8,43.731,44.968c34.82-25.832,78.097-26.488,96.66-1.465
				C158.954,68.526,145.776,109.753,110.956,135.585z"/>
		</g>
		<path style="fill:none;stroke:#000000;stroke-width:0.5;stroke-miterlimit:10;" d="M-101.379,212.665
			c0,0-0.219,8.991,6.917,11.734"/>
		<path style="fill:none;stroke:#000000;stroke-width:0.5;stroke-miterlimit:10;" d="M-27.919,158.276c0,0-0.219,8.991,6.917,11.734
			"/>
		<line style="fill:none;stroke:#000000;stroke-width:0.5;stroke-miterlimit:10;" x1="25.5" y1="61.296" x2="41.927" y2="155.088"/>
		
			<line style="fill:none;stroke:#000000;stroke-width:0.5;stroke-miterlimit:10;" x1="16.93" y1="63.223" x2="33.357" y2="157.014"/>
		
			<line style="fill:none;stroke:#000000;stroke-width:0.5;stroke-miterlimit:10;" x1="9.847" y1="78.786" x2="22.438" y2="152.639"/>
		
			<line style="fill:none;stroke:#000000;stroke-width:0.5;stroke-miterlimit:10;" x1="32.078" y1="50.504" x2="51.095" y2="155.821"/>
		<line style="fill:none;stroke:#000000;stroke-width:0.5;stroke-miterlimit:10;" x1="40.84" y1="46.672" x2="60.722" y2="155.83"/>
		
			<line style="fill:none;stroke:#000000;stroke-width:0.5;stroke-miterlimit:10;" x1="49.137" y1="38.908" x2="69.967" y2="155.528"/>
		
			<line style="fill:none;stroke:#000000;stroke-width:0.5;stroke-miterlimit:10;" x1="55.435" y1="30.112" x2="79.258" y2="156.806"/>
		<line style="fill:none;stroke:#000000;stroke-width:0.5;stroke-miterlimit:10;" x1="64.116" y1="25.917" x2="88.598" y2="153.6"/>
		
			<line style="fill:none;stroke:#000000;stroke-width:0.5;stroke-miterlimit:10;" x1="74.357" y1="26.719" x2="95.797" y2="144.755"/>
		
			<line style="fill:none;stroke:#000000;stroke-width:0.5;stroke-miterlimit:10;" x1="82.396" y1="22.428" x2="105.088" y2="146.033"/>
		
			<line style="fill:none;stroke:#000000;stroke-width:0.5;stroke-miterlimit:10;" x1="91.28" y1="20.431" x2="113.896" y2="142.404"/>
		
			<line style="fill:none;stroke:#000000;stroke-width:0.5;stroke-miterlimit:10;" x1="100.406" y1="20.242" x2="120.759" y2="134.262"/>
		
			<line style="fill:none;stroke:#000000;stroke-width:0.5;stroke-miterlimit:10;" x1="109.272" y1="18.25" x2="128.828" y2="128.723"/>
		
			<line style="fill:none;stroke:#000000;stroke-width:0.5;stroke-miterlimit:10;" x1="120.227" y1="24.169" x2="136.491" y2="118.618"/>
		
			<line style="fill:none;stroke:#000000;stroke-width:0.5;stroke-miterlimit:10;" x1="130.813" y1="27.067" x2="145.336" y2="108.247"/>
		<path style="fill:none;stroke:#000000;stroke-width:0.5;stroke-miterlimit:10;" d="M4.311,102.383
			c0.82-0.495,108.454-79.641,108.454-79.641"/>
		<path style="fill:none;stroke:#000000;stroke-width:0.5;stroke-miterlimit:10;" d="M5.358,113.945
			c0.897-0.542,118.555-87.189,118.555-87.189"/>
		<path style="fill:none;stroke:#000000;stroke-width:0.5;stroke-miterlimit:10;" d="M7.74,123.641
			c0.929-0.552,122.872-88.767,122.872-88.767"/>
		<path style="fill:none;stroke:#000000;stroke-width:0.5;stroke-miterlimit:10;" d="M8.863,136.442
			c1.015-0.605,134.316-97.179,134.316-97.179"/>
		<path style="fill:none;stroke:#000000;stroke-width:0.5;stroke-miterlimit:10;" d="M18.958,143.161
			c0.975-0.582,129.027-93.565,129.027-93.565"/>
		<path style="fill:none;stroke:#000000;stroke-width:0.5;stroke-miterlimit:10;" d="M23.783,151.715
			c0.965-0.566,127.679-90.793,127.679-90.793"/>
		<path style="fill:none;stroke:#000000;stroke-width:0.5;stroke-miterlimit:10;" d="M33.438,157.128
			c0.911-0.538,120.497-86.338,120.497-86.338"/>
		<path style="fill:none;stroke:#000000;stroke-width:0.5;stroke-miterlimit:10;" d="M151.126,84.283
			c0,0-105.588,75.908-106.392,76.384"/>
		<path style="fill:none;stroke:#000000;stroke-width:0.5;stroke-miterlimit:10;" d="M60.994,159.805
			c0.663-0.39,87.765-62.572,87.765-62.572"/>
		<path style="fill:none;stroke:#000000;stroke-width:0.5;stroke-miterlimit:10;" d="M9.368,87.586
			c0.665-0.399,88.023-64.183,88.023-64.183"/>
		<path style="fill:none;stroke:#000000;stroke-width:0.5;stroke-miterlimit:10;" d="M10.323,75.264
			c0.545-0.328,72.073-52.836,72.073-52.836"/>
	</g>
	<g style="clip-path:url(#SVGID_00000088853815716841995640000002192640702319101080_);">
		<path style="fill:#6DCEAE;" d="M650.358,166.434c-3.085-29.231-23.235-47.35-45.994-51.613
			c-6.292-1.179-11.212-6.12-12.712-12.343l-7.401-30.688l-74.17,50.244l22.895,18.539c5.189,4.201,7.647,10.956,6.24,17.483
			c-3.349,15.537-0.131,32.461,10.529,46.239c23.528,30.409,74.15,30.451,95.523-10.71
			C649.593,185.254,651.343,175.769,650.358,166.434z"/>
		<path d="M584.251,71.79c2,2.952-12.982,16.593-33.464,30.468c-20.481,13.875-38.706,22.729-40.706,19.777
			c-2-2.952,12.982-16.593,33.464-30.468C564.026,77.692,582.251,68.838,584.251,71.79z"/>
		<path style="fill:none;stroke:#000000;stroke-width:0.5;stroke-miterlimit:10;" d="M530.234,138.114l1.513-7.868
			c0.609-3.167,3.976-4.971,6.95-3.725l8.442,3.538c3.791,1.589,8.049-0.897,8.528-4.98l0.961-8.176
			c0.438-3.728,4.006-6.259,7.67-5.438l5.834,1.306c2.839,0.636,5.486-1.649,5.272-4.55l-0.438-5.946
			c-0.258-3.5,2.773-6.35,6.251-5.876l8.821,1.203"/>
	</g>
	<g style="clip-path:url(#SVGID_00000088853815716841995640000002192640702319101080_);">
		<path style="fill:#221F20;" d="M564.954,272.124l0.366,0.103c0.469,0.132,0.971,0.029,1.354-0.277l5.337-4.261
			c0.019-0.015,0.023-0.044,0.008-0.063l-6.321-8.347c-0.014-0.018-0.012-0.044,0.004-0.06l3.084-3.013
			c0.02-0.019,0.052-0.017,0.068,0.005l6.578,8.687c0.016,0.021,0.045,0.024,0.065,0.008l49.694-39.677
			c0.019-0.015,0.023-0.043,0.008-0.063l-6.321-8.347c-0.014-0.018-0.012-0.044,0.005-0.06l3.084-3.013
			c0.02-0.019,0.052-0.017,0.068,0.005l6.579,8.687c0.016,0.02,0.045,0.024,0.065,0.008l3.645-2.91
			c0.356-0.284,0.579-0.703,0.616-1.157l0.08-0.978c0.134-1.638,2.359-2.023,3.036-0.526l1.798,3.978
			c0.309,0.684,0.115,1.49-0.472,1.959l-68.581,54.756c-0.578,0.461-1.399,0.456-1.97-0.012l-3.245-2.658
			C562.274,273.818,563.335,271.669,564.954,272.124z"/>
		<path style="fill:#D52F8A;" d="M542.368,270.3c-12.925-12.515,19.675-43.144,26.633-51.274c2.458-2.872,3.616-6.517,3.427-10.088
			c-0.09-1.751-0.514-3.48-1.269-5.085c-0.436-0.954-0.998-1.855-1.669-2.7l-1.514-1.889l-2.984-3.722l-4.947-6.158
			c-2.216-2.755-1.899-6.881,0.729-9.367l18.743-17.729c2.56-2.417,6.406-2.443,8.868-0.051c0,0,35.729,34.651,35.898,34.807
			c7.195,6.989,4.257,13.167-1.778,18.407c-5.259,4.578-11.961,6.798-17.553,10.842c-13.598,9.836-23.337,24.585-35.798,35.789
			C563.066,267.558,550.282,277.961,542.368,270.3z"/>
		<path style="fill:none;stroke:#221F20;stroke-width:0.5;stroke-linecap:round;stroke-linejoin:round;stroke-miterlimit:10;" d="
			M624.105,197.049c0,0,2.266,10.453-6.377,16.02c-8.644,5.567-16.597,6.276-27.345,17.346
			c-10.748,11.07-25.121,33.184-35.754,37.886c-5.152,2.279-9.111,2.735-11.823,2.6"/>
		<path style="fill:#221F20;" d="M572.495,208.885l9.985-7.936c1.005-0.799,1.347-2.266,0.618-3.323
			c-0.412-0.598-1.037-0.952-1.703-1.02c-0.606-0.07-1.229,0.089-1.744,0.498l-8.464,6.727c-0.016,0.013-0.021,0.035-0.013,0.053
			c0.733,1.57,1.151,3.258,1.249,4.968C572.425,208.889,572.466,208.907,572.495,208.885z"/>
		<path style="fill:#221F20;" d="M565.022,195.577l2.926,3.651c0.016,0.02,0.044,0.023,0.064,0.007l8.039-6.389
			c1.005-0.799,1.347-2.266,0.618-3.323c-0.413-0.598-1.037-0.952-1.703-1.02c-0.606-0.07-1.229,0.089-1.744,0.498l-8.193,6.511
			C565.009,195.528,565.006,195.557,565.022,195.577z"/>
		<path style="fill:#221F20;" d="M584.389,169.573l-17.47,16.307c-4.793,4.474-12.193,4.21-16.445-0.587l-1.281-1.446
			c-4.252-4.797-3.808-12.382,0.985-16.856l17.47-16.307c4.793-4.474,12.193-4.21,16.445,0.587l1.281,1.446
			C589.625,157.513,589.182,165.098,584.389,169.573z"/>
		<path style="fill:#221F20;" d="M588.132,177.507c1.208,1.363,1.083,3.499-0.279,4.771c-1.362,1.271-3.446,1.197-4.654-0.166
			c-1.208-1.363-1.083-3.499,0.279-4.771C584.84,176.07,586.923,176.144,588.132,177.507z"/>
		<path style="fill:#221F20;" d="M595.697,186.383c1.208,1.363,1.083,3.499-0.279,4.771c-1.362,1.272-3.446,1.197-4.654-0.166
			c-1.208-1.363-1.083-3.499,0.279-4.771C592.405,184.945,594.489,185.019,595.697,186.383z"/>
	</g>
</g>
<g>
	
		<ellipse transform="matrix(0.8476 -0.5307 0.5307 0.8476 -86.6814 80.9955)" style="fill:#FFAC14;" cx="97.645" cy="191.381" rx="17.619" ry="17.619"/>
	<path style="fill:none;stroke:#000000;stroke-width:0.5;stroke-miterlimit:10;" d="M97.946,208.82
		c-9.729,0.195-17.774-7.533-17.969-17.262c-0.098-4.864,1.786-9.308,4.909-12.56"/>
	<path style="fill:none;stroke:#000000;stroke-width:0.5;stroke-miterlimit:10;" d="M88.409,176.428
		c3.829-2.381,8.566-3.302,13.305-2.198c9.477,2.208,15.369,11.682,13.16,21.158c-0.552,2.369-1.558,4.514-2.905,6.365"/>
	
		<line style="fill:none;stroke:#000000;stroke-width:0.5;stroke-miterlimit:10;" x1="96.116" y1="173.945" x2="96.116" y2="208.449"/>
	
		<line style="fill:none;stroke:#000000;stroke-width:0.5;stroke-miterlimit:10;" x1="98.808" y1="174.19" x2="98.808" y2="208.694"/>
	<path style="fill:none;stroke:#000000;stroke-width:0.5;stroke-miterlimit:10;" d="M81.189,184.713c0,0,14.683,7.586,32.546,0"/>
	<path style="fill:none;stroke:#000000;stroke-width:0.5;stroke-miterlimit:10;" d="M81.204,197.74c0,0,14.683-9.061,32.546,0"/>
</g>
<rect x="111.164" y="148.344" style="fill:none;" width="382.23" height="51.361"/>
<text transform="matrix(1 0 0 1 239.7612 165.7334)"><tspan x="0" y="0" style="fill:#D52F8A; font-family:'RalewayRoman-Black'; font-size:24.493px;">After School</tspan><tspan x="16.109" y="21.75" style="fill:#221F20; font-family:'RalewayRoman-Light'; font-size:18.1248px; letter-spacing:1;">ACTIVITIES </tspan></text>
<rect x="175.701" y="808.075" style="fill:none;" width="257.146" height="13.449"/>
<text transform="matrix(1 0 0 1 214.7382 818.0143)" style="font-family:'RalewayRoman-Bold'; font-size:14px;">www.afterschoolactivities.com</text>
<rect x="115.993" y="305.028" style="fill:none;" width="363.289" height="17.426"/>
<text transform="matrix(1 0 0 1 173.7693 314.2579)" style="font-family:'RalewayRoman-Medium'; font-size:13px;">THIS CERTIFICATE IS PROUDLY PRESENTED TO</text>
<g>
	<circle style="fill:#221F20;" cx="298.7" cy="114.599" r="20.317"/>
	<g>
		<path style="fill:#FFFFFF;" d="M302.36,123.547c-0.03-0.109-0.071-0.218-0.129-0.324c-2.089-3.846-2.933-8.075-2.711-12.631
			c0.009-0.008,0.019-0.016,0.028-0.024c0.487-0.472,0.772-1.073,0.856-1.696c0.031-0.028,0.063-0.055,0.094-0.085
			c1.704-1.649,1.701-4.397-0.043-6.042c-1.549-1.46-4.022-1.5-5.618-0.092c-1.798,1.586-1.891,4.333-0.242,6.037
			c0.013,0.014,0.028,0.024,0.042,0.038c0.052,0.612,0.299,1.209,0.739,1.696c-0.048,4.757-1.184,8.956-3.193,12.707
			c-0.044,0.082-0.077,0.166-0.104,0.251c-0.712,0.094-1.313,0.696-1.285,1.434c0.121,3.202,12.96,3.351,12.843,0.211
			C303.609,124.275,303.088,123.647,302.36,123.547z"/>
		<path style="fill:none;stroke:#000000;stroke-width:0.5;stroke-miterlimit:10;" d="M294.596,108.767
			c1.586,1.227,4.154,1.02,5.809,0.072"/>
		<path style="fill:none;stroke:#000000;stroke-width:0.5;stroke-miterlimit:10;" d="M295.361,110.304
			c1.23,0.694,2.954,0.565,4.232,0.082"/>
		<path style="fill:none;stroke:#000000;stroke-width:0.5;stroke-miterlimit:10;" d="M292.082,123.404
			c3.319,2.066,6.88,2.318,10.142,0.21"/>
	</g>
	<g>
		<path style="fill:#6DCEAE;" d="M307.494,126.28c-2.466,2.043-6.12,1.7-8.163-0.765c-2.043-2.466-1.7-6.12,0.766-8.163
			c2.466-2.043,6.12-1.7,8.163,0.765S309.96,124.237,307.494,126.28z"/>
		<path style="fill:none;stroke:#000000;stroke-width:0.5;stroke-miterlimit:10;" d="M299.44,125.553
			c-2.092-2.424-1.823-6.085,0.601-8.177c1.212-1.046,2.733-1.502,4.213-1.393"/>
		<path style="fill:none;stroke:#000000;stroke-width:0.5;stroke-miterlimit:10;" d="M305.645,116.336
			c1.407,0.47,2.635,1.477,3.35,2.91c1.43,2.865,0.267,6.346-2.598,7.776c-0.716,0.357-1.471,0.553-2.223,0.6"/>
		
			<line style="fill:none;stroke:#000000;stroke-width:0.5;stroke-miterlimit:10;" x1="307.892" y1="117.768" x2="299.15" y2="125.011"/>
		
			<line style="fill:none;stroke:#000000;stroke-width:0.5;stroke-miterlimit:10;" x1="308.395" y1="118.501" x2="299.653" y2="125.745"/>
		<path style="fill:none;stroke:#000000;stroke-width:0.5;stroke-miterlimit:10;" d="M302.03,116.246c0,0,1.16,5.313,6.833,8.247"/>
		<path style="fill:none;stroke:#000000;stroke-width:0.5;stroke-miterlimit:10;" d="M298.733,118.985c0,0,5.378,1.818,6.833,8.247"
			/>
	</g>
</g>
<rect x="111.164" y="225.271" style="fill:none;" width="382.23" height="55.742"/>
<text transform="matrix(1 0 0 1 199.8467 252.9607)"><tspan x="0" y="0" style="fill:#221F20; font-family:'RalewayRoman-Regular'; font-size:39px;">CERTIFICATE</tspan><tspan x="22.549" y="25.2" style="fill:#221F20; font-family:'RalewayRoman-Regular'; font-size:21px;">OF APPRECIATION</tspan></text>
<rect x="111.164" y="396.366" style="fill:#FFAC14;" width="382.23" height="63.205"/>
<rect x="142.539" y="411.861" style="fill:none;" width="310.198" height="55.205"/>
<text transform="matrix(1 0 0 1 199.5549 439.5508)"><tspan x="0" y="0" style="fill:#221F20; font-family:'RalewayRoman-Bold'; font-size:39px;">Mike </tspan><tspan x="86.579" y="0" style="fill:#221F20; font-family:'RalewayRoman-Regular'; font-size:39px;">Hobby</tspan></text>
<rect x="112.491" y="483.128" style="fill:none;" width="382.229" height="37.161"/>
<text transform="matrix(1 0 0 1 124.7676 492.3571)"><tspan x="0" y="0" style="font-family:'RalewayRoman-Regular'; font-size:13px;">Lorem ipsum dolor sit amet, consectetuer adipiscing elit, sed diam </tspan><tspan x="37.738" y="21" style="font-family:'RalewayRoman-Regular'; font-size:13px;">nonummy nibh euismod tincidunt ut laoreet dolore.</tspan></text>
<rect x="112.201" y="615.053" style="fill:#FFAC14;" width="169.942" height="5.43"/>
<rect x="111.164" y="633.645" style="fill:none;" width="171.207" height="21.225"/>
<text transform="matrix(1 0 0 1 178.6318 645.0047)" style="fill:#221F20; font-family:'RalewayRoman-Regular'; font-size:16px;">DATE</text>
<rect x="320.859" y="632.607" style="fill:none;" width="172.534" height="23.301"/>
<text transform="matrix(1 0 0 1 368.5506 643.9664)" style="fill:#221F20; font-family:'RalewayRoman-Regular'; font-size:16px;">SIGNATURE</text>
<rect x="320.165" y="615.053" style="fill:#FFAC14;" width="169.942" height="5.43"/>
<g>
	<path style="fill:#D52F8A;" d="M553.412,780.035c-2.971,5.146-15.983,2.491-19.991,6.504c-4.147,4.152-1.527,17.133-6.496,19.996
		c-5.041,2.904-14.984-5.887-20.566-4.392c-5.582,1.496-9.798,14.081-15.615,14.086c-5.735,0.005-9.956-12.547-15.624-14.069
		c-5.478-1.471-15.419,7.333-20.565,4.363c-5.146-2.971-2.491-15.983-6.504-19.991c-4.152-4.147-17.133-1.527-19.996-6.496
		c-2.904-5.041,5.887-14.984,4.392-20.566c-1.496-5.582-14.081-9.798-14.086-15.615c-0.005-5.735,12.547-9.956,14.069-15.624
		c1.471-5.478-7.333-15.419-4.363-20.565c2.971-5.145,15.983-2.491,19.991-6.504c4.147-4.152,1.527-17.133,6.496-19.996
		c5.041-2.904,14.984,5.887,20.566,4.392c5.582-1.496,9.798-14.081,15.615-14.086c5.735-0.005,9.956,12.547,15.624,14.069
		c5.478,1.471,15.419-7.333,20.565-4.363c5.145,2.971,2.491,15.983,6.504,19.991c4.152,4.147,17.133,1.527,19.996,6.496
		c2.904,5.041-5.887,14.984-4.391,20.566c1.496,5.582,14.081,9.798,14.086,15.615c0.005,5.735-12.547,9.956-14.069,15.624
		C547.578,764.948,556.383,774.89,553.412,780.035z"/>
</g>
<g>
	<path style="fill:#FFFFFF;" d="M474.557,727.702c-1.145-0.45-2.114-1.113-2.905-1.992c-0.791-0.878-1.385-1.879-1.781-3.003
		c-0.397-1.124-0.59-2.281-0.58-3.469c0.01-1.187,0.231-2.33,0.661-3.427c0.456-1.162,1.086-2.185,1.89-3.071
		c0.804-0.886,1.719-1.592,2.746-2.121c1.026-0.528,2.116-0.835,3.268-0.923c1.152-0.088,2.3,0.093,3.446,0.543
		c1.694,0.665,2.937,1.554,3.73,2.666c0.792,1.111,1.244,2.332,1.355,3.661l-1.649,0.358c-0.13-1.28-0.557-2.351-1.28-3.212
		c-0.724-0.86-1.651-1.514-2.78-1.957c-0.952-0.374-1.89-0.509-2.815-0.406c-0.925,0.103-1.795,0.384-2.609,0.847
		c-0.815,0.462-1.531,1.065-2.149,1.81c-0.618,0.744-1.108,1.576-1.469,2.495c-0.38,0.968-0.579,1.948-0.595,2.937
		c-0.016,0.99,0.143,1.937,0.477,2.842c0.334,0.903,0.818,1.698,1.451,2.385c0.634,0.686,1.402,1.207,2.306,1.562
		c1.049,0.412,2.144,0.54,3.286,0.383c1.141-0.157,2.356-0.616,3.642-1.378l-0.703,1.791
		C479.098,728.35,476.784,728.576,474.557,727.702z M482.926,722.608l-3.824-1.502l0.513-1.307l5.251,2.062l-3.316,8.447
		l-1.427-0.56L482.926,722.608z"/>
	<path style="fill:#FFFFFF;" d="M495.369,722.857c-1.11-0.398-2.195-0.47-3.254-0.216c-1.059,0.255-1.957,0.824-2.695,1.707
		l-3.079,7.841l-1.645-0.646l4.932-12.561l1.549,0.608l-1.169,2.977c0.784-0.716,1.642-1.208,2.576-1.475
		c0.933-0.266,1.816-0.273,2.648-0.021c0.168,0.047,0.312,0.094,0.433,0.142c0.121,0.047,0.219,0.095,0.293,0.143L495.369,722.857z"
		/>
	<path style="fill:#FFFFFF;" d="M498.153,737.106c-0.903-0.355-1.675-0.857-2.314-1.506c-0.639-0.65-1.122-1.387-1.449-2.211
		c-0.329-0.825-0.495-1.692-0.5-2.603c-0.006-0.912,0.168-1.817,0.522-2.718c0.459-1.169,1.15-2.136,2.075-2.9
		c0.924-0.764,1.976-1.252,3.158-1.463c1.181-0.211,2.377-0.079,3.588,0.396c1.242,0.487,2.211,1.21,2.906,2.168
		c0.694,0.957,1.118,2.024,1.27,3.203c0.152,1.179,0.002,2.344-0.452,3.499c-0.05,0.128-0.099,0.252-0.146,0.372
		c-0.048,0.121-0.093,0.209-0.133,0.267l-10.794-4.238c-0.273,0.931-0.332,1.829-0.179,2.695c0.153,0.866,0.493,1.639,1.018,2.317
		c0.526,0.678,1.191,1.176,1.998,1.493c0.823,0.323,1.683,0.418,2.582,0.288c0.899-0.132,1.626-0.479,2.184-1.043l1.276,0.948
		c-0.493,0.496-1.1,0.881-1.823,1.156c-0.722,0.274-1.495,0.404-2.317,0.389C499.799,737.599,498.976,737.429,498.153,737.106z
		 M496.3,728.167l9.318,3.659c0.292-0.936,0.36-1.83,0.202-2.685c-0.159-0.854-0.503-1.612-1.035-2.272
		c-0.533-0.66-1.21-1.153-2.033-1.476c-0.823-0.323-1.65-0.421-2.481-0.297c-0.831,0.125-1.596,0.451-2.297,0.977
		C497.274,726.6,496.716,727.298,496.3,728.167z"/>
	<path style="fill:#FFFFFF;" d="M507.409,736.299c0.308-0.785,0.8-1.374,1.475-1.767c0.675-0.392,1.474-0.587,2.395-0.586
		c0.922,0.002,1.907,0.207,2.956,0.619c0.613,0.24,1.231,0.54,1.855,0.896c0.624,0.357,1.155,0.732,1.596,1.129l0.417-1.062
		c0.415-1.058,0.431-2.023,0.047-2.896c-0.384-0.872-1.132-1.527-2.245-1.964c-0.677-0.266-1.392-0.403-2.143-0.409
		c-0.752-0.006-1.578,0.093-2.478,0.299l-0.173-1.409c1.044-0.242,2.017-0.349,2.919-0.321c0.9,0.028,1.763,0.203,2.586,0.526
		c1.549,0.608,2.602,1.531,3.159,2.767c0.557,1.237,0.531,2.633-0.08,4.188l-2.275,5.795c-0.089,0.226-0.105,0.408-0.048,0.551
		c0.055,0.142,0.185,0.263,0.389,0.361l-0.513,1.307c-0.184-0.055-0.343-0.098-0.479-0.132c-0.135-0.034-0.233-0.073-0.291-0.114
		c-0.396-0.174-0.653-0.423-0.767-0.748c-0.115-0.324-0.127-0.627-0.035-0.908l0.336-0.929c-0.849,0.504-1.804,0.776-2.862,0.817
		c-1.06,0.04-2.056-0.123-2.992-0.491c-0.806-0.317-1.469-0.775-1.987-1.376c-0.518-0.602-0.844-1.266-0.977-1.994
		C507.06,737.721,507.132,737.004,507.409,736.299z M515.478,740.574c0.265-0.155,0.487-0.316,0.666-0.487
		c0.178-0.169,0.299-0.334,0.362-0.495l0.716-1.823c-0.468-0.423-0.974-0.806-1.518-1.149c-0.545-0.343-1.117-0.632-1.713-0.867
		c-1.178-0.463-2.221-0.604-3.129-0.426c-0.907,0.179-1.519,0.668-1.833,1.467c-0.182,0.464-0.232,0.947-0.15,1.45
		c0.082,0.503,0.304,0.978,0.669,1.426c0.365,0.447,0.861,0.794,1.49,1.041c0.791,0.31,1.589,0.448,2.393,0.414
		C514.237,741.092,514.919,740.907,515.478,740.574z"/>
	<path style="fill:#FFFFFF;" d="M526.353,747.312c-0.148-0.003-0.385,0.007-0.71,0.029c-0.325,0.021-0.699,0.005-1.124-0.051
		c-0.425-0.055-0.864-0.172-1.316-0.349c-0.468-0.184-0.872-0.445-1.214-0.785c-0.341-0.339-0.562-0.739-0.66-1.199
		c-0.099-0.459-0.043-0.956,0.167-1.49l3.559-9.066l-1.742-0.684l0.513-1.307l1.742,0.684l1.672-4.26l1.645,0.646l-1.672,4.26
		l2.904,1.14l-0.513,1.307l-2.904-1.14l-3.38,8.609c-0.146,0.466-0.115,0.872,0.095,1.217c0.209,0.343,0.507,0.592,0.895,0.744
		c0.452,0.177,0.893,0.263,1.325,0.255c0.431-0.007,0.7-0.027,0.806-0.06L526.353,747.312z"/>
	<path style="fill:#FFFFFF;" d="M447.667,750.803c-1.034-0.406-1.927-0.952-2.681-1.639c-0.754-0.687-1.318-1.504-1.691-2.451
		l1.133-0.896c0.45,0.94,0.976,1.701,1.577,2.281c0.6,0.581,1.304,1.029,2.111,1.346c0.983,0.386,1.86,0.503,2.626,0.352
		c0.767-0.151,1.295-0.594,1.584-1.33c0.195-0.497,0.196-0.938,0.002-1.319c-0.195-0.382-0.537-0.766-1.027-1.154
		c-0.491-0.387-1.086-0.829-1.785-1.325c-0.776-0.583-1.408-1.122-1.892-1.618c-0.486-0.497-0.797-1.008-0.935-1.534
		c-0.137-0.526-0.077-1.118,0.181-1.776c0.321-0.818,0.793-1.416,1.416-1.791c0.622-0.376,1.347-0.563,2.175-0.562
		c0.828,0.001,1.686,0.175,2.573,0.524c0.968,0.38,1.763,0.87,2.386,1.468c0.622,0.597,1.058,1.263,1.311,1.995l-1.235,0.8
		c-0.249-0.694-0.636-1.287-1.158-1.782c-0.523-0.494-1.163-0.89-1.922-1.188c-0.516-0.203-1.036-0.327-1.557-0.374
		c-0.521-0.048-0.993,0.026-1.414,0.221c-0.421,0.196-0.738,0.566-0.953,1.112c-0.176,0.449-0.2,0.841-0.073,1.179
		c0.129,0.337,0.385,0.679,0.772,1.025c0.385,0.345,0.871,0.745,1.457,1.196c0.851,0.631,1.579,1.217,2.186,1.76
		c0.606,0.544,1.02,1.099,1.244,1.669c0.224,0.568,0.188,1.23-0.108,1.983c-0.46,1.171-1.262,1.91-2.407,2.219
		C450.418,751.504,449.119,751.373,447.667,750.803z"/>
	<path style="fill:#FFFFFF;" d="M461.562,755.393c-0.148-0.003-0.385,0.007-0.71,0.029c-0.325,0.021-0.699,0.004-1.125-0.051
		c-0.425-0.055-0.864-0.171-1.316-0.349c-0.468-0.184-0.872-0.445-1.214-0.785c-0.341-0.339-0.562-0.739-0.66-1.199
		c-0.099-0.459-0.043-0.956,0.167-1.49l3.559-9.065l-1.743-0.684l0.513-1.307l1.743,0.684l1.672-4.26l1.645,0.646l-1.672,4.26
		l2.904,1.14l-0.513,1.307l-2.904-1.14l-3.38,8.609c-0.146,0.466-0.115,0.872,0.095,1.217c0.209,0.343,0.507,0.591,0.895,0.744
		c0.452,0.177,0.893,0.263,1.325,0.255c0.431-0.007,0.7-0.027,0.806-0.06L461.562,755.393z"/>
	<path style="fill:#FFFFFF;" d="M465.334,751.478l2.897-7.378l1.645,0.646l-2.782,7.085c-0.562,1.431-0.735,2.596-0.52,3.495
		c0.214,0.9,0.806,1.541,1.774,1.921c0.645,0.253,1.325,0.358,2.041,0.315c0.715-0.042,1.408-0.234,2.081-0.572
		c0.673-0.337,1.266-0.804,1.779-1.399l3.105-7.908l1.645,0.646l-4.154,10.579c-0.089,0.225-0.104,0.409-0.048,0.551
		c0.056,0.143,0.177,0.26,0.364,0.352l-0.513,1.307c-0.2-0.061-0.358-0.108-0.474-0.144c-0.116-0.036-0.222-0.073-0.319-0.112
		c-0.31-0.159-0.538-0.397-0.683-0.713c-0.146-0.318-0.164-0.639-0.053-0.967l0.614-1.706c-0.928,0.749-1.97,1.212-3.129,1.387
		c-1.158,0.177-2.286,0.049-3.383-0.382c-1.323-0.519-2.144-1.37-2.461-2.552C464.441,754.746,464.633,753.262,465.334,751.478z"/>
	<path style="fill:#FFFFFF;" d="M479.396,755.788c0.466-1.187,1.138-2.178,2.018-2.971c0.879-0.794,1.871-1.316,2.976-1.568
		c1.104-0.252,2.213-0.159,3.326,0.278c1.049,0.412,1.88,1.059,2.492,1.942c0.612,0.883,0.997,1.811,1.155,2.786l3.05-7.769
		l1.646,0.646l-6.158,15.683c-0.089,0.226-0.105,0.41-0.049,0.553c0.055,0.142,0.177,0.26,0.364,0.352l-0.513,1.307
		c-0.342-0.078-0.598-0.16-0.77-0.247c-0.332-0.149-0.577-0.403-0.734-0.762s-0.175-0.693-0.055-0.999l0.485-1.234
		c-0.823,0.626-1.757,1.014-2.802,1.163c-1.045,0.148-2.027,0.041-2.947-0.32c-0.871-0.342-1.604-0.833-2.2-1.474
		c-0.596-0.641-1.044-1.373-1.345-2.194c-0.301-0.822-0.448-1.681-0.44-2.576C478.9,757.487,479.068,756.623,479.396,755.788z
		 M489.168,761.844l1.519-3.869c0.017-0.658-0.116-1.316-0.399-1.972c-0.283-0.656-0.663-1.24-1.142-1.752
		c-0.479-0.511-1.009-0.881-1.59-1.109c-0.677-0.266-1.346-0.367-2.004-0.302c-0.659,0.065-1.28,0.26-1.865,0.586
		c-0.584,0.326-1.101,0.751-1.549,1.278c-0.449,0.526-0.799,1.11-1.05,1.75c-0.264,0.673-0.399,1.359-0.404,2.06
		c-0.005,0.701,0.117,1.372,0.368,2.016c0.25,0.644,0.607,1.204,1.071,1.682c0.464,0.478,1.027,0.847,1.689,1.107
		c0.419,0.165,0.886,0.256,1.4,0.273c0.515,0.016,1.033-0.034,1.555-0.153c0.521-0.119,0.994-0.316,1.42-0.594
		C488.614,762.569,488.94,762.235,489.168,761.844z"/>
	<path style="fill:#FFFFFF;" d="M498.199,770.643c-0.904-0.355-1.675-0.857-2.314-1.506c-0.639-0.649-1.122-1.387-1.449-2.211
		c-0.329-0.825-0.495-1.692-0.5-2.603c-0.006-0.912,0.168-1.817,0.522-2.718c0.459-1.169,1.15-2.136,2.075-2.9
		c0.924-0.764,1.976-1.252,3.158-1.463c1.181-0.211,2.377-0.079,3.588,0.396c1.242,0.487,2.211,1.21,2.906,2.168
		c0.694,0.957,1.118,2.024,1.27,3.203c0.152,1.179,0.002,2.344-0.452,3.499c-0.05,0.128-0.099,0.252-0.146,0.372
		c-0.047,0.121-0.093,0.209-0.133,0.267l-10.794-4.238c-0.273,0.931-0.332,1.829-0.179,2.695c0.153,0.866,0.493,1.639,1.017,2.317
		c0.526,0.679,1.191,1.176,1.998,1.493c0.823,0.323,1.683,0.419,2.582,0.288c0.899-0.132,1.626-0.479,2.184-1.043l1.276,0.948
		c-0.493,0.496-1.1,0.881-1.823,1.156c-0.723,0.275-1.495,0.404-2.317,0.389C499.845,771.136,499.022,770.966,498.199,770.643z
		 M496.346,761.703l9.318,3.658c0.292-0.936,0.36-1.83,0.202-2.685c-0.159-0.854-0.503-1.612-1.035-2.272
		c-0.533-0.66-1.21-1.153-2.033-1.476c-0.823-0.323-1.65-0.421-2.481-0.297c-0.831,0.125-1.596,0.451-2.297,0.977
		C497.32,760.136,496.761,760.834,496.346,761.703z"/>
	<path style="fill:#FFFFFF;" d="M517.655,778.002l-1.645-0.646l2.747-6.998c0.579-1.474,0.784-2.638,0.616-3.491
		c-0.168-0.852-0.721-1.462-1.656-1.829c-0.645-0.253-1.344-0.347-2.096-0.283c-0.751,0.065-1.471,0.272-2.157,0.622
		c-0.687,0.349-1.27,0.826-1.75,1.432l-3.014,7.677l-1.645-0.646l4.932-12.561l1.5,0.589l-1.124,2.863
		c0.578-0.476,1.231-0.835,1.96-1.077c0.728-0.242,1.489-0.356,2.284-0.339c0.794,0.016,1.563,0.169,2.305,0.46
		c0.694,0.272,1.232,0.633,1.616,1.079c0.383,0.446,0.627,0.964,0.732,1.551c0.104,0.587,0.09,1.24-0.042,1.956
		c-0.132,0.716-0.359,1.484-0.68,2.301L517.655,778.002z"/>
	<path style="fill:#FFFFFF;" d="M527.294,781.2c-0.148-0.003-0.385,0.007-0.71,0.029c-0.325,0.021-0.699,0.004-1.124-0.051
		c-0.425-0.055-0.864-0.171-1.316-0.349c-0.468-0.184-0.872-0.445-1.214-0.785c-0.341-0.339-0.562-0.739-0.66-1.199
		c-0.099-0.459-0.043-0.956,0.167-1.49l3.559-9.066l-1.743-0.684l0.513-1.307l1.742,0.684l1.672-4.26l1.645,0.646l-1.672,4.26
		l2.904,1.14l-0.513,1.307l-2.904-1.14l-3.38,8.609c-0.146,0.466-0.115,0.872,0.095,1.217c0.209,0.343,0.507,0.591,0.895,0.744
		c0.452,0.177,0.893,0.263,1.325,0.255c0.431-0.007,0.7-0.027,0.806-0.06L527.294,781.2z"/>
</g>
</svg>
