<?xml version="1.0" encoding="utf-8"?>
<!-- Generator: Adobe Illustrator 27.5.0, SVG Export Plug-In . SVG Version: 6.00 Build 0)  -->
<svg version="1.1" id="PRINT" xmlns="http://www.w3.org/2000/svg" xmlns:xlink="http://www.w3.org/1999/xlink" x="0px" y="0px"
	 viewBox="0 0 841.89 595.276" style="enable-background:new 0 0 841.89 595.276;" xml:space="preserve">
<g>
	<g>
		<g>
			<rect x="-14.51" y="-14.736" style="fill:#FFFFFF;" width="868.062" height="625.973"/>
			<g>
				<defs>
					<rect id="SVGID_1_" x="-14.51" y="-16.465" width="869.791" height="629.431"/>
				</defs>
				<clipPath id="SVGID_00000131367483137006084800000000174028916498618555_">
					<use xlink:href="#SVGID_1_"  style="overflow:visible;"/>
				</clipPath>
				<g style="clip-path:url(#SVGID_00000131367483137006084800000000174028916498618555_);">
					<g>
						<polygon style="opacity:0.77;fill:#EAB597;" points="485.537,53.077 547.383,0.986 485.537,-51.105 422.994,0.986 						"/>
						<polygon style="opacity:0.6;fill:#D5D8DB;" points="363.247,53.691 425.093,1.6 363.247,-50.491 300.704,1.6 						"/>
						<polygon style="opacity:0.77;fill:#EAB597;" points="301.385,1.602 363.231,-50.489 301.385,-102.58 238.842,-50.489 						
							"/>
					</g>
					<g>
						<polygon style="opacity:0.77;fill:#EAB597;" points="657.142,47.891 595.296,99.982 657.142,152.073 719.685,99.982 						"/>
						<polygon style="opacity:0.77;fill:#001A4B;" points="719.075,-4.349 657.229,47.742 719.075,99.833 781.618,47.742 						"/>
						<polygon style="opacity:0.6;fill:#D5D8DB;" points="629.501,-33.254 567.655,18.837 629.501,70.928 692.044,18.837 						"/>
						<polygon style="opacity:0.77;fill:#EAB597;" points="691.763,-85.468 629.917,-33.377 691.763,18.714 754.306,-33.377 						
							"/>
						<polygon style="opacity:0.77;fill:#EAB597;" points="753.968,-137.404 692.122,-85.313 753.968,-33.222 816.511,-85.313 
													"/>
						<polygon style="opacity:0.77;fill:#EAB597;" points="843.396,-4.503 781.55,47.588 843.396,99.679 905.939,47.588 						"/>
						<polygon style="opacity:0.6;fill:#D5D8DB;" points="781.482,-56.592 719.636,-4.501 781.482,47.59 844.025,-4.501 						"/>
					</g>
					<g>
						<g>
							<polygon style="opacity:0.77;fill:#001A4B;" points="390.696,649.971 328.85,597.88 390.696,545.789 453.239,597.88 							
								"/>
							<polygon style="opacity:0.6;fill:#D5D8DB;" points="512.987,650.585 451.141,598.494 512.987,546.403 575.53,598.494 							
								"/>
							<polygon style="opacity:0.46;fill:#EAB597;" points="574.848,598.496 513.002,546.405 574.848,494.314 637.391,546.405 
															"/>
						</g>
						<g>
							<polygon style="opacity:0.77;fill:#EAB597;" points="43.39,504.38 -18.456,452.289 43.39,400.198 105.933,452.289 							"/>
							<polygon style="opacity:0.77;fill:#001A4B;" points="105.323,556.621 43.477,504.53 105.323,452.439 167.866,504.53 							
								"/>
							<polygon style="opacity:0.6;fill:#D5D8DB;" points="15.749,585.526 -46.098,533.435 15.749,481.344 78.292,533.435 							
								"/>
							<polygon style="opacity:0.77;fill:#EAB597;" points="78.011,637.74 16.165,585.649 78.011,533.558 140.554,585.649 							
								"/>
							<polygon style="opacity:0.77;fill:#EAB597;" points="140.216,689.676 78.37,637.585 140.216,585.494 202.759,637.585 							
								"/>
							<polygon style="opacity:0.46;fill:#EAB597;" points="229.644,556.775 167.798,504.684 229.644,452.593 292.187,504.684 
															"/>
							<polygon style="opacity:0.6;fill:#D5D8DB;" points="167.73,608.863 105.884,556.772 167.73,504.681 230.273,556.772 							
								"/>
						</g>
						<g>
							<polygon style="opacity:0.6;fill:#D5D8DB;" points="785.916,653.39 724.07,601.299 785.916,549.208 848.459,601.299 							
								"/>
							<polygon style="opacity:0.77;fill:#001A4B;" points="723.369,601.415 661.523,549.324 723.369,497.233 785.912,549.324 
															"/>
							<polygon style="opacity:0.77;fill:#EAB597;" points="786.115,549.416 724.268,497.325 786.115,445.234 848.658,497.325 
															"/>
							<polygon style="opacity:0.6;fill:#D5D8DB;" points="724.128,497.329 662.282,445.238 724.128,393.147 786.671,445.238 
															"/>
							<polygon style="opacity:0.77;fill:#001A4B;" points="846.561,495.608 784.715,443.517 846.561,391.426 909.104,443.517 
															"/>
						</g>
					</g>
					<g>
						<polygon style="opacity:0.6;fill:#D5D8DB;" points="50.437,158.348 112.283,106.256 50.437,54.165 -12.106,106.256 						"/>
						<polygon style="opacity:0.77;fill:#001A4B;" points="112.984,106.372 174.83,54.281 112.984,2.19 50.441,54.281 						"/>
						<polygon style="opacity:0.77;fill:#EAB597;" points="50.239,54.373 112.085,2.282 50.239,-49.809 -12.304,2.282 						"/>
						<polygon style="opacity:0.6;fill:#D5D8DB;" points="112.225,2.286 174.072,-49.805 112.225,-101.896 49.682,-49.805 						"/>
						<polygon style="opacity:0.77;fill:#001A4B;" points="-10.208,0.565 51.638,-51.526 -10.208,-103.617 -72.751,-51.526 						
							"/>
					</g>
				</g>
				<g style="clip-path:url(#SVGID_00000131367483137006084800000000174028916498618555_);">
					
						<rect x="528.98" y="548.247" transform="matrix(0.7617 0.648 -0.648 0.7617 511.9457 -290.1025)" style="opacity:0.17;fill:#DDE0E3;" width="242.708" height="5.266"/>
					
						<rect x="713.733" y="311.385" transform="matrix(0.7617 0.648 -0.648 0.7617 402.4992 -466.2676)" style="opacity:0.37;fill:#001A4B;" width="242.708" height="5.266"/>
					
						<rect x="-106.996" y="228.483" transform="matrix(0.7617 0.648 -0.648 0.7617 153.1769 45.7786)" style="opacity:0.37;fill:#001A4B;" width="242.708" height="5.266"/>
					
						<rect x="132.235" y="-17.854" transform="matrix(0.7617 0.648 -0.648 0.7617 50.575 -167.9448)" style="opacity:0.37;fill:#001A4B;" width="242.708" height="5.266"/>
					
						<rect x="119.239" y="1.952" transform="matrix(0.7617 0.648 -0.648 0.7617 47.3636 -120.3786)" style="opacity:0.45;fill:#EAB597;" width="136.168" height="4.487"/>
					
						<rect x="480.454" y="30.376" transform="matrix(0.7617 0.648 -0.648 0.7617 151.8696 -347.6596)" style="opacity:0.45;fill:#EAB597;" width="136.168" height="4.487"/>
					
						<rect x="241.223" y="607.136" transform="matrix(0.7617 0.648 -0.648 0.7617 468.5748 -55.1863)" style="opacity:0.45;fill:#EAB597;" width="136.168" height="4.487"/>
					
						<rect x="660.439" y="220.193" transform="matrix(0.7617 0.648 -0.648 0.7617 330.7083 -453.4688)" style="opacity:0.45;fill:#EAB597;" width="242.708" height="5.266"/>
					
						<rect x="-83.31" y="346.914" transform="matrix(0.7617 0.648 -0.648 0.7617 235.5614 58.6565)" style="opacity:0.45;fill:#EAB597;" width="242.708" height="5.266"/>
					
						<rect x="598.681" y="465.601" transform="matrix(0.7617 0.648 -0.648 0.7617 459.6652 -314.5159)" style="opacity:0.45;fill:#EAB597;" width="117.4" height="4.007"/>
				</g>
			</g>
		</g>
		<g>
			<g style="opacity:0.77;">
				
					<text transform="matrix(1 0 0 1 194.0552 321.3418)" style="fill:#001A4B; font-family:'Montserrat-Bold'; font-size:49.987px;">Name Surname</text>
			</g>
			<g>
				
					<text transform="matrix(1 0 0 1 293.4614 166.1396)" style="fill:#6A6969; font-family:'Montserrat-Light'; font-size:19.5917px; letter-spacing:3;">of appreciation</text>
			</g>
			<g>
				<g>
					<rect x="150.464" y="366.845" style="fill:none;" width="529.262" height="86.636"/>
					<text transform="matrix(1 0 0 1 150.4639 375.54)"><tspan x="0" y="0" style="fill:#6A6969; font-family:'Montserrat-ExtraLight'; font-size:11.7179px;">Lorem</tspan><tspan x="41.551" y="0" style="fill:#6A6969; font-family:'Montserrat-ExtraLight'; font-size:11.7179px; letter-spacing:1;"> </tspan><tspan x="46.452" y="0" style="fill:#6A6969; font-family:'Montserrat-ExtraLight'; font-size:11.7179px;">ipsum</tspan><tspan x="86.703" y="0" style="fill:#6A6969; font-family:'Montserrat-ExtraLight'; font-size:11.7179px; letter-spacing:1;"> </tspan><tspan x="91.603" y="0" style="fill:#6A6969; font-family:'Montserrat-ExtraLight'; font-size:11.7179px;">dolor</tspan><tspan x="124.987" y="0" style="fill:#6A6969; font-family:'Montserrat-ExtraLight'; font-size:11.7179px; letter-spacing:1;"> </tspan><tspan x="129.888" y="0" style="fill:#6A6969; font-family:'Montserrat-ExtraLight'; font-size:11.7179px;">sit</tspan><tspan x="145.121" y="0" style="fill:#6A6969; font-family:'Montserrat-ExtraLight'; font-size:11.7179px; letter-spacing:1;"> </tspan><tspan x="150.021" y="0" style="fill:#6A6969; font-family:'Montserrat-ExtraLight'; font-size:11.7179px;">amet,</tspan><tspan x="186.604" y="0" style="fill:#6A6969; font-family:'Montserrat-ExtraLight'; font-size:11.7179px; letter-spacing:1;"> </tspan><tspan x="191.505" y="0" style="fill:#6A6969; font-family:'Montserrat-ExtraLight'; font-size:11.7179px;">consectetur</tspan><tspan x="268.174" y="0" style="fill:#6A6969; font-family:'Montserrat-ExtraLight'; font-size:11.7179px; letter-spacing:1;"> </tspan><tspan x="273.075" y="0" style="fill:#6A6969; font-family:'Montserrat-ExtraLight'; font-size:11.7179px;">adipiscing</tspan><tspan x="339.479" y="0" style="fill:#6A6969; font-family:'Montserrat-ExtraLight'; font-size:11.7179px; letter-spacing:1;"> </tspan><tspan x="344.381" y="0" style="fill:#6A6969; font-family:'Montserrat-ExtraLight'; font-size:11.7179px;">elit,</tspan><tspan x="367.676" y="0" style="fill:#6A6969; font-family:'Montserrat-ExtraLight'; font-size:11.7179px; letter-spacing:1;"> </tspan><tspan x="372.577" y="0" style="fill:#6A6969; font-family:'Montserrat-ExtraLight'; font-size:11.7179px;">sed</tspan><tspan x="395.039" y="0" style="fill:#6A6969; font-family:'Montserrat-ExtraLight'; font-size:11.7179px; letter-spacing:1;"> </tspan><tspan x="399.94" y="0" style="fill:#6A6969; font-family:'Montserrat-ExtraLight'; font-size:11.7179px;">do</tspan><tspan x="416.45" y="0" style="fill:#6A6969; font-family:'Montserrat-ExtraLight'; font-size:11.7179px; letter-spacing:1;"> </tspan><tspan x="421.352" y="0" style="fill:#6A6969; font-family:'Montserrat-ExtraLight'; font-size:11.7179px;">eiusmod</tspan><tspan x="477.15" y="0" style="fill:#6A6969; font-family:'Montserrat-ExtraLight'; font-size:11.7179px; letter-spacing:1;"> </tspan><tspan x="482.051" y="0" style="fill:#6A6969; font-family:'Montserrat-ExtraLight'; font-size:11.7179px;">tempor </tspan><tspan x="0" y="14.062" style="fill:#6A6969; font-family:'Montserrat-ExtraLight'; font-size:11.7179px;">incididunt</tspan><tspan x="66.416" y="14.062" style="fill:#6A6969; font-family:'Montserrat-ExtraLight'; font-size:11.7179px; letter-spacing:1;"> </tspan><tspan x="70.659" y="14.062" style="fill:#6A6969; font-family:'Montserrat-ExtraLight'; font-size:11.7179px;">ut</tspan><tspan x="84.486" y="14.062" style="fill:#6A6969; font-family:'Montserrat-ExtraLight'; font-size:11.7179px; letter-spacing:1;"> </tspan><tspan x="88.729" y="14.062" style="fill:#6A6969; font-family:'Montserrat-ExtraLight'; font-size:11.7179px;">labore</tspan><tspan x="129.331" y="14.062" style="fill:#6A6969; font-family:'Montserrat-ExtraLight'; font-size:11.7179px; letter-spacing:1;"> </tspan><tspan x="133.574" y="14.062" style="fill:#6A6969; font-family:'Montserrat-ExtraLight'; font-size:11.7179px;">et</tspan><tspan x="146.522" y="14.062" style="fill:#6A6969; font-family:'Montserrat-ExtraLight'; font-size:11.7179px; letter-spacing:1;"> </tspan><tspan x="150.766" y="14.062" style="fill:#6A6969; font-family:'Montserrat-ExtraLight'; font-size:11.7179px;">dolore</tspan><tspan x="191.79" y="14.062" style="fill:#6A6969; font-family:'Montserrat-ExtraLight'; font-size:11.7179px; letter-spacing:1;"> </tspan><tspan x="196.033" y="14.062" style="fill:#6A6969; font-family:'Montserrat-ExtraLight'; font-size:11.7179px;">magna</tspan><tspan x="241.451" y="14.062" style="fill:#6A6969; font-family:'Montserrat-ExtraLight'; font-size:11.7179px; letter-spacing:1;"> </tspan><tspan x="245.694" y="14.062" style="fill:#6A6969; font-family:'Montserrat-ExtraLight'; font-size:11.7179px;">aliqua.</tspan><tspan x="288.135" y="14.062" style="fill:#6A6969; font-family:'Montserrat-ExtraLight'; font-size:11.7179px; letter-spacing:1;"> </tspan><tspan x="292.378" y="14.062" style="fill:#6A6969; font-family:'Montserrat-ExtraLight'; font-size:11.7179px;">Ut</tspan><tspan x="307.693" y="14.062" style="fill:#6A6969; font-family:'Montserrat-ExtraLight'; font-size:11.7179px; letter-spacing:1;"> </tspan><tspan x="311.938" y="14.062" style="fill:#6A6969; font-family:'Montserrat-ExtraLight'; font-size:11.7179px;">enim</tspan><tspan x="345.052" y="14.062" style="fill:#6A6969; font-family:'Montserrat-ExtraLight'; font-size:11.7179px; letter-spacing:1;"> </tspan><tspan x="349.295" y="14.062" style="fill:#6A6969; font-family:'Montserrat-ExtraLight'; font-size:11.7179px;">ad</tspan><tspan x="365.383" y="14.062" style="fill:#6A6969; font-family:'Montserrat-ExtraLight'; font-size:11.7179px; letter-spacing:1;"> </tspan><tspan x="369.627" y="14.062" style="fill:#6A6969; font-family:'Montserrat-ExtraLight'; font-size:11.7179px;">minim</tspan><tspan x="412.01" y="14.062" style="fill:#6A6969; font-family:'Montserrat-ExtraLight'; font-size:11.7179px; letter-spacing:1;"> </tspan><tspan x="416.254" y="14.062" style="fill:#6A6969; font-family:'Montserrat-ExtraLight'; font-size:11.7179px;">veniam,</tspan><tspan x="466.57" y="14.062" style="fill:#6A6969; font-family:'Montserrat-ExtraLight'; font-size:11.7179px; letter-spacing:1;"> </tspan><tspan x="470.813" y="14.062" style="fill:#6A6969; font-family:'Montserrat-ExtraLight'; font-size:11.7179px;">quis</tspan><tspan x="497.857" y="14.062" style="fill:#6A6969; font-family:'Montserrat-ExtraLight'; font-size:11.7179px; letter-spacing:1;"> </tspan><tspan x="502.101" y="14.062" style="fill:#6A6969; font-family:'Montserrat-ExtraLight'; font-size:11.7179px;">nos</tspan><tspan x="524.797" y="14.062" style="fill:#6A6969; font-family:'Montserrat-ExtraLight'; font-size:11.7179px;">-</tspan><tspan x="0" y="28.123" style="fill:#6A6969; font-family:'Montserrat-ExtraLight'; font-size:11.7179px;">trud</tspan><tspan x="27.689" y="28.123" style="fill:#6A6969; font-family:'Montserrat-ExtraLight'; font-size:11.7179px; letter-spacing:2;"> </tspan><tspan x="32.831" y="28.123" style="fill:#6A6969; font-family:'Montserrat-ExtraLight'; font-size:11.7179px;">exercitation</tspan><tspan x="109.161" y="28.123" style="fill:#6A6969; font-family:'Montserrat-ExtraLight'; font-size:11.7179px; letter-spacing:2;"> </tspan><tspan x="114.303" y="28.123" style="fill:#6A6969; font-family:'Montserrat-ExtraLight'; font-size:11.7179px;">ullamco</tspan><tspan x="165.978" y="28.123" style="fill:#6A6969; font-family:'Montserrat-ExtraLight'; font-size:11.7179px; letter-spacing:2;"> </tspan><tspan x="171.121" y="28.123" style="fill:#6A6969; font-family:'Montserrat-ExtraLight'; font-size:11.7179px;">laboris</tspan><tspan x="214.007" y="28.123" style="fill:#6A6969; font-family:'Montserrat-ExtraLight'; font-size:11.7179px; letter-spacing:2;"> </tspan><tspan x="219.15" y="28.123" style="fill:#6A6969; font-family:'Montserrat-ExtraLight'; font-size:11.7179px;">nisi</tspan><tspan x="241.343" y="28.123" style="fill:#6A6969; font-family:'Montserrat-ExtraLight'; font-size:11.7179px; letter-spacing:2;"> </tspan><tspan x="246.485" y="28.123" style="fill:#6A6969; font-family:'Montserrat-ExtraLight'; font-size:11.7179px;">ut</tspan><tspan x="260.312" y="28.123" style="fill:#6A6969; font-family:'Montserrat-ExtraLight'; font-size:11.7179px; letter-spacing:2;"> </tspan><tspan x="265.455" y="28.123" style="fill:#6A6969; font-family:'Montserrat-ExtraLight'; font-size:11.7179px;">aliquip</tspan><tspan x="309.771" y="28.123" style="fill:#6A6969; font-family:'Montserrat-ExtraLight'; font-size:11.7179px; letter-spacing:2;"> </tspan><tspan x="314.913" y="28.123" style="fill:#6A6969; font-family:'Montserrat-ExtraLight'; font-size:11.7179px;">ex</tspan><tspan x="329.208" y="28.123" style="fill:#6A6969; font-family:'Montserrat-ExtraLight'; font-size:11.7179px; letter-spacing:2;"> </tspan><tspan x="334.352" y="28.123" style="fill:#6A6969; font-family:'Montserrat-ExtraLight'; font-size:11.7179px;">ea</tspan><tspan x="349.479" y="28.123" style="fill:#6A6969; font-family:'Montserrat-ExtraLight'; font-size:11.7179px; letter-spacing:2;"> </tspan><tspan x="354.622" y="28.123" style="fill:#6A6969; font-family:'Montserrat-ExtraLight'; font-size:11.7179px;">commodo</tspan><tspan x="420.509" y="28.123" style="fill:#6A6969; font-family:'Montserrat-ExtraLight'; font-size:11.7179px; letter-spacing:2;"> </tspan><tspan x="425.652" y="28.123" style="fill:#6A6969; font-family:'Montserrat-ExtraLight'; font-size:11.7179px;">consequat.</tspan><tspan x="495.991" y="28.123" style="fill:#6A6969; font-family:'Montserrat-ExtraLight'; font-size:11.7179px; letter-spacing:2;"> </tspan><tspan x="501.135" y="28.123" style="fill:#6A6969; font-family:'Montserrat-ExtraLight'; font-size:11.7179px;">Duis </tspan><tspan x="44.567" y="42.185" style="fill:#6A6969; font-family:'Montserrat-ExtraLight'; font-size:11.7179px;">aute irure dolor in reprehenderit in voluptate velit esse cillum dolore</tspan></text>
					<rect x="167.721" y="342.404" style="fill:#6A6969;" width="503.872" height="1.467"/>
				</g>
			</g>
			
				<text transform="matrix(1 0 0 1 245.6187 136.4102)" style="opacity:0.77;fill:#001A4B; font-family:'Montserrat-Bold'; font-size:49.987px;">Certificate</text>
			<g>
				<g>
					
						<text transform="matrix(1 0 0 1 229.5845 225.3486)" style="fill:#6A6969; font-family:'Montserrat-ExtraLight'; font-size:13.7383px;">Lorem ipsum dolor sit amet, consectetur adipiscing elit</text>
				</g>
				<path style="fill:none;stroke:#6A6969;stroke-width:0.5922;stroke-miterlimit:10;" d="M600.242,237.745H229.947
					c-10.247,0-18.554-8.307-18.554-18.554l0,0c0-10.247,8.307-18.554,18.554-18.554h370.295c10.247,0,18.554,8.307,18.554,18.554
					l0,0C618.796,229.438,610.489,237.745,600.242,237.745z"/>
			</g>
			<g>
				<g>
					<g>
						<g>
							
								<text transform="matrix(1 0 0 1 232.4429 512.75)" style="fill:#6A6969; font-family:'Montserrat-Regular'; font-size:13.7383px;">lorem Ipsum</text>
						</g>
						<rect x="184.034" y="494.655" style="opacity:0.77;fill:#001A4B;" width="195.754" height="1.716"/>
					</g>
					<g>
						<g>
							
								<text transform="matrix(1 0 0 1 498.8145 512.75)" style="fill:#6A6969; font-family:'Montserrat-Regular'; font-size:13.7383px;">lorem Ipsum</text>
						</g>
						<rect x="450.405" y="494.655" style="opacity:0.77;fill:#001A4B;" width="195.75" height="1.716"/>
					</g>
				</g>
			</g>
		</g>
	</g>
</g>
</svg>
