<?xml version="1.0" encoding="utf-8"?>
<!-- Generator: Adobe Illustrator 27.5.0, SVG Export Plug-In . SVG Version: 6.00 Build 0)  -->
<svg version="1.1" id="PRINT" xmlns="http://www.w3.org/2000/svg" xmlns:xlink="http://www.w3.org/1999/xlink" x="0px" y="0px"
	 viewBox="0 0 841.89 595.276" style="enable-background:new 0 0 841.89 595.276;" xml:space="preserve">
<g>
	<defs>
		
			<rect id="SVGID_1_" x="114.803" y="-131.811" transform="matrix(-1.836970e-16 1 -1 -1.836970e-16 718.5826 -123.3071)" width="612.283" height="858.897"/>
	</defs>
	<clipPath id="SVGID_00000003820684333596580140000011415774273606027139_">
		<use xlink:href="#SVGID_1_"  style="overflow:visible;"/>
	</clipPath>
	
		<rect x="114.803" y="-131.811" transform="matrix(-1.836970e-16 1 -1 -1.836970e-16 718.5826 -123.3071)" style="clip-path:url(#SVGID_00000003820684333596580140000011415774273606027139_);fill:#FFFFFF;" width="612.283" height="858.897"/>
	<g style="clip-path:url(#SVGID_00000003820684333596580140000011415774273606027139_);">
		
			<text transform="matrix(1 0 0 1 386.248 324.0352)" style="fill:#013348; font-family:'AbhayaLibre-SemiBold'; font-size:24.1691px;">Caroline</text>
		
			<line style="fill:none;stroke:#020203;stroke-width:0.2572;stroke-miterlimit:10;" x1="316.395" y1="336.069" x2="536.871" y2="336.069"/>
		<text transform="matrix(1 0 0 1 233.4868 393.5547)"><tspan x="0" y="0" style="fill:#020203; font-family:'Montserrat-Regular'; font-size:11.5269px;">Lorem ipsum dolor sit amet, consectetuer adipiscing elit. Aenean  </tspan><tspan x="4.189" y="15.04" style="fill:#020203; font-family:'Montserrat-Regular'; font-size:11.5269px;">commodo ligula eget dolor. Aenean massa. Cum sociis natoque  </tspan><tspan x="34.989" y="30.079" style="fill:#020203; font-family:'Montserrat-Regular'; font-size:11.5269px;">penatibus et magnis dis parturient montes, nascetur. </tspan></text>
		
			<text transform="matrix(1 0 0 1 273.5513 285.8149)" style="fill:#020203; font-family:'Montserrat-SemiBold'; font-size:15.3692px;">This certificate is proudly presented to</text>
		<g>
			<g>
				
					<text transform="matrix(1 0 0 1 286.3247 470.0957)" style="fill:#020203; font-family:'Montserrat-SemiBold'; font-size:12.9787px;">13. 07. 2020</text>
			</g>
		</g>
		<g>
			
				<line style="fill:none;stroke:#020203;stroke-width:0.2572;stroke-miterlimit:10;" x1="386.365" y1="242.738" x2="468.195" y2="242.738"/>
			<g>
				
					<text transform="matrix(1 0 0 1 488.8955 469.6309)" style="fill:#020203; font-family:'Montserrat-SemiBold'; font-size:12.9787px;">SIGNATURE</text>
			</g>
		</g>
		<g>
			
				<text transform="matrix(1 0 0 1 201.4014 192.5562)" style="fill:#013348; font-family:'Montserrat-Bold'; font-size:57.5166px; letter-spacing:5;">CERTIFICATE</text>
		</g>
		
			<text transform="matrix(1 0 0 1 380.0435 369.5371)" style="fill:#020203; font-family:'Montserrat-SemiBold'; font-size:11.5269px;">LOREM IPSUM </text>
		
			<text transform="matrix(1 0 0 1 316.1738 226.5396)" style="fill:#013348; font-family:'Montserrat-Regular'; font-size:20.3951px; letter-spacing:2;">OF ACHIEVEMENT</text>
	</g>
	
		<path style="clip-path:url(#SVGID_00000003820684333596580140000011415774273606027139_);fill:none;stroke:#020203;stroke-width:0.25;stroke-miterlimit:10;" d="
		M529.81,482.902c-2.339,13.476-4.174,27.039-5.501,40.652c-5.68-4.833-14.193-6.045-20.996-2.99
		c15.476-2.574,28.529-13.104,43.701-17.097c-7.675,5.608-15.359,11.204-23.053,16.787c-4.692,3.404-9.645,6.911-15.39,7.69
		c6.188-5.905,11.121-13.119,14.378-21.028c-1.598,6.53-1.727,13.416-0.376,20.001c2.492-4.489,4.149-9.439,4.861-14.524
		c0.171,1.629,0.342,3.258,0.513,4.886c0.553-1.011,1.106-2.022,1.659-3.034c0.747,1.063,1.493,2.126,2.24,3.189
		c4.603-6.237,7.946-13.4,9.771-20.934c0.764-3.153,1.075-6.972-1.319-9.162c-1.513-1.384-3.778-1.695-5.783-1.27
		c-2.006,0.426-3.81,1.493-5.535,2.601c-12.631,8.118-23.21,19.46-30.198,32.75c-1.204,2.289-2.316,4.679-2.681,7.24
		c-0.365,2.561,0.105,5.343,1.776,7.318c1.671,1.975,4.683,2.889,6.982,1.704"/>
	<polygon style="clip-path:url(#SVGID_00000003820684333596580140000011415774273606027139_);fill:#013348;" points="
		108.761,410.532 -37.095,663.162 254.617,663.162 	"/>
	<polygon style="clip-path:url(#SVGID_00000003820684333596580140000011415774273606027139_);fill:#AAD29D;" points="
		659.704,538.591 500.792,813.835 818.617,813.835 	"/>
	<polygon style="clip-path:url(#SVGID_00000003820684333596580140000011415774273606027139_);fill:#013348;" points="
		798.047,105.132 867.013,-14.32 729.081,-14.32 	"/>
	<polygon style="clip-path:url(#SVGID_00000003820684333596580140000011415774273606027139_);fill:#013348;" points="
		519.219,-69.766 450.253,49.687 588.185,49.687 	"/>
	<polygon style="clip-path:url(#SVGID_00000003820684333596580140000011415774273606027139_);fill:#013348;" points="
		139.917,125.855 252.303,-68.802 27.532,-68.802 	"/>
	<polygon style="clip-path:url(#SVGID_00000003820684333596580140000011415774273606027139_);fill:#013348;" points="0,359.554 
		86.122,210.385 -86.122,210.385 	"/>
	<polygon style="clip-path:url(#SVGID_00000003820684333596580140000011415774273606027139_);fill:#AAD29D;" points="
		-13.171,588.329 74.477,436.518 -100.819,436.518 	"/>
	<polygon style="clip-path:url(#SVGID_00000003820684333596580140000011415774273606027139_);fill:#AAD29D;" points="
		17.658,-49.285 -43.172,56.076 78.489,56.076 	"/>
	<polygon style="clip-path:url(#SVGID_00000003820684333596580140000011415774273606027139_);fill:#AAD29D;" points="1.258,121.766 
		-30.837,177.355 33.352,177.355 	"/>
	<polygon style="clip-path:url(#SVGID_00000003820684333596580140000011415774273606027139_);fill:#AAD29D;" points="
		855.624,72.749 748.635,258.06 962.613,258.06 	"/>
	<polygon style="clip-path:url(#SVGID_00000003820684333596580140000011415774273606027139_);fill:#013348;" points="
		841.89,409.074 703.575,648.643 980.205,648.643 	"/>
	<polygon style="clip-path:url(#SVGID_00000003820684333596580140000011415774273606027139_);fill:#AAD29D;" points="
		640.246,101.123 783.801,-147.521 496.691,-147.521 	"/>
	
		<polygon style="clip-path:url(#SVGID_00000003820684333596580140000011415774273606027139_);fill:none;stroke:#00A5C9;stroke-miterlimit:10;" points="
		915.164,537.206 1040.642,319.873 789.687,319.873 	"/>
	
		<polygon style="clip-path:url(#SVGID_00000003820684333596580140000011415774273606027139_);fill:none;stroke:#00A5C9;stroke-miterlimit:10;" points="
		170.789,684.495 257.315,534.627 84.263,534.627 	"/>
	
		<polygon style="clip-path:url(#SVGID_00000003820684333596580140000011415774273606027139_);fill:none;stroke:#00A5C9;stroke-miterlimit:10;" points="
		750.578,656.622 830.843,517.598 670.313,517.598 	"/>
	
		<polygon style="clip-path:url(#SVGID_00000003820684333596580140000011415774273606027139_);fill:none;stroke:#00A5C9;stroke-miterlimit:10;" points="
		718.775,-7.612 680.545,58.606 757.006,58.606 	"/>
	
		<polygon style="clip-path:url(#SVGID_00000003820684333596580140000011415774273606027139_);fill:none;stroke:#00A5C9;stroke-miterlimit:10;" points="
		202.217,-55.599 139.917,52.308 264.517,52.308 	"/>
	
		<polygon style="clip-path:url(#SVGID_00000003820684333596580140000011415774273606027139_);fill:none;stroke:#00A5C9;stroke-miterlimit:10;" points="
		19.362,246.316 49.933,193.365 -11.209,193.365 	"/>
	
		<polygon style="clip-path:url(#SVGID_00000003820684333596580140000011415774273606027139_);fill:none;stroke:#00A5C9;stroke-miterlimit:10;" points="
		549.974,37.938 574.455,-4.464 525.493,-4.464 	"/>
	<polygon style="clip-path:url(#SVGID_00000003820684333596580140000011415774273606027139_);fill:#013348;" points="
		831.006,239.091 794.171,302.891 867.841,302.891 	"/>
</g>
</svg>
