<?xml version="1.0" encoding="utf-8"?>
<!-- Generator: Adobe Illustrator 27.5.0, SVG Export Plug-In . SVG Version: 6.00 Build 0)  -->
<svg version="1.1" id="PRINT" xmlns="http://www.w3.org/2000/svg" xmlns:xlink="http://www.w3.org/1999/xlink" x="0px" y="0px"
	 viewBox="0 0 841.89 595.276" style="enable-background:new 0 0 841.89 595.276;" xml:space="preserve">
<g>
	<defs>
		
			<rect id="SVGID_1_" x="109.134" y="-137.48" transform="matrix(-1.836970e-16 1 -1 -1.836970e-16 718.5827 -123.3071)" width="623.622" height="870.236"/>
	</defs>
	<clipPath id="SVGID_00000080893362897274742870000018415531668079672236_">
		<use xlink:href="#SVGID_1_"  style="overflow:visible;"/>
	</clipPath>
	<g style="clip-path:url(#SVGID_00000080893362897274742870000018415531668079672236_);">
		
			<rect x="109.134" y="-137.48" transform="matrix(-1.836970e-16 1 -1 -1.836970e-16 718.5827 -123.3071)" style="fill:#FCFCFC;" width="623.622" height="870.236"/>
		<g>
			<g>
				<path style="fill:none;stroke:#758081;stroke-width:0.25;stroke-miterlimit:10;" d="M677.581,159.271
					c0,0,239.294,329.402-537.882,563.08"/>
				<path style="fill:none;stroke:#758081;stroke-width:0.25;stroke-miterlimit:10;" d="M676.996,159.601
					c1.589,1.186,63.512,87.495,20.314,203.012c-40.495,108.289-173.963,243.75-534.921,354.362"/>
				<path style="fill:none;stroke:#758081;stroke-width:0.25;stroke-miterlimit:10;" d="M676.412,159.931
					c3.177,2.372,62.094,85.6,23.406,197.781C662.725,465.265,534.87,602.264,185.08,711.599"/>
				<path style="fill:none;stroke:#758081;stroke-width:0.25;stroke-miterlimit:10;" d="M675.827,160.262
					c4.766,3.557,60.759,83.791,26.498,192.55C668.647,459.72,546.392,598.165,207.771,706.222"/>
				<path style="fill:none;stroke:#758081;stroke-width:0.25;stroke-miterlimit:10;" d="M675.243,160.592
					c6.355,4.743,59.518,82.071,29.59,187.319c-30.244,106.358-146.918,246.155-474.371,352.935"/>
				<path style="fill:none;stroke:#758081;stroke-width:0.25;stroke-miterlimit:10;" d="M674.658,160.922
					c7.944,5.929,58.384,80.441,32.682,182.088c-26.779,105.905-137.903,246.957-454.188,352.46"/>
				<path style="fill:none;stroke:#758081;stroke-width:0.25;stroke-miterlimit:10;" d="M674.074,161.253
					c9.533,7.114,57.369,78.898,35.774,176.857C686.58,443.659,580.96,585.868,275.844,690.093"/>
				<path style="fill:none;stroke:#758081;stroke-width:0.25;stroke-miterlimit:10;" d="M673.489,161.583
					c11.121,8.3,56.487,77.44,38.866,171.626c-19.698,105.293-119.873,248.56-413.821,351.508"/>
				<path style="fill:none;stroke:#758081;stroke-width:0.25;stroke-miterlimit:10;" d="M672.905,161.913
					c12.71,9.486,55.749,76.063,41.958,166.395c-16.049,105.13-110.858,249.362-393.638,351.033"/>
				<path style="fill:none;stroke:#758081;stroke-width:0.25;stroke-miterlimit:10;" d="M672.32,162.243
					c14.299,10.672,55.167,74.758,45.051,161.164c-12.3,105.057-101.843,250.164-373.455,350.557"/>
				<path style="fill:none;stroke:#758081;stroke-width:0.25;stroke-miterlimit:10;" d="M671.736,162.574
					c15.888,11.857,54.752,73.516,48.143,155.933c-8.425,105.066-92.828,250.966-353.271,350.082"/>
				<path style="fill:none;stroke:#758081;stroke-width:0.25;stroke-miterlimit:10;" d="M671.152,162.904
					c17.476,13.043,54.511,72.326,51.235,150.702c-4.395,105.143-83.813,251.767-333.088,349.606"/>
				<path style="fill:none;stroke:#758081;stroke-width:0.25;stroke-miterlimit:10;" d="M670.567,163.234
					c19.065,14.229,54.452,71.171,54.327,145.471c-0.177,105.27-74.798,252.569-312.905,349.13"/>
				<path style="fill:none;stroke:#758081;stroke-width:0.25;stroke-miterlimit:10;" d="M669.983,163.565
					c20.654,15.415,54.577,70.034,57.419,140.24c4.268,105.424-65.784,253.371-292.722,348.655"/>
				<path style="fill:none;stroke:#758081;stroke-width:0.25;stroke-miterlimit:10;" d="M669.398,163.895
					c22.243,16.6,54.886,68.893,60.511,135.009c8.983,105.572-56.769,254.172-272.538,348.179"/>
				<path style="fill:none;stroke:#758081;stroke-width:0.25;stroke-miterlimit:10;" d="M668.814,164.225
					c23.831,17.786,55.374,67.723,63.603,129.778c14.013,105.671-47.754,254.974-252.355,347.704"/>
				<path style="fill:none;stroke:#758081;stroke-width:0.25;stroke-miterlimit:10;" d="M668.229,164.556
					c25.42,18.972,56.033,66.495,66.696,124.547c19.409,105.668-38.739,255.776-232.172,347.228"/>
				<path style="fill:none;stroke:#758081;stroke-width:0.25;stroke-miterlimit:10;" d="M667.645,164.886
					c27.009,20.158,56.845,65.178,69.788,119.316c25.22,105.495-29.724,256.578-211.989,346.752"/>
				<path style="fill:none;stroke:#758081;stroke-width:0.25;stroke-miterlimit:10;" d="M667.06,165.216
					c28.598,21.343,57.791,63.736,72.88,114.085c31.489,105.069-20.709,257.379-191.805,346.277"/>
				<path style="fill:none;stroke:#758081;stroke-width:0.25;stroke-miterlimit:10;" d="M666.476,165.546
					c30.187,22.529,58.838,62.132,75.972,108.854c38.246,104.294-11.694,258.181-171.622,345.801"/>
				<path style="fill:none;stroke:#758081;stroke-width:0.25;stroke-miterlimit:10;" d="M665.891,165.877
					c31.776,23.715,59.95,60.326,79.064,103.623c45.498,103.062-2.679,258.983-151.439,345.326"/>
				<path style="fill:none;stroke:#758081;stroke-width:0.25;stroke-miterlimit:10;" d="M665.307,166.207
					c33.364,24.901,61.08,58.283,82.156,98.392c53.214,101.268,6.336,259.784-131.256,344.85"/>
			</g>
		</g>
		<g>
			<g>
				<line style="fill:none;stroke:#7A5711;stroke-miterlimit:10;" x1="78.613" y1="512.516" x2="183.437" y2="512.516"/>
				<line style="fill:none;stroke:#7A5711;stroke-miterlimit:10;" x1="312.613" y1="512.516" x2="417.437" y2="512.516"/>
			</g>
			<g>
				<g>
					
						<text transform="matrix(1 0 0 1 110.8149 538.2648)" style="fill:#2B2929; font-family:'CinzelRoman-Bold'; font-size:12px; letter-spacing:1;">DATE</text>
				</g>
			</g>
			<g>
				<g>
					
						<text transform="matrix(1 0 0 1 330.2377 538.2648)" style="fill:#2B2929; font-family:'CinzelRoman-Bold'; font-size:12px; letter-spacing:1;">SIGNATURE</text>
				</g>
			</g>
		</g>
		<g>
			<g>
				<rect x="77.185" y="432.622" style="fill:none;" width="363.219" height="53.29"/>
				<text transform="matrix(1 0 0 1 77.1855 441.6219)"><tspan x="0" y="0" style="fill:#2B2929; font-family:'Roboto-BoldItalic'; font-size:12px; letter-spacing:1;">Lorem ipsum dolor sit amet,</tspan><tspan x="180.742" y="0" style="fill:#5A5A5C; font-family:'Roboto-LightItalic'; font-size:12px; letter-spacing:1;"> consectetur adipiscing elit. </tspan><tspan x="0" y="14.4" style="fill:#5A5A5C; font-family:'Roboto-LightItalic'; font-size:12px; letter-spacing:1;">Praesent non auctor purus. Sed euismod dui aliquet arcu </tspan><tspan x="0" y="28.8" style="fill:#5A5A5C; font-family:'Roboto-LightItalic'; font-size:12px; letter-spacing:1;">porttitor, </tspan><tspan x="60.046" y="28.8" style="fill:#2B2929; font-family:'Roboto-BoldItalic'; font-size:12px; letter-spacing:1;">sed mattis</tspan><tspan x="127.616" y="28.8" style="fill:#5A5A5C; font-family:'Roboto-LightItalic'; font-size:12px; letter-spacing:1;"> ipsum accumsan. Proin pulvinar </tspan><tspan x="0" y="43.2" style="fill:#5A5A5C; font-family:'Roboto-LightItalic'; font-size:12px; letter-spacing:1;">urna </tspan></text>
			</g>
			<g>
				<text transform="matrix(1 0 0 1 81.9094 396.3289)" style="fill:#A87718; font-family:'GreatVibes-Regular'; font-size:75px;">Dianne Smith</text>
			</g>
			<g>
				<g>
					<g>
						<g>
							
								<text transform="matrix(1 0 0 1 81.9094 316.3657)" style="fill:#2B2929; font-family:'CinzelRoman_595.000wght'; font-size:13px;">This certificate is proudly presented to</text>
						</g>
					</g>
				</g>
			</g>
		</g>
		
			<linearGradient id="SVGID_00000029006982834309823820000007277536088504723646_" gradientUnits="userSpaceOnUse" x1="-41.9339" y1="195.6739" x2="251.7452" y2="89.175">
			<stop  offset="0" style="stop-color:#442709"/>
			<stop  offset="0.0606" style="stop-color:#56310C"/>
			<stop  offset="0.1814" style="stop-color:#844B12"/>
			<stop  offset="0.1838" style="stop-color:#854C12"/>
			<stop  offset="0.2388" style="stop-color:#925E19"/>
			<stop  offset="0.3485" style="stop-color:#B38C2A"/>
			<stop  offset="0.3595" style="stop-color:#B7912C"/>
			<stop  offset="0.396" style="stop-color:#BF9E3E"/>
			<stop  offset="0.4687" style="stop-color:#D5BF6C"/>
			<stop  offset="0.5072" style="stop-color:#E2D287"/>
			<stop  offset="0.5544" style="stop-color:#DAC575"/>
			<stop  offset="0.6484" style="stop-color:#C4A447"/>
			<stop  offset="0.6982" style="stop-color:#B7912C"/>
			<stop  offset="0.7152" style="stop-color:#B18929"/>
			<stop  offset="0.8169" style="stop-color:#915D18"/>
			<stop  offset="0.8685" style="stop-color:#854C12"/>
			<stop  offset="0.8822" style="stop-color:#7D4711"/>
			<stop  offset="0.9599" style="stop-color:#54300B"/>
			<stop  offset="1" style="stop-color:#442709"/>
		</linearGradient>
		<path style="fill:url(#SVGID_00000029006982834309823820000007277536088504723646_);" d="M-14.173,244.472
			c208.223,20.932,298.2-69.507,298.2-69.507l-298.2-104.039V244.472z"/>
		<g>
			
				<linearGradient id="SVGID_00000054954782972609375190000016813766300315241114_" gradientUnits="userSpaceOnUse" x1="219.1663" y1="-133.3791" x2="741.8039" y2="459.6476">
				<stop  offset="0" style="stop-color:#2B2929"/>
				<stop  offset="0.4697" style="stop-color:#191818"/>
				<stop  offset="1" style="stop-color:#000000"/>
			</linearGradient>
			<path style="fill:url(#SVGID_00000054954782972609375190000016813766300315241114_);" d="M-14.173-14.173v219.497
				c42.695,22.235,173.877,53.071,319.048-28.588c147.091-82.739,273.116-75.695,360.433-10.527c0,0-0.001-0.001-0.001-0.001
				c54.216,30.835,133.146,92.435,190.756,208.209V-14.173H-14.173z"/>
		</g>
		<g>
			
				<linearGradient id="SVGID_00000063620694379476540500000003152980180225053059_" gradientUnits="userSpaceOnUse" x1="219.1663" y1="-133.3791" x2="741.8039" y2="459.6476">
				<stop  offset="0" style="stop-color:#2B2929"/>
				<stop  offset="0.4697" style="stop-color:#191818"/>
				<stop  offset="1" style="stop-color:#000000"/>
			</linearGradient>
			<path style="fill:url(#SVGID_00000063620694379476540500000003152980180225053059_);" d="M-14.173-14.173v219.497
				c42.695,22.235,173.877,53.071,319.048-28.588c147.091-82.739,273.116-75.695,360.433-10.527c0,0-0.001-0.001-0.001-0.001
				c54.216,30.835,133.146,92.435,190.756,208.209V-14.173H-14.173z"/>
		</g>
		
			<linearGradient id="SVGID_00000107580730916583238950000001138416336634531724_" gradientUnits="userSpaceOnUse" x1="281.8058" y1="-175.1402" x2="188.2207" y2="436.2841">
			<stop  offset="0" style="stop-color:#2B2929"/>
			<stop  offset="0.4697" style="stop-color:#191818"/>
			<stop  offset="1" style="stop-color:#000000"/>
		</linearGradient>
		<path style="fill:url(#SVGID_00000107580730916583238950000001138416336634531724_);" d="M499.684,116.176l10.538-18.203
			c0,0-306.968,43.229-524.396-104.82v212.171c42.695,22.235,173.877,53.071,319.048-28.588
			C375.285,137.129,440.863,118.109,499.684,116.176z"/>
		
			<linearGradient id="SVGID_00000178200830123069729890000008983567372981500548_" gradientUnits="userSpaceOnUse" x1="578.0995" y1="81.2639" x2="637.3937" y2="451.8517">
			<stop  offset="0" style="stop-color:#2B2929"/>
			<stop  offset="0.4697" style="stop-color:#191818"/>
			<stop  offset="1" style="stop-color:#000000"/>
		</linearGradient>
		<path style="fill:url(#SVGID_00000178200830123069729890000008983567372981500548_);" d="M324.416,166.207l0.002,0.003
			c138.706-71.462,257.466-62.265,340.891-0.002c0,0-0.001-0.001-0.001-0.001c54.216,30.835,133.146,92.435,190.756,208.209V148.067
			C601.086-4.471,324.416,166.207,324.416,166.207z"/>
		
			<linearGradient id="SVGID_00000131328571026311185840000013634234679538132636_" gradientUnits="userSpaceOnUse" x1="717.3231" y1="182.8789" x2="746.9703" y2="669.9367">
			<stop  offset="0" style="stop-color:#442709"/>
			<stop  offset="0.0606" style="stop-color:#56310C"/>
			<stop  offset="0.1814" style="stop-color:#844B12"/>
			<stop  offset="0.1838" style="stop-color:#854C12"/>
			<stop  offset="0.2388" style="stop-color:#925E19"/>
			<stop  offset="0.3485" style="stop-color:#B38C2A"/>
			<stop  offset="0.3595" style="stop-color:#B7912C"/>
			<stop  offset="0.396" style="stop-color:#BF9E3E"/>
			<stop  offset="0.4687" style="stop-color:#D5BF6C"/>
			<stop  offset="0.5072" style="stop-color:#E2D287"/>
			<stop  offset="0.5544" style="stop-color:#DAC575"/>
			<stop  offset="0.6484" style="stop-color:#C4A447"/>
			<stop  offset="0.6982" style="stop-color:#B7912C"/>
			<stop  offset="0.7152" style="stop-color:#B18929"/>
			<stop  offset="0.8169" style="stop-color:#915D18"/>
			<stop  offset="0.8685" style="stop-color:#854C12"/>
			<stop  offset="0.8822" style="stop-color:#7D4711"/>
			<stop  offset="0.9599" style="stop-color:#54300B"/>
			<stop  offset="1" style="stop-color:#442709"/>
		</linearGradient>
		<path style="fill:url(#SVGID_00000131328571026311185840000013634234679538132636_);" d="M616.208,609.449h239.855V374.416
			c-57.609-115.774-136.54-177.374-190.756-208.209c33.364,24.901,61.08,58.283,82.156,98.392
			C800.677,365.867,753.799,524.383,616.208,609.449z"/>
		
			<linearGradient id="SVGID_00000100358712643647705880000001928035692175888557_" gradientUnits="userSpaceOnUse" x1="686.5656" y1="-11.0731" x2="654.801" y2="196.4561">
			<stop  offset="0" style="stop-color:#E2D287"/>
			<stop  offset="0.0883" style="stop-color:#D5BF6C"/>
			<stop  offset="0.2551" style="stop-color:#BF9E3E"/>
			<stop  offset="0.3389" style="stop-color:#B7912C"/>
			<stop  offset="0.3578" style="stop-color:#B38C2A"/>
			<stop  offset="0.5478" style="stop-color:#925E19"/>
			<stop  offset="0.643" style="stop-color:#854C12"/>
			<stop  offset="0.6477" style="stop-color:#844B12"/>
			<stop  offset="0.8824" style="stop-color:#56310C"/>
			<stop  offset="1" style="stop-color:#442709"/>
		</linearGradient>
		<path style="fill:url(#SVGID_00000100358712643647705880000001928035692175888557_);" d="M856.063,88.38
			c-93.549-19.458-223.122-26.358-380.101,16.216c0,0,199.736-50.976,380.101,37.227V88.38z"/>
		<g>
			
				<rect x="55.974" y="59.117" transform="matrix(0.7071 -0.7071 0.7071 0.7071 -31.1964 70.87)" style="fill:#A87718;" width="27.952" height="27.952"/>
			<path style="fill:#FCFCFC;" d="M76.966,75.477c-0.19,0.645-0.461,1.204-0.813,1.68c-0.351,0.476-0.772,0.842-1.262,1.098
				c-0.491,0.256-1.05,0.384-1.679,0.384h-2.59V67.729c0.014-0.337,0.139-0.615,0.373-0.834c0.234-0.22,0.512-0.33,0.834-0.33
				c0.161,0,0.249,0,0.264,0v-0.219h-1.471h-0.044h-3.073h-0.044h-1.471v0.219c0.161,0,0.249,0,0.264,0c0.322,0,0.6,0.11,0.834,0.33
				c0.234,0.219,0.358,0.497,0.373,0.834v10.404c-0.015,0.322-0.135,0.597-0.362,0.823c-0.227,0.227-0.502,0.34-0.823,0.34
				c-0.015,0-0.11,0-0.286,0v0.22h1.471h0.154h2.963h0.044h1.91h3.731h0.066l0.856-4.039H76.966z"/>
			<g>
				
					<text transform="matrix(1 0 0 1 99.8286 79.7503)" style="fill:#A87718; font-family:'CinzelRoman-Bold'; font-size:21.9505px;">Company Logo</text>
			</g>
		</g>
		<g>
			<g>
				<g>
					
						<text transform="matrix(1 0 0 1 442.3087 263.2408)" style="fill:#B7913D; font-family:'GreatVibes-Regular'; font-size:38.5809px;">of appreciation</text>
				</g>
			</g>
			<g>
				
					<text transform="matrix(1 0 0 1 418.221 229.9942)" style="fill:#2B2929; font-family:'CinzelRoman-Bold'; font-size:46.9132px;">Certificate</text>
			</g>
		</g>
		<g>
			<g>
				
					<ellipse transform="matrix(0.1602 -0.9871 0.9871 0.1602 108.1247 832.4598)" style="fill:#A87718;" cx="543.282" cy="352.687" rx="40.714" ry="40.714"/>
				
					<ellipse transform="matrix(0.1602 -0.9871 0.9871 0.1602 108.1247 832.4597)" style="fill:#FCFCFC;" cx="543.282" cy="352.687" rx="28.584" ry="28.584"/>
				
					<ellipse transform="matrix(0.1602 -0.9871 0.9871 0.1602 108.1247 832.4597)" style="fill:#A87718;" cx="543.282" cy="352.687" rx="26.297" ry="26.297"/>
				<g>
					<path style="fill:#A87718;" d="M551.037,404.389l12.458,32.47l11.352-14.065l17.846,2.862l-13.437-35.019
						C571.652,397.849,561.895,402.772,551.037,404.389z"/>
					<path style="fill:#A87718;" d="M507.307,390.637l-13.437,35.019l17.846-2.862l11.351,14.065l12.459-32.47
						C524.669,402.772,514.912,397.849,507.307,390.637z"/>
				</g>
			</g>
			<polygon style="fill:#FCFCFC;" points="543.282,336.273 548.028,345.889 558.64,347.431 550.961,354.916 552.773,365.485 
				543.282,360.495 533.791,365.485 535.603,354.916 527.925,347.431 538.536,345.889 			"/>
		</g>
	</g>
</g>
</svg>
