<?xml version="1.0" encoding="utf-8"?>
<!-- Generator: Adobe Illustrator 27.5.0, SVG Export Plug-In . SVG Version: 6.00 Build 0)  -->
<svg version="1.1" id="PRINT" xmlns="http://www.w3.org/2000/svg" xmlns:xlink="http://www.w3.org/1999/xlink" x="0px" y="0px"
	 viewBox="0 0 841.89 595.28" style="enable-background:new 0 0 841.89 595.28;" xml:space="preserve">
<rect x="-14.173" y="-14.173" style="fill:#FFFFFF;" width="870.236" height="623.626"/>
<g>
	<rect x="146.935" y="360.372" style="fill:none;" width="551.999" height="38.811"/>
	<text transform="matrix(1 0 0 1 153.0518 370.6494)"><tspan x="0" y="0" style="fill:none;stroke:#797A7C;stroke-width:0.25;stroke-miterlimit:10; font-family:'Chivo-Light'; font-size:14.273px;">Lorem ipsum dolor sit amet, consectetur adipiscing elit. Nunc quis risus id metus </tspan><tspan x="14.601" y="18.351" style="fill:none;stroke:#797A7C;stroke-width:0.25;stroke-miterlimit:10; font-family:'Chivo-Light'; font-size:14.273px;">posuere euismod in ut massa. In auctor iaculis massa ut sollicitudin. Mauris </tspan></text>
</g>
<g>
	
		<text transform="matrix(1 0 0 1 370.4517 490.9375)" style="fill:#BCBDBF; font-family:'Karla-Regular'; font-size:10.9171px; letter-spacing:5;">Signature</text>
</g>
<g>
	
		<text transform="matrix(1 0 0 1 186.8096 255.5469)" style="fill:#BCBDBF; font-family:'Karla-Regular'; font-size:12.9973px; letter-spacing:5;">this certificate is proudly presented to</text>
</g>
<text transform="matrix(1 0 0 1 306.3193 325.4355)" style="fill:#C6BA8F; font-family:'Journal'; font-size:61.1701px;">Name Surname</text>
<text transform="matrix(1 0 0 1 360.46 461.4844)" style="fill:#C6BA8F; font-family:'Journal'; font-size:62.2261px;">Signature</text>
<line style="fill:none;stroke:#BCBDBF;stroke-width:0.25;stroke-miterlimit:10;" x1="143.074" y1="335.462" x2="692.676" y2="335.462"/>
<line style="fill:none;stroke:#BCBDBF;stroke-width:0.25;stroke-miterlimit:10;" x1="322.935" y1="473.579" x2="522.935" y2="473.579"/>
<text transform="matrix(1 0 0 1 235.6553 210.124)" style="fill:#4C4C4C; font-family:'NexaSlabBoldFREE'; font-size:40.7801px; letter-spacing:8;">CERTIFICATE</text>
<path style="fill:#4F6186;" d="M329.401,127.763l12.446,6.974l-1.579,14.794c0.183-0.091,6.851-3.317,19.12-6.278l-7.078-23.311
	C338.244,123.463,330.274,127.328,329.401,127.763z"/>
<path style="fill:#4F6186;" d="M350.244,108.169l9.439,31.087c25.241-6.091,68.279-11.334,124.861,0.903l9.453-31.135
	C429.357,94.567,379.736,100.789,350.244,108.169z"/>
<path style="fill:#4F6186;" d="M516.747,127.033c-8.326-2.593-16.367-4.713-24.13-6.449l-7.088,23.347
	c7.67,1.659,15.669,3.742,23.984,6.331l-7.057-14.839L516.747,127.033z"/>
<path id="SVGID_x5F_1_x5F_" style="fill:none;" d="M325.726,136.71c0,0,74.691-37.287,194.417,0"/>
<text><textPath  xlink:href="#SVGID_x5F_1_x5F_" startOffset="1.465%">
<tspan  style="fill:#FFFFFF; font-family:'Karla-Regular'; font-size:13.1812px;">Accomplishment</tspan></textPath>
</text>
<rect x="37.77" y="545.208" transform="matrix(0.7071 0.7071 -0.7071 0.7071 417.303 124.3989)" style="fill:#4F6186;" width="41.439" height="41.439"/>
<g>
	<path style="fill:#E0D2A2;" d="M58.489,419.317l28.948,28.948l-28.948,28.948l-28.948-28.948L58.489,419.317 M58.489,418.963
		l-29.302,29.302l29.302,29.302l29.302-29.302L58.489,418.963L58.489,418.963z"/>
</g>
<g>
	<path style="fill:#E0D2A2;" d="M29.188,273.504l28.948,28.948L29.188,331.4L0.239,302.452L29.188,273.504 M29.188,273.15
		l-29.302,29.302l29.302,29.302l29.302-29.302L29.188,273.15L29.188,273.15z"/>
</g>
<g>
	<path style="fill:#E0D2A2;" d="M87.791,273.504l28.948,28.948L87.791,331.4l-28.948-28.948L87.791,273.504 M87.791,273.15
		l-29.302,29.302l29.302,29.302l29.302-29.302L87.791,273.15L87.791,273.15z"/>
</g>
<rect x="37.77" y="486.503" transform="matrix(0.7071 0.7071 -0.7071 0.7071 375.7916 107.204)" style="opacity:0.7;fill:#4F6186;" width="41.439" height="41.439"/>
<rect x="8.633" y="515.856" transform="matrix(0.7071 0.7071 -0.7071 0.7071 388.0125 136.4034)" style="fill:#E0D2A2;" width="41.439" height="41.439"/>
<rect x="67.009" y="515.856" transform="matrix(0.7071 0.7071 -0.7071 0.7071 405.1102 95.1253)" style="fill:#E0D2A2;" width="41.439" height="41.439"/>
<rect x="67.009" y="398.306" transform="matrix(0.7071 0.7071 -0.7071 0.7071 321.9903 60.696)" style="fill:#E0D2A2;" width="41.439" height="41.439"/>
<rect x="37.77" y="311.034" transform="matrix(0.7071 0.7071 -0.7071 0.7071 251.7163 55.8104)" style="fill:#4F6186;" width="41.439" height="41.439"/>
<rect x="67.009" y="340.387" transform="matrix(0.7071 0.7071 -0.7071 0.7071 281.0356 43.7322)" style="fill:#E0D2A2;" width="41.439" height="41.439"/>
<rect x="67.009" y="223.192" transform="matrix(0.7071 0.7071 -0.7071 0.7071 198.1659 9.4064)" style="fill:#E0D2A2;" width="41.439" height="41.439"/>
<rect x="184.43" y="515.856" transform="matrix(0.7071 0.7071 -0.7071 0.7071 439.502 12.096)" style="fill:#E0D2A2;" width="41.439" height="41.439"/>
<g>
	<path style="fill:#E0D2A2;" d="M175.741,478.218l28.948,28.948l-28.948,28.948l-28.948-28.948L175.741,478.218 M175.741,477.864
		l-29.302,29.302l29.302,29.302l29.302-29.302L175.741,477.864L175.741,477.864z"/>
</g>
<rect x="762.992" y="545.208" transform="matrix(-0.7071 0.7071 -0.7071 -0.7071 1738.0508 411.9291)" style="opacity:0.7;fill:#4F6186;" width="41.439" height="41.439"/>
<g>
	<path style="fill:#E0D2A2;" d="M783.712,420.924l28.948,28.948l-28.948,28.948l-28.948-28.948L783.712,420.924 M783.712,420.571
		l-29.302,29.302l29.302,29.302l29.302-29.302L783.712,420.571L783.712,420.571z"/>
</g>
<rect x="762.992" y="486.503" transform="matrix(-0.7071 0.7071 -0.7071 -0.7071 1696.5404 311.7151)" style="fill:#4F6186;" width="41.439" height="41.439"/>
<rect x="792.129" y="515.856" transform="matrix(-0.7071 0.7071 -0.7071 -0.7071 1767.0354 341.2219)" style="fill:#E0D2A2;" width="41.439" height="41.439"/>
<rect x="792.129" y="400.016" transform="matrix(-0.7071 0.7071 -0.7071 -0.7071 1685.1248 143.4717)" style="fill:#E0D2A2;" width="41.439" height="41.439"/>
<rect x="733.753" y="515.856" transform="matrix(-0.7071 0.7071 -0.7071 -0.7071 1667.3815 382.4998)" style="fill:#E0D2A2;" width="41.439" height="41.439"/>
<rect x="675.15" y="515.856" transform="matrix(-0.7071 0.7071 -0.7071 -0.7071 1567.3392 423.9373)" style="fill:#E0D2A2;" width="41.439" height="41.439"/>
<g>
	<path style="fill:#E0D2A2;" d="M666.46,478.218l28.948,28.948l-28.948,28.948l-28.948-28.948L666.46,478.218 M666.46,477.864
		l-29.302,29.302l29.302,29.302l29.302-29.302L666.46,477.864L666.46,477.864z"/>
</g>
<rect x="37.77" y="8.633" transform="matrix(0.7071 -0.7071 0.7071 0.7071 -3.6243 49.9553)" style="fill:#4F6186;" width="41.439" height="41.439"/>
<g>
	<path style="fill:#E0D2A2;" d="M58.489,117.471l28.948,28.948l-28.948,28.948l-28.948-28.948L58.489,117.471 M58.489,117.118
		l-29.302,29.302l29.302,29.302l29.302-29.302L58.489,117.118L58.489,117.118z"/>
</g>
<rect x="8.633" y="37.986" transform="matrix(0.7071 -0.7071 0.7071 0.7071 -32.9135 37.9495)" style="fill:#E0D2A2;" width="41.439" height="41.439"/>
<rect x="67.009" y="37.986" transform="matrix(0.7071 -0.7071 0.7071 0.7071 -15.8156 79.2274)" style="fill:#E0D2A2;" width="41.439" height="41.439"/>
<rect x="184.43" y="37.986" transform="matrix(0.7071 -0.7071 0.7071 0.7071 18.5762 162.2567)" style="fill:#E0D2A2;" width="41.439" height="41.439"/>
<g>
	<path style="fill:#E0D2A2;" d="M175.741,59.166l28.948,28.948l-28.948,28.948l-28.948-28.948L175.741,59.166 M175.741,58.812
		l-29.302,29.302l29.302,29.302l29.302-29.302L175.741,58.812L175.741,58.812z"/>
</g>
<g>
	<path style="fill:#E0D2A2;" d="M783.712,116.46l28.948,28.948l-28.948,28.948l-28.948-28.948L783.712,116.46 M783.712,116.106
		l-29.302,29.302l29.302,29.302l29.302-29.302L783.712,116.106L783.712,116.106z"/>
</g>
<g>
	<path style="fill:#E0D2A2;" d="M783.712,291.72l28.948,28.948l-28.948,28.948l-28.948-28.948L783.712,291.72 M783.712,291.366
		l-29.302,29.302l29.302,29.302l29.302-29.302L783.712,291.366L783.712,291.366z"/>
</g>
<rect x="762.992" y="67.338" transform="matrix(-0.7071 -0.7071 0.7071 -0.7071 1275.6139 704.4914)" style="fill:#4F6186;" width="41.439" height="41.439"/>
<rect x="792.129" y="153.825" transform="matrix(-0.7071 -0.7071 0.7071 -0.7071 1264.199 872.7355)" style="fill:#E0D2A2;" width="41.439" height="41.439"/>
<rect x="762.992" y="241.821" transform="matrix(-0.7071 -0.7071 0.7071 -0.7071 1152.2358 1002.3522)" style="opacity:0.7;fill:#4F6186;" width="41.439" height="41.439"/>
<rect x="733.753" y="212.582" transform="matrix(-0.7071 -0.7071 0.7071 -0.7071 1122.9978 931.7617)" style="fill:#E0D2A2;" width="41.439" height="41.439"/>
<rect x="675.15" y="37.986" transform="matrix(-0.7071 -0.7071 0.7071 -0.7071 1146.4128 592.2694)" style="fill:#E0D2A2;" width="41.439" height="41.439"/>
<g>
	<path style="fill:#E0D2A2;" d="M666.567,59.058l28.948,28.948l-28.948,28.948l-28.948-28.948L666.567,59.058 M666.567,58.705
		l-29.302,29.302l29.302,29.302l29.302-29.302L666.567,58.705L666.567,58.705z"/>
</g>
<rect x="37.77" y="67.158" transform="matrix(0.7071 -0.7071 0.7071 0.7071 -45.0076 67.0967)" style="opacity:0.7;fill:#4F6186;" width="41.439" height="41.439"/>
<rect x="762.945" y="8.794" transform="matrix(-0.7071 -0.7071 0.7071 -0.7071 1316.9281 604.5174)" style="opacity:0.7;fill:#4F6186;" width="41.439" height="41.439"/>
<rect x="792.129" y="37.986" transform="matrix(-0.7071 -0.7071 0.7071 -0.7071 1346.1096 674.9854)" style="fill:#E0D2A2;" width="41.439" height="41.439"/>
<rect x="733.753" y="37.986" transform="matrix(-0.7071 -0.7071 0.7071 -0.7071 1246.4557 633.7075)" style="fill:#E0D2A2;" width="41.439" height="41.439"/>
<polygon style="fill:#4F6186;" points="0.051,536.626 -14.173,550.85 -14.173,581.005 0.051,595.229 29.353,565.928 "/>
<polygon style="opacity:0.7;fill:#4F6186;" points="0.051,391.269 -14.173,405.493 -14.173,435.648 0.051,449.872 29.353,420.571 
	"/>
<polygon style="fill:#4F6186;" points="0.051,117.014 -14.173,131.238 -14.173,161.393 0.051,175.617 29.353,146.316 "/>
<polygon style="fill:#4F6186;" points="0.051,0 -14.173,14.224 -14.173,44.379 0.051,58.603 29.353,29.302 "/>
<polygon style="fill:#4F6186;" points="856.346,14.275 842.15,0.079 812.848,29.38 842.15,58.682 856.346,44.486 "/>
<polygon style="fill:#4F6186;" points="856.086,550.873 841.89,536.677 812.588,565.978 841.89,595.28 856.086,581.084 "/>
<polygon style="fill:#E0D2A2;" points="44.481,609.453 58.654,595.28 29.353,565.978 0.051,595.28 14.224,609.453 "/>
<polygon style="fill:#E0D2A2;" points="87.728,565.978 58.427,595.28 72.6,609.453 102.857,609.453 117.03,595.28 "/>
<polygon style="fill:#E0D2A2;" points="279.111,609.453 293.284,595.28 263.983,565.978 234.681,595.28 248.854,609.453 "/>
<g>
	<path style="fill:#E0D2A2;" d="M322.368,566.332l28.948,28.948l-13.923,13.923h-30.05L293.42,595.28L322.368,566.332
		 M322.368,565.978l-29.302,29.302l14.173,14.173h30.257l14.173-14.173L322.368,565.978L322.368,565.978z"/>
</g>
<polygon style="fill:#E0D2A2;" points="454.703,609.453 468.876,595.28 439.575,565.978 410.273,595.28 424.446,609.453 "/>
<polygon style="fill:#4F6186;" points="652.293,609.453 666.466,595.28 637.164,565.978 607.863,595.28 622.036,609.453 "/>
<polygon style="fill:#E0D2A2;" points="769.601,609.453 783.774,595.28 754.473,565.978 725.171,595.28 739.344,609.453 "/>
<polygon style="fill:#E0D2A2;" points="827.977,609.453 842.15,595.28 812.848,565.978 783.547,595.28 797.72,609.453 "/>
<polygon style="fill:#E0D2A2;" points="14.224,-14.173 0.051,0 29.353,29.302 58.654,0 44.481,-14.173 "/>
<polygon style="fill:#E0D2A2;" points="72.6,-14.173 58.427,0 87.728,29.302 117.03,0 102.857,-14.173 "/>
<g>
	<path style="fill:#E0D2A2;" d="M513.203-13.923L527.126,0l-28.948,28.948L469.23,0l13.923-13.923H513.203 M513.306-14.173h-30.257
		L468.876,0l29.302,29.302L527.479,0L513.306-14.173L513.306-14.173z"/>
</g>
<polygon style="opacity:0.7;fill:#4F6186;" points="541.653,-14.173 527.479,0 556.781,29.302 586.083,0 571.909,-14.173 "/>
<polygon style="fill:#E0D2A2;" points="797.72,-14.05 783.547,0.124 812.848,29.425 842.15,0.124 827.977,-14.05 "/>
<polygon style="fill:#E0D2A2;" points="739.344,-14.083 725.171,0.09 754.473,29.392 783.774,0.09 769.601,-14.083 "/>
</svg>
