<?xml version="1.0" encoding="utf-8"?>
<!-- Generator: Adobe Illustrator 27.5.0, SVG Export Plug-In . SVG Version: 6.00 Build 0)  -->
<svg version="1.1" id="PRINT" xmlns="http://www.w3.org/2000/svg" xmlns:xlink="http://www.w3.org/1999/xlink" x="0px" y="0px"
	 viewBox="0 0 841.89 595.276" style="enable-background:new 0 0 841.89 595.276;" xml:space="preserve">
<g>
	<rect x="-8.504" y="-8.504" style="fill:#F5F5F5;" width="858.898" height="612.283"/>
	<g>
		<defs>
			
				<rect id="SVGID_1_" x="-8.504" y="-8.504" transform="matrix(-1 -1.224647e-16 1.224647e-16 -1 841.8898 595.2756)" width="858.898" height="612.283"/>
		</defs>
		<clipPath id="SVGID_00000145057771848750220690000002289041688804170674_">
			<use xlink:href="#SVGID_1_"  style="overflow:visible;"/>
		</clipPath>
		<g style="clip-path:url(#SVGID_00000145057771848750220690000002289041688804170674_);">
			<path style="fill:#5F3DA5;" d="M-4.436,179.456C62.972,121.982,146.731,78.942,237.033,55.377
				c90.301-23.565,186.969-27.61,278.682-11.661C449.598,11.302,373.419-3.181,297.203,4.638
				c-76.217,7.818-149.73,36.985-206.761,82.032C55.121,114.568,22.922,145.558-4.436,179.456z"/>
			<path style="fill:#D43439;" d="M-48.802,232.179C0,142.544,222.421,32.565,228.611,41.07
				C115.571,59.095,34.332,84.894-55.45,141.851C-53.126,168.234-51.126,205.796-48.802,232.179z"/>
			<path style="fill:#DF95DB;" d="M-61.075,174.617C12.691,124.52,93.422,79.258,184.55,52.093
				c91.129-27.165,193.892-35.118,286.329-10.844C343.925-15.095,188.805-24.429,54.624,20.37
				C18.441,32.45-17.745,49.591-35.384,77.224C-53.718,105.948-48.531,144.027-61.075,174.617z"/>
			<path style="fill:#241F36;" d="M-27.5,85.08c493.027-213.244,673.406,129.98,904.599,42.108V-19.07L-22.11-21.495
				C-21.385-20.745-27.711,84.154-27.5,85.08z"/>
			<g>
				<path style="fill:#D43439;" d="M881.794,85.36c-63.867,12.765-133.947,5.059-190.917-20.994
					c-38.143-17.443-69.791-42.292-104.89-63.321S509.71-37.781,465.595-37.28l0.087-15.416c-1.242-1.622,3.884-3.274,6.291-3.274
					H884.37L881.794,85.36z"/>
				<path style="fill:#DF95DB;" d="M654.692-50.643c24.54,14.343,44.754,32.678,65.2,50.558
					c20.446,17.881,41.641,35.664,67.499,48.495s57.222,20.378,87.258,15.894c0.349-3.849,1.713-9.193,2.063-13.043V-52.752
					C802.853-52.752,726.954-62.656,654.692-50.643z"/>
				<path style="fill:#5F3DA5;" d="M366.155-26.516c64.946-2.46,126.992,21.384,182.721,48.891
					c55.729,27.507,109.159,59.571,170.789,76.579c55.7,15.371,116.584,7.769,175.343,7.769V68.256
					c-40.274,19.93-91.55,20.004-136.513,8.714c-44.963-11.29-84.95-32.804-123.773-54.59
					C595.899,0.594,557.036-21.963,513.13-35.778c-47.222-14.858-99.372-18.984-149.177-11.805c1.76,0.81,3.519,1.619,5.279,2.429
					C367.971-38.289,367.416-33.381,366.155-26.516z"/>
			</g>
		</g>
		<g style="clip-path:url(#SVGID_00000145057771848750220690000002289041688804170674_);">
			<path style="fill:#DF95DB;" d="M-120.164,628.764l1020.614,7.385v-93.017c-71.188-31.681-153.601-22.775-229.419-4.893
				c-75.818,17.882-150.706,44.253-228.577,45.889c-64.006,1.345-127.075-14.141-188.924-30.709s-123.982-34.431-187.902-38.017
				c-63.92-3.586-130.911,8.421-182.388,46.573L-120.164,628.764z"/>
			<path style="fill:#5F3DA5;" d="M-48.022,603.779c95.193-41.963,298.769-50.12,445.194,23.577l2.885-8.829
				c-130.125-81.359-289.643-114.909-440.563-87.569C-45.063,548.373-43.466,586.365-48.022,603.779z"/>
			<path style="fill:#D43439;" d="M-21.191,527.598c-0.963-2.154-1.927-4.308-2.89-6.462
				c96.29-16.582,196.437-10.202,289.858,18.468c58.844,18.058,114.706,44.686,172.863,64.856
				c58.157,20.17,120.254,33.915,181.126,24.851c-59.366,17.523-123.657,12.338-183.435-3.716
				c-59.778-16.054-116.864-40.806-175.968-59.199C170.118,538.312,73.267,524.985-21.191,527.598z"/>
			<path style="fill:#241F36;" d="M440.301,609.952c48.127,9.157,97.834,2.322,145.776-7.766
				c47.942-10.088,95.437-23.447,144.26-27.449c48.824-4.003,100.184,2.147,141.596,28.376v17.697c-10.94,0-18.671-0.2-29.568,0.764
				L440.301,609.952z"/>
		</g>
	</g>
	<g>
		<g>
			<g>
				<polygon style="fill:#D43439;" points="439.167,516.55 439.167,563.346 422.538,544.807 405.909,563.346 405.909,516.05 
					407.448,515.744 413.306,523.039 421.296,518.172 429.286,523.039 435.135,515.744 				"/>
				<polygon style="fill:#241F36;" points="439.167,496.112 439.167,516.55 435.135,515.744 429.286,523.039 421.296,518.172 
					413.306,523.039 407.448,515.744 405.909,516.05 405.909,496.112 				"/>
			</g>
			<g>
				<polygon style="fill:#D43439;" points="467.325,469.062 461.155,476.095 464.56,484.81 456.349,489.298 456.556,498.652 
					447.306,500.066 444.314,508.932 435.14,507.102 429.286,514.401 421.294,509.532 413.302,514.401 407.449,507.102 
					398.273,508.931 395.281,500.065 386.032,498.651 386.239,489.297 378.029,484.81 381.433,476.095 375.263,469.062 
					381.433,462.03 378.028,453.315 386.239,448.827 386.033,439.473 395.282,438.059 398.274,429.193 407.449,431.023 
					413.302,423.723 421.294,428.593 429.286,423.723 435.14,431.023 444.315,429.193 447.307,438.06 456.556,439.473 
					456.35,448.827 464.56,453.315 461.155,462.03 				"/>
				<circle style="fill:none;stroke:#DF95DB;stroke-width:2;stroke-miterlimit:10;" cx="421.294" cy="469.062" r="34.557"/>
				<polygon style="fill:#DF95DB;" points="421.294,444.01 428.505,458.62 444.628,460.962 432.961,472.335 435.715,488.393 
					421.294,480.811 406.873,488.393 409.628,472.335 397.961,460.962 414.084,458.62 				"/>
			</g>
		</g>
		<g>
			<path style="fill:#D43439;" d="M392.912,102.57l-6.496-6.498l-6.498,6.498l2.932,2.93l-2.932,2.929l6.499,6.496l6.496-6.496
				l-2.93-2.929L392.912,102.57z M381.191,102.57l5.225-5.225l5.222,5.225l-2.293,2.293l-2.93-2.93l-2.929,2.93L381.191,102.57z
				 M391.638,108.429l-5.222,5.222l-5.224-5.222l2.295-2.293l2.929,2.929l2.93-2.929L391.638,108.429z"/>
			
				<text transform="matrix(1 0 0 1 396.9631 108.5267)" style="fill:#D43439; font-family:'BigShouldersDisplay-Bold'; font-size:8.7158px; letter-spacing:1;">company name</text>
		</g>
		<g>
			
				<text transform="matrix(1 0 0 1 193.5791 186.3836)" style="fill:#241F36; font-family:'SairaCondensed-Bold'; font-size:69.9484px; letter-spacing:13;">certificate</text>
			
				<text transform="matrix(1 0 0 1 238.9834 235.5174)" style="fill:#241F36; font-family:'SairaCondensed-Regular'; font-size:40.7794px; letter-spacing:8;">of achievement</text>
		</g>
		
			<text transform="matrix(1 0 0 1 363.2367 272.5596)" style="fill:#241F36; font-family:'SairaCondensed-Light'; font-size:14px; letter-spacing:1;">Proudly presents to</text>
		<g>
			
				<text transform="matrix(1 0 0 1 247.3314 491)" style="fill:#241F36; font-family:'SairaCondensed-SemiBold'; font-size:14px; letter-spacing:1;">DATE</text>
			<line style="fill:none;stroke:#D43439;stroke-miterlimit:10;" x1="175.411" y1="469.881" x2="348.595" y2="469.881"/>
		</g>
		<g>
			
				<text transform="matrix(1 0 0 1 542.1062 491)" style="fill:#241F36; font-family:'SairaCondensed-SemiBold'; font-size:14px; letter-spacing:1;">signature</text>
			<line style="fill:none;stroke:#D43439;stroke-miterlimit:10;" x1="493.993" y1="469.881" x2="667.177" y2="469.881"/>
		</g>
		<g>
			<line style="fill:none;stroke:#D43439;stroke-miterlimit:10;" x1="175.411" y1="332.666" x2="667.177" y2="332.666"/>
			<rect x="173.839" y="351.457" style="fill:none;" width="494.912" height="53.476"/>
			<text transform="matrix(1 0 0 1 181.1131 361.3966)"><tspan x="0" y="0" style="font-family:'SairaCondensed-Light'; font-size:14px; letter-spacing:1;">Lorem ipsum dolor sit amet, consectetuer adipiscing elit, sed diam no</tspan><tspan x="476.059" y="0" style="font-family:'SairaCondensed-Light'; font-size:14px; letter-spacing:1;">-</tspan><tspan x="3.808" y="16.801" style="font-family:'SairaCondensed-Light'; font-size:14px; letter-spacing:1;">nummy nibh euismod tincidunt ut laoreet dolore magna aliquam erat </tspan><tspan x="13.118" y="33.601" style="font-family:'SairaCondensed-Light'; font-size:14px; letter-spacing:1;">volutpat. Ut wisi enim ad minim veniam, quis nostrud exerci tation </tspan></text>
		</g>
	</g>
	<g>
		<g>
			<g>
				<g>
					<defs>
						
							<ellipse id="SVGID_00000019662994360585729880000013027151365379053501_" transform="matrix(0.8718 -0.4899 0.4899 0.8718 -68.0009 61.1736)" cx="82.855" cy="160.484" rx="53.833" ry="61.467"/>
					</defs>
					<clipPath id="SVGID_00000049223122082937598290000013543416902004418949_">
						<use xlink:href="#SVGID_00000019662994360585729880000013027151365379053501_"  style="overflow:visible;"/>
					</clipPath>
					<g style="clip-path:url(#SVGID_00000049223122082937598290000013543416902004418949_);">
						<g>
							<line style="fill:none;stroke:#241F36;stroke-miterlimit:10;" x1="12.492" y1="130.422" x2="71.951" y2="236.22"/>
							<line style="fill:none;stroke:#241F36;stroke-miterlimit:10;" x1="18.744" y1="126.909" x2="78.202" y2="232.707"/>
							<line style="fill:none;stroke:#241F36;stroke-miterlimit:10;" x1="24.995" y1="123.396" x2="84.453" y2="229.194"/>
							<line style="fill:none;stroke:#241F36;stroke-miterlimit:10;" x1="31.247" y1="119.883" x2="90.705" y2="225.68"/>
							<line style="fill:none;stroke:#241F36;stroke-miterlimit:10;" x1="37.498" y1="116.369" x2="96.956" y2="222.167"/>
							<line style="fill:none;stroke:#241F36;stroke-miterlimit:10;" x1="43.749" y1="112.856" x2="103.208" y2="218.654"/>
							<line style="fill:none;stroke:#241F36;stroke-miterlimit:10;" x1="50.001" y1="109.343" x2="109.459" y2="215.141"/>
							<line style="fill:none;stroke:#241F36;stroke-miterlimit:10;" x1="56.252" y1="105.829" x2="115.71" y2="211.627"/>
							<line style="fill:none;stroke:#241F36;stroke-miterlimit:10;" x1="62.504" y1="102.316" x2="121.962" y2="208.114"/>
							<line style="fill:none;stroke:#241F36;stroke-miterlimit:10;" x1="68.755" y1="98.803" x2="128.213" y2="204.601"/>
							<line style="fill:none;stroke:#241F36;stroke-miterlimit:10;" x1="75.006" y1="95.29" x2="134.465" y2="201.087"/>
							<line style="fill:none;stroke:#241F36;stroke-miterlimit:10;" x1="81.258" y1="91.776" x2="140.716" y2="197.574"/>
							<line style="fill:none;stroke:#241F36;stroke-miterlimit:10;" x1="87.509" y1="88.263" x2="146.967" y2="194.061"/>
							<line style="fill:none;stroke:#241F36;stroke-miterlimit:10;" x1="93.76" y1="84.75" x2="153.219" y2="190.548"/>
						</g>
						<g>
							<line style="fill:none;stroke:#241F36;stroke-miterlimit:10;" x1="112.589" y1="89.536" x2="6.791" y2="148.994"/>
							<line style="fill:none;stroke:#241F36;stroke-miterlimit:10;" x1="116.102" y1="95.787" x2="10.304" y2="155.245"/>
							<line style="fill:none;stroke:#241F36;stroke-miterlimit:10;" x1="119.615" y1="102.039" x2="13.818" y2="161.497"/>
							<line style="fill:none;stroke:#241F36;stroke-miterlimit:10;" x1="123.129" y1="108.29" x2="17.331" y2="167.748"/>
							<line style="fill:none;stroke:#241F36;stroke-miterlimit:10;" x1="126.642" y1="114.541" x2="20.844" y2="174"/>
							<line style="fill:none;stroke:#241F36;stroke-miterlimit:10;" x1="130.155" y1="120.793" x2="24.358" y2="180.251"/>
							<line style="fill:none;stroke:#241F36;stroke-miterlimit:10;" x1="133.669" y1="127.044" x2="27.871" y2="186.503"/>
							<line style="fill:none;stroke:#241F36;stroke-miterlimit:10;" x1="137.182" y1="133.296" x2="31.384" y2="192.754"/>
							<line style="fill:none;stroke:#241F36;stroke-miterlimit:10;" x1="140.695" y1="139.547" x2="34.897" y2="199.005"/>
							<line style="fill:none;stroke:#241F36;stroke-miterlimit:10;" x1="144.208" y1="145.798" x2="38.411" y2="205.257"/>
							<line style="fill:none;stroke:#241F36;stroke-miterlimit:10;" x1="147.722" y1="152.05" x2="41.924" y2="211.508"/>
							<line style="fill:none;stroke:#241F36;stroke-miterlimit:10;" x1="151.235" y1="158.301" x2="45.437" y2="217.76"/>
							<line style="fill:none;stroke:#241F36;stroke-miterlimit:10;" x1="154.748" y1="164.553" x2="48.951" y2="224.011"/>
							<line style="fill:none;stroke:#241F36;stroke-miterlimit:10;" x1="158.262" y1="170.804" x2="52.464" y2="230.262"/>
						</g>
					</g>
				</g>
				<path style="fill:#71BBD9;" d="M132.025,132.85c-17.192-30.591-53.236-43.082-80.349-27.845s-35.183,52.521-17.991,83.112
					c9.276,16.506,24.041,27.738,39.93,32.192l-0.008,0.02c0.116,0.046,11.696,4.616,24.26,11.171
					c16.303,8.505,24.582,12.398,28.213,18.859l4.688-2.635c-4.206-7.484-12.955-11.888-30.457-21.014
					c-2.999-1.564-5.941-3.015-8.693-4.324c7.749-0.389,15.383-2.471,22.415-6.424c7.032-3.952,12.78-9.39,17.142-15.807
					c-0.313,3.031-0.602,6.299-0.826,9.674c-1.304,19.695-2.091,29.458,2.115,36.942l4.688-2.635
					c-3.631-6.461-2.652-15.556-1.44-33.905c0.934-14.14,3.05-26.408,3.071-26.531l-0.021-0.004
					C143.219,167.809,141.301,149.356,132.025,132.85z M38.373,185.483c-15.739-28.006-8.59-62.005,15.938-75.789
					s57.287-2.214,73.026,25.792c15.739,28.006,8.59,62.005-15.938,75.789C86.872,225.059,54.112,213.489,38.373,185.483z"/>
				<g>
					<defs>
						<path id="SVGID_00000097475572627442035490000000796300849590072470_" d="M142.053,248.437
							c1.037-0.583,1.405-1.896,0.822-2.932l-1.574-2.802c-0.583-1.037-1.896-1.405-2.932-0.822l-14.847,8.344
							c-1.037,0.583-1.405,1.896-0.822,2.932l1.575,2.802c0.583,1.037,1.896,1.405,2.932,0.822l0.715-0.402l16.71,29.733
							c1.325,2.357,1.736,5.071,1.474,7.762c-0.05,0.516,0.032,0.987,0.261,1.394c1.254,2.232,6.435,1.7,11.572-1.186
							c5.137-2.887,8.284-7.036,7.03-9.268c-0.229-0.407-0.589-0.722-1.055-0.948c-2.435-1.176-4.539-2.938-5.864-5.295
							l-16.71-29.733L142.053,248.437z"/>
					</defs>
					<use xlink:href="#SVGID_00000097475572627442035490000000796300849590072470_"  style="overflow:visible;fill:#D43439;"/>
					<clipPath id="SVGID_00000000220436160108277680000002933950728225442190_">
						<use xlink:href="#SVGID_00000097475572627442035490000000796300849590072470_"  style="overflow:visible;"/>
					</clipPath>
					<g style="clip-path:url(#SVGID_00000000220436160108277680000002933950728225442190_);">
						<line style="fill:none;stroke:#241F36;stroke-miterlimit:10;" x1="133.309" y1="278.484" x2="142.067" y2="250.135"/>
						<line style="fill:none;stroke:#241F36;stroke-miterlimit:10;" x1="139.901" y1="290.215" x2="151.154" y2="253.788"/>
						<line style="fill:none;stroke:#241F36;stroke-miterlimit:10;" x1="146.494" y1="301.945" x2="157.747" y2="265.518"/>
						<line style="fill:none;stroke:#241F36;stroke-miterlimit:10;" x1="153.086" y1="313.676" x2="164.339" y2="277.249"/>
					</g>
				</g>
				
					<rect x="127.662" y="252.419" transform="matrix(0.8718 -0.4899 0.4899 0.8718 -107.0376 98.8759)" style="fill:#241F36;" width="15.391" height="2.973"/>
				<g>
					<path style="fill:#F5F5F5;" d="M113.276,214.614l-0.956-1.7c6.17-3.468,11.381-8.221,15.487-14.128l1.602,1.114
						C125.133,206.05,119.706,211,113.276,214.614z"/>
				</g>
				<g>
					<path style="fill:#F5F5F5;" d="M139.218,169.374l-1.949-0.07c0.425-11.845-2.549-23.798-8.601-34.566l1.7-0.956
						C136.595,144.863,139.655,157.17,139.218,169.374z"/>
				</g>
			</g>
			<g>
				<path style="fill:#DF95DB;" d="M144.113,133.873c-7.971,10.161-22.672,11.937-32.835,3.965
					c-10.161-7.971-11.937-22.672-3.966-32.833c0.638-0.813,1.318-1.573,2.036-2.276c0.693-0.681,1.42-1.311,2.178-1.89
					c4.246-3.244,9.422-4.875,14.611-4.782c0.937,0.012,1.873,0.087,2.802,0.215c3.961,0.546,7.834,2.118,11.208,4.764
					C150.309,109.009,152.085,123.71,144.113,133.873z"/>
				<g>
					<path style="fill:#F5F5F5;" d="M128.199,130.401c-4.13,1.218-8.802,0.247-12.338-2.527c-0.161-0.126-0.318-0.253-0.473-0.386
						c-3.296-2.821-5.365-7.251-5.538-11.851c-0.059-1.584,0.092-3.144,0.24-4.652c0.151-1.536,0.292-2.987,0.221-4.431
						c-0.076-1.574-0.447-2.844-0.962-3.824c0.693-0.681,1.42-1.311,2.178-1.89c1.028,1.711,1.513,3.758,1.601,5.576
						c0.079,1.65-0.08,3.273-0.232,4.84c-0.144,1.481-0.28,2.88-0.227,4.274c0.143,3.826,1.844,7.496,4.552,9.814
						c2.826,2.42,6.822,3.342,10.182,2.353c3.489-1.026,6.216-4.141,6.632-7.571c0.402-3.318-1.182-6.642-2.612-9.167
						c-0.375-0.664-0.776-1.344-1.167-1.999c-1.435-2.419-2.92-4.922-3.703-7.757c-0.486-1.755-0.615-3.513-0.416-5.145
						c0.937,0.012,1.873,0.087,2.802,0.215c-0.169,1.208-0.103,2.613,0.331,4.18c0.683,2.471,2.007,4.704,3.411,7.068
						c0.397,0.67,0.807,1.358,1.198,2.051c1.639,2.901,3.457,6.761,2.954,10.896C136.284,124.981,132.733,129.067,128.199,130.401z"
						/>
				</g>
				<g>
					
						<path style="fill:none;stroke:#241F36;stroke-width:0.9396;stroke-linecap:round;stroke-linejoin:round;stroke-miterlimit:10;" d="
						M136.772,132.764c-2.161,2.084-5.376,3.015-8.316,2.407"/>
					
						<path style="fill:none;stroke:#241F36;stroke-width:0.9396;stroke-linecap:round;stroke-linejoin:round;stroke-miterlimit:10;" d="
						M141.398,130.038c-1.05,2.946-3.594,5.315-6.607,6.152"/>
					
						<path style="fill:none;stroke:#241F36;stroke-width:0.9396;stroke-linecap:round;stroke-linejoin:round;stroke-miterlimit:10;" d="
						M113.61,104.215c-4.155,2.563-7.283,6.743-8.57,11.453"/>
				</g>
			</g>
		</g>
		<g>
			<g>
				<g>
					<defs>
						
							<ellipse id="SVGID_00000012462233525135506490000014986983650116910483_" transform="matrix(0.4899 -0.8718 0.8718 0.4899 236.6004 725.3408)" cx="738.139" cy="160.484" rx="61.467" ry="53.833"/>
					</defs>
					<clipPath id="SVGID_00000137821876363807775160000001608300125167110040_">
						<use xlink:href="#SVGID_00000012462233525135506490000014986983650116910483_"  style="overflow:visible;"/>
					</clipPath>
					<g style="clip-path:url(#SVGID_00000137821876363807775160000001608300125167110040_);">
						<g>
							<line style="fill:none;stroke:#D43439;stroke-miterlimit:10;" x1="808.502" y1="130.422" x2="749.043" y2="236.22"/>
							<line style="fill:none;stroke:#D43439;stroke-miterlimit:10;" x1="802.25" y1="126.909" x2="742.792" y2="232.707"/>
							<line style="fill:none;stroke:#D43439;stroke-miterlimit:10;" x1="795.999" y1="123.396" x2="736.541" y2="229.194"/>
							<line style="fill:none;stroke:#D43439;stroke-miterlimit:10;" x1="789.747" y1="119.883" x2="730.289" y2="225.68"/>
							<line style="fill:none;stroke:#D43439;stroke-miterlimit:10;" x1="783.496" y1="116.369" x2="724.038" y2="222.167"/>
							<line style="fill:none;stroke:#D43439;stroke-miterlimit:10;" x1="777.245" y1="112.856" x2="717.786" y2="218.654"/>
							<line style="fill:none;stroke:#D43439;stroke-miterlimit:10;" x1="770.993" y1="109.343" x2="711.535" y2="215.141"/>
							<line style="fill:none;stroke:#D43439;stroke-miterlimit:10;" x1="764.742" y1="105.829" x2="705.284" y2="211.627"/>
							<line style="fill:none;stroke:#D43439;stroke-miterlimit:10;" x1="758.49" y1="102.316" x2="699.032" y2="208.114"/>
							<line style="fill:none;stroke:#D43439;stroke-miterlimit:10;" x1="752.239" y1="98.803" x2="692.781" y2="204.601"/>
							<line style="fill:none;stroke:#D43439;stroke-miterlimit:10;" x1="745.988" y1="95.29" x2="686.529" y2="201.087"/>
							<line style="fill:none;stroke:#D43439;stroke-miterlimit:10;" x1="739.736" y1="91.776" x2="680.278" y2="197.574"/>
							<line style="fill:none;stroke:#D43439;stroke-miterlimit:10;" x1="733.485" y1="88.263" x2="674.027" y2="194.061"/>
							<line style="fill:none;stroke:#D43439;stroke-miterlimit:10;" x1="727.233" y1="84.75" x2="667.775" y2="190.548"/>
						</g>
						<g>
							<line style="fill:none;stroke:#D43439;stroke-miterlimit:10;" x1="708.405" y1="89.536" x2="814.203" y2="148.994"/>
							<line style="fill:none;stroke:#D43439;stroke-miterlimit:10;" x1="704.892" y1="95.787" x2="810.69" y2="155.245"/>
							<line style="fill:none;stroke:#D43439;stroke-miterlimit:10;" x1="701.379" y1="102.039" x2="807.176" y2="161.497"/>
							<line style="fill:none;stroke:#D43439;stroke-miterlimit:10;" x1="697.865" y1="108.29" x2="803.663" y2="167.748"/>
							<line style="fill:none;stroke:#D43439;stroke-miterlimit:10;" x1="694.352" y1="114.541" x2="800.15" y2="174"/>
							<line style="fill:none;stroke:#D43439;stroke-miterlimit:10;" x1="690.839" y1="120.793" x2="796.636" y2="180.251"/>
							<line style="fill:none;stroke:#D43439;stroke-miterlimit:10;" x1="687.326" y1="127.044" x2="793.123" y2="186.503"/>
							<line style="fill:none;stroke:#D43439;stroke-miterlimit:10;" x1="683.812" y1="133.296" x2="789.61" y2="192.754"/>
							<line style="fill:none;stroke:#D43439;stroke-miterlimit:10;" x1="680.299" y1="139.547" x2="786.097" y2="199.005"/>
							<line style="fill:none;stroke:#D43439;stroke-miterlimit:10;" x1="676.786" y1="145.798" x2="782.583" y2="205.257"/>
							<line style="fill:none;stroke:#D43439;stroke-miterlimit:10;" x1="673.272" y1="152.05" x2="779.07" y2="211.508"/>
							<line style="fill:none;stroke:#D43439;stroke-miterlimit:10;" x1="669.759" y1="158.301" x2="775.557" y2="217.76"/>
							<line style="fill:none;stroke:#D43439;stroke-miterlimit:10;" x1="666.246" y1="164.553" x2="772.043" y2="224.011"/>
							<line style="fill:none;stroke:#D43439;stroke-miterlimit:10;" x1="662.732" y1="170.804" x2="768.53" y2="230.262"/>
						</g>
					</g>
				</g>
				<path style="fill:#DF95DB;" d="M682.231,183.697l-0.021,0.004c0.021,0.122,2.138,12.391,3.071,26.531
					c1.211,18.349,2.191,27.444-1.44,33.905l4.688,2.635c4.206-7.484,3.419-17.247,2.115-36.942
					c-0.224-3.375-0.513-6.642-0.826-9.674c4.362,6.417,10.109,11.855,17.142,15.807c7.032,3.952,14.666,6.035,22.415,6.424
					c-2.752,1.309-5.694,2.76-8.693,4.324c-17.502,9.126-26.25,13.53-30.457,21.014l4.688,2.635
					c3.631-6.461,11.909-10.354,28.213-18.859c12.564-6.554,24.144-11.125,24.26-11.171l-0.008-0.02
					c15.888-4.455,30.654-15.687,39.93-32.192c17.192-30.591,9.121-67.875-17.991-83.112s-63.157-2.746-80.349,27.845
					C679.693,149.356,677.776,167.809,682.231,183.697z M709.595,211.274c-24.527-13.784-31.677-47.783-15.938-75.789
					c15.739-28.006,48.499-39.576,73.026-25.792c24.527,13.784,31.677,47.783,15.938,75.789
					C766.882,213.489,734.122,225.059,709.595,211.274z"/>
				<g>
					<defs>
						<path id="SVGID_00000165198089808012923880000001489336411375053226_" d="M678.941,248.437
							c-1.037-0.583-1.405-1.896-0.822-2.932l1.575-2.802c0.583-1.037,1.896-1.405,2.932-0.822l14.847,8.344
							c1.037,0.583,1.405,1.896,0.822,2.932l-1.575,2.802c-0.583,1.037-1.896,1.405-2.932,0.822l-0.715-0.402l-16.71,29.733
							c-1.325,2.357-1.736,5.071-1.474,7.762c0.05,0.516-0.032,0.987-0.261,1.394c-1.254,2.232-6.435,1.7-11.572-1.186
							c-5.137-2.887-8.284-7.036-7.03-9.268c0.229-0.407,0.589-0.722,1.055-0.948c2.435-1.176,4.539-2.938,5.864-5.295l16.71-29.733
							L678.941,248.437z"/>
					</defs>
					<use xlink:href="#SVGID_00000165198089808012923880000001489336411375053226_"  style="overflow:visible;fill:#71BBD9;"/>
					<clipPath id="SVGID_00000109731117305972730630000007972189996122970038_">
						<use xlink:href="#SVGID_00000165198089808012923880000001489336411375053226_"  style="overflow:visible;"/>
					</clipPath>
					<g style="clip-path:url(#SVGID_00000109731117305972730630000007972189996122970038_);">
						<line style="fill:none;stroke:#241F36;stroke-miterlimit:10;" x1="687.685" y1="278.484" x2="678.927" y2="250.135"/>
						<line style="fill:none;stroke:#241F36;stroke-miterlimit:10;" x1="681.093" y1="290.215" x2="669.84" y2="253.788"/>
						<line style="fill:none;stroke:#241F36;stroke-miterlimit:10;" x1="674.5" y1="301.945" x2="663.247" y2="265.518"/>
						<line style="fill:none;stroke:#241F36;stroke-miterlimit:10;" x1="667.908" y1="313.676" x2="656.655" y2="277.249"/>
					</g>
				</g>
				
					<rect x="677.94" y="252.419" transform="matrix(-0.8718 -0.4899 0.4899 -0.8718 1158.9532 811.163)" style="fill:#241F36;" width="15.391" height="2.973"/>
				<g>
					<path style="fill:#F5F5F5;" d="M707.718,214.614l0.956-1.7c-6.17-3.468-11.381-8.221-15.487-14.128l-1.602,1.114
						C695.861,206.05,701.288,211,707.718,214.614z"/>
				</g>
				<g>
					<path style="fill:#F5F5F5;" d="M681.776,169.374l1.949-0.07c-0.425-11.845,2.549-23.798,8.601-34.566l-1.7-0.956
						C684.399,144.863,681.339,157.17,681.776,169.374z"/>
				</g>
			</g>
			<g>
				<path style="fill:#D43439;" d="M676.881,133.873c7.971,10.161,22.672,11.937,32.835,3.965
					c10.161-7.971,11.937-22.672,3.966-32.833c-0.638-0.813-1.318-1.573-2.036-2.276c-0.693-0.681-1.42-1.311-2.178-1.89
					c-4.247-3.244-9.422-4.875-14.611-4.782c-0.937,0.012-1.873,0.087-2.802,0.215c-3.961,0.546-7.834,2.118-11.208,4.764
					C670.685,109.009,668.909,123.71,676.881,133.873z"/>
				<g>
					<path style="fill:#F5F5F5;" d="M692.795,130.401c4.13,1.218,8.802,0.247,12.338-2.527c0.161-0.126,0.318-0.253,0.473-0.386
						c3.296-2.821,5.365-7.251,5.538-11.851c0.059-1.584-0.092-3.144-0.24-4.652c-0.151-1.536-0.292-2.987-0.221-4.431
						c0.076-1.574,0.447-2.844,0.962-3.824c-0.693-0.681-1.42-1.311-2.178-1.89c-1.028,1.711-1.513,3.758-1.601,5.576
						c-0.079,1.65,0.08,3.273,0.232,4.84c0.144,1.481,0.28,2.88,0.227,4.274c-0.143,3.826-1.844,7.496-4.552,9.814
						c-2.826,2.42-6.823,3.342-10.182,2.353c-3.489-1.026-6.216-4.141-6.632-7.571c-0.402-3.318,1.182-6.642,2.612-9.167
						c0.375-0.664,0.776-1.344,1.167-1.999c1.435-2.419,2.92-4.922,3.703-7.757c0.486-1.755,0.615-3.513,0.416-5.145
						c-0.937,0.012-1.873,0.087-2.802,0.215c0.169,1.208,0.103,2.613-0.331,4.18c-0.683,2.471-2.007,4.704-3.411,7.068
						c-0.397,0.67-0.807,1.358-1.198,2.051c-1.639,2.901-3.457,6.761-2.954,10.896C684.71,124.981,688.261,129.067,692.795,130.401z
						"/>
				</g>
				<g>
					
						<path style="fill:none;stroke:#241F36;stroke-width:0.9396;stroke-linecap:round;stroke-linejoin:round;stroke-miterlimit:10;" d="
						M684.222,132.764c2.161,2.084,5.376,3.015,8.316,2.407"/>
					
						<path style="fill:none;stroke:#241F36;stroke-width:0.9396;stroke-linecap:round;stroke-linejoin:round;stroke-miterlimit:10;" d="
						M679.596,130.038c1.05,2.946,3.594,5.315,6.607,6.152"/>
					
						<path style="fill:none;stroke:#241F36;stroke-width:0.9396;stroke-linecap:round;stroke-linejoin:round;stroke-miterlimit:10;" d="
						M707.384,104.215c4.155,2.563,7.283,6.743,8.57,11.453"/>
				</g>
			</g>
		</g>
	</g>
</g>
</svg>
