<?xml version="1.0" encoding="utf-8"?>
<!-- Generator: Adobe Illustrator 27.5.0, SVG Export Plug-In . SVG Version: 6.00 Build 0)  -->
<svg version="1.1" id="PRINT" xmlns="http://www.w3.org/2000/svg" xmlns:xlink="http://www.w3.org/1999/xlink" x="0px" y="0px"
	 viewBox="0 0 568.916 407.231" style="enable-background:new 0 0 568.916 407.231;" xml:space="preserve">
<g>
	<defs>
		
			<rect id="SVGID_1_" x="-8.504" y="-8.504" transform="matrix(-1 -1.224647e-16 1.224647e-16 -1 568.9164 407.2308)" width="585.924" height="424.239"/>
	</defs>
	<clipPath id="SVGID_00000038393871235153482450000012180839313075662475_">
		<use xlink:href="#SVGID_1_"  style="overflow:visible;"/>
	</clipPath>
	
		<rect x="-8.504" y="-8.504" transform="matrix(-1 -1.224647e-16 1.224647e-16 -1 568.9164 407.2308)" style="clip-path:url(#SVGID_00000038393871235153482450000012180839313075662475_);fill:#FFFFFF;" width="585.924" height="424.239"/>
	<g style="clip-path:url(#SVGID_00000038393871235153482450000012180839313075662475_);">
		<path style="fill:#01B5B4;" d="M-18.925,57.91c0,0,65.677,312.415,385.706,383.214l-32.463,141.872L-145.51,473.205
			c0,0,89.411-422.587,96.332-421.004C-42.258,53.785-16.799,56.576-18.925,57.91z"/>
		<path style="fill:#F9F9F9;" d="M-18.51,62.734c0,0,48.084,315.602,363.647,404.207l-40.354,139.832l-472.929-136.482
			c0,0,112.929-416.919,119.75-414.95C-41.576,57.309-16.313,61.521-18.51,62.734z"/>
		<path style="fill:#00587C;" d="M-11.858,81.489c0,0,51.685,315.032,368.239,400.028l-38.755,140.284l-474.457-131.073
			c0,0,108.161-418.181,115.004-416.291C-34.984,76.328-9.675,80.251-11.858,81.489z"/>
		<path style="fill:#013952;" d="M-9.313,92.293c0,0,20.763,318.567,327.537,433.984l-52.231,135.844l-459.439-176.65
			c0,0,148.367-405.662,154.993-403.114C-31.826,84.905-7.019,91.273-9.313,92.293z"/>
		<path style="fill:#002336;" d="M-52.59,111.827c0,0,47.45,315.697,362.835,404.936l-40.635,139.751l-472.654-137.432
			c0,0,113.766-416.691,120.583-414.709C-75.644,106.356-50.39,110.619-52.59,111.827z"/>
	</g>
	<g style="clip-path:url(#SVGID_00000038393871235153482450000012180839313075662475_);">
		<path style="fill:#01B5B4;" d="M644.662,380.869c0,0-65.677-312.415-385.706-383.214l-56.732-17.039l89.195-124.833
			L771.247-34.426c0,0-89.411,422.587-96.332,421.003C667.995,384.994,642.536,382.203,644.662,380.869z"/>
		<path style="fill:#F9F9F9;" d="M644.248,376.045c0,0-48.084-315.602-363.647-404.207l40.354-139.832L793.884-31.511
			c0,0-112.929,416.919-119.75,414.95S642.05,377.258,644.248,376.045z"/>
		<path style="fill:#00587C;" d="M634.589,358.95c0,0-48.123-315.596-363.698-404.161l40.337-139.838L784.174-48.626
			c0,0-112.877,416.933-119.698,414.965C657.655,364.372,632.392,360.163,634.589,358.95z"/>
		<path style="fill:#013952;" d="M635.05,346.486c0,0-20.763-318.568-327.537-433.984l52.23-135.844l459.439,176.65
			c0,0-148.367,405.662-154.993,403.114C657.563,353.875,632.756,347.506,635.05,346.486z"/>
		<path style="fill:#002336;" d="M678.327,326.952c0,0-47.45-315.697-362.835-404.936l40.635-139.751L828.781-80.303
			c0,0-113.766,416.691-120.583,414.709S676.127,328.161,678.327,326.952z"/>
	</g>
	<polygon style="clip-path:url(#SVGID_00000038393871235153482450000012180839313075662475_);fill:#01B5B4;" points="
		389.535,136.462 291.382,136.462 277.534,136.462 179.381,136.462 186.265,146.821 179.381,156.769 277.534,156.769 
		291.382,156.769 389.535,156.769 382.651,146.41 	"/>
	<g style="clip-path:url(#SVGID_00000038393871235153482450000012180839313075662475_);">
		<text transform="matrix(1 0 0 1 149.2666 179.6619)" style="fill:#3B3F3E; font-family:'Montserrat-Bold'; font-size:11.0412px;">THIS CERTIFICATE IS PROUDLY PRESENTED TO</text>
	</g>
	<g style="clip-path:url(#SVGID_00000038393871235153482450000012180839313075662475_);">
		<text transform="matrix(1 0 0 1 161.7852 227.4871)" style="fill:#3B3F3E; font-family:'Montserrat-Bold'; font-size:30.1409px;">Name Surname</text>
	</g>
	<g style="clip-path:url(#SVGID_00000038393871235153482450000012180839313075662475_);">
		<rect x="154.74" y="250.631" style="fill:none;" width="259.436" height="26.967"/>
		<text transform="matrix(1 0 0 1 160.7744 256.1063)"><tspan x="0" y="0" style="fill:#AAAAAA; font-family:'Courgette-Regular'; font-size:7.7123px;">Lorem ipsum dolor sit amet, consectetuer adipiscing elit, sed diam nonummy </tspan><tspan x="-1.491" y="9.255" style="fill:#AAAAAA; font-family:'Courgette-Regular'; font-size:7.7123px;">nibh euismod tincidunt ut laoreet dolore magna aliquam erat volutpat. Ut wisi </tspan><tspan x="64.15" y="18.51" style="fill:#AAAAAA; font-family:'Courgette-Regular'; font-size:7.7123px;">enim ad minim veniam, quis nostrud.</tspan></text>
	</g>
	<g style="clip-path:url(#SVGID_00000038393871235153482450000012180839313075662475_);">
		<text transform="matrix(1 0 0 1 158.155 128.5662)" style="fill:#3B3F3E; font-family:'Montserrat-Bold'; font-size:37.2526px;">CERTIFICATE</text>
	</g>
	<g style="clip-path:url(#SVGID_00000038393871235153482450000012180839313075662475_);">
		<text transform="matrix(1 0 0 1 214.253 152.2653)" style="fill:#F9F9F9; font-family:'Montserrat-Bold'; font-size:14.771px;">OF ACHIEVEMENT</text>
	</g>
	<g style="clip-path:url(#SVGID_00000038393871235153482450000012180839313075662475_);">
		<g>
			
				<line style="fill:none;stroke:#3B3F3E;stroke-width:0.5;stroke-miterlimit:10;" x1="175.381" y1="316.329" x2="256.305" y2="316.329"/>
			<g>
				<text transform="matrix(1 0 0 1 206.4171 325.0584)" style="fill:#3B3F3E; font-family:'Montserrat-Bold'; font-size:5.917px;">DATE</text>
			</g>
		</g>
		<g>
			
				<line style="fill:none;stroke:#3B3F3E;stroke-width:0.5;stroke-miterlimit:10;" x1="312.611" y1="316.329" x2="393.536" y2="316.329"/>
			<g>
				<text transform="matrix(1 0 0 1 335.3402 325.0584)" style="fill:#3B3F3E; font-family:'Montserrat-Bold'; font-size:5.917px;">SIGNATURE</text>
			</g>
		</g>
	</g>
	
		<line style="clip-path:url(#SVGID_00000038393871235153482450000012180839313075662475_);fill:none;stroke:#3B3F3E;stroke-width:0.5;stroke-miterlimit:10;" x1="161.183" y1="237.323" x2="407.733" y2="237.323"/>
	<g style="clip-path:url(#SVGID_00000038393871235153482450000012180839313075662475_);">
		<g>
			<polygon style="fill:#01B5B4;" points="482.628,355.828 476.635,348.701 468.208,352.665 479.766,299.976 494.186,303.139 			"/>
			<polygon style="fill:#01B5B4;" points="495.679,355.795 501.813,348.787 510.159,352.918 499.648,300.01 485.168,302.886 			"/>
		</g>
		<g>
			<g>
				<path style="fill:#01B5B4;" d="M520.609,304.154c0,1.217-3.638,2.203-3.779,3.381c-0.145,1.205,3.152,3.028,2.868,4.184
					c-0.289,1.175-4.057,1.261-4.48,2.377c-0.428,1.129,2.333,3.692,1.776,4.75c-0.561,1.066-4.239,0.244-4.92,1.229
					c-0.684,0.989,1.383,4.14,0.587,5.037c-0.797,0.899-4.173-0.776-5.071,0.021c-0.898,0.796,0.361,4.348-0.629,5.032
					c-0.985,0.681-3.863-1.75-4.93-1.189c-1.058,0.557-0.687,4.307-1.815,4.735c-1.115,0.423-3.324-2.628-4.499-2.34
					c-1.156,0.284-1.698,4.014-2.903,4.159c-1.178,0.142-2.592-3.351-3.808-3.351c-1.217,0-2.63,3.492-3.808,3.351
					c-1.205-0.145-1.747-3.875-2.903-4.159c-1.175-0.289-3.384,2.763-4.5,2.339c-1.129-0.428-0.757-4.179-1.815-4.736
					c-1.066-0.561-3.945,1.87-4.93,1.189c-0.989-0.684,0.269-4.237-0.629-5.032c-0.899-0.797-4.274,0.878-5.071-0.021
					c-0.796-0.898,1.272-4.048,0.588-5.037c-0.681-0.985-4.359-0.163-4.92-1.229c-0.557-1.058,2.204-3.621,1.776-4.75
					c-0.423-1.115-4.191-1.201-4.48-2.376c-0.284-1.156,3.013-2.979,2.868-4.183c-0.142-1.178-3.779-2.165-3.779-3.382
					s3.638-2.203,3.779-3.381c0.145-1.205-3.152-3.028-2.868-4.184c0.289-1.175,4.057-1.261,4.48-2.377
					c0.428-1.129-2.333-3.692-1.776-4.75c0.561-1.066,4.239-0.244,4.92-1.229c0.684-0.989-1.383-4.14-0.587-5.037
					c0.797-0.899,4.172,0.776,5.071-0.021c0.898-0.796-0.361-4.348,0.629-5.032c0.985-0.681,3.863,1.75,4.93,1.189
					c1.058-0.557,0.687-4.307,1.815-4.735c1.115-0.423,3.324,2.628,4.499,2.34c1.156-0.284,1.698-4.014,2.902-4.159
					c1.179-0.142,2.592,3.351,3.809,3.351c1.217,0,2.63-3.492,3.808-3.351c1.205,0.145,1.747,3.875,2.903,4.159
					c1.175,0.289,3.384-2.763,4.5-2.339c1.129,0.428,0.757,4.179,1.815,4.736c1.066,0.561,3.945-1.87,4.93-1.189
					c0.989,0.684-0.269,4.237,0.629,5.033c0.899,0.797,4.275-0.878,5.071,0.021c0.796,0.898-1.272,4.048-0.588,5.037
					c0.681,0.985,4.359,0.163,4.92,1.229c0.557,1.058-2.205,3.621-1.776,4.75c0.423,1.115,4.191,1.201,4.48,2.376
					c0.284,1.156-3.013,2.979-2.868,4.183C516.971,301.951,520.609,302.937,520.609,304.154z"/>
				<path style="fill:none;stroke:#FFFFFF;stroke-width:0.9227;stroke-miterlimit:10;" d="M520.609,304.154
					c0,1.217-3.638,2.203-3.779,3.381c-0.145,1.205,3.152,3.028,2.868,4.184c-0.289,1.175-4.057,1.261-4.48,2.377
					c-0.428,1.129,2.333,3.692,1.776,4.75c-0.561,1.066-4.239,0.244-4.92,1.229c-0.684,0.989,1.383,4.14,0.587,5.037
					c-0.797,0.899-4.173-0.776-5.071,0.021c-0.898,0.796,0.361,4.348-0.629,5.032c-0.985,0.681-3.863-1.75-4.93-1.189
					c-1.058,0.557-0.687,4.307-1.815,4.735c-1.115,0.423-3.324-2.628-4.499-2.34c-1.156,0.284-1.698,4.014-2.903,4.159
					c-1.178,0.142-2.592-3.351-3.808-3.351c-1.217,0-2.63,3.492-3.808,3.351c-1.205-0.145-1.747-3.875-2.903-4.159
					c-1.175-0.289-3.384,2.763-4.5,2.339c-1.129-0.428-0.757-4.179-1.815-4.736c-1.066-0.561-3.945,1.87-4.93,1.189
					c-0.989-0.684,0.269-4.237-0.629-5.032c-0.899-0.797-4.274,0.878-5.071-0.021c-0.796-0.898,1.272-4.048,0.588-5.037
					c-0.681-0.985-4.359-0.163-4.92-1.229c-0.557-1.058,2.204-3.621,1.776-4.75c-0.423-1.115-4.191-1.201-4.48-2.376
					c-0.284-1.156,3.013-2.979,2.868-4.183c-0.142-1.178-3.779-2.165-3.779-3.382s3.638-2.203,3.779-3.381
					c0.145-1.205-3.152-3.028-2.868-4.184c0.289-1.175,4.057-1.261,4.48-2.377c0.428-1.129-2.333-3.692-1.776-4.75
					c0.561-1.066,4.239-0.244,4.92-1.229c0.684-0.989-1.383-4.14-0.587-5.037c0.797-0.899,4.172,0.776,5.071-0.021
					c0.898-0.796-0.361-4.348,0.629-5.032c0.985-0.681,3.863,1.75,4.93,1.189c1.058-0.557,0.687-4.307,1.815-4.735
					c1.115-0.423,3.324,2.628,4.499,2.34c1.156-0.284,1.698-4.014,2.902-4.159c1.179-0.142,2.592,3.351,3.809,3.351
					c1.217,0,2.63-3.492,3.808-3.351c1.205,0.145,1.747,3.875,2.903,4.159c1.175,0.289,3.384-2.763,4.5-2.339
					c1.129,0.428,0.757,4.179,1.815,4.736c1.066,0.561,3.945-1.87,4.93-1.189c0.989,0.684-0.269,4.237,0.629,5.033
					c0.899,0.797,4.275-0.878,5.071,0.021c0.796,0.898-1.272,4.048-0.588,5.037c0.681,0.985,4.359,0.163,4.92,1.229
					c0.557,1.058-2.205,3.621-1.776,4.75c0.423,1.115,4.191,1.201,4.48,2.376c0.284,1.156-3.013,2.979-2.868,4.183
					C516.971,301.951,520.609,302.937,520.609,304.154z"/>
			</g>
			
				<ellipse transform="matrix(0.1896 -0.9819 0.9819 0.1896 97.6488 726.6171)" style="fill:none;stroke:#F9F9F9;stroke-width:0.9227;stroke-miterlimit:10;" cx="489.005" cy="304.154" rx="23.486" ry="23.486"/>
			<g>
				<text transform="matrix(1 0 0 1 480.9847 302.6212)"><tspan x="0" y="0" style="fill:#FFCD3E; font-family:'Montserrat-Bold'; font-size:7.9598px;">BEST</tspan><tspan x="-4.975" y="7.712" style="fill:#FFCD3E; font-family:'Montserrat-Bold'; font-size:7.9598px;">AWARD</tspan></text>
				<g>
					<text transform="matrix(1 0 0 1 480.9847 302.6212)"><tspan x="0" y="0" style="fill:#FFFFFF; font-family:'Montserrat-Bold'; font-size:7.9598px;">BEST</tspan><tspan x="-4.975" y="7.712" style="fill:#FFFFFF; font-family:'Montserrat-Bold'; font-size:7.9598px;">AWARD</tspan></text>
				</g>
			</g>
		</g>
	</g>
	<g style="clip-path:url(#SVGID_00000038393871235153482450000012180839313075662475_);">
		<text transform="matrix(1 0 0 1 27.5361 41.969)"><tspan x="0" y="0" style="font-family:'Montserrat-Bold'; font-size:10.0265px;">COMPANY</tspan><tspan x="44.276" y="0" style="font-family:'Montserrat-Regular'; font-size:10.0265px;">NAME</tspan></text>
	</g>
	<g style="opacity:0.5;clip-path:url(#SVGID_00000038393871235153482450000012180839313075662475_);">
		<text transform="matrix(1 0 0 1 27.5361 48.5471)" style="font-family:'Montserrat-Bold'; font-size:4.695px;">SAMPLE TEXT GOES HERE</text>
	</g>
	<g style="clip-path:url(#SVGID_00000038393871235153482450000012180839313075662475_);">
		<g>
			<g>
				<g>
					<g>
						<g>
							<path style="fill:#01B5B4;" d="M482.567,206.272c-2.638,1.121-5.278,1.949-5.294,1.965c0.018,0.025,0.449-1.834,3.085-3.229
								c2.63-1.422,6.521-1.279,6.505-1.251C486.876,203.777,485.194,205.128,482.567,206.272z"/>
						</g>
						<g>
							<path style="fill:#01B5B4;" d="M482.753,207.232c-2.87-0.313-5.513,1.016-5.473,1.02c0.015,0.017,1.683,0.786,4.207,0.928
								c2.497,0.116,5.42-0.18,5.459-0.167C486.965,209.037,485.601,207.535,482.753,207.232z"/>
						</g>
						<g>
							<path style="fill:#01B5B4;" d="M475.514,208.497c-1.895,1.713-4.01,3.162-4.02,3.182c0.019,0.021-0.141-1.871,1.715-3.851
								c1.849-2.006,5.126-2.801,5.115-2.77C478.338,205.074,477.397,206.765,475.514,208.497z"/>
						</g>
						<g>
							<path style="fill:#01B5B4;" d="M475.978,209.369c-2.549,0.398-4.507,2.328-4.474,2.322c0.014,0.013,1.759,0.331,3.998-0.152
								c2.215-0.502,4.542-1.485,4.576-1.481C480.098,210.078,478.507,208.967,475.978,209.369z"/>
						</g>
						<g>
							<path style="fill:#01B5B4;" d="M469.989,212.367c-1.197,2.115-2.771,4.048-2.776,4.07c0.019,0.016-0.644-1.764,0.478-4.132
								c1.112-2.392,3.76-3.962,3.755-3.93C471.46,208.388,471.172,210.236,469.989,212.367z"/>
						</g>
						<g>
							<path style="fill:#01B5B4;" d="M470.671,213.087c-2.183,1.019-3.473,3.373-3.445,3.36c0.014,0.009,1.746-0.131,3.658-1.159
								c1.888-1.041,3.635-2.556,3.663-2.56C474.566,212.741,472.836,212.068,470.671,213.087z"/>
						</g>
						<g>
							<path style="fill:#01B5B4;" d="M465.992,217.484c-0.544,2.341-1.562,4.614-1.561,4.636c0.019,0.011-1.059-1.537-0.627-4.107
								c0.42-2.59,2.423-4.77,2.424-4.737C466.243,213.285,466.52,215.13,465.992,217.484z"/>
						</g>
						<g>
							<path style="fill:#01B5B4;" d="M466.832,218.001c-1.773,1.539-2.409,4.144-2.386,4.124c0.014,0.005,1.646-0.579,3.184-2.06
								c1.516-1.489,2.698-3.386,2.72-3.397C470.369,216.678,468.588,216.468,466.832,218.001z"/>
						</g>
						<g>
							<path style="fill:#01B5B4;" d="M463.523,223.446c0.065,2.402-0.383,4.867-0.376,4.888c0.02,0.006-1.386-1.214-1.599-3.81
								c-0.227-2.614,1.117-5.232,1.124-5.2C462.685,219.33,463.44,221.036,463.523,223.446z"/>
						</g>
						<g>
							<path style="fill:#01B5B4;" d="M464.46,223.729c-1.318,1.945-1.315,4.633-1.298,4.607c0.013,0.002,1.459-0.989,2.578-2.82
								c1.1-1.833,1.731-3.967,1.748-3.983C467.507,221.537,465.763,221.793,464.46,223.729z"/>
						</g>
						<g>
							<path style="fill:#01B5B4;" d="M462.581,229.854c0.628,2.309,0.766,4.816,0.779,4.835c0.02,0.001-1.625-0.816-2.439-3.276
								c-0.829-2.473-0.16-5.356-0.148-5.326C460.788,226.088,461.933,227.543,462.581,229.854z"/>
						</g>
						<g>
							<path style="fill:#01B5B4;" d="M463.556,229.884c-0.819,2.227-0.191,4.831-0.18,4.802c0.013-0.001,1.184-1.339,1.841-3.404
								c0.639-2.062,0.735-4.291,0.746-4.31C465.981,226.971,464.361,227.671,463.556,229.884z"/>
						</g>
						<g>
							<path style="fill:#01B5B4;" d="M463.168,236.309c1.147,2.075,1.886,4.467,1.904,4.482c0.02-0.005-1.777-0.367-3.147-2.539
								c-1.387-2.182-1.407-5.15-1.389-5.124C460.551,233.126,461.999,234.237,463.168,236.309z"/>
						</g>
						<g>
							<path style="fill:#01B5B4;" d="M464.119,236.085c-0.274,2.372,0.962,4.732,0.967,4.7c0.013-0.005,0.821-1.605,0.97-3.778
								c0.133-2.165-0.291-4.35-0.285-4.372C465.79,232.63,464.382,233.729,464.119,236.085z"/>
						</g>
						<g>
							<path style="fill:#01B5B4;" d="M465.283,242.411c1.622,1.711,2.976,3.83,3,3.839c0.021-0.01-1.842,0.111-3.723-1.634
								c-1.899-1.75-2.625-4.621-2.601-4.601C461.975,240.009,463.638,240.709,465.283,242.411z"/>
						</g>
						<g>
							<path style="fill:#01B5B4;" d="M466.151,241.945c0.315,2.368,2.145,4.326,2.145,4.295c0.012-0.008,0.371-1.765-0.032-3.906
								c-0.418-2.13-1.346-4.137-1.346-4.16C466.934,238.164,465.826,239.596,466.151,241.945z"/>
						</g>
						<g>
							<path style="fill:#01B5B4;" d="M468.925,247.759c2.052,1.228,4.037,2.911,4.066,2.913c0.021-0.015-1.819,0.593-4.165-0.596
								c-2.367-1.19-3.813-3.777-3.783-3.764C465.059,246.301,466.849,246.546,468.925,247.759z"/>
						</g>
						<g>
							<path style="fill:#01B5B4;" d="M469.65,247.083c0.949,2.205,3.357,3.608,3.352,3.577c0.012-0.011-0.167-1.795-1.167-3.755
								c-1.013-1.945-2.431-3.645-2.437-3.666C469.414,243.224,468.693,244.899,469.65,247.083z"/>
						</g>
						<g>
							<path style="fill:#01B5B4;" d="M474.096,251.954c2.436,0.639,5.068,1.718,5.103,1.712c0.021-0.021-1.708,1.059-4.476,0.54
								c-2.791-0.513-4.971-2.627-4.936-2.622C469.803,251.57,471.633,251.337,474.096,251.954z"/>
						</g>
						<g>
							<path style="fill:#01B5B4;" d="M474.616,251.112c1.628,1.87,4.6,2.568,4.588,2.539c0.012-0.015-0.792-1.674-2.435-3.29
								c-1.653-1.598-3.546-2.864-3.558-2.883C473.228,247.46,472.982,249.266,474.616,251.112z"/>
						</g>
						<g>
							<path style="fill:#01B5B4;" d="M480.794,254.596c2.776-0.045,6.069,0.26,6.11,0.244c0.021-0.026-1.509,1.483-4.655,1.741
								c-3.169,0.269-6.1-1.177-6.059-1.182C476.207,255.38,477.99,254.67,480.794,254.596z"/>
						</g>
						<g>
							<path style="fill:#01B5B4;" d="M481.05,253.65c2.351,1.351,5.871,1.199,5.854,1.174c0.011-0.018-1.505-1.377-3.835-2.475
								c-2.338-1.077-4.691-1.787-4.708-1.803C478.379,250.523,478.695,252.324,481.05,253.65z"/>
						</g>
					</g>
					<g>
						<g>
							<path style="fill:#01B5B4;" d="M495.442,206.272c2.638,1.121,5.278,1.949,5.294,1.965c-0.018,0.025-0.449-1.834-3.085-3.229
								c-2.63-1.422-6.521-1.279-6.505-1.251C491.133,203.777,492.815,205.128,495.442,206.272z"/>
						</g>
						<g>
							<path style="fill:#01B5B4;" d="M495.256,207.232c2.87-0.313,5.513,1.016,5.473,1.02c-0.015,0.017-1.683,0.786-4.207,0.928
								c-2.497,0.116-5.42-0.18-5.459-0.167C491.044,209.037,492.409,207.535,495.256,207.232z"/>
						</g>
						<g>
							<path style="fill:#01B5B4;" d="M502.495,208.497c1.895,1.713,4.01,3.162,4.02,3.182c-0.019,0.021,0.141-1.871-1.715-3.851
								c-1.849-2.006-5.126-2.801-5.115-2.77C499.671,205.074,500.613,206.765,502.495,208.497z"/>
						</g>
						<g>
							<path style="fill:#01B5B4;" d="M502.031,209.369c2.549,0.398,4.507,2.328,4.474,2.322c-0.014,0.013-1.758,0.331-3.998-0.152
								c-2.215-0.502-4.542-1.485-4.576-1.481C497.911,210.078,499.502,208.967,502.031,209.369z"/>
						</g>
						<g>
							<path style="fill:#01B5B4;" d="M508.02,212.367c1.197,2.115,2.771,4.048,2.776,4.07c-0.019,0.016,0.644-1.764-0.478-4.132
								c-1.112-2.392-3.76-3.962-3.755-3.93C506.549,208.388,506.837,210.236,508.02,212.367z"/>
						</g>
						<g>
							<path style="fill:#01B5B4;" d="M507.338,213.087c2.183,1.019,3.473,3.373,3.445,3.36c-0.014,0.009-1.746-0.131-3.658-1.159
								c-1.888-1.041-3.635-2.556-3.663-2.56C503.444,212.741,505.173,212.068,507.338,213.087z"/>
						</g>
						<g>
							<path style="fill:#01B5B4;" d="M512.018,217.484c0.544,2.341,1.562,4.614,1.561,4.636c-0.019,0.011,1.059-1.537,0.627-4.107
								c-0.42-2.59-2.423-4.77-2.424-4.737C511.767,213.285,511.49,215.13,512.018,217.484z"/>
						</g>
						<g>
							<path style="fill:#01B5B4;" d="M511.178,218.001c1.773,1.539,2.409,4.144,2.386,4.124c-0.014,0.005-1.646-0.579-3.184-2.06
								c-1.516-1.489-2.698-3.386-2.72-3.397C507.641,216.678,509.421,216.468,511.178,218.001z"/>
						</g>
						<g>
							<path style="fill:#01B5B4;" d="M514.487,223.446c-0.065,2.402,0.383,4.867,0.376,4.888c-0.02,0.006,1.386-1.214,1.599-3.81
								c0.227-2.614-1.117-5.232-1.124-5.2C515.324,219.33,514.569,221.036,514.487,223.446z"/>
						</g>
						<g>
							<path style="fill:#01B5B4;" d="M513.549,223.729c1.318,1.945,1.315,4.633,1.298,4.607c-0.013,0.002-1.459-0.989-2.579-2.82
								c-1.1-1.833-1.731-3.967-1.748-3.983C510.502,221.537,512.246,221.793,513.549,223.729z"/>
						</g>
						<g>
							<path style="fill:#01B5B4;" d="M515.428,229.854c-0.628,2.309-0.766,4.816-0.779,4.835c-0.02,0.001,1.625-0.816,2.439-3.276
								c0.829-2.473,0.16-5.356,0.148-5.326C517.221,226.088,516.076,227.543,515.428,229.854z"/>
						</g>
						<g>
							<path style="fill:#01B5B4;" d="M514.453,229.884c0.818,2.227,0.191,4.831,0.18,4.802c-0.013-0.001-1.184-1.339-1.841-3.404
								c-0.639-2.062-0.735-4.291-0.746-4.31C512.029,226.971,513.648,227.671,514.453,229.884z"/>
						</g>
						<g>
							<path style="fill:#01B5B4;" d="M514.841,236.309c-1.148,2.075-1.886,4.467-1.904,4.482c-0.02-0.005,1.777-0.367,3.147-2.539
								c1.387-2.182,1.407-5.15,1.389-5.124C517.458,233.126,516.01,234.237,514.841,236.309z"/>
						</g>
						<g>
							<path style="fill:#01B5B4;" d="M513.89,236.085c0.274,2.372-0.962,4.732-0.968,4.7c-0.013-0.005-0.821-1.605-0.97-3.778
								c-0.133-2.165,0.291-4.35,0.285-4.372C512.22,232.63,513.627,233.729,513.89,236.085z"/>
						</g>
						<g>
							<path style="fill:#01B5B4;" d="M512.727,242.411c-1.622,1.711-2.977,3.83-3,3.839c-0.02-0.01,1.842,0.111,3.723-1.634
								c1.899-1.75,2.625-4.621,2.601-4.601C516.034,240.009,514.371,240.709,512.727,242.411z"/>
						</g>
						<g>
							<path style="fill:#01B5B4;" d="M511.859,241.945c-0.315,2.368-2.145,4.326-2.145,4.295c-0.012-0.008-0.371-1.765,0.032-3.906
								c0.418-2.13,1.346-4.137,1.346-4.16C511.075,238.164,512.183,239.596,511.859,241.945z"/>
						</g>
						<g>
							<path style="fill:#01B5B4;" d="M509.084,247.759c-2.051,1.228-4.037,2.911-4.066,2.913c-0.021-0.015,1.819,0.593,4.165-0.596
								c2.367-1.19,3.813-3.777,3.783-3.764C512.951,246.301,511.16,246.546,509.084,247.759z"/>
						</g>
						<g>
							<path style="fill:#01B5B4;" d="M508.36,247.083c-0.949,2.205-3.357,3.608-3.352,3.577c-0.012-0.011,0.167-1.795,1.167-3.755
								c1.013-1.945,2.431-3.645,2.437-3.666C508.596,243.224,509.317,244.899,508.36,247.083z"/>
						</g>
						<g>
							<path style="fill:#01B5B4;" d="M503.913,251.954c-2.436,0.639-5.068,1.718-5.103,1.712c-0.021-0.021,1.708,1.059,4.476,0.54
								c2.791-0.513,4.971-2.627,4.936-2.622C508.206,251.57,506.376,251.337,503.913,251.954z"/>
						</g>
						<g>
							<path style="fill:#01B5B4;" d="M503.393,251.112c-1.627,1.87-4.599,2.568-4.588,2.539c-0.012-0.015,0.792-1.674,2.435-3.29
								c1.653-1.598,3.546-2.864,3.558-2.883C504.781,247.46,505.027,249.266,503.393,251.112z"/>
						</g>
						<g>
							<path style="fill:#01B5B4;" d="M497.215,254.596c-2.776-0.045-6.069,0.26-6.11,0.244c-0.022-0.026,1.509,1.483,4.655,1.741
								c3.169,0.269,6.099-1.177,6.059-1.182C501.802,255.38,500.02,254.67,497.215,254.596z"/>
						</g>
						<g>
							<path style="fill:#01B5B4;" d="M496.959,253.65c-2.351,1.351-5.871,1.199-5.854,1.174c-0.011-0.018,1.505-1.377,3.835-2.475
								c2.338-1.077,4.691-1.787,4.708-1.803C499.63,250.523,499.314,252.324,496.959,253.65z"/>
						</g>
					</g>
				</g>
			</g>
			<g>
				
					<text transform="matrix(1 0 0 1 474.5785 232.2543)" style="fill:#01B5B4; font-family:'Montserrat-Bold'; font-size:7.1141px;">PREMIUM</text>
			</g>
		</g>
		<g>
			<line style="fill:none;stroke:#01B5B4;stroke-miterlimit:10;" x1="474.928" y1="220.715" x2="503.082" y2="220.715"/>
			<line style="fill:none;stroke:#01B5B4;stroke-miterlimit:10;" x1="474.928" y1="239.639" x2="503.082" y2="239.639"/>
		</g>
	</g>
</g>
</svg>
