<?xml version="1.0" encoding="utf-8"?>
<!-- Generator: Adobe Illustrator 27.5.0, SVG Export Plug-In . SVG Version: 6.00 Build 0)  -->
<svg version="1.1" id="Print" xmlns="http://www.w3.org/2000/svg" xmlns:xlink="http://www.w3.org/1999/xlink" x="0px" y="0px"
	 viewBox="0 0 841.89 595.28" style="enable-background:new 0 0 841.89 595.28;" xml:space="preserve">
<g>
	<path style="fill:#0C334D;" d="M850.332,231.229v14.27C850.133,241.409,850.123,236.669,850.332,231.229z"/>
	<rect x="-8.554" y="-8.438" style="fill:#FFFFFF;" width="858.89" height="612.28"/>
	<g>
		<g>
			<g>
				<rect x="165.793" y="510.325" style="fill:#383938;" width="112.018" height="1.469"/>
				<g>
					<text transform="matrix(1 0 0 1 198.5649 532.3325)" style="fill:#383938; font-family:'Roboto-Light'; font-size:18.4531px;">DATE</text>
				</g>
			</g>
			<g>
				<rect x="563.971" y="511.253" style="fill:#383938;" width="112.02" height="1.367"/>
				
					<line style="fill:none;stroke:#383938;stroke-width:2;stroke-miterlimit:10;" x1="171.963" y1="368.953" x2="619.861" y2="368.953"/>
				<g>
					
						<text transform="matrix(1.0738 0 0 1 570.2637 531.7485)" style="fill:#383938; font-family:'Roboto-Light'; font-size:17.1856px;">SIGNATURE</text>
				</g>
			</g>
		</g>
		<g>
			<text transform="matrix(1 0 0 1 212.9629 253.2476)"><tspan x="0" y="0" style="fill:#50535C; font-family:'Roboto-Light'; font-size:20.9447px;">THIS CERTIFICATE IS PROUDLY PRESENTED</tspan><tspan x="39.588" y="25.134" style="fill:#50535C; font-family:'Roboto-Light'; font-size:20.9447px;">FOR HONORABILE ARCHIEMENT TO</tspan></text>
		</g>
		<g>
			<rect x="149.533" y="388.181" style="fill:none;" width="542.716" height="94.82"/>
			<text transform="matrix(1 0 0 1 149.5332 403.8901)"><tspan x="0" y="0" style="fill:#50535C; font-family:'Roboto-Light'; font-size:20.9447px;">Lorem</tspan><tspan x="59.194" y="0" style="fill:#50535C; font-family:'Roboto-Light'; font-size:20.9447px; letter-spacing:3;"> </tspan><tspan x="68.113" y="0" style="fill:#50535C; font-family:'Roboto-Light'; font-size:20.9447px;">ipsum</tspan><tspan x="125.088" y="0" style="fill:#50535C; font-family:'Roboto-Light'; font-size:20.9447px; letter-spacing:3;"> </tspan><tspan x="134.007" y="0" style="fill:#50535C; font-family:'Roboto-Light'; font-size:20.9447px;">dolor</tspan><tspan x="180.847" y="0" style="fill:#50535C; font-family:'Roboto-Light'; font-size:20.9447px; letter-spacing:3;"> </tspan><tspan x="189.767" y="0" style="fill:#50535C; font-family:'Roboto-Light'; font-size:20.9447px;">sit</tspan><tspan x="211.796" y="0" style="fill:#50535C; font-family:'Roboto-Light'; font-size:20.9447px; letter-spacing:3;"> </tspan><tspan x="220.715" y="0" style="fill:#50535C; font-family:'Roboto-Light'; font-size:20.9447px;">amet,</tspan><tspan x="272.055" y="0" style="fill:#50535C; font-family:'Roboto-Light'; font-size:20.9447px; letter-spacing:3;"> </tspan><tspan x="280.975" y="0" style="fill:#50535C; font-family:'Roboto-Light'; font-size:20.9447px;">consectetuer</tspan><tspan x="400.867" y="0" style="fill:#50535C; font-family:'Roboto-Light'; font-size:20.9447px; letter-spacing:3;"> </tspan><tspan x="409.786" y="0" style="fill:#50535C; font-family:'Roboto-Light'; font-size:20.9447px;">adipiscing</tspan><tspan x="502.852" y="0" style="fill:#50535C; font-family:'Roboto-Light'; font-size:20.9447px; letter-spacing:3;"> </tspan><tspan x="511.771" y="0" style="fill:#50535C; font-family:'Roboto-Light'; font-size:20.9447px;">elit, </tspan><tspan x="0" y="25.133" style="fill:#50535C; font-family:'Roboto-Light'; font-size:20.9447px;">sed</tspan><tspan x="33.064" y="25.133" style="fill:#50535C; font-family:'Roboto-Light'; font-size:20.9447px; letter-spacing:-1;"> </tspan><tspan x="37.141" y="25.133" style="fill:#50535C; font-family:'Roboto-Light'; font-size:20.9447px;">diam</tspan><tspan x="83.254" y="25.133" style="fill:#50535C; font-family:'Roboto-Light'; font-size:20.9447px; letter-spacing:-1;"> </tspan><tspan x="87.332" y="25.133" style="fill:#50535C; font-family:'Roboto-Light'; font-size:20.9447px;">nonummy</tspan><tspan x="180.653" y="25.133" style="fill:#50535C; font-family:'Roboto-Light'; font-size:20.9447px; letter-spacing:-1;"> </tspan><tspan x="184.729" y="25.133" style="fill:#50535C; font-family:'Roboto-Light'; font-size:20.9447px;">nibh</tspan><tspan x="224.032" y="25.133" style="fill:#50535C; font-family:'Roboto-Light'; font-size:20.9447px; letter-spacing:-1;"> </tspan><tspan x="228.109" y="25.133" style="fill:#50535C; font-family:'Roboto-Light'; font-size:20.9447px;">euismod</tspan><tspan x="307.665" y="25.133" style="fill:#50535C; font-family:'Roboto-Light'; font-size:20.9447px; letter-spacing:-1;"> </tspan><tspan x="311.742" y="25.133" style="fill:#50535C; font-family:'Roboto-Light'; font-size:20.9447px;">tincidunt</tspan><tspan x="391.534" y="25.133" style="fill:#50535C; font-family:'Roboto-Light'; font-size:20.9447px; letter-spacing:-1;"> </tspan><tspan x="395.611" y="25.133" style="fill:#50535C; font-family:'Roboto-Light'; font-size:20.9447px;">ut</tspan><tspan x="413.846" y="25.133" style="fill:#50535C; font-family:'Roboto-Light'; font-size:20.9447px; letter-spacing:-1;"> </tspan><tspan x="417.922" y="25.133" style="fill:#50535C; font-family:'Roboto-Light'; font-size:20.9447px;">laoreet</tspan><tspan x="480.982" y="25.133" style="fill:#50535C; font-family:'Roboto-Light'; font-size:20.9447px; letter-spacing:-1;"> </tspan><tspan x="485.06" y="25.133" style="fill:#50535C; font-family:'Roboto-Light'; font-size:20.9447px;">dolore </tspan><tspan x="137.319" y="50.267" style="fill:#50535C; font-family:'Roboto-Light'; font-size:20.9447px;">magna aliquam erat volutpat.</tspan></text>
		</g>
		<g>
			<text transform="matrix(1 0 0 1 224.6704 175.98)" style="fill:#0C334D; font-family:'Crimson-Semibold'; font-size:63.315px;">certificate</text>
		</g>
		<g>
			
				<text transform="matrix(1 0 0 1 247.1616 352.0786)" style="fill:#0C334D; font-family:'GreatVibes-Regular'; font-size:64.0019px;">Name Surname</text>
		</g>
		<g>
			<text transform="matrix(1 0 0 1 313.5741 214.3339)" style="fill:#383938; font-family:'Roboto-Medium'; font-size:25.8907px;">of achievement</text>
		</g>
	</g>
	<g>
		<path style="fill:#3585C1;" d="M850.447-8.441H-8.558v300.837C51.955-148.116,609.605,273.353,850.447-8.441z"/>
		<path style="fill:#62B1E2;" d="M697.023-8.441H-8.387v300.837C58.055-145.825,488.533,121.162,697.023-8.441z"/>
		<path style="fill:#A2DDF8;" d="M163.946-8.441H-8.387v300.837C5.946,67.063,93.946,25.063,163.946-8.441z"/>
		<g>
			<path style="fill:#1F6691;" d="M157.946,64.536C82.48,78.843,0.842,185.001-8.158,291.063
				C-1.196,280.611,2.815,100.829,191.048,80.19c192.599-16.321,531.378,88.537,659.235-88.631
				C701.443,148.947,333.507,31.267,157.946,64.536z"/>
		</g>
	</g>
	<g>
		<defs>
			<rect id="SVGID_1_" x="-8.554" y="-8.438" width="858.89" height="612.28"/>
		</defs>
		<clipPath id="SVGID_00000072991707817548330250000014912670309390121898_">
			<use xlink:href="#SVGID_1_"  style="overflow:visible;"/>
		</clipPath>
		<g style="clip-path:url(#SVGID_00000072991707817548330250000014912670309390121898_);">
			<path style="fill:#3585C1;" d="M-11.304,654.199h859.005V353.361C787.188,793.873,229.538,372.404-11.304,654.199z"/>
			<path style="fill:#62B1E2;" d="M142.119,654.199h705.41V353.361C781.088,791.582,350.609,524.596,142.119,654.199z"/>
			<path style="fill:#A2DDF8;" d="M675.197,654.199h172.332V353.361C833.197,578.695,745.197,620.695,675.197,654.199z"/>
			<g>
				<path style="fill:#1F6691;" d="M681.197,573.695c75.465-15.783,158-102,167-219c-6.963,11.529-11.869,178.965-200.102,201.732
					c-192.6,18.004-531.379-97.669-659.235,97.772C137.7,480.578,505.637,610.394,681.197,573.695z"/>
			</g>
		</g>
	</g>
	<g>
		<g>
			<polygon style="fill:#0C334D;" points="775.568,286.058 726.313,252.145 677.053,286.058 677.053,-8.563 775.568,-8.563 			"/>
			<g>
				<defs>
					<polygon id="SVGID_00000145772750121352907830000010417964687005848965_" points="775.568,286.058 726.313,252.145 
						677.053,286.058 677.053,-8.563 775.568,-8.563 					"/>
				</defs>
				<clipPath id="SVGID_00000004537516976305290630000009225273240569207227_">
					<use xlink:href="#SVGID_00000145772750121352907830000010417964687005848965_"  style="overflow:visible;"/>
				</clipPath>
				<g style="clip-path:url(#SVGID_00000004537516976305290630000009225273240569207227_);">
					
						<line style="fill:none;stroke:#3585C1;stroke-width:3;stroke-miterlimit:10;" x1="684.56" y1="-8.938" x2="684.56" y2="292.397"/>
					
						<line style="fill:none;stroke:#3585C1;stroke-width:3;stroke-miterlimit:10;" x1="768.06" y1="-8.938" x2="768.06" y2="292.397"/>
				</g>
			</g>
		</g>
		<g>
			<g>
				<path style="fill:#27678F;" d="M808.023,135.788c0,45.128-36.586,81.713-81.713,81.713c-45.133,0-81.715-36.585-81.715-81.713
					c0-45.128,36.582-81.713,81.715-81.713C771.438,54.075,808.023,90.661,808.023,135.788z"/>
				<path style="fill:#FFFFFF;" d="M796.06,135.788c0,38.525-31.23,69.751-69.75,69.751c-38.525,0-69.752-31.227-69.752-69.751
					c0-38.523,31.227-69.751,69.752-69.751C764.83,66.038,796.06,97.265,796.06,135.788z"/>
				<path style="fill:#F8991D;" d="M791.287,135.788c0,35.887-29.092,64.979-64.977,64.979c-35.891,0-64.982-29.092-64.982-64.979
					c0-35.889,29.092-64.98,64.982-64.98C762.195,70.808,791.287,99.899,791.287,135.788z"/>
			</g>
			<g>
				<g>
					<g>
						
							<text transform="matrix(1 0 0 1 679.9907 126.1514)" style="fill:#FBFCFC; font-family:'Crimson-Semibold'; font-size:39.7957px;">Best</text>
					</g>
					<g>
						<text transform="matrix(1 0 0 1 682.2993 152.1929)"><tspan x="0" y="0" style="fill:#FBFCFC; font-family:'Roboto-Medium'; font-size:24.8143px;">AWARD</tspan><tspan x="15.072" y="29.777" style="fill:#FBFCFC; font-family:'Roboto-Medium'; font-size:24.8143px;">2018</tspan></text>
					</g>
				</g>
			</g>
		</g>
	</g>
</g>
</svg>
